<?xml version="1.0" encoding="UTF-8"?>
<svg version="1.1" xmlns="http://www.w3.org/2000/svg" width="500" height="500">
<path d="M0 0 C0.77415756 -0.00701431 1.54831512 -0.01402863 2.34593201 -0.02125549 C4.82963966 -0.03865017 7.31310867 -0.04510749 9.796875 -0.046875 C11.07143051 -0.04788712 11.07143051 -0.04788712 12.37173462 -0.04891968 C25.30371635 -0.03260586 37.87311747 0.39737954 50.546875 3.203125 C51.32901367 3.37473145 52.11115234 3.54633789 52.91699219 3.72314453 C71.28137714 7.89822514 89.04939156 14.09480305 105.546875 23.203125 C106.24941406 23.58871582 106.95195312 23.97430664 107.67578125 24.37158203 C117.62709262 29.88797311 126.76775039 35.97438558 135.546875 43.203125 C136.0826416 43.63737793 136.6184082 44.07163086 137.17041016 44.51904297 C150.24400021 55.13382077 161.54559272 66.64173917 171.546875 80.203125 C172.72056641 81.79447266 172.72056641 81.79447266 173.91796875 83.41796875 C182.99069659 96.13865649 190.38584312 109.85747446 196.546875 124.203125 C197.05992187 125.39679688 197.57296875 126.59046875 198.1015625 127.8203125 C201.42694795 135.93989322 203.71991596 144.24735085 205.796875 152.765625 C206.0431665 153.76964355 206.28945801 154.77366211 206.54321289 155.80810547 C209.95691633 170.41333201 210.95689196 184.64657298 210.921875 199.578125 C210.92105927 200.89256088 210.92105927 200.89256088 210.92022705 202.23355103 C210.87865243 216.85767176 209.90337439 230.92064137 206.546875 245.203125 C206.23339111 246.55494873 206.23339111 246.55494873 205.91357422 247.93408203 C193.51881177 299.47215421 159.7238064 343.7778059 115.10131836 371.73535156 C91.3906727 386.18428034 65.05429192 395.47998736 37.546875 399.203125 C36.89364258 399.30262451 36.24041016 399.40212402 35.56738281 399.50463867 C-15.4472575 406.41673877 -68.40987492 391.91615458 -109.453125 361.203125 C-134.2590998 342.2130588 -154.27816891 319.10791471 -168.453125 291.203125 C-168.81100098 290.51041504 -169.16887695 289.81770508 -169.53759766 289.10400391 C-181.63537439 265.4935571 -189.49891439 238.26812858 -189.65625 211.62890625 C-189.66330963 210.83127365 -189.67036926 210.03364105 -189.67764282 209.21183777 C-189.90698575 175.67257319 -189.90698575 175.67257319 -186.453125 160.203125 C-186.25444824 159.29288574 -186.05577148 158.38264648 -185.85107422 157.44482422 C-177.24977009 119.15452425 -158.19435163 86.59803231 -131.453125 58.203125 C-130.83566406 57.543125 -130.21820313 56.883125 -129.58203125 56.203125 C-97.17033935 22.62554491 -46.53963605 0.2848866 0 0 Z " fill="#F66B7C" transform="translate(239.453125,49.796875)"/>
<path d="M0 0 C3.03918166 0.61161798 5.94010504 1.5160747 8.8828125 2.484375 C10.10881668 2.86967377 10.10881668 2.86967377 11.35958862 3.26275635 C13.95205435 4.07982413 16.53857973 4.91401472 19.125 5.75 C22.52179997 6.8333177 25.92079564 7.90961733 29.3203125 8.984375 C30.14668213 9.24688049 30.97305176 9.50938599 31.82446289 9.77984619 C38.11206575 11.76222837 44.43773285 13.50287207 50.81787109 15.15917969 C54.84327381 16.22281993 58.79485671 17.45341681 62.75 18.75 C70.32569509 21.18261291 77.93189817 23.49569484 85.5625 25.75 C86.68454834 26.08153076 87.80659668 26.41306152 88.96264648 26.75463867 C94.75061367 28.46113603 100.54105604 30.15898653 106.33332825 31.85079956 C122.95376458 36.70587888 139.54214116 41.61236881 156 47 C157.14210938 47.36738281 158.28421875 47.73476562 159.4609375 48.11328125 C162.20403024 49.07125364 163.46502162 49.52697927 165 52 C165.501339 55.86747226 165.58052261 58.10164127 163.4375 61.41796875 C160.44677624 64.58602709 157.25417892 66.66461082 153.5625 68.9375 C152.05366023 69.88899796 150.54590119 70.8422112 149.0390625 71.796875 C148.2337207 72.30541016 147.42837891 72.81394531 146.59863281 73.33789062 C141.83303199 76.38601261 137.13839961 79.54088164 132.4375 82.6875 C131.50301025 83.31197021 130.56852051 83.93644043 129.60571289 84.57983398 C127.40309518 86.05216101 125.20117954 87.52552411 123 89 C124.45157902 92.35694122 126.27435635 94.48530232 128.89892578 97.01489258 C129.6996048 97.79282669 130.50028381 98.5707608 131.32522583 99.37226868 C132.18985443 100.20461533 133.05448303 101.03696198 133.9453125 101.89453125 C135.7624538 103.6717748 137.57883707 105.44979368 139.39453125 107.22851562 C142.26196892 110.02782152 145.13291604 112.82280196 148.02001953 115.60180664 C150.80269162 118.28776246 153.56281314 120.99527061 156.3203125 123.70703125 C157.18898956 124.53330521 158.05766663 125.35957916 158.95266724 126.21089172 C164.82260773 132.02922401 164.82260773 132.02922401 165.70532227 136.85986328 C165.0041345 139.98159296 164.59237125 141.29309411 162.39453125 143.53515625 C161.75467285 144.20305176 161.11481445 144.87094727 160.45556641 145.55908203 C159.64522949 146.36458496 158.83489258 147.17008789 158 148 C156.94208154 149.07947473 155.88537292 150.16013589 154.82958984 151.24169922 C151.77986596 154.35241226 148.70436988 157.43625327 145.61889648 160.51147461 C143.67118197 162.45377265 141.7289407 164.4014314 139.78710938 166.34960938 C138.54980017 167.58625875 137.31218132 168.82259842 136.07421875 170.05859375 C135.49403488 170.64080185 134.91385101 171.22300995 134.31608582 171.82286072 C129.3131019 176.79652305 129.3131019 176.79652305 124.84423828 177.48901367 C119.36533598 176.79205944 117.18811492 174.07772709 113.4921875 170.17578125 C112.80367706 169.47736618 112.11516663 168.77895111 111.40579224 168.05937195 C109.21185247 165.82633748 107.04346433 163.57025403 104.875 161.3125 C103.40918562 159.811554 101.94175346 158.31218611 100.47265625 156.81445312 C97.76961116 154.0543328 95.07627731 151.28547156 92.39404297 148.50512695 C86.76337998 142.60973506 86.76337998 142.60973506 80.6875 137.1875 C79.800625 136.465625 78.91375 135.74375 78 135 C74.62387424 138.11118316 72.30451486 141.42617272 69.875 145.3125 C69.0857162 146.56188134 68.29531065 147.8105546 67.50390625 149.05859375 C67.09543457 149.70425293 66.68696289 150.34991211 66.26611328 151.01513672 C50.95087593 175.02456204 50.95087593 175.02456204 47 177 C40.63629748 177.46281473 40.63629748 177.46281473 38.39892578 175.83544922 C36.5873066 173.45852898 35.91292893 171.24680101 35.0546875 168.3828125 C34.70462646 167.23353271 34.35456543 166.08425293 33.99389648 164.90014648 C33.44004272 163.03144897 33.44004272 163.03144897 32.875 161.125 C32.48021877 159.81749622 32.08445021 158.51029019 31.68774414 157.20336914 C30.86357548 154.4860999 30.04369082 151.76758707 29.22607422 149.04833984 C27.71051078 144.02437514 26.13355901 139.01998349 24.56005859 134.01391602 C20.76743323 121.93079967 17.18391231 109.80093678 13.74023438 97.61401367 C11.69633074 90.39095283 9.54357416 83.22307287 7.265625 76.0703125 C5.65231222 70.94765535 4.17897673 65.78414419 2.6875 60.625 C-0.48775816 49.65177184 -3.82194462 38.73163636 -7.203125 27.8203125 C-7.50460449 26.84304199 -7.80608398 25.86577148 -8.11669922 24.85888672 C-8.70237633 22.96328723 -9.29249979 21.06905542 -9.88720703 19.17626953 C-10.15903809 18.29825684 -10.43086914 17.42024414 -10.7109375 16.515625 C-10.95118652 15.74766602 -11.19143555 14.97970703 -11.43896484 14.18847656 C-12.56929997 9.77928419 -12.68541749 5.82777998 -11.0625 1.5 C-7.69805272 -0.94687075 -4.03442728 -0.33324987 0 0 Z " fill="#FDF9F9" transform="translate(204,192)"/>
<path d="M0 0 C8.46169939 2.0090627 16.84541485 4.19090199 25.16796875 6.71875 C26.02446518 6.97729767 26.88096161 7.23584534 27.76341248 7.50222778 C30.50972324 8.33226432 33.25501889 9.16557734 36 10 C36.90530457 10.27511414 37.81060913 10.55022827 38.74334717 10.8336792 C44.37230409 12.54540513 49.99982508 14.26182084 55.62704468 15.97924805 C70.51453548 20.52215451 85.40810762 25.03676016 100.34130859 29.42724609 C109.60171768 32.15762854 118.80918201 35.04460908 128 38 C128 38.99 128 39.98 128 41 C125.53455881 42.80636285 123.10208941 44.41238898 120.5 46 C118.94661836 46.97449601 117.39456887 47.95111823 115.84375 48.9296875 C115.04453125 49.43209961 114.2453125 49.93451172 113.421875 50.45214844 C109.55505802 52.92348106 105.77488382 55.51614354 102 58.125 C101.31228516 58.59808594 100.62457031 59.07117188 99.91601562 59.55859375 C96.81788825 61.60498543 96.81788825 61.60498543 94 64 C93.41924322 67.1941623 93.24754297 68.90879889 94 72 C101.16078595 82.20829762 111.74881841 90.85970009 120.5625 99.625 C122.15973887 101.21721355 123.756746 102.80965961 125.35351562 104.40234375 C129.23300916 108.27091406 133.11535466 112.13660329 137 116 C135.42411996 119.3247945 133.7182851 121.51631617 131.0859375 124.109375 C130.32539063 124.86347656 129.56484375 125.61757813 128.78125 126.39453125 C127.9871875 127.17183594 127.193125 127.94914062 126.375 128.75 C125.57320313 129.54277344 124.77140625 130.33554687 123.9453125 131.15234375 C121.96797154 133.10614493 119.98611091 135.05512103 118 137 C113.87991151 135.37502871 111.1383356 132.39260442 108.09765625 129.29296875 C107.53807724 128.73055984 106.97849823 128.16815094 106.40196228 127.58869934 C104.61737822 125.79295299 102.83986445 123.99038953 101.0625 122.1875 C99.87090689 120.98586765 98.67885424 119.7846908 97.48632812 118.58398438 C95.28497457 116.36633969 93.08636865 114.14604731 90.89086914 111.92260742 C88.27142213 109.27084136 85.63694249 106.63437432 83 104 C82.29617188 103.28457031 81.59234375 102.56914062 80.8671875 101.83203125 C79.88105469 100.83236328 79.88105469 100.83236328 78.875 99.8125 C78.21242188 99.13832031 77.54984375 98.46414063 76.8671875 97.76953125 C74.05421458 95.10368035 72.13099307 94.02886288 68.3125 93.1875 C66.11756324 93.13755343 66.11756324 93.13755343 64 94 C62.01273997 96.06354557 62.01273997 96.06354557 60.25390625 98.7578125 C59.56159912 99.75546631 58.86929199 100.75312012 58.15600586 101.78100586 C53.88316474 108.16051103 49.65096982 114.56397666 45.47265625 121.00585938 C44.79332031 122.03904297 44.11398437 123.07222656 43.4140625 124.13671875 C42.8051416 125.07217529 42.1962207 126.00763184 41.56884766 126.97143555 C40.79226807 127.97557495 40.79226807 127.97557495 40 129 C39.34 129 38.68 129 38 129 C37.79955078 128.31824707 37.59910156 127.63649414 37.39257812 126.93408203 C33.73118339 114.4948878 30.04033647 102.06884886 26.1875 89.6875 C22.2485009 77.01614224 18.57808414 64.27021601 14.9440918 51.50854492 C12.53133301 43.06900723 9.955327 34.72189564 7.13598633 26.40942383 C5.51359708 21.54016402 4.07930934 16.62677063 2.6875 11.6875 C2.42388672 10.77033203 2.16027344 9.85316406 1.88867188 8.90820312 C0 2.26105925 0 2.26105925 0 0 Z " fill="#F76573" transform="translate(212,212)"/>
<path d="M0 0 C-0.33 0.66 -0.66 1.32 -1 2 C-1.928125 2.28875 -2.85625 2.5775 -3.8125 2.875 C-7.07395213 3.76833782 -7.07395213 3.76833782 -9.125 6.125 C-10.053125 7.053125 -10.053125 7.053125 -11 8 C-12.32 8 -13.64 8 -15 8 C-15.70125 8.144375 -16.4025 8.28875 -17.125 8.4375 C-21.38280983 9.27054975 -25.68241579 9.60596804 -30 10 C-30 10.99 -30 11.98 -30 13 C-30.66 13 -31.32 13 -32 13 C-32.33 13.99 -32.66 14.98 -33 16 C-33.495 14.515 -33.495 14.515 -34 13 C-34.66 13.66 -35.32 14.32 -36 15 C-36 15.66 -36 16.32 -36 17 C-37.32 17 -38.64 17 -40 17 C-44.35960438 17.93764766 -44.35960438 17.93764766 -47.3125 21 C-47.539375 21.66 -47.76625 22.32 -48 23 C-48.33 23.66 -48.66 24.32 -49 25 C-50.32 25 -51.64 25 -53 25 C-53.495 24.01 -53.495 24.01 -54 23 C-54.598125 23.474375 -55.19625 23.94875 -55.8125 24.4375 C-58 26 -58 26 -61 27 C-61.73323796 29.01508358 -61.73323796 29.01508358 -62 31 C-63.258125 31.268125 -64.51625 31.53625 -65.8125 31.8125 C-68.99448801 32.59532537 -71.00244311 33.25335928 -73 36 C-72.34 36.66 -71.68 37.32 -71 38 C-72.134375 38.268125 -73.26875 38.53625 -74.4375 38.8125 C-75.613125 39.204375 -76.78875 39.59625 -78 40 C-78.33 40.99 -78.66 41.98 -79 43 C-79.66 43 -80.32 43 -81 43 C-80.67 43.99 -80.34 44.98 -80 46 C-80.99 46.99 -80.99 46.99 -82 48 C-83.66666667 48 -85.33333333 48 -87 48 C-90.48874607 49.23132214 -91.91758731 51.01219049 -94 54 C-95.78289008 55.944971 -97.40724538 57.27149692 -99.625 58.75 C-102.75189417 61.7123208 -102.62469896 63.79662836 -103 68 C-103.6875 70.375 -103.6875 70.375 -105 72 C-108.125 72.75 -108.125 72.75 -111 73 C-110.814375 73.598125 -110.62875 74.19625 -110.4375 74.8125 C-110 77 -110 77 -111 80 C-114 81 -114 81 -117 80 C-117.17015625 80.55429688 -117.3403125 81.10859375 -117.515625 81.6796875 C-119.53577709 87.71865278 -119.53577709 87.71865278 -122.0625 89.25 C-122.701875 89.4975 -123.34125 89.745 -124 90 C-125.61746473 92.34532386 -126.00906384 93.63744657 -125.9375 96.5 C-126.01671491 99.66859657 -126.82108823 100.74326995 -129 103 C-130.0209375 103.4021875 -130.0209375 103.4021875 -131.0625 103.8125 C-134.14113766 105.69940695 -134.12630545 108.6217144 -135 112 C-136.625 114.4375 -136.625 114.4375 -138 116 C-137.505 116.99 -137.505 116.99 -137 118 C-137.66 118.99 -138.32 119.98 -139 121 C-139.66 121 -140.32 121 -141 121 C-141.12375 122.0725 -141.2475 123.145 -141.375 124.25 C-142 128 -142 128 -143.0625 129.9375 C-144.22312584 132.49087684 -144.02960587 133.99868005 -143.625 136.75 C-143.51414062 137.54921875 -143.40328125 138.3484375 -143.2890625 139.171875 C-143.19367188 139.77515625 -143.09828125 140.3784375 -143 141 C-143.66 141 -144.32 141 -145 141 C-145 141.66 -145 142.32 -145 143 C-146.485 143.99 -146.485 143.99 -148 145 C-150.02685273 150.12674514 -150.1508411 155.56419917 -150 161.00390625 C-150 163 -150 163 -150.5625 165.6875 C-151.12321145 168.6512605 -150.61310428 171.070724 -150 174 C-150.99 174.33 -151.98 174.66 -153 175 C-154.03987597 179.24945853 -154.12989631 183.35927856 -154.09765625 187.70703125 C-154.0962413 188.43242599 -154.09482635 189.15782074 -154.09336853 189.90519714 C-154.08779931 192.2076745 -154.07525261 194.51005235 -154.0625 196.8125 C-154.05748102 198.37955588 -154.05291881 199.9466133 -154.04882812 201.51367188 C-154.03783998 205.34248589 -154.02059673 209.17122611 -154 213 C-153.34 212.67 -152.68 212.34 -152 212 C-152 211.34 -152 210.68 -152 210 C-151.34 210 -150.68 210 -150 210 C-149.78721942 214.46839215 -150.40861915 217.82262526 -152 222 C-151.34 222 -150.68 222 -150 222 C-150.185625 223.2375 -150.37125 224.475 -150.5625 225.75 C-150.95432714 228.85740694 -150.87521163 230.98538216 -150 234 C-149.96111651 236.33300933 -149.9551365 238.66709801 -150 241 C-147.69 241.66 -145.38 242.32 -143 243 C-143.09539062 243.78503906 -143.19078125 244.57007813 -143.2890625 245.37890625 C-143.9448671 251.59379871 -144.00543992 256.10902023 -142 262 C-142.33 262.99 -142.66 263.98 -143 265 C-140.01758453 265.77321882 -137.02419525 266.41196203 -134 267 C-134.99 268.98 -134.99 268.98 -136 271 C-136.66 271 -137.32 271 -138 271 C-137.3381445 276.75305164 -135.14494364 280.53573789 -132.1796875 285.4140625 C-130.84458284 288.34068266 -131.08161136 289.05724832 -132 292 C-145.51960384 265.2509441 -156.02363705 236.81571905 -156.203125 206.42578125 C-156.21018463 205.62814865 -156.21724426 204.83051605 -156.22451782 204.00871277 C-156.45386075 170.46944819 -156.45386075 170.46944819 -153 155 C-152.80132324 154.08976074 -152.60264648 153.17952148 -152.39794922 152.24169922 C-143.79664509 113.95139925 -124.74122663 81.39490731 -98 53 C-97.38253906 52.34 -96.76507813 51.68 -96.12890625 51 C-74.84815566 28.95375478 -46.36823161 13.60295819 -17.625 3.9375 C-16.45356445 3.54304688 -15.28212891 3.14859375 -14.07519531 2.7421875 C-4.92069542 -0.23722979 -4.92069542 -0.23722979 0 0 Z " fill="#E78CA5" transform="translate(206,55)"/>
<path d="M0 0 C0.99 0.33 1.98 0.66 3 1 C-4.14302207 7.82053801 -11.71851766 13.65081712 -20 19 C-20.57347168 19.37125 -21.14694336 19.7425 -21.73779297 20.125 C-46.39038601 35.89827808 -73.98970164 46.07344688 -103 50 C-103.65323242 50.09949951 -104.30646484 50.19899902 -104.97949219 50.30151367 C-135.14055565 54.38811094 -166.33869966 50.67057747 -195 41 C-196.80404297 40.42185547 -196.80404297 40.42185547 -198.64453125 39.83203125 C-204.12829451 37.99472418 -204.12829451 37.99472418 -206 37 C-206.495 35.515 -206.495 35.515 -207 34 C-206.01 33.505 -206.01 33.505 -205 33 C-202.375 33.9375 -202.375 33.9375 -200 35 C-199.67 34.34 -199.34 33.68 -199 33 C-198.484375 33.165 -197.96875 33.33 -197.4375 33.5 C-194.26636124 34.15049 -191.22781666 34.0620734 -188 34 C-188 36.31 -188 38.62 -188 41 C-185.36 41 -182.72 41 -180 41 C-179.67 41.99 -179.34 42.98 -179 44 C-178.01 44 -177.02 44 -176 44 C-176 43.34 -176 42.68 -176 42 C-174.68 41.34 -173.36 40.68 -172 40 C-172 40.99 -172 41.98 -172 43 C-171.01 42.67 -170.02 42.34 -169 42 C-169 42.99 -169 43.98 -169 45 C-168.01 45 -167.02 45 -166 45 C-165.505 44.01 -165.505 44.01 -165 43 C-164.67 43.99 -164.34 44.98 -164 46 C-161.34001305 47.32999347 -159.02630809 47.2988203 -156.0625 47.5 C-152.76955062 47.7240646 -150.13836918 47.95387694 -147 49 C-144.49817803 49.0965181 -142.02508211 49.14001359 -139.5234375 49.1328125 C-138.79758453 49.13376923 -138.07173157 49.13472595 -137.32388306 49.13571167 C-135.79241855 49.13639134 -134.26095114 49.13455189 -132.72949219 49.13037109 C-130.37688799 49.12500431 -128.02447338 49.13033116 -125.671875 49.13671875 C-124.18489541 49.13605823 -122.69791594 49.13477762 -121.2109375 49.1328125 C-120.50367523 49.13483673 -119.79641296 49.13686096 -119.06771851 49.13894653 C-115.75074292 49.41171056 -115.75074292 49.41171056 -113 48 C-110.64686445 47.92728259 -108.29166332 47.91629132 -105.9375 47.9375 C-104.00197266 47.95103516 -104.00197266 47.95103516 -102.02734375 47.96484375 C-101.02832031 47.97644531 -100.02929688 47.98804688 -99 48 C-98.67 46.02 -98.34 44.04 -98 42 C-94.26562152 41.12132271 -90.83225427 40.91087781 -87 41 C-87.495 41.99 -87.495 41.99 -88 43 C-88.66 43 -89.32 43 -90 43 C-90 43.99 -90 44.98 -90 46 C-89.21625 45.505 -88.4325 45.01 -87.625 44.5 C-85 43 -85 43 -83 43 C-83 42.34 -83 41.68 -83 41 C-82.27554688 41.04640625 -81.55109375 41.0928125 -80.8046875 41.140625 C-74.5106894 41.37560093 -70.72065003 41.34796713 -66 37 C-65.67 36.01 -65.34 35.02 -65 34 C-62.625 33.375 -62.625 33.375 -60 33 C-59.34 33.66 -58.68 34.32 -58 35 C-53.39727838 33.22972246 -50.2870757 31.81300782 -47 28 C-46.01 28.99 -46.01 28.99 -45 30 C-44.67 28.68 -44.34 27.36 -44 26 C-43.67 26.99 -43.34 27.98 -43 29 C-42.67 28.34 -42.34 27.68 -42 27 C-41.01 27 -40.02 27 -39 27 C-36.20458537 24.20458537 -34.79177162 21.82689618 -34 18 C-33.01 18.66 -32.02 19.32 -31 20 C-26.69362572 19.13872514 -23.20670303 18.07843491 -20 15 C-20 14.34 -20 13.68 -20 13 C-18.375 10.875 -18.375 10.875 -16 9 C-12.75 8.75 -12.75 8.75 -10 9 C-9.731875 8.236875 -9.46375 7.47375 -9.1875 6.6875 C-8.05575888 4.12619116 -7.08776599 2.80307062 -5 1 C-4.01 1.66 -3.02 2.32 -2 3 C-1.67 2.34 -1.34 1.68 -1 1 C-0.67 0.67 -0.34 0.34 0 0 Z M-191 37 C-191.33 37.66 -191.66 38.32 -192 39 C-191.01 38.67 -190.02 38.34 -189 38 C-189.66 37.67 -190.32 37.34 -191 37 Z M-33 17 C-32.01 17 -31.02 17 -30 17 C-30.33 17.66 -30.66 18.32 -31 19 C-31.66 18.34 -32.32 17.68 -33 17 Z " fill="#E75056" transform="translate(380,399)"/>
<path d="M0 0 C3.91851711 0.64121189 5.06308226 1.45749219 7.4375 4.5625 C9.71174718 9.11099436 8.62252536 15.44366822 8.625 20.4375 C8.63724609 21.73042969 8.64949219 23.02335937 8.66210938 24.35546875 C8.66500977 26.21751953 8.66500977 26.21751953 8.66796875 28.1171875 C8.67207764 29.25655762 8.67618652 30.39592773 8.68041992 31.56982422 C8.44294592 34.49540851 8.01670838 36.12329154 6.4375 38.5625 C3.28351074 41.10995287 0.16631388 40.64096712 -3.66015625 40.33984375 C-6.56959853 39.15097514 -7.19498208 37.34274892 -8.5625 34.5625 C-9.2042169 29.7481309 -9.07198734 24.91527386 -9.0625 20.0625 C-9.09085938 18.74378906 -9.11921875 17.42507812 -9.1484375 16.06640625 C-9.15101563 14.79667969 -9.15359375 13.52695313 -9.15625 12.21875 C-9.16333984 11.06181641 -9.17042969 9.90488281 -9.17773438 8.71289062 C-8.13513897 3.37414021 -5.29524363 0.8360911 0 0 Z " fill="#FDF9FA" transform="translate(199.5625,126.4375)"/>
<path d="M0 0 C1.04269043 -0.00574036 1.04269043 -0.00574036 2.10644531 -0.01159668 C3.57228041 -0.0143118 5.03816428 -0.00697835 6.50390625 0.00976562 C8.74328975 0.03118581 10.97946587 0.00995557 13.21875 -0.015625 C14.64584039 -0.01298165 16.07292879 -0.0078565 17.5 0 C19.44132812 0.00676758 19.44132812 0.00676758 21.421875 0.01367188 C25.2586292 0.6103502 26.46003299 1.45431845 28.75 4.53125 C29.09765625 6.78515625 29.09765625 6.78515625 28.8125 9.09375 C28.74160156 9.85816406 28.67070312 10.62257812 28.59765625 11.41015625 C27.36766741 14.48796243 25.69455923 15.09239975 22.75 16.53125 C19.69140625 16.91943359 19.69140625 16.91943359 16.3125 16.9296875 C14.47558594 16.93548828 14.47558594 16.93548828 12.6015625 16.94140625 C11.33054688 16.92980469 10.05953125 16.91820312 8.75 16.90625 C7.47898438 16.91785156 6.20796875 16.92945313 4.8984375 16.94140625 C3.67382812 16.93753906 2.44921875 16.93367188 1.1875 16.9296875 C0.07246094 16.92630371 -1.04257813 16.92291992 -2.19140625 16.91943359 C-5.60677619 16.4859695 -7.49965826 15.56851715 -10.25 13.53125 C-11.79586876 10.43951248 -11.54359521 7.93695448 -11.25 4.53125 C-8.07869482 0.0906319 -5.2658092 0.0183569 0 0 Z " fill="#FDF9FA" transform="translate(138.25,191.46875)"/>
<path d="M0 0 C3.21142855 2.37366458 4.71584605 3.93442268 5.75 7.8125 C4.5769295 12.79804963 1.52842527 15.40815532 -2 19 C-3.02805668 20.13228832 -4.05394166 21.26655069 -5.078125 22.40234375 C-6.19629473 23.60307496 -7.31609645 24.8022884 -8.4375 26 C-8.96239014 26.5885376 -9.48728027 27.1770752 -10.02807617 27.78344727 C-12.97501424 30.84329484 -14.90756678 32.37793391 -19.25390625 32.46875 C-23 32 -23 32 -25.5 30.5 C-27.16354773 27.72742046 -27.70100431 25.55472783 -27.63769531 22.31787109 C-26.20560513 17.1125632 -21.45566678 13.62623095 -17.625 10.0625 C-16.73554688 9.20076172 -15.84609375 8.33902344 -14.9296875 7.45117188 C-6.3963099 -0.75250705 -6.3963099 -0.75250705 0 0 Z " fill="#FDF8F9" transform="translate(251,143)"/>
<path d="M0 0 C4.96071727 1.16722759 7.63211513 4.21812181 11.1875 7.75 C12.2355008 8.77231616 13.28369042 9.79443878 14.33203125 10.81640625 C24.06072125 20.38078948 24.06072125 20.38078948 24.5 25.125 C24.1875 28.75 24.1875 28.75 22.6875 31.1875 C19.91317347 32.92145408 17.77938076 33.45653435 14.50537109 33.38989258 C9.30057366 31.95300886 5.814622 27.20662458 2.25 23.375 C1.38826172 22.48554688 0.52652344 21.59609375 -0.36132812 20.6796875 C-7.6299777 13.11891726 -7.6299777 13.11891726 -8.1875 8.9375 C-7.8125 5.75 -7.8125 5.75 -5.6875 2.875 C-2.8125 0.75 -2.8125 0.75 0 0 Z " fill="#FDF7F9" transform="translate(150.8125,142.25)"/>
<path d="M0 0 C2.4375 1.5625 2.4375 1.5625 4 4 C4.73662266 7.48221621 4.80504473 9.73648911 2.84765625 12.80859375 C0.99523502 14.98711358 -0.9689799 16.98587691 -3 19 C-4.02318596 20.04584826 -5.04524613 21.09279864 -6.06640625 22.140625 C-15.5607642 31.80810189 -15.5607642 31.80810189 -19.8125 32.375 C-23 32 -23 32 -25.875 29.875 C-28 27 -28 27 -28.75 24.1875 C-27.58277241 19.22678273 -24.53187819 16.55538487 -21 13 C-19.97768384 11.9519992 -18.95556122 10.90380958 -17.93359375 9.85546875 C-7.60042926 -0.65520942 -7.60042926 -0.65520942 0 0 Z " fill="#FDF8F9" transform="translate(171,224)"/>
<path d="M0 0 C-0.33 0.66 -0.66 1.32 -1 2 C-1.928125 2.28875 -2.85625 2.5775 -3.8125 2.875 C-7.07395213 3.76833782 -7.07395213 3.76833782 -9.125 6.125 C-9.74375 6.74375 -10.3625 7.3625 -11 8 C-12.32 8 -13.64 8 -15 8 C-16.051875 8.2165625 -16.051875 8.2165625 -17.125 8.4375 C-21.38280983 9.27054975 -25.68241579 9.60596804 -30 10 C-30 10.99 -30 11.98 -30 13 C-30.66 13 -31.32 13 -32 13 C-32.33 13.99 -32.66 14.98 -33 16 C-33.495 14.515 -33.495 14.515 -34 13 C-34.66 13.66 -35.32 14.32 -36 15 C-36 15.66 -36 16.32 -36 17 C-37.32 17 -38.64 17 -40 17 C-44.35960438 17.93764766 -44.35960438 17.93764766 -47.3125 21 C-47.539375 21.66 -47.76625 22.32 -48 23 C-48.33 23.66 -48.66 24.32 -49 25 C-50.32 25 -51.64 25 -53 25 C-53.495 24.01 -53.495 24.01 -54 23 C-54.598125 23.474375 -55.19625 23.94875 -55.8125 24.4375 C-58 26 -58 26 -61 27 C-61.73323796 29.01508358 -61.73323796 29.01508358 -62 31 C-63.258125 31.268125 -64.51625 31.53625 -65.8125 31.8125 C-68.99448801 32.59532537 -71.00244311 33.25335928 -73 36 C-72.34 36.66 -71.68 37.32 -71 38 C-72.134375 38.268125 -73.26875 38.53625 -74.4375 38.8125 C-76.2009375 39.4003125 -76.2009375 39.4003125 -78 40 C-78.33 40.99 -78.66 41.98 -79 43 C-79.66 43 -80.32 43 -81 43 C-80.67 43.99 -80.34 44.98 -80 46 C-80.66 46.66 -81.32 47.32 -82 48 C-83.66666667 48 -85.33333333 48 -87 48 C-90.48874607 49.23132214 -91.91758731 51.01219049 -94 54 C-96.42444172 56.64484551 -99.05977537 58.94184276 -102 61 C-102.99 60.67 -103.98 60.34 -105 60 C-79.93096494 34.27221658 -51.76930043 15.41917028 -17.625 3.9375 C-15.86784668 3.34582031 -15.86784668 3.34582031 -14.07519531 2.7421875 C-4.92069542 -0.23722979 -4.92069542 -0.23722979 0 0 Z " fill="#E28DA4" transform="translate(206,55)"/>
<path d="M0 0 C0.495 0.99 0.495 0.99 1 2 C-0.2720761 5.6462452 -2.06934245 9.08882819 -3.75 12.5625 C-4.25080078 13.60011475 -4.75160156 14.63772949 -5.26757812 15.70678711 C-15.14223871 35.75426371 -28.54237843 52.96909474 -44 69 C-44.80123291 69.84498047 -44.80123291 69.84498047 -45.61865234 70.70703125 C-47.03948549 72.17736328 -48.51600211 73.59344628 -50 75 C-50.66 75 -51.32 75 -52 75 C-51.67 73.35 -51.34 71.7 -51 70 C-50.34 70 -49.68 70 -49 70 C-49 69.34 -49 68.68 -49 68 C-48.38125 67.9175 -47.7625 67.835 -47.125 67.75 C-44.84123036 67.18769808 -44.84123036 67.18769808 -43.75 65.0625 C-42.88608565 63.0525074 -42.88608565 63.0525074 -43 61 C-42.01 60.34 -41.02 59.68 -40 59 C-38.8499169 57.03327085 -38.8499169 57.03327085 -38 55 C-37.67 54.34 -37.34 53.68 -37 53 C-36.01 53.33 -35.02 53.66 -34 54 C-34.04125 53.05125 -34.0825 52.1025 -34.125 51.125 C-34 48 -34 48 -32 46 C-31.67 45.34 -31.34 44.68 -31 44 C-30.34 44 -29.68 44 -29 44 C-29 44.66 -29 45.32 -29 46 C-26.7763932 44.0745356 -26.7763932 44.0745356 -26 41 C-25.01 40.505 -25.01 40.505 -24 40 C-24 39.34 -24 38.68 -24 38 C-22.35 37.34 -20.7 36.68 -19 36 C-19.0825 34.906875 -19.165 33.81375 -19.25 32.6875 C-19 29 -19 29 -17.25 27.4375 C-16.5075 26.963125 -15.765 26.48875 -15 26 C-11.63169119 21.78961399 -10.65112465 19.34942198 -11 14 C-10.65867863 11.43761635 -10.4081777 10.34414982 -8.40625 8.65625 C-7.13541667 7.88541667 -5.86458333 7.11458333 -4.59375 6.34375 C-2.61612855 4.67634368 -2.52689957 3.47237489 -2 1 C-1.34 0.67 -0.68 0.34 0 0 Z " fill="#E94F54" transform="translate(435,324)"/>
<path d="M0 0 C1.98 0.66 3.96 1.32 6 2 C6.33 1.34 6.66 0.68 7 0 C7.515625 0.165 8.03125 0.33 8.5625 0.5 C11.73363876 1.15049 14.77218334 1.0620734 18 1 C18 3.31 18 5.62 18 8 C20.64 8 23.28 8 26 8 C26.33 8.99 26.66 9.98 27 11 C27.99 11 28.98 11 30 11 C30 10.34 30 9.68 30 9 C31.32 8.34 32.64 7.68 34 7 C34 7.99 34 8.98 34 10 C34.99 9.67 35.98 9.34 37 9 C37 9.99 37 10.98 37 12 C37.99 12 38.98 12 40 12 C40.33 11.34 40.66 10.68 41 10 C41.495 11.485 41.495 11.485 42 13 C44.65998695 14.32999347 46.97369191 14.2988203 49.9375 14.5 C53.23044938 14.7240646 55.86163082 14.95387694 59 16 C61.50182197 16.0965181 63.97491789 16.14001359 66.4765625 16.1328125 C67.20241547 16.13376923 67.92826843 16.13472595 68.67611694 16.13571167 C70.20758145 16.13639134 71.73904886 16.13455189 73.27050781 16.13037109 C75.62311201 16.12500431 77.97552662 16.13033116 80.328125 16.13671875 C81.81510459 16.13605823 83.30208406 16.13477762 84.7890625 16.1328125 C85.49632477 16.13483673 86.20358704 16.13686096 86.93228149 16.13894653 C90.24925708 16.41171056 90.24925708 16.41171056 93 15 C95.86267567 14.92674832 98.700719 14.90761795 101.5625 14.9375 C102.36880859 14.94201172 103.17511719 14.94652344 104.00585938 14.95117188 C106.00393756 14.96299482 108.00197783 14.98093086 110 15 C110 15.33 110 15.66 110 16 C98.48746916 17.7129337 87.19778453 18.40407133 75.5625 18.375 C74.73639221 18.37445618 73.91028442 18.37391235 73.05914307 18.37335205 C51.43933049 18.30829014 31.48573934 14.91207053 11 8 C9.79730469 7.61457031 8.59460938 7.22914063 7.35546875 6.83203125 C1.87170549 4.99472418 1.87170549 4.99472418 0 4 C-0.33 3.01 -0.66 2.02 -1 1 C-0.67 0.67 -0.34 0.34 0 0 Z M15 4 C14.67 4.66 14.34 5.32 14 6 C14.99 5.67 15.98 5.34 17 5 C16.34 4.67 15.68 4.34 15 4 Z " fill="#D6595F" transform="translate(174,432)"/>
<path d="M0 0 C0.66 0 1.32 0 2 0 C2.21278058 4.46839215 1.59138085 7.82262526 0 12 C0.66 12 1.32 12 2 12 C1.814375 13.2375 1.62875 14.475 1.4375 15.75 C1.04567286 18.85740694 1.12478837 20.98538216 2 24 C2.03888349 26.33300933 2.0448635 28.66709801 2 31 C4.31 31.66 6.62 32.32 9 33 C8.90460937 33.78503906 8.80921875 34.57007813 8.7109375 35.37890625 C8.0551329 41.59379871 7.99456008 46.10902023 10 52 C9.67 52.99 9.34 53.98 9 55 C11.98241547 55.77321882 14.97580475 56.41196203 18 57 C17.34 58.32 16.68 59.64 16 61 C15.34 61 14.68 61 14 61 C14.6618555 66.75305164 16.85505636 70.53573789 19.8203125 75.4140625 C21.15541716 78.34068266 20.91838864 79.05724832 20 82 C10.60919147 63.41992433 3.30196 45.35680592 -0.9375 24.9375 C-1.25533447 23.4218042 -1.25533447 23.4218042 -1.57958984 21.87548828 C-2.93151521 14.85769328 -3.23467357 8.13739506 -3 1 C-2.67 1.66 -2.34 2.32 -2 3 C-1.34 2.67 -0.68 2.34 0 2 C0 1.34 0 0.68 0 0 Z " fill="#E67E92" transform="translate(54,265)"/>
<path d="M0 0 C12.1464622 2.88393656 24.06989045 6.33011262 36 10 C37.13147461 10.34708008 38.26294922 10.69416016 39.42871094 11.05175781 C46.95475904 13.36044857 54.47842052 15.67679388 62 18 C62 18.33 62 18.66 62 19 C57.16434275 19.30222858 53.89771724 18.76971904 49.3359375 16.92578125 C38.77354689 12.7396833 27.42889299 10 16 10 C15.67 9.34 15.34 8.68 15 8 C12.61370553 7.38812962 10.46459429 7 8 7 C7.34 7.66 6.68 8.32 6 9 C6.66 9.33 7.32 9.66 8 10 C7.95875 10.86625 7.9175 11.7325 7.875 12.625 C7.83906842 15.92684928 7.83906842 15.92684928 8.875 18.625 C11.26614425 25.79843274 11.98013211 33.52096881 13 41 C7.47765039 32.71647559 5.42024949 21.19675166 2.6875 11.6875 C2.42098633 10.76211426 2.15447266 9.83672852 1.87988281 8.88330078 C1.63463867 8.01817871 1.38939453 7.15305664 1.13671875 6.26171875 C0.91717529 5.48787842 0.69763184 4.71403809 0.47143555 3.91674805 C0 2 0 2 0 0 Z " fill="#EB7B8C" transform="translate(212,212)"/>
<path d="M0 0 C0.99 0.66 1.98 1.32 3 2 C2.34 2 1.68 2 1 2 C0.87625 3.0725 0.7525 4.145 0.625 5.25 C0 9 0 9 -1.0625 10.9375 C-2.22312584 13.49087684 -2.02960587 14.99868005 -1.625 17.75 C-1.45871094 18.94882813 -1.45871094 18.94882813 -1.2890625 20.171875 C-1.19367187 20.77515625 -1.09828125 21.3784375 -1 22 C-1.66 22 -2.32 22 -3 22 C-3 22.66 -3 23.32 -3 24 C-3.99 24.66 -4.98 25.32 -6 26 C-8.02685273 31.12674514 -8.1508411 36.56419917 -8 42.00390625 C-8 44 -8 44 -8.5625 46.6875 C-9.12321145 49.6512605 -8.61310428 52.070724 -8 55 C-9.485 55.495 -9.485 55.495 -11 56 C-12.05366413 60.36839401 -12.21540887 64.67389846 -12.31640625 69.14453125 C-12.33718735 69.91431808 -12.35796844 70.68410492 -12.37937927 71.47721863 C-12.44446049 73.92222667 -12.50356591 76.36733683 -12.5625 78.8125 C-12.60572468 80.47592177 -12.64934021 82.13933344 -12.69335938 83.80273438 C-12.80009907 87.86838648 -12.90148171 91.93414071 -13 96 C-13.33 96 -13.66 96 -14 96 C-14.48873404 62.66833825 -13.51123939 31.1475917 0 0 Z " fill="#E0879E" transform="translate(64,174)"/>
<path d="M0 0 C0.77492798 -0.00687836 1.54985596 -0.01375671 2.3482666 -0.02084351 C4.8311846 -0.03789361 7.31390161 -0.0442947 9.796875 -0.046875 C11.06295593 -0.04938263 11.06295593 -0.04938263 12.35461426 -0.05194092 C25.181296 -0.05346507 38.02201011 0.11441397 50.546875 3.203125 C51.536875 4.193125 51.536875 4.193125 52.546875 5.203125 C50.75529011 5.23008865 48.96359027 5.24950417 47.171875 5.265625 C46.17414063 5.27722656 45.17640625 5.28882813 44.1484375 5.30078125 C41.546875 5.203125 41.546875 5.203125 39.546875 4.203125 C39.546875 4.863125 39.546875 5.523125 39.546875 6.203125 C35.83398218 6.203125 33.81692921 5.89960634 30.609375 4.140625 C28.3175592 2.92725637 28.3175592 2.92725637 24.546875 3.203125 C23.91418701 3.04231445 23.28149902 2.88150391 22.62963867 2.71582031 C18.16685705 1.61725726 13.43106325 1.97514397 8.859375 1.953125 C7.80814453 1.9325 6.75691406 1.911875 5.67382812 1.890625 C-0.99739296 1.85741419 -6.26988234 2.75831756 -12.453125 5.203125 C-17.08692782 6.38622359 -17.08692782 6.38622359 -19.453125 5.203125 C-22.25971838 5.41834108 -25.03282691 5.78399196 -27.82421875 6.14453125 C-30.453125 6.203125 -30.453125 6.203125 -33.453125 4.203125 C-30.97473818 3.7196115 -28.49552722 3.24125299 -26.015625 2.765625 C-25.32791016 2.63091797 -24.64019531 2.49621094 -23.93164062 2.35742188 C-15.97273964 0.83967797 -8.10103033 0.04941315 0 0 Z " fill="#E3879E" transform="translate(239.453125,49.796875)"/>
<path d="M0 0 C0.99 0.66 1.98 1.32 3 2 C1.02 2.99 1.02 2.99 -1 4 C-1 5.98 -1 7.96 -1 10 C-2.32 9.67 -3.64 9.34 -5 9 C-6.00893131 10.09601169 -7.00688225 11.20213918 -8 12.3125 C-8.556875 12.92738281 -9.11375 13.54226563 -9.6875 14.17578125 C-11.29201498 16.03131335 -11.29201498 16.03131335 -11 19 C-12.32 18.67 -13.64 18.34 -15 18 C-15.37511719 18.51949219 -15.75023437 19.03898437 -16.13671875 19.57421875 C-19.18274665 23.72510312 -22.35444522 27.35444522 -26 31 C-27.29519995 33.16620544 -27.29519995 33.16620544 -28 35 C-28.33 34.34 -28.66 33.68 -29 33 C-29.33 33.66 -29.66 34.32 -30 35 C-30.99 35 -31.98 35 -33 35 C-33.33 36.32 -33.66 37.64 -34 39 C-34.66 38.67 -35.32 38.34 -36 38 C-34.51626152 32.55875482 -30.77578617 29.37718304 -26.875 25.546875 C-26.1722998 24.84604797 -25.46959961 24.14522095 -24.74560547 23.42315674 C-23.26294007 21.94720005 -21.77668796 20.47483877 -20.28710938 19.00585938 C-18.00126906 16.75125172 -15.72634457 14.48607531 -13.453125 12.21875 C-12.01103929 10.78583145 -10.56835151 9.35351852 -9.125 7.921875 C-8.44163574 7.24276062 -7.75827148 6.56364624 -7.05419922 5.86395264 C-6.4201416 5.23950256 -5.78608398 4.61505249 -5.1328125 3.97167969 C-4.57480957 3.42050476 -4.01680664 2.86932983 -3.44189453 2.30145264 C-2 1 -2 1 0 0 Z " fill="#EF5B64" transform="translate(369,333)"/>
<path d="M0 0 C0.33 0 0.66 0 1 0 C1.95294017 49.16804781 1.95294017 49.16804781 -5 72 C-5.66 71.67 -6.32 71.34 -7 71 C-7 61.33333333 -7 61.33333333 -6.6875 57.0625 C-6.62949219 56.16660156 -6.57148438 55.27070313 -6.51171875 54.34765625 C-6 52 -6 52 -3 50 C-0.06164335 38.35656535 -0.83831076 25.69766031 -0.9855957 13.8034668 C-0.99937256 12.59343994 -1.01314941 11.38341309 -1.02734375 10.13671875 C-1.04531006 9.05092529 -1.06327637 7.96513184 -1.08178711 6.84643555 C-1.01048586 4.36493938 -0.7273022 2.35936691 0 0 Z " fill="#E0585E" transform="translate(449,230)"/>
<path d="M0 0 C2.475 0.495 2.475 0.495 5 1 C5 1.66 5 2.32 5 3 C5.66 3 6.32 3 7 3 C10.77304004 8.54165256 11.54330269 12.34454208 11 19 C9.02 19.99 9.02 19.99 7 21 C7.33 20.46375 7.66 19.9275 8 19.375 C9.28292178 16.32806078 9.40995912 14.27967299 9 11 C6.98668966 8.0574695 5.70637112 7.17659278 2.25 6.3125 C-2.78435962 7.37746069 -5.41769582 10.43543 -9 14 C-9.50499023 14.49806152 -10.00998047 14.99612305 -10.53027344 15.50927734 C-14.04746533 18.97961499 -17.53228048 22.48026469 -21 26 C-22.04449911 22.86650268 -21.93423645 22.01031744 -21 19 C-20.360625 18.87625 -19.72125 18.7525 -19.0625 18.625 C-18.381875 18.41875 -17.70125 18.2125 -17 18 C-16.67 17.34 -16.34 16.68 -16 16 C-14.67218122 14.9926892 -13.33790641 13.99387334 -12 13 C-10.64631404 11.68733482 -9.31200404 10.35432675 -8 9 C-6.48869796 7.48869796 -4.9793572 5.98018292 -3.4375 4.5 C-1.77629047 2.85424985 -1.77629047 2.85424985 0 0 Z " fill="#EB8093" transform="translate(246,137)"/>
<path d="M0 0 C8.26818945 0.32201559 15.43626261 2.53626884 23.1875 5.3125 C24.32380859 5.70373047 25.46011719 6.09496094 26.63085938 6.49804688 C32.45371217 8.54538229 37.77887838 10.69807504 43 14 C43 14.66 43 15.32 43 16 C39.45929917 14.61701378 36.00858469 13.10328479 32.5625 11.5 C26.3527281 8.6735978 20.80857312 6.81702877 14 6 C13.67 6.99 13.34 7.98 13 9 C10 9 7 9 4 9 C4 7.68 4 6.36 4 5 C4.99 5 5.98 5 7 5 C4.77810176 2.77810176 2.91517292 2.07401108 0 1 C0 0.67 0 0.34 0 0 Z " fill="#F57A90" transform="translate(293,55)"/>
<path d="M0 0 C1.98 0.66 3.96 1.32 6 2 C6.33 1.34 6.66 0.68 7 0 C7.515625 0.165 8.03125 0.33 8.5625 0.5 C11.73363876 1.15049 14.77218334 1.0620734 18 1 C18 3.31 18 5.62 18 8 C20.64 8 23.28 8 26 8 C26.33 8.99 26.66 9.98 27 11 C29.475 11.495 29.475 11.495 32 12 C27.58642219 13.38217722 24.21890478 12.16219593 19.9375 10.8125 C19.1846875 10.58127441 18.431875 10.35004883 17.65625 10.11181641 C15.43290157 9.42153323 13.21589562 8.71380105 11 8 C9.83597656 7.63003906 8.67195312 7.26007813 7.47265625 6.87890625 C1.94382569 5.01174534 1.94382569 5.01174534 0 4 C-0.33 3.01 -0.66 2.02 -1 1 C-0.67 0.67 -0.34 0.34 0 0 Z M15 4 C14.67 4.66 14.34 5.32 14 6 C14.99 5.67 15.98 5.34 17 5 C16.34 4.67 15.68 4.34 15 4 Z " fill="#DF616D" transform="translate(174,432)"/>
<path d="M0 0 C1.15892509 0.00424484 1.15892509 0.00424484 2.34126282 0.00857544 C4.80709368 0.01976372 7.27256031 0.04486547 9.73828125 0.0703125 C11.41080204 0.08034407 13.08332853 0.08946961 14.75585938 0.09765625 C18.85430684 0.11969858 22.95248231 0.15421887 27.05078125 0.1953125 C27.54578125 1.1853125 27.54578125 1.1853125 28.05078125 2.1953125 C16.17078125 2.1953125 4.29078125 2.1953125 -7.94921875 2.1953125 C-9.13373185 5.74885179 -9.21563769 8.46544728 -8.94921875 12.1953125 C-7.40659062 14.29889631 -6.26813558 15.03585409 -3.94921875 16.1953125 C-1.89115111 16.2927206 0.17009826 16.32608127 2.23046875 16.328125 C4.08865234 16.33005859 4.08865234 16.33005859 5.984375 16.33203125 C7.28503906 16.32816406 8.58570313 16.32429688 9.92578125 16.3203125 C11.86517578 16.32611328 11.86517578 16.32611328 13.84375 16.33203125 C15.08511719 16.33074219 16.32648438 16.32945312 17.60546875 16.328125 C18.74483887 16.32699707 19.88420898 16.32586914 21.05810547 16.32470703 C23.58071419 16.21563682 25.65157583 15.9339245 28.05078125 15.1953125 C27.72078125 16.1853125 27.39078125 17.1753125 27.05078125 18.1953125 C22.44264276 18.24489108 17.83466088 18.28111635 13.22631836 18.30517578 C11.65988458 18.31520976 10.09346942 18.32884004 8.52709961 18.34619141 C6.27062372 18.37055475 4.01439631 18.38182166 1.7578125 18.390625 C1.06178421 18.40094757 0.36575592 18.41127014 -0.35136414 18.42190552 C-4.31833141 18.42281306 -7.41924417 18.06047193 -10.94921875 16.1953125 C-12.96099366 12.01701076 -12.37122177 6.46132157 -10.94921875 2.1953125 C-7.20917558 -0.29804961 -4.32360266 -0.05949978 0 0 Z " fill="#EC94A5" transform="translate(136.94921875,190.8046875)"/>
<path d="M0 0 C4.59005081 1.66422895 8.70699313 3.97103509 12.9375 6.375 C13.62779297 6.76171875 14.31808594 7.1484375 15.02929688 7.546875 C19.14131414 9.86987243 23.14823901 12.26338108 27 15 C27 15.33 27 15.66 27 16 C23.04 16.495 23.04 16.495 19 17 C17.9375 15.125 17.9375 15.125 17 13 C17.33 12.34 17.66 11.68 18 11 C15.525 10.505 15.525 10.505 13 10 C13 9.34 13 8.68 13 8 C11.02 7.34 9.04 6.68 7 6 C6.34 7.32 5.68 8.64 5 10 C2.15576074 9.10181918 0.40333211 8.52608536 -1.4375 6.125 C-2 4 -2 4 -1.125 1.75 C-0.75375 1.1725 -0.3825 0.595 0 0 Z " fill="#E77588" transform="translate(338,70)"/>
<path d="M0 0 C1.32 0 2.64 0 4 0 C4 0.66 4 1.32 4 2 C5.3921875 2.061875 5.3921875 2.061875 6.8125 2.125 C10 3 10 3 11.75 5.875 C12.36875 7.421875 12.36875 7.421875 13 9 C14.83333333 12.16666667 14.83333333 12.16666667 18 14 C21.63805856 17.05596919 22.7927484 20.34198721 23.375 25 C22.9055843 28.75532561 21.60654478 30.31679214 19 33 C16.04335481 34.4783226 13.25770263 34.06032783 10 34 C9.67 33.34 9.34 32.68 9 32 C10.258125 31.896875 11.51625 31.79375 12.8125 31.6875 C15.27135361 31.3611035 16.82493061 31.09847653 19 29.875 C20.73656542 26.61893984 20.59700519 24.64173163 20 21 C18.05075402 17.95711766 15.56083443 15.53452449 13 13 C12.05127894 12.03985666 11.1034101 11.07887072 10.15625 10.1171875 C7.45820915 7.39031669 4.73282257 4.69203418 2 2 C1.34 1.34 0.68 0.68 0 0 Z " fill="#E98DA0" transform="translate(154,143)"/>
<path d="M0 0 C0.99 0.33 1.98 0.66 3 1 C3.2739976 7.84993999 3.01318636 13.01269121 -0.9375 18.875 C-1.618125 19.57625 -2.29875 20.2775 -3 21 C-3.99 21 -4.98 21 -6 21 C-6.226875 21.94875 -6.45375 22.8975 -6.6875 23.875 C-8 27 -8 27 -10.375 28.4375 C-13.11099018 29.02378361 -14.3775669 28.76441135 -17 28 C-16.49025635 27.49549316 -15.9805127 26.99098633 -15.45532227 26.47119141 C-13.15511905 24.19172966 -10.85877123 21.90842239 -8.5625 19.625 C-7.76005859 18.8309375 -6.95761719 18.036875 -6.13085938 17.21875 C-5.36708984 16.45820313 -4.60332031 15.69765625 -3.81640625 14.9140625 C-3.10943604 14.2123291 -2.40246582 13.5105957 -1.67407227 12.78759766 C0.80583329 10.13952 0.99142772 9.24002388 1.125 5.5 C1.24773947 2.14964129 1.24773947 2.14964129 0 0 Z " fill="#EA8496" transform="translate(173,226)"/>
<path d="M0 0 C3.81684226 1.55500981 6.19195732 4.03595495 9 7 C7.43231431 10.84795579 5.16775443 13.3362065 2 16 C-1.3125 16.8125 -1.3125 16.8125 -4 17 C-2.92598892 14.08482708 -2.22189824 12.22189824 0 10 C0.28602162 5.85490567 0.28602162 5.85490567 -1 2 C-0.67 1.34 -0.34 0.68 0 0 Z " fill="#F55A61" transform="translate(340,321)"/>
<path d="M0 0 C3 1 3 1 5 4 C5.99 4 6.98 4 8 4 C8.12375 4.680625 8.2475 5.36125 8.375 6.0625 C9.09100877 9.4277412 10.02945125 12.70013425 11 16 C11.66 16 12.32 16 13 16 C13.33 16.99 13.66 17.98 14 19 C14.66 19.309375 15.32 19.61875 16 19.9375 C16.99 20.4634375 16.99 20.4634375 18 21 C18.625 23.0625 18.625 23.0625 19 25 C19.66 25.33 20.32 25.66 21 26 C21.33 26.99 21.66 27.98 22 29 C22.99 29.33 23.98 29.66 25 30 C24.67 31.32 24.34 32.64 24 34 C18.47208276 28.3219418 13.6784713 22.38961012 9.1875 15.875 C8.73205811 15.21886719 8.27661621 14.56273437 7.80737305 13.88671875 C4.78167037 9.42415524 2.32416348 4.86503218 0 0 Z " fill="#E47386" transform="translate(76,349)"/>
<path d="M0 0 C0.144375 0.598125 0.28875 1.19625 0.4375 1.8125 C0.8872439 3.56150404 1.42892341 5.28677023 2 7 C0.88625 7.2475 -0.2275 7.495 -1.375 7.75 C-5.05610979 8.57546681 -5.05610979 8.57546681 -6.1875 11.0625 C-6.455625 11.701875 -6.72375 12.34125 -7 13 C-9.125 13.75 -9.125 13.75 -11 14 C-11.33 15.32 -11.66 16.64 -12 18 C-16.0527516 18.98248524 -19.83861737 19.08159574 -24 19 C-24 18.01 -24 17.02 -24 16 C-22.8553125 16.165 -21.710625 16.33 -20.53125 16.5 C-16.44133029 16.5 -14.66400741 15.27711196 -11.71875 12.5 C-10.29153923 11.01992957 -8.88563363 9.51906501 -7.5 8 C-6.77296875 7.236875 -6.0459375 6.47375 -5.296875 5.6875 C-3.51179169 3.80846494 -1.74804214 1.91343186 0 0 Z " fill="#EC7F91" transform="translate(252,158)"/>
<path d="M0 0 C6.78795742 -0.15285063 13.22453748 0.39376584 19.9375 1.375 C20.88173828 1.50132813 21.82597656 1.62765625 22.79882812 1.7578125 C23.69923828 1.88671875 24.59964844 2.015625 25.52734375 2.1484375 C26.33937256 2.26364746 27.15140137 2.37885742 27.98803711 2.49755859 C30 3 30 3 32 5 C30.20841511 5.02696365 28.41671527 5.04637917 26.625 5.0625 C25.62726563 5.07410156 24.62953125 5.08570313 23.6015625 5.09765625 C21 5 21 5 19 4 C19 4.66 19 5.32 19 6 C15.28710718 6 13.27005421 5.69648134 10.0625 3.9375 C7.7706842 2.72413137 7.7706842 2.72413137 4 3 C2.65835921 2.7018576 1.32148827 2.37756808 0 2 C0 1.34 0 0.68 0 0 Z " fill="#E48197" transform="translate(260,50)"/>
<path d="M0 0 C0.99386719 0.02707031 1.98773438 0.05414063 3.01171875 0.08203125 C4.15060547 0.13423828 4.15060547 0.13423828 5.3125 0.1875 C5.3125 1.1775 5.3125 2.1675 5.3125 3.1875 C4.9825 2.8575 4.6525 2.5275 4.3125 2.1875 C0.87344963 1.62602239 -1.61261088 1.49198351 -4.61328125 3.43359375 C-6.73248956 5.27250597 -8.71420813 7.19252361 -10.6875 9.1875 C-11.51507813 10.0021875 -12.34265625 10.816875 -13.1953125 11.65625 C-15.37665615 13.81707945 -17.53892149 15.99415944 -19.6875 18.1875 C-20.7421875 16.328125 -20.7421875 16.328125 -21.6875 14.1875 C-20.8125 11.9375 -20.8125 11.9375 -19.6875 10.1875 C-18.3675 10.8475 -17.0475 11.5075 -15.6875 12.1875 C-15.0275 10.5375 -14.3675 8.8875 -13.6875 7.1875 C-12.6975 7.1875 -11.7075 7.1875 -10.6875 7.1875 C-10.419375 6.589375 -10.15125 5.99125 -9.875 5.375 C-7.29799327 0.62788234 -5.41574173 -0.19114383 0 0 Z " fill="#E98294" transform="translate(166.6875,222.8125)"/>
<path d="M0 0 C7.23132092 0.24512952 7.23132092 0.24512952 10.609375 3.5625 C13.44821588 7.09678306 13.65324197 10.38850401 13.48828125 14.8046875 C13.47766914 15.8906572 13.47766914 15.8906572 13.46684265 16.99856567 C13.43904109 19.29179976 13.37634075 21.58251487 13.3125 23.875 C13.28739822 25.43746452 13.26458834 26.99996764 13.24414062 28.5625 C13.18926274 32.37595805 13.10309912 36.18755326 13 40 C11.515 40.495 11.515 40.495 10 41 C10.16226074 40.47148437 10.32452148 39.94296875 10.49169922 39.3984375 C11.12110369 36.42856743 11.12977246 33.66156376 11.1328125 30.625 C11.13410156 29.39265625 11.13539063 28.1603125 11.13671875 26.890625 C11.13285156 25.60671875 11.12898437 24.3228125 11.125 23 C11.12886719 21.71609375 11.13273438 20.4321875 11.13671875 19.109375 C11.13542969 17.87703125 11.13414062 16.6446875 11.1328125 15.375 C11.13168457 14.24835938 11.13055664 13.12171875 11.12939453 11.9609375 C11.08980136 8.79268311 11.08980136 8.79268311 10 5 C6.7 4.34 3.4 3.68 0 3 C0 2.01 0 1.02 0 0 Z " fill="#E48698" transform="translate(196,124)"/>
<path d="M0 0 C0.66 0 1.32 0 2 0 C1.67 0.99 1.34 1.98 1 3 C0.93976684 5.18799214 0.93951636 7.37783608 0.97265625 9.56640625 C0.98490234 10.85611328 0.99714844 12.14582031 1.00976562 13.47460938 C1.03464017 15.52441938 1.06268802 17.57408753 1.09594727 19.6237793 C1.12607744 21.60454142 1.14331001 23.58548661 1.16015625 25.56640625 C1.17699463 26.75177979 1.19383301 27.93715332 1.21118164 29.15844727 C1 32 1 32 -1 34 C-3.10818398 29.78363204 -2.18585825 24.26181507 -2.18530273 19.6237793 C-2.18748791 17.57384443 -2.20564534 15.52444891 -2.22460938 13.47460938 C-2.22654297 12.18490234 -2.22847656 10.89519531 -2.23046875 9.56640625 C-2.23457764 8.37990479 -2.23868652 7.19340332 -2.24291992 5.97094727 C-2 3 -2 3 0 0 Z " fill="#FDD6DF" transform="translate(193,129)"/>
<path d="M0 0 C6.66666667 6.66666667 13.33333333 13.33333333 20 20 C19.01 20.33 18.02 20.66 17 21 C17 20.34 17 19.68 17 19 C15.68 19.33 14.36 19.66 13 20 C12.773125 19.0925 12.54625 18.185 12.3125 17.25 C10.79150039 13.48371524 9.38330705 12.17498311 6 10 C3.81785432 9.22166466 3.81785432 9.22166466 2 9 C1.22678118 6.01758453 0.58803797 3.02419525 0 0 Z " fill="#EA8B9F" transform="translate(143,154)"/>
<path d="M0 0 C2.09749995 2.35968744 2.96905704 3.54616994 3.1875 6.75 C3.0946875 7.86375 3.0946875 7.86375 3 9 C3.66 9 4.32 9 5 9 C8.94480617 16.36363819 9.12845706 24.82233117 10 33 C7.65675051 29.48512576 6.69159751 25.95332203 5.5625 21.9375 C5.12272015 20.40225081 4.68261717 18.86709415 4.2421875 17.33203125 C4.03045898 16.58904785 3.81873047 15.84606445 3.60058594 15.08056641 C2.6145507 11.66471589 1.54962936 8.27341023 0.48046875 4.8828125 C0 3 0 3 0 0 Z " fill="#EA7483" transform="translate(236,291)"/>
<path d="M0 0 C1.98 0.66 3.96 1.32 6 2 C6.33 1.34 6.66 0.68 7 0 C7.515625 0.165 8.03125 0.33 8.5625 0.5 C11.73363876 1.15049 14.77218334 1.0620734 18 1 C17.4375 2.9375 17.4375 2.9375 16 5 C9.56945503 7.14351499 4.81080869 4.72418194 -1 2 C-0.67 1.34 -0.34 0.68 0 0 Z " fill="#F95D6A" transform="translate(174,432)"/>
<path d="M0 0 C6.625 -0.25 6.625 -0.25 10 2 C15.0007253 3.66690843 19.78667075 4.4512285 25 5 C25 5.66 25 6.32 25 7 C26.11375 7.12375 27.2275 7.2475 28.375 7.375 C32 8 32 8 34 10 C28.78512477 9.24177905 23.77229132 7.97558489 18.6875 6.625 C17.4819043 6.31175781 17.4819043 6.31175781 16.25195312 5.9921875 C10.75574768 4.54186137 5.37089029 2.86036236 0 1 C0 0.67 0 0.34 0 0 Z " fill="#EC899A" transform="translate(224,198)"/>
<path d="M0 0 C6.53363532 1.54851232 12.77345236 3.57188094 19 6.0625 C19.64654541 6.3198291 20.29309082 6.5771582 20.95922852 6.84228516 C23.87366186 8.03017302 26.36981082 9.24654055 29 11 C29 11.66 29 12.32 29 13 C25.56160685 11.66523915 22.25606075 10.16922398 18.9375 8.5625 C13.83953879 6.19732344 8.83758009 4.86245159 3.3359375 3.7734375 C2.56507813 3.51820312 1.79421875 3.26296875 1 3 C0.67 2.01 0.34 1.02 0 0 Z " fill="#DA7C8D" transform="translate(307,58)"/>
<path d="M0 0 C0.33 1.65 0.66 3.3 1 5 C-0.11375 5.474375 -1.2275 5.94875 -2.375 6.4375 C-4.26710994 7.25306463 -6.15712709 8.07856355 -8 9 C-8.625 6.6875 -8.625 6.6875 -9 4 C-6.25137935 -0.12293098 -4.89482776 0 0 0 Z " fill="#F85D6A" transform="translate(286,330)"/>
<path d="M0 0 C0.66 0 1.32 0 2 0 C2.26554688 0.84304688 2.53109375 1.68609375 2.8046875 2.5546875 C3.15789062 3.65039062 3.51109375 4.74609375 3.875 5.875 C4.22304687 6.96554687 4.57109375 8.05609375 4.9296875 9.1796875 C5.81175231 12.08522723 5.81175231 12.08522723 8 14 C11.693507 14.20146402 14.47940432 14.17353189 18 13 C18 13.66 18 14.32 18 15 C14.53845198 16.73077401 10.78507635 16.47229117 7 16 C2.79099164 13.30191772 2.09029694 9.72462009 1 5 C0.01 5 -0.98 5 -2 5 C-1 2 -1 2 0 0 Z " fill="#EC757F" transform="translate(236,354)"/>
<path d="M0 0 C9.93812655 1.80500162 9.93812655 1.80500162 13 5 C13 5.66 13 6.32 13 7 C12.236875 6.835 11.47375 6.67 10.6875 6.5 C6.84239516 5.78463166 3.78199007 6.18227242 0 7 C-1.125 2.25 -1.125 2.25 0 0 Z " fill="#F5768A" transform="translate(321,65)"/>
<path d="M0 0 C0.33 0.66 0.66 1.32 1 2 C0.28735352 3.97119141 0.28735352 3.97119141 -0.87109375 6.3515625 C-1.28037109 7.20234375 -1.68964844 8.053125 -2.11132812 8.9296875 C-2.7677832 10.26386719 -2.7677832 10.26386719 -3.4375 11.625 C-3.87126953 12.5221875 -4.30503906 13.419375 -4.75195312 14.34375 C-5.82762755 16.56602245 -6.91054931 18.78445719 -8 21 C-9.50867145 16.47398565 -8.40349588 12.49118682 -7 8 C-4.9375 5.5625 -4.9375 5.5625 -3 4 C-2.67 3.01 -2.34 2.02 -2 1 C-1.34 0.67 -0.68 0.34 0 0 Z " fill="#E3555A" transform="translate(435,324)"/>
<path d="M0 0 C0.99 0 1.98 0 3 0 C1.9557855 3.13264351 1.23829366 3.76709982 -1 6 C-2.0176855 7.60115852 -2.99433668 9.22884226 -3.9375 10.875 C-6.06245401 14.5011653 -8.28371769 17.78070245 -11 21 C-11.33 21.66 -11.66 22.32 -12 23 C-12.66 23 -13.32 23 -14 23 C-12.39300169 18.27031178 -9.79450896 14.46296739 -7 10.375 C-6.54882812 9.70726562 -6.09765625 9.03953125 -5.6328125 8.3515625 C-4.79509226 7.11233138 -3.95547254 5.8743805 -3.11328125 4.63818359 C-2.06666809 3.09810151 -1.03288273 1.5493241 0 0 Z " fill="#FEE4E4" transform="translate(267,317)"/>
<path d="M0 0 C1.37478516 0.01740234 1.37478516 0.01740234 2.77734375 0.03515625 C3.69644531 0.04417969 4.61554688 0.05320312 5.5625 0.0625 C6.27277344 0.07410156 6.98304688 0.08570313 7.71484375 0.09765625 C7.38484375 0.75765625 7.05484375 1.41765625 6.71484375 2.09765625 C6.05484375 2.09765625 5.39484375 2.09765625 4.71484375 2.09765625 C4.71484375 3.08765625 4.71484375 4.07765625 4.71484375 5.09765625 C2.73484375 5.09765625 0.75484375 5.09765625 -1.28515625 5.09765625 C-1.28515625 5.75765625 -1.28515625 6.41765625 -1.28515625 7.09765625 C-2.27515625 7.09765625 -3.26515625 7.09765625 -4.28515625 7.09765625 C-3.24873605 0.13883487 -3.24873605 0.13883487 0 0 Z " fill="#FA505A" transform="translate(285.28515625,439.90234375)"/>
<path d="M0 0 C1.98 0.495 1.98 0.495 4 1 C3.91621094 1.80824219 3.83242188 2.61648438 3.74609375 3.44921875 C3.64425781 4.51785156 3.54242188 5.58648437 3.4375 6.6875 C3.33308594 7.74324219 3.22867188 8.79898437 3.12109375 9.88671875 C3.00722448 12.81426086 3.29151585 15.17131144 4 18 C3.34 17.67 2.68 17.34 2 17 C2 16.01 2 15.02 2 14 C1.01 13.67 0.02 13.34 -1 13 C-1.08171488 8.83254097 -0.95553278 5.0610143 0 1 C0 0.67 0 0.34 0 0 Z " fill="#F47791" transform="translate(59,297)"/>
<path d="M0 0 C2.97 0.495 2.97 0.495 6 1 C6 1.99 6 2.98 6 4 C3.8125 5.60546875 3.8125 5.60546875 1 7.1875 C0.071875 7.71730469 -0.85625 8.24710937 -1.8125 8.79296875 C-2.534375 9.19128906 -3.25625 9.58960938 -4 10 C-4 8.68 -4 7.36 -4 6 C-3.34 6 -2.68 6 -2 6 C-1.7834375 5.071875 -1.7834375 5.071875 -1.5625 4.125 C-1 2 -1 2 0 0 Z " fill="#ED6C7B" transform="translate(334,249)"/>
<path d="M0 0 C4.62 0 9.24 0 14 0 C13.34 1.65 12.68 3.3 12 5 C6.92387682 5.61528766 4.17017994 3.61658349 0 1 C0 0.67 0 0.34 0 0 Z " fill="#F5616B" transform="translate(154,424)"/>
<path d="M0 0 C3.86107457 2.57404971 3.94319692 4.61020259 5 9 C6.65 8.67 8.3 8.34 10 8 C8.68 10.31 7.36 12.62 6 15 C5.34 15 4.68 15 4 15 C3.3299166 12.87607494 2.66403203 10.75082476 2 8.625 C1.62875 7.44164062 1.2575 6.25828125 0.875 5.0390625 C0 2 0 2 0 0 Z " fill="#E9747F" transform="translate(246,326)"/>
<path d="M0 0 C0.66 0 1.32 0 2 0 C2 0.66 2 1.32 2 2 C2.86625 2.268125 3.7325 2.53625 4.625 2.8125 C7.91791964 3.97111987 10.91127875 5.38209839 14 7 C13.34 8.32 12.68 9.64 12 11 C9.99406276 9.54927753 7.99539826 8.09008971 6 6.625 C5.42765625 6.2125 4.8553125 5.8 4.265625 5.375 C2.80684688 4.29828281 1.39899024 3.15333422 0 2 C0 1.34 0 0.68 0 0 Z " fill="#E16978" transform="translate(125,405)"/>
<path d="M0 0 C0.33 0.99 0.66 1.98 1 3 C1.99 2.67 2.98 2.34 4 2 C4 2.99 4 3.98 4 5 C4.99 5 5.98 5 7 5 C7.33 4.34 7.66 3.68 8 3 C8.33 4.32 8.66 5.64 9 7 C5.37 7 1.74 7 -2 7 C-2.33 5.35 -2.66 3.7 -3 2 C-2.01 1.34 -1.02 0.68 0 0 Z " fill="#F65661" transform="translate(207,439)"/>
<path d="M0 0 C2.85328779 2.38681022 3.48718335 4.17627538 4.0625 7.8125 C4.58006279 10.8047958 5.14375976 13.42329263 6.125 16.3125 C7.01436017 19.04410622 7.16770187 21.14906823 7 24 C4.55089476 20.32634213 3.59065459 16.77135062 2.375 12.5625 C2.14554688 11.79873047 1.91609375 11.03496094 1.6796875 10.24804688 C1.463125 9.50748047 1.2465625 8.76691406 1.0234375 8.00390625 C0.82669434 7.33174072 0.62995117 6.6595752 0.42724609 5.96704102 C0 4 0 4 0 0 Z " fill="#E97A89" transform="translate(229,267)"/>
<path d="M0 0 C0.66 0.33 1.32 0.66 2 1 C0.85127851 4.44616446 -0.09636451 4.73289785 -3.03515625 6.55078125 C-7.47296766 9.82399801 -11.17851599 14.04257387 -15 18 C-15.66 17.67 -16.32 17.34 -17 17 C-11.39 11.39 -5.78 5.78 0 0 Z " fill="#FEE1E6" transform="translate(243,144)"/>
<path d="M0 0 C0.66 0.33 1.32 0.66 2 1 C1.67 1.99 1.34 2.98 1 4 C0.34 4 -0.32 4 -1 4 C-0.67 4.99 -0.34 5.98 0 7 C-0.66 7.66 -1.32 8.32 -2 9 C-4.625 8.625 -4.625 8.625 -7 8 C-3.73584906 1.47169811 -3.73584906 1.47169811 0 0 Z " fill="#F18AA6" transform="translate(126,94)"/>
<path d="M0 0 C0 0.66 0 1.32 0 2 C2.97 2.495 2.97 2.495 6 3 C6.33 3.99 6.66 4.98 7 6 C1.34979382 5.39891424 -3.66164461 3.92471317 -9 2 C-9 1.67 -9 1.34 -9 1 C-2.25 0 -2.25 0 0 0 Z " fill="#EA7A85" transform="translate(304,218)"/>
<path d="M0 0 C2.74277578 3.19990508 4.6302836 6.00499382 6 10 C5.34 10.66 4.68 11.32 4 12 C2.68 11.67 1.36 11.34 0 11 C0 7.37 0 3.74 0 0 Z " fill="#E86675" transform="translate(418,141)"/>
<path d="M0 0 C0.66 0 1.32 0 2 0 C2.22162329 1.62324086 2.42689803 3.248721 2.625 4.875 C2.74101563 5.77992188 2.85703125 6.68484375 2.9765625 7.6171875 C2.98429687 8.40351563 2.99203125 9.18984375 3 10 C2.34 10.66 1.68 11.32 1 12 C-1 11 -1 11 -2.3125 8.25 C-3 5 -3 5 -1.75 2.125 C-1.1725 1.42375 -0.595 0.7225 0 0 Z " fill="#F4758A" transform="translate(76,336)"/>
<path d="M0 0 C1.98 0.99 1.98 0.99 4 2 C4 3.32 4 4.64 4 6 C5.65 5.67 7.3 5.34 9 5 C9 6.33333333 9 7.66666667 9 9 C5.72965541 9.36337162 4.39116247 9.28544288 1.6875 7.3125 C-0.28544288 4.60883753 -0.36337162 3.27034459 0 0 Z " fill="#F1616B" transform="translate(358,310)"/>
<path d="M0 0 C2.31 0.33 4.62 0.66 7 1 C6.34 3.64 5.68 6.28 5 9 C4.01 8.34 3.02 7.68 2 7 C2 6.01 2 5.02 2 4 C1.34 3.67 0.68 3.34 0 3 C0 2.01 0 1.02 0 0 Z " fill="#F94D52" transform="translate(432,315)"/>
<path d="M0 0 C0.66 0 1.32 0 2 0 C2 0.66 2 1.32 2 2 C2.66 2.33 3.32 2.66 4 3 C3.67 3.66 3.34 4.32 3 5 C3.66 5 4.32 5 5 5 C4.67 6.32 4.34 7.64 4 9 C0.125 7.125 0.125 7.125 -1 6 C-1.125 3.5 -1.125 3.5 -1 1 C-0.67 0.67 -0.34 0.34 0 0 Z " fill="#F25C66" transform="translate(326,340)"/>
<path d="M0 0 C0.66 0 1.32 0 2 0 C1.36870988 2.94602056 0.34200091 5.31599818 -1 8 C-1.36784131 9.3242287 -1.71202981 10.65613912 -2 12 C-4 11 -4 11 -6 8 C-5.34 7.34 -4.68 6.68 -4 6 C-4.33 5.01 -4.66 4.02 -5 3 C-4.360625 2.87625 -3.72125 2.7525 -3.0625 2.625 C-2.0415625 2.315625 -2.0415625 2.315625 -1 2 C-0.67 1.34 -0.34 0.68 0 0 Z " fill="#F95C6B" transform="translate(336,276)"/>
<path d="M0 0 C0.45890625 0.433125 0.9178125 0.86625 1.390625 1.3125 C2.00421875 1.869375 2.6178125 2.42625 3.25 3 C3.85328125 3.556875 4.4565625 4.11375 5.078125 4.6875 C7.162653 6.37597443 7.162653 6.37597443 11 6 C11.66 5.67 12.32 5.34 13 5 C12.34 6.65 11.68 8.3 11 10 C6.52329102 9.13909443 4.48852282 8.60125885 1.5625 5 C0 2 0 2 0 0 Z " fill="#FEE1DF" transform="translate(320,341)"/>
<path d="M0 0 C1.37562854 1.28965176 2.70766393 2.62689293 4 4 C4 4.66 4 5.32 4 6 C4.66 6 5.32 6 6 6 C6.33 5.34 6.66 4.68 7 4 C7 5.98 7 7.96 7 10 C4.13275314 9.42655063 3.1385485 9.1385485 1 7 C0.59952556 4.67724823 0.2602896 2.34260643 0 0 Z " fill="#F2626B" transform="translate(349,300)"/>
<path d="M0 0 C2 2 2 2 2.265625 4.49609375 C2.26046875 5.46675781 2.2553125 6.43742187 2.25 7.4375 C2.25515625 8.40558594 2.2603125 9.37367188 2.265625 10.37109375 C2 13 2 13 0 16 C-1.06822259 12.79533223 -1.07287631 10.35231034 -1 7 C-1 6.67 -1 6.34 -1 6 C-0.67329097 3.99890722 -0.34022786 1.99883869 0 0 Z " fill="#ED5357" transform="translate(443,286)"/>
<path d="M0 0 C1.11375 0.185625 2.2275 0.37125 3.375 0.5625 C6.82568861 1.31680657 6.82568861 1.31680657 9 0 C9 0.99 9 1.98 9 3 C6.98177083 3.42317708 4.96354167 3.84635417 2.9453125 4.26953125 C0.62953451 4.92308838 0.62953451 4.92308838 -1 8 C-1.38499891 9.65549531 -1.72793135 11.3222433 -2 13 C-2.33 13 -2.66 13 -3 13 C-3.31168286 8.42865137 -2.89810944 6.50188224 0 3 C0 2.01 0 1.02 0 0 Z " fill="#E88CA1" transform="translate(145,140)"/>
<path d="M0 0 C7.31571627 0.36578581 7.31571627 0.36578581 10.5625 3.375 C11.036875 4.24125 11.51125 5.1075 12 6 C11.67 6.99 11.34 7.98 11 9 C10.67 7.68 10.34 6.36 10 5 C6.7 4.34 3.4 3.68 0 3 C0 2.01 0 1.02 0 0 Z " fill="#EA8B9F" transform="translate(196,124)"/>
<path d="M0 0 C1.23556641 0.01740234 1.23556641 0.01740234 2.49609375 0.03515625 C3.32238281 0.04417969 4.14867187 0.05320312 5 0.0625 C5.63808594 0.07410156 6.27617187 0.08570313 6.93359375 0.09765625 C1.5812588 3.66587955 -4.69667094 4.42430934 -11.06640625 4.09765625 C-11.06640625 3.43765625 -11.06640625 2.77765625 -11.06640625 2.09765625 C-9.015625 1.86979167 -6.96484375 1.64192708 -4.9140625 1.4140625 C-2.61783848 1.0208402 -2.39679667 0.11327016 0 0 Z " fill="#D9565D" transform="translate(295.06640625,442.90234375)"/>
<path d="M0 0 C0.99 0.66 1.98 1.32 3 2 C1.02 2.99 1.02 2.99 -1 4 C-1 5.98 -1 7.96 -1 10 C-1.61875 9.814375 -2.2375 9.62875 -2.875 9.4375 C-5.04160178 8.76313824 -5.04160178 8.76313824 -7 10 C-2.87804878 1.43902439 -2.87804878 1.43902439 0 0 Z " fill="#F45560" transform="translate(369,333)"/>
<path d="M0 0 C-2.31 3.3 -4.62 6.6 -7 10 C-8.07318928 6.78043217 -7.870689 6.09578311 -7 3 C-7 2.01 -7 1.02 -7 0 C-3.98968256 -0.93423645 -3.13349732 -1.04449911 0 0 Z " fill="#EB6E7B" transform="translate(273,310)"/>
<path d="M0 0 C0.99 0 1.98 0 3 0 C3.66 4.95 4.32 9.9 5 15 C3.35 14.67 1.7 14.34 0 14 C-0.33 13.01 -0.66 12.02 -1 11 C-0.01 10.67 0.98 10.34 2 10 C1.814375 9.443125 1.62875 8.88625 1.4375 8.3125 C0.92448835 5.600867 1.3359276 3.65628961 2 1 C1.34 0.67 0.68 0.34 0 0 Z " fill="#F55A65" transform="translate(441,201)"/>
<path d="M0 0 C0.99 0 1.98 0 3 0 C2.67 0.66 2.34 1.32 2 2 C1.34 1.34 0.68 0.68 0 0 Z M-1 1 C2.465 2.485 2.465 2.485 6 4 C5.01 4.495 5.01 4.495 4 5 C4 5.66 4 6.32 4 7 C1.69 7 -0.62 7 -3 7 C-2.34 5.02 -1.68 3.04 -1 1 Z " fill="#F94C50" transform="translate(347,416)"/>
<path d="M0 0 C0.99 0.66 1.98 1.32 3 2 C0.03 4.97 -2.94 7.94 -6 11 C-6.33 10.01 -6.66 9.02 -7 8 C-6.34 8 -5.68 8 -5 8 C-5 7.01 -5 6.02 -5 5 C-4.34 5 -3.68 5 -3 5 C-3 4.01 -3 3.02 -3 2 C-2.01 2 -1.02 2 0 2 C0 1.34 0 0.68 0 0 Z " fill="#EB646D" transform="translate(338,336)"/>
<path d="M0 0 C2.10850329 3.16275494 3.28830876 6.13471538 4.625 9.6875 C5.07101562 10.86699219 5.51703125 12.04648438 5.9765625 13.26171875 C6.31429688 14.16535156 6.65203125 15.06898438 7 16 C6.01 16 5.02 16 4 16 C4 14.35 4 12.7 4 11 C3.34 11 2.68 11 2 11 C0.57741188 7.17679443 -0.24042276 4.08718695 0 0 Z " fill="#DE6671" transform="translate(433,169)"/>
<path d="M0 0 C7.48291572 6.15034169 7.48291572 6.15034169 10 10 C7.625 9.8125 7.625 9.8125 5 9 C3.6875 6.4375 3.6875 6.4375 3 4 C2.01 4 1.02 4 0 4 C0 2.68 0 1.36 0 0 Z " fill="#ED7380" transform="translate(292,336)"/>
<path d="M0 0 C0 3.72055546 -0.81297638 5.01106771 -3 8 C-6.1875 10.3125 -6.1875 10.3125 -9 12 C-9.66 11.67 -10.32 11.34 -11 11 C-7.37 7.37 -3.74 3.74 0 0 Z " fill="#FEE6E7" transform="translate(346,332)"/>
<path d="M0 0 C1.32 1.65 2.64 3.3 4 5 C3.34 6.32 2.68 7.64 2 9 C1.67 8.34 1.34 7.68 1 7 C0.01 6.67 -0.98 6.34 -2 6 C-1.125 1.125 -1.125 1.125 0 0 Z " fill="#F6606A" transform="translate(426,159)"/>
<path d="M0 0 C0.60134766 0.6496875 0.60134766 0.6496875 1.21484375 1.3125 C4.69600045 4.72261269 6.94615608 6.42238618 11.9375 6.375 C13.29409299 6.27987996 14.65015829 6.16528674 16 6 C15.67 6.66 15.34 7.32 15 8 C11.7 8 8.4 8 5 8 C4.67 7.01 4.34 6.02 4 5 C3.01 4.67 2.02 4.34 1 4 C0.3125 1.9375 0.3125 1.9375 0 0 Z " fill="#E97177" transform="translate(318,362)"/>
<path d="M0 0 C0.60328125 0.08378906 1.2065625 0.16757813 1.828125 0.25390625 C3.02695313 0.40666016 3.02695313 0.40666016 4.25 0.5625 C5.03890625 0.66691406 5.8278125 0.77132812 6.640625 0.87890625 C9.00532874 1.00027349 10.7511037 0.69633257 13 0 C12.34 1.32 11.68 2.64 11 4 C3.57142857 4.28571429 3.57142857 4.28571429 0 2 C0 1.34 0 0.68 0 0 Z " fill="#E98C9E" transform="translate(193,165)"/>
<path d="M0 0 C2.97 0.495 2.97 0.495 6 1 C4.75 3.5 4.75 3.5 3 6 C1.68 6 0.36 6 -1 6 C-1.33 4.68 -1.66 3.36 -2 2 C-1.34 2 -0.68 2 0 2 C0 1.34 0 0.68 0 0 Z " fill="#F189A6" transform="translate(154,74)"/>
<path d="M0 0 C1.07999887 3.2399966 0.92129428 4.38363535 0.1875 7.625 C0.01605469 8.42164063 -0.15539062 9.21828125 -0.33203125 10.0390625 C-1 12 -1 12 -3 13 C-3.152 3.88 -3.152 3.88 -2 1 C-1.34 0.67 -0.68 0.34 0 0 Z " fill="#FA4D51" transform="translate(427,333)"/>
<path d="M0 0 C1.32 0.99 2.64 1.98 4 3 C2.63016497 6.16115776 2.0109362 6.9927092 -1 9 C-2.0326802 6.21176345 -2.04509293 5.1322726 -1.0625 2.25 C-0.711875 1.5075 -0.36125 0.765 0 0 Z " fill="#EF616C" transform="translate(345,325)"/>
<path d="M0 0 C0.66 0.33 1.32 0.66 2 1 C1.67 1.66 1.34 2.32 1 3 C0.74202425 6.95562822 0.90559811 9.59659693 3 13 C2.01 13 1.02 13 0 13 C-1.79477439 9.18610442 -2.37453719 6.21354337 -2 2 C-1.34 1.34 -0.68 0.68 0 0 Z " fill="#E88393" transform="translate(143,242)"/>
<path d="M0 0 C0.33 0.66 0.66 1.32 1 2 C1.66 2 2.32 2 3 2 C3.33 3.65 3.66 5.3 4 7 C4.66 7 5.32 7 6 7 C5.67 8.65 5.34 10.3 5 12 C4.01 12.33 3.02 12.66 2 13 C2 10.03 2 7.06 2 4 C1.01 3.67 0.02 3.34 -1 3 C-0.67 2.01 -0.34 1.02 0 0 Z " fill="#F45C67" transform="translate(434,178)"/>
<path d="M0 0 C1.65 0.99 3.3 1.98 5 3 C2.66785852 4.20628008 0.50357861 5.1654738 -2 6 C-2.33 6.66 -2.66 7.32 -3 8 C-3.66 7.67 -4.32 7.34 -5 7 C-3.35 4.69 -1.7 2.38 0 0 Z " fill="#EB747F" transform="translate(281,326)"/>
<path d="M0 0 C2.55803184 3.83704776 4.34505724 7.75712791 3.625 12.4375 C3.41875 12.953125 3.2125 13.46875 3 14 C2.34 13.67 1.68 13.34 1 13 C1.33 11.35 1.66 9.7 2 8 C1.34 8 0.68 8 0 8 C0 5.36 0 2.72 0 0 Z " fill="#EB889A" transform="translate(195,214)"/>
<path d="M0 0 C4.875 4.625 4.875 4.625 6 8 C2.20411134 7.45773019 0.52788007 5.79872437 -2 3 C-2.33 3.99 -2.66 4.98 -3 6 C-3 4.68 -3 3.36 -3 2 C-2.01 2 -1.02 2 0 2 C0 1.34 0 0.68 0 0 Z " fill="#E36777" transform="translate(412,133)"/>
<path d="M0 0 C1.32 0 2.64 0 4 0 C2.79618552 2.49361571 1.54571278 4.68143083 0 7 C-1.32 7 -2.64 7 -4 7 C-4 6.34 -4 5.68 -4 5 C-2.66666667 4 -1.33333333 3 0 2 C0 1.34 0 0.68 0 0 Z " fill="#F55D65" transform="translate(364,256)"/>
<path d="M0 0 C2.64 1.65 5.28 3.3 8 5 C7.67 5.66 7.34 6.32 7 7 C4.03 6.505 4.03 6.505 1 6 C0.67 4.02 0.34 2.04 0 0 Z " fill="#E97083" transform="translate(365,86)"/>
<path d="M0 0 C0.33 1.32 0.66 2.64 1 4 C-1.375 4.625 -1.375 4.625 -4 5 C-4.66 4.34 -5.32 3.68 -6 3 C-3.375 0 -3.375 0 0 0 Z " fill="#FB4D54" transform="translate(320,432)"/>
<path d="M0 0 C0.66 0 1.32 0 2 0 C2 0.66 2 1.32 2 2 C2.66 2 3.32 2 4 2 C3.67 2.66 3.34 3.32 3 4 C2.34 3.67 1.68 3.34 1 3 C1.33 3.99 1.66 4.98 2 6 C1.01 6 0.02 6 -1 6 C-1.33 6.99 -1.66 7.98 -2 9 C-2.625 6.625 -2.625 6.625 -3 4 C-2.34 3.34 -1.68 2.68 -1 2 C-0.67 1.34 -0.34 0.68 0 0 Z " fill="#FB4A4E" transform="translate(404,368)"/>
<path d="M0 0 C1.17539996 0.92652701 2.34010577 1.86663387 3.5 2.8125 C4.1496875 3.33457031 4.799375 3.85664063 5.46875 4.39453125 C7 6 7 6 7 9 C6.34 9 5.68 9 5 9 C0 3.64285714 0 3.64285714 0 0 Z " fill="#FEE1E0" transform="translate(286,307)"/>
<path d="M0 0 C-0.8125 2.4375 -0.8125 2.4375 -2 5 C-2.99 5.33 -3.98 5.66 -5 6 C-5.66 6.66 -6.32 7.32 -7 8 C-7 6.68 -7 5.36 -7 4 C-2.77777778 0 -2.77777778 0 0 0 Z " fill="#FEE5E5" transform="translate(313,271)"/>
<path d="M0 0 C0 0.99 0 1.98 0 3 C-0.99 3.495 -0.99 3.495 -2 4 C-1.34 2.68 -0.68 1.36 0 0 Z M-1 5 C-1.33 5.66 -1.66 6.32 -2 7 C-4.64860427 7.59355614 -7.29197322 7.74209269 -10 8 C-8.01532024 4.03064049 -4.9567243 3.58688418 -1 5 Z " fill="#F1798D" transform="translate(166,247)"/>
<path d="M0 0 C8.44646925 6.15034169 8.44646925 6.15034169 12 10 C6.25 8.375 6.25 8.375 4 5 C3.01 4.67 2.02 4.34 1 4 C0.3125 1.9375 0.3125 1.9375 0 0 Z " fill="#D77384" transform="translate(373,92)"/>
<path d="M0 0 C1.60495567 0.11442461 3.20898119 0.24194694 4.8125 0.375 C5.70582031 0.44460937 6.59914063 0.51421875 7.51953125 0.5859375 C10 1 10 1 13 3 C7.52667068 4.46845421 4.88077452 3.44038726 0 1 C0 0.67 0 0.34 0 0 Z " fill="#DD7D8F" transform="translate(293,55)"/>
<path d="M0 0 C5.32697239 1.45281065 8.36402802 5.08111378 12 9 C8.0557333 9 7.17603973 7.68625863 4.3125 5.0625 C3.50425781 4.33160156 2.69601563 3.60070312 1.86328125 2.84765625 C1.24839844 2.23792969 0.63351563 1.62820313 0 1 C0 0.67 0 0.34 0 0 Z " fill="#D67380" transform="translate(112,395)"/>
<path d="M0 0 C1.14926266 0.95421808 2.29430541 1.91352045 3.4375 2.875 C4.07558594 3.40867187 4.71367187 3.94234375 5.37109375 4.4921875 C7 6 7 6 8 8 C6.35 7.67 4.7 7.34 3 7 C2.67 6.01 2.34 5.02 2 4 C1.01 3.67 0.02 3.34 -1 3 C-0.67 2.01 -0.34 1.02 0 0 Z " fill="#ED737D" transform="translate(302,346)"/>
<path d="M0 0 C0.33 0.66 0.66 1.32 1 2 C0.36328125 3.91015625 0.36328125 3.91015625 -0.6875 6.0625 C-1.18830078 7.13177734 -1.18830078 7.13177734 -1.69921875 8.22265625 C-3 10 -3 10 -7 11 C-4.69 7.37 -2.38 3.74 0 0 Z " fill="#ED7783" transform="translate(272,339)"/>
<path d="M0 0 C0 3.70411834 -0.75301769 5.078923 -3 8 C-6.1875 9.3125 -6.1875 9.3125 -9 10 C-8.06409496 8.8944811 -7.12620142 7.79064547 -6.1875 6.6875 C-5.66542969 6.07261719 -5.14335937 5.45773437 -4.60546875 4.82421875 C-3.12827531 3.14575321 -1.59960869 1.56117966 0 0 Z " fill="#E6676E" transform="translate(365,336)"/>
<path d="M0 0 C0 3 0 3 -1.4375 4.5 C-1.953125 4.995 -2.46875 5.49 -3 6 C-3.33 6.99 -3.66 7.98 -4 9 C-5.65 9.33 -7.3 9.66 -9 10 C-8.06409496 8.8944811 -7.12620142 7.79064547 -6.1875 6.6875 C-5.66542969 6.07261719 -5.14335937 5.45773438 -4.60546875 4.82421875 C-3.12827531 3.14575321 -1.59960869 1.56117966 0 0 Z " fill="#FEE2E6" transform="translate(155,232)"/>
<path d="M0 0 C1.9375 0.6875 1.9375 0.6875 2.9375 2.6875 C2.2775 2.6875 1.6175 2.6875 0.9375 2.6875 C0.6075 3.6775 0.2775 4.6675 -0.0625 5.6875 C-0.3925 4.6975 -0.7225 3.7075 -1.0625 2.6875 C-2.3825 3.0175 -3.7025 3.3475 -5.0625 3.6875 C-4.7325 2.6975 -4.4025 1.7075 -4.0625 0.6875 C-2.0625 -0.3125 -2.0625 -0.3125 0 0 Z " fill="#EB90AA" transform="translate(173.0625,65.3125)"/>
<path d="M0 0 C3.3 0.66 6.6 1.32 10 2 C10 2.33 10 2.66 10 3 C6.37 3 2.74 3 -1 3 C-0.67 2.01 -0.34 1.02 0 0 Z " fill="#DC7E91" transform="translate(282,52)"/>
<path d="M0 0 C2.97 1.98 2.97 1.98 6 4 C5.67 5.32 5.34 6.64 5 8 C3.02 5.69 1.04 3.38 -1 1 C-0.67 0.67 -0.34 0.34 0 0 Z " fill="#FEEDEB" transform="translate(318,359)"/>
<path d="M0 0 C0.33 0.99 0.66 1.98 1 3 C-0.4001116 5.8002232 -2.26572551 6.56776098 -5 8 C-5.99 8 -6.98 8 -8 8 C-5.36 5.36 -2.72 2.72 0 0 Z " fill="#E58898" transform="translate(252,158)"/>
<path d="M0 0 C0.33 0 0.66 0 1 0 C0.67 2.97 0.34 5.94 0 9 C-0.99 8.67 -1.98 8.34 -3 8 C-3.99 8.495 -3.99 8.495 -5 9 C-4.67 8.01 -4.34 7.02 -4 6 C-3.34 5.67 -2.68 5.34 -2 5 C-1.27840576 3.35636866 -0.60648579 1.68949614 0 0 Z " fill="#F65E69" transform="translate(271,343)"/>
<path d="M0 0 C2.97 0.495 2.97 0.495 6 1 C6.33 1.99 6.66 2.98 7 4 C5.1875 4.6875 5.1875 4.6875 3 5 C1.25 3.6875 1.25 3.6875 0 2 C0 1.34 0 0.68 0 0 Z " fill="#ED5F68" transform="translate(318,337)"/>
<path d="M0 0 C1.32 0.66 2.64 1.32 4 2 C4 2.99 4 3.98 4 5 C3.01 5.33 2.02 5.66 1 6 C-0.0625 4.125 -0.0625 4.125 -1 2 C-0.67 1.34 -0.34 0.68 0 0 Z " fill="#F05E6A" transform="translate(340,321)"/>
<path d="M0 0 C0.66 0.99 1.32 1.98 2 3 C0.35 3.66 -1.3 4.32 -3 5 C-3 5.66 -3 6.32 -3 7 C-3.66 7 -4.32 7 -5 7 C-4.60196439 4.11424181 -4.20990931 3.17810487 -1.9375 1.25 C-1.298125 0.8375 -0.65875 0.425 0 0 Z " fill="#F06572" transform="translate(363,256)"/>
<path d="M0 0 C0.66 0.99 1.32 1.98 2 3 C1.34 4.32 0.68 5.64 0 7 C-1.65 7 -3.3 7 -5 7 C-3.35 4.69 -1.7 2.38 0 0 Z " fill="#DF8BA2" transform="translate(100,116)"/>
<path d="M0 0 C1.17539996 0.92652701 2.34010577 1.86663387 3.5 2.8125 C4.1496875 3.33457031 4.799375 3.85664062 5.46875 4.39453125 C7 6 7 6 7 9 C6.34 8.67 5.68 8.34 5 8 C5 7.34 5 6.68 5 6 C4.34 6 3.68 6 3 6 C3 5.34 3 4.68 3 4 C2.01 3.67 1.02 3.34 0 3 C0 2.01 0 1.02 0 0 Z " fill="#D76E7C" transform="translate(390,107)"/>
<path d="M0 0 C0.33 0.66 0.66 1.32 1 2 C0.22265625 3.7265625 0.22265625 3.7265625 -0.9375 5.625 C-1.618125 6.73875 -2.29875 7.8525 -3 9 C-3.66 7.68 -4.32 6.36 -5 5 C-3.35 3.35 -1.7 1.7 0 0 Z " fill="#DE5459" transform="translate(425,345)"/>
<path d="M0 0 C3.91402949 1.26941497 5.79072873 2.51167694 8 6 C7.67 6.66 7.34 7.32 7 8 C3.75700849 5.61042731 1.49097658 3.7952131 0 0 Z " fill="#E7727E" transform="translate(295,315)"/>
<path d="M0 0 C0.66 0.33 1.32 0.66 2 1 C2.25 6.625 2.25 6.625 0 10 C-0.66 9.67 -1.32 9.34 -2 9 C-1.34 6.03 -0.68 3.06 0 0 Z " fill="#E88A9C" transform="translate(167,196)"/>
<path d="M0 0 C1.485 0.99 1.485 0.99 3 2 C3 2.66 3 3.32 3 4 C3.99 4.33 4.98 4.66 6 5 C5.67 5.66 5.34 6.32 5 7 C3.35 7 1.7 7 0 7 C0.2784375 6.1028125 0.2784375 6.1028125 0.5625 5.1875 C1.22093687 2.83591238 1.22093687 2.83591238 0 0 Z " fill="#F26470" transform="translate(411,136)"/>
<path d="M0 0 C2.31 0.33 4.62 0.66 7 1 C5 3 5 3 1.375 3.125 C0.26125 3.08375 -0.8525 3.0425 -2 3 C-1.34 2.67 -0.68 2.34 0 2 C0 1.34 0 0.68 0 0 Z " fill="#F85052" transform="translate(297,440)"/>
<path d="M0 0 C1.32 0.33 2.64 0.66 4 1 C1.36 2.65 -1.28 4.3 -4 6 C-4.33 5.34 -4.66 4.68 -5 4 C-4.67 3.34 -4.34 2.68 -4 2 C-2.68 2 -1.36 2 0 2 C0 1.34 0 0.68 0 0 Z " fill="#DC545B" transform="translate(365,411)"/>
<path d="M0 0 C1 3 1 3 0.0625 5.1875 C-0.4634375 6.0846875 -0.4634375 6.0846875 -1 7 C-1.66 6.67 -2.32 6.34 -3 6 C-3 4.68 -3 3.36 -3 2 C-2.01 1.34 -1.02 0.68 0 0 Z " fill="#F1616B" transform="translate(259,361)"/>
<path d="M0 0 C1.32 0 2.64 0 4 0 C3.67 1.65 3.34 3.3 3 5 C1.68 4.34 0.36 3.68 -1 3 C-0.67 2.01 -0.34 1.02 0 0 Z " fill="#F24E54" transform="translate(417,352)"/>
<path d="M0 0 C0.99 0.33 1.98 0.66 3 1 C2.34 3.64 1.68 6.28 1 9 C0.67 9 0.34 9 0 9 C-1.125 2.25 -1.125 2.25 0 0 Z " fill="#E05257" transform="translate(436,315)"/>
<path d="M0 0 C2.31 1.98 4.62 3.96 7 6 C5.68 6.33 4.36 6.66 3 7 C0 2.25 0 2.25 0 0 Z " fill="#EA6877" transform="translate(308,288)"/>
<path d="M0 0 C3.83736322 0.95934081 4.59660228 1.23609263 7 4 C6.67 4.99 6.34 5.98 6 7 C4.02 4.69 2.04 2.38 0 0 Z " fill="#FEDCDB" transform="translate(310,289)"/>
<path d="M0 0 C2.12508244 3.18762365 2.5020163 5.26512223 3 9 C1.68 8.34 0.36 7.68 -1 7 C-0.67 4.69 -0.34 2.38 0 0 Z " fill="#DE6773" transform="translate(441,191)"/>
<path d="M0 0 C2.475 0.99 2.475 0.99 5 2 C4.67 3.32 4.34 4.64 4 6 C2.68 5.34 1.36 4.68 0 4 C0 2.68 0 1.36 0 0 Z " fill="#F46372" transform="translate(146,416)"/>
<path d="M0 0 C0.33 0.99 0.66 1.98 1 3 C2.65 3.33 4.3 3.66 6 4 C6 4.66 6 5.32 6 6 C4.02 6 2.04 6 0 6 C0 4.02 0 2.04 0 0 Z " fill="#F45962" transform="translate(304,350)"/>
<path d="M0 0 C2.475 0.495 2.475 0.495 5 1 C5.33 2.65 5.66 4.3 6 6 C3.97945196 4.35830472 1.97956942 2.69088222 0 1 C0 0.67 0 0.34 0 0 Z " fill="#FDDFDB" transform="translate(343,322)"/>
<path d="M0 0 C1.65 0 3.3 0 5 0 C5.33 1.98 5.66 3.96 6 6 C3.97945196 4.35830472 1.97956942 2.69088222 0 1 C0 0.67 0 0.34 0 0 Z " fill="#EE747F" transform="translate(344,300)"/>
<path d="M0 0 C0.66 0.33 1.32 0.66 2 1 C1.195625 1.61875 0.39125 2.2375 -0.4375 2.875 C-3.03874519 4.74164041 -3.03874519 4.74164041 -4 7 C-4.99 6.67 -5.98 6.34 -7 6 C-4.74259377 3.66475218 -2.7194239 1.81294927 0 0 Z " fill="#FEE2E2" transform="translate(332,257)"/>
<path d="M0 0 C0.98120464 3.05263664 0.98120464 4.94736336 0 8 C-0.66 8 -1.32 8 -2 8 C-2.125 5.125 -2.125 5.125 -2 2 C-1.34 1.34 -0.68 0.68 0 0 Z " fill="#F186A0" transform="translate(55,214)"/>
<path d="M0 0 C2.29633824 3.44450737 2.54016485 5.93812283 3 10 C1.5 8.9375 1.5 8.9375 0 7 C-0.1875 3.3125 -0.1875 3.3125 0 0 Z " fill="#FDE1E8" transform="translate(127,196)"/>
</svg>
