<?xml version="1.0" encoding="UTF-8"?>
<svg version="1.1" xmlns="http://www.w3.org/2000/svg" width="500" height="500">
<path d="M0 0 C0.85589722 0.00182281 1.71179443 0.00364563 2.59362793 0.00552368 C15.52671365 0.05183611 28.1423978 0.48742827 40.8125 3.3125 C41.59318848 3.48410645 42.37387695 3.65571289 43.17822266 3.83251953 C61.58808561 8.01708923 79.22644739 14.29748226 95.8125 23.3125 C96.40724121 23.62799805 97.00198242 23.94349609 97.61474609 24.26855469 C123.05769462 37.79980039 145.96974 57.96965565 162.8125 81.3125 C163.29428711 81.97701172 163.77607422 82.64152344 164.27246094 83.32617188 C180.93349414 106.58874653 191.84621872 132.40262833 197.8125 160.3125 C197.97766113 161.03791992 198.14282227 161.76333984 198.31298828 162.51074219 C207.56713184 204.40799194 199.66806983 251.3307955 180.8125 289.3125 C180.49845215 289.95687012 180.1844043 290.60124023 179.86083984 291.26513672 C170.68248184 309.94031466 157.93485222 326.12102605 143.8125 341.3125 C143.1628125 342.02792969 142.513125 342.74335938 141.84375 343.48046875 C116.96631934 369.74529458 81.57436223 387.25763344 46.875 395.75 C45.44003174 396.10239746 45.44003174 396.10239746 43.97607422 396.46191406 C29.62645852 399.7480856 15.23474618 400.69896818 0.5625 400.625 C-0.57603928 400.62226578 -0.57603928 400.62226578 -1.73757935 400.61947632 C-14.08786117 400.56979621 -26.07437128 399.89337268 -38.1875 397.3125 C-39.0223291 397.13557617 -39.8571582 396.95865234 -40.71728516 396.77636719 C-73.80206707 389.53535841 -104.73758742 374.87808915 -130.1875 352.3125 C-131.0434375 351.56484375 -131.899375 350.8171875 -132.78125 350.046875 C-169.63091461 317.41494308 -194.47534429 270.51723019 -199.1875 221.3125 C-199.56576703 214.52576664 -199.57748656 207.73284646 -199.5625 200.9375 C-199.56195618 200.00974762 -199.56141235 199.08199524 -199.56085205 198.12612915 C-199.52153704 183.52280446 -198.7010147 169.54425381 -195.1875 155.3125 C-194.87401611 153.98847168 -194.87401611 153.98847168 -194.55419922 152.63769531 C-185.82677504 116.59049161 -166.64790355 84.93349175 -141.1875 58.3125 C-140.23230469 57.29542969 -140.23230469 57.29542969 -139.2578125 56.2578125 C-103.67566253 19.31366636 -50.50109499 -0.22392852 0 0 Z " fill="#FDB4D1" transform="translate(249.1875,49.6875)"/>
<path d="M0 0 C11.47663673 9.56082297 20.54934816 24.25388722 22.19482422 39.29931641 C22.34800618 42.41468592 22.39360834 45.50595543 22.375 48.625 C22.37000488 49.72602051 22.36500977 50.82704102 22.35986328 51.96142578 C22.17302108 60.70177494 20.8473519 67.50366417 16.875 75.375 C16.18857422 76.84259766 16.18857422 76.84259766 15.48828125 78.33984375 C10.79678178 87.70998927 4.51327017 94.55738948 -4.125 100.375 C-4.455 101.035 -4.785 101.695 -5.125 102.375 C-4.361875 102.58125 -3.59875 102.7875 -2.8125 103 C11.48523812 108.33135998 24.53395675 118.34390575 33.875 130.375 C34.45378906 131.1071875 35.03257812 131.839375 35.62890625 132.59375 C47.49287282 148.51853735 53.97680881 166.84038963 54.1875 186.6875 C54.21650391 187.58662109 54.24550781 188.48574219 54.27539062 189.41210938 C54.36353654 198.78947844 51.21515911 205.73629911 44.875 212.58203125 C38.6954808 218.12187366 32.26700682 220.48095133 24.07713318 220.53562927 C22.89272141 220.5456749 21.70830963 220.55572052 20.48800659 220.56607056 C19.19186432 220.57190155 17.89572205 220.57773254 16.56030273 220.58374023 C15.17856105 220.59328351 13.79682173 220.60317488 12.41508484 220.61338806 C7.87961649 220.64472683 3.34413009 220.66503876 -1.19140625 220.68359375 C-1.96440402 220.68689107 -2.73740179 220.69018839 -3.53382373 220.69358563 C-10.83156382 220.72437103 -18.12930822 220.75106381 -25.42709446 220.76800442 C-34.74181692 220.78988469 -44.0559611 220.83180526 -53.37045246 220.90144199 C-59.93030764 220.94880751 -66.49000752 220.97295483 -73.05002826 220.9802013 C-76.96243515 220.98513977 -80.8741897 221.00004578 -84.78640938 221.0399456 C-88.47288972 221.07704761 -92.15835158 221.08514606 -95.84498405 221.07193947 C-97.82652818 221.07201838 -99.80800362 221.10171823 -101.78930664 221.13262939 C-111.55736418 221.05399869 -118.39294409 218.39316816 -125.84375 212.06640625 C-126.4315625 211.36386719 -127.019375 210.66132813 -127.625 209.9375 C-128.2334375 209.23753906 -128.841875 208.53757812 -129.46875 207.81640625 C-134.06267585 201.04469951 -134.64477302 195.47039844 -134.5625 187.4375 C-134.55331543 185.91539917 -134.55331543 185.91539917 -134.54394531 184.36254883 C-134.09720656 162.62183555 -125.20152068 143.63204885 -111.125 127.375 C-110.20267578 126.21677734 -110.20267578 126.21677734 -109.26171875 125.03515625 C-100.22590581 114.02578245 -87.88642951 107.23206947 -75.125 101.375 C-75.91003906 100.76914063 -76.69507813 100.16328125 -77.50390625 99.5390625 C-84.30608868 94.16578255 -89.68770227 88.93749129 -94.125 81.375 C-94.58390625 80.61960937 -95.0428125 79.86421875 -95.515625 79.0859375 C-102.83333205 65.9052483 -105.59479777 49.358729 -101.9375 34.6875 C-101.36400161 32.90649813 -100.75903847 31.13535885 -100.125 29.375 C-99.80789062 28.42238281 -99.49078125 27.46976563 -99.1640625 26.48828125 C-93.28605845 10.54263197 -81.56109735 -1.01852919 -66.3527832 -8.31811523 C-43.69891138 -18.68906934 -19.76941409 -14.68236917 0 0 Z " fill="#D7638E" transform="translate(290.125,146.625)"/>
<path d="M0 0 C15.78131031 12.14728877 25.84016653 30.40323464 29 50 C30.26594567 64.45767503 30.26594567 64.45767503 27.578125 69.85546875 C24.65033864 73.28998737 22.44569738 75.13850495 18 76 C16.16374812 76.09617824 14.32440798 76.13910409 12.48565674 76.14717102 C11.36422272 76.15432632 10.2427887 76.16148163 9.08737183 76.16885376 C7.86132233 76.17154266 6.63527283 76.17423157 5.37207031 76.17700195 C4.07735809 76.18357315 2.78264587 76.19014435 1.44869995 76.19691467 C-2.84147919 76.21791239 -7.1316585 76.228313 -11.421875 76.23828125 C-12.90138009 76.2423304 -14.380885 76.24644737 -15.86038971 76.25063133 C-22.81223543 76.26967354 -29.7640706 76.28390663 -36.71593738 76.2922433 C-44.72917374 76.30201261 -52.74213365 76.32832797 -60.75527263 76.36874419 C-66.95670321 76.39894473 -73.15805472 76.41371589 -79.35955739 76.41702431 C-83.05988552 76.41937029 -86.75991797 76.42827135 -90.46016693 76.45348549 C-94.59178456 76.48118523 -98.72278749 76.4769231 -102.85449219 76.4699707 C-104.07244476 76.48278076 -105.29039734 76.49559082 -106.54525757 76.50878906 C-113.5071667 76.46611081 -118.08984577 75.77031695 -124 72 C-127.79930174 67.81624511 -127.54033778 63.07182712 -127.5 57.6875 C-127.49427979 56.80247803 -127.48855957 55.91745605 -127.48266602 55.00561523 C-127.02330643 37.79587064 -119.25330393 21.85388327 -108 9 C-107.44183594 8.34773438 -106.88367188 7.69546875 -106.30859375 7.0234375 C-78.33917954 -23.30193168 -31.85543595 -24.17887346 0 0 Z " fill="#FBC4DA" transform="translate(299,275)"/>
<path d="M0 0 C9.02637945 6.99579177 15.13135313 16.72508301 17.53515625 27.96484375 C18.86080674 43.12114295 16.71709636 54.62509355 7.53515625 66.96484375 C6.85453125 67.97546875 6.17390625 68.98609375 5.47265625 70.02734375 C-1.56128999 78.15041715 -13.24599618 83.36824478 -23.7734375 84.23828125 C-37.94782641 84.64193307 -50.29142397 81.23423376 -61.04296875 71.671875 C-66.44018092 66.05126828 -69.69629056 60.20310931 -72.46484375 52.96484375 C-73.01205078 51.86269531 -73.01205078 51.86269531 -73.5703125 50.73828125 C-76.64485344 41.20586173 -75.53970102 27.78546894 -71.84765625 18.6328125 C-64.92815755 5.28248026 -54.80702691 -3.46995314 -40.46484375 -8.03515625 C-25.57417009 -11.11598528 -12.52293287 -8.52280179 0 0 Z " fill="#FBC6DA" transform="translate(278.46484375,158.03515625)"/>
<path d="M0 0 C3.6875 0.875 3.6875 0.875 7 2 C6.01 2.495 6.01 2.495 5 3 C4.34444881 5.52733235 4.34444881 5.52733235 4 8 C-1.75 6.125 -1.75 6.125 -4 5 C-3 2 -3 2 0 0 Z " fill="#FBC4DA" transform="translate(289,244)"/>
<path d="M0 0 C0.66 0.99 1.32 1.98 2 3 C2.99 3.33 3.98 3.66 5 4 C5.99 5.485 5.99 5.485 7 7 C7.99 7 8.98 7 10 7 C10.66 8.98 11.32 10.96 12 13 C7.68269587 12.52590352 5.66352539 9.96603297 2.75 6.9375 C1.85796875 6.01839844 0.9659375 5.09929687 0.046875 4.15234375 C-0.62859375 3.44207031 -1.3040625 2.73179687 -2 2 C-1.34 1.34 -0.68 0.68 0 0 Z " fill="#F4BBD3" transform="translate(106,386)"/>
<path d="M0 0 C3.95906817 1.43308135 7.28718181 3.33141949 10.8125 5.625 C11.78832031 6.25664063 12.76414062 6.88828125 13.76953125 7.5390625 C14.50558594 8.02117187 15.24164063 8.50328125 16 9 C15.67 9.66 15.34 10.32 15 11 C14.4225 10.690625 13.845 10.38125 13.25 10.0625 C11.0792179 8.92922397 11.0792179 8.92922397 8.875 8.5625 C7 8 7 8 5 5 C4.13375 4.484375 3.2675 3.96875 2.375 3.4375 C1.59125 2.963125 0.8075 2.48875 0 2 C0 1.34 0 0.68 0 0 Z " fill="#F2B9D0" transform="translate(347,75)"/>
<path d="M0 0 C0.84851771 2.37584959 1.11247406 3.63954097 0.3515625 6.078125 C-1.34406207 8.48924433 -3.01466163 9.40754027 -5.625 10.75 C-6.44226563 11.17796875 -7.25953125 11.6059375 -8.1015625 12.046875 C-8.72804688 12.36140625 -9.35453125 12.6759375 -10 13 C-8.48446596 9.52224821 -6.4226544 7.0442016 -3.875 4.25 C-3.15054688 3.45078125 -2.42609375 2.6515625 -1.6796875 1.828125 C-0.84824219 0.92320313 -0.84824219 0.92320313 0 0 Z " fill="#F5BED4" transform="translate(104,112)"/>
<path d="M0 0 C3.64630361 5.46945542 4.28778093 10.41384937 4.125 16.875 C4.11597656 17.56335938 4.10695313 18.25171875 4.09765625 18.9609375 C4.07432513 20.64077838 4.03846326 22.32043746 4 24 C4.66 24 5.32 24 6 24 C5.34 25.32 4.68 26.64 4 28 C3.67 28 3.34 28 3 28 C2.95101563 27.02160156 2.90203125 26.04320312 2.8515625 25.03515625 C2.44006241 17.81971493 1.72955419 11.03352039 0 4 C0 2.68 0 1.36 0 0 Z " fill="#D26E94" transform="translate(325,312)"/>
<path d="M0 0 C0.66 0.33 1.32 0.66 2 1 C1.61855607 3.65276917 1.18209887 4.81830943 -0.7421875 6.73828125 C-1.44601563 7.25777344 -2.14984375 7.77726562 -2.875 8.3125 C-3.92300781 9.11107422 -3.92300781 9.11107422 -4.9921875 9.92578125 C-5.65476562 10.28027344 -6.31734375 10.63476562 -7 11 C-7.99 10.67 -8.98 10.34 -10 10 C-6.7 6.7 -3.4 3.4 0 0 Z " fill="#F5BDD4" transform="translate(115,101)"/>
<path d="M0 0 C1.65 0 3.3 0 5 0 C5 0.66 5 1.32 5 2 C5.928125 2.1546875 5.928125 2.1546875 6.875 2.3125 C9 3 9 3 11 6 C9.5410574 5.52269162 8.08286504 5.04308958 6.625 4.5625 C5.81289062 4.29566406 5.00078125 4.02882813 4.1640625 3.75390625 C2 3 2 3 0 2 C0 1.34 0 0.68 0 0 Z " fill="#F1BAD1" transform="translate(163,429)"/>
<path d="M0 0 C0.99 0.33 1.98 0.66 3 1 C-0.96 4.465 -0.96 4.465 -5 8 C-5.33 6.68 -5.66 5.36 -6 4 C-3.1875 1.9375 -3.1875 1.9375 0 0 Z " fill="#F6BED4" transform="translate(384,396)"/>
<path d="M0 0 C1.65 0.33 3.3 0.66 5 1 C5 1.66 5 2.32 5 3 C3.46875 4.5078125 3.46875 4.5078125 1.5 6.125 C0.8503125 6.66382813 0.200625 7.20265625 -0.46875 7.7578125 C-0.9740625 8.16773438 -1.479375 8.57765625 -2 9 C-2.66 8.67 -3.32 8.34 -4 8 C-3.34 7.4225 -2.68 6.845 -2 6.25 C0.44290923 4.00346023 0.44290923 4.00346023 0 0 Z " fill="#FBC1D8" transform="translate(184,262)"/>
<path d="M0 0 C0.33 0.99 0.66 1.98 1 3 C-0.43359375 5.04296875 -0.43359375 5.04296875 -2.4375 7.1875 C-3.09621094 7.90292969 -3.75492187 8.61835938 -4.43359375 9.35546875 C-4.95050781 9.89816406 -5.46742188 10.44085938 -6 11 C-6.33 10.34 -6.66 9.68 -7 9 C-6.3125 6.9375 -6.3125 6.9375 -5 5 C-2.875 4.25 -2.875 4.25 -1 4 C-0.67 2.68 -0.34 1.36 0 0 Z " fill="#FCAECF" transform="translate(327,339)"/>
<path d="M0 0 C0 0.99 0 1.98 0 3 C-2.25 4.75 -2.25 4.75 -5 6 C-7.171875 5.578125 -7.171875 5.578125 -9 5 C-7.87926138 4.16094435 -6.75325453 3.32892169 -5.625 2.5 C-4.99851563 2.0359375 -4.37203125 1.571875 -3.7265625 1.09375 C-2 0 -2 0 0 0 Z " fill="#F2BED3" transform="translate(142,82)"/>
<path d="M0 0 C4.50802601 1.25805377 7.4912812 2.90407165 11 6 C6.87248551 5.39301257 3.6678852 3.96189209 0 2 C0 1.34 0 0.68 0 0 Z " fill="#F5C2D9" transform="translate(336,69)"/>
<path d="M0 0 C1.09658936 3.28976808 0.79953138 4.71303767 0 8 C-0.66 8 -1.32 8 -2 8 C-2.66 9.32 -3.32 10.64 -4 12 C-4.33 11.34 -4.66 10.68 -5 10 C-4.00390625 7.6171875 -4.00390625 7.6171875 -2.5625 4.875 C-1.85287109 3.50988281 -1.85287109 3.50988281 -1.12890625 2.1171875 C-0.75636719 1.41851562 -0.38382813 0.71984375 0 0 Z " fill="#FDB7D3" transform="translate(182,296)"/>
<path d="M0 0 C1.33332095 2.6666419 0.67102033 4.16680303 0 7 C-0.66 7 -1.32 7 -2 7 C-2.33 8.32 -2.66 9.64 -3 11 C-3.66 10.67 -4.32 10.34 -5 10 C-3.35 6.7 -1.7 3.4 0 0 Z " fill="#D36E94" transform="translate(196,163)"/>
<path d="M0 0 C3.59391114 1.33488128 6.75490696 2.96022723 10 5 C9.01 5.495 9.01 5.495 8 6 C4.4375 4.75 4.4375 4.75 1 3 C0.67 2.01 0.34 1.02 0 0 Z " fill="#F4C5D8" transform="translate(347,75)"/>
<path d="M0 0 C0.99 0.33 1.98 0.66 3 1 C3 1.66 3 2.32 3 3 C3.66 3 4.32 3 5 3 C5.33 4.32 5.66 5.64 6 7 C3.53199953 5.84826645 1.95216435 4.95216435 0 3 C0 2.01 0 1.02 0 0 Z " fill="#F1B2CC" transform="translate(97,377)"/>
<path d="M0 0 C2.99324263 1.0975223 3.84610901 1.67682892 5.25 4.625 C5.4975 5.40875 5.745 6.1925 6 7 C5.01 7 4.02 7 3 7 C0 2.77777778 0 2.77777778 0 0 Z " fill="#F3BCD1" transform="translate(82,358)"/>
<path d="M0 0 C0.33 0.99 0.66 1.98 1 3 C-0.21484375 5.26171875 -0.21484375 5.26171875 -1.9375 7.6875 C-2.50339844 8.49574219 -3.06929687 9.30398438 -3.65234375 10.13671875 C-4.09707031 10.75160156 -4.54179687 11.36648438 -5 12 C-5.33 11.34 -5.66 10.68 -6 10 C-4.78515625 7.6171875 -4.78515625 7.6171875 -3.0625 4.875 C-2.21365234 3.50988281 -2.21365234 3.50988281 -1.34765625 2.1171875 C-0.90292969 1.41851562 -0.45820313 0.71984375 0 0 Z " fill="#D36D93" transform="translate(172,282)"/>
<path d="M0 0 C0 3.64478912 -0.85802506 5.09303401 -3 8 C-5.1875 8.8125 -5.1875 8.8125 -7 9 C-2.85714286 2.57142857 -2.85714286 2.57142857 0 0 Z " fill="#FAB6D2" transform="translate(193,282)"/>
<path d="M0 0 C0.33 1.32 0.66 2.64 1 4 C0.01 4.33 -0.98 4.66 -2 5 C-2 5.66 -2 6.32 -2 7 C-3.32 7.33 -4.64 7.66 -6 8 C-4.02 5.36 -2.04 2.72 0 0 Z " fill="#FAB3D0" transform="translate(217,162)"/>
<path d="M0 0 C1.32 0.33 2.64 0.66 4 1 C4.33 2.32 4.66 3.64 5 5 C3.35 4.67 1.7 4.34 0 4 C0 2.68 0 1.36 0 0 Z " fill="#F8AECB" transform="translate(387,106)"/>
<path d="M0 0 C0.33 0.99 0.66 1.98 1 3 C-0.28965176 4.37562854 -1.62689293 5.70766393 -3 7 C-3.66 7 -4.32 7 -5 7 C-5 6.34 -5 5.68 -5 5 C-4.34 5 -3.68 5 -3 5 C-2.87625 4.360625 -2.7525 3.72125 -2.625 3.0625 C-2.41875 2.381875 -2.2125 1.70125 -2 1 C-1.34 0.67 -0.68 0.34 0 0 Z " fill="#F4BACF" transform="translate(404,375)"/>
<path d="M0 0 C0 3 0 3 -1.25 4.75 C-1.8275 5.1625 -2.405 5.575 -3 6 C-4.32 5.67 -5.64 5.34 -7 5 C-4.69 3.35 -2.38 1.7 0 0 Z " fill="#D16C92" transform="translate(201,255)"/>
<path d="M0 0 C1.98 1.65 3.96 3.3 6 5 C5.67 5.66 5.34 6.32 5 7 C3.0625 6.3125 3.0625 6.3125 1 5 C0.25 2.375 0.25 2.375 0 0 Z " fill="#F4C6DA" transform="translate(395,112)"/>
<path d="M0 0 C0.66 0.33 1.32 0.66 2 1 C-0.12055614 4.1808342 -1.63050557 5.31525278 -5 7 C-5.66 6.67 -6.32 6.34 -7 6 C-4.69 4.02 -2.38 2.04 0 0 Z " fill="#F5C3D8" transform="translate(131,88)"/>
</svg>
