<?xml version="1.0" encoding="UTF-8"?>
<svg version="1.1" xmlns="http://www.w3.org/2000/svg" width="500" height="500">
<path d="M0 0 C0.85373199 0.00182281 1.70746399 0.00364563 2.58706665 0.00552368 C15.51679553 0.05191121 28.07465114 0.55523502 40.75 3.3125 C41.57371094 3.48410645 42.39742187 3.65571289 43.24609375 3.83251953 C68.758045 9.2640023 93.64639159 19.95585638 114.75 35.3125 C115.7709375 36.04082031 116.791875 36.76914063 117.84375 37.51953125 C146.53578846 58.47226986 167.45078923 84.53189269 182.82836914 116.4309082 C183.45263592 117.70540465 184.09302332 118.97210859 184.74780273 120.23120117 C195.34543708 140.68166132 200.75752268 166.01141489 200.98828125 188.96484375 C200.99812042 189.7737355 201.00795959 190.58262726 201.01809692 191.41603088 C201.19447196 209.69772925 201.00567294 227.42575905 196.75 245.3125 C196.51925781 246.29492676 196.28851563 247.27735352 196.05078125 248.28955078 C187.8436856 281.93755735 170.24062825 312.97157346 146.17724609 337.83398438 C144.69358254 339.37094409 143.23227723 340.92751765 141.76953125 342.484375 C125.07501011 359.98237577 104.64661893 373.24502819 82.75 383.3125 C82.0895166 383.61784668 81.4290332 383.92319336 80.74853516 384.23779297 C35.40521281 404.86641642 -19.60670619 406.43177523 -66.3762207 389.51245117 C-76.34067594 385.7568758 -85.87919177 381.35774115 -95.25 376.3125 C-96.99990234 375.39210938 -96.99990234 375.39210938 -98.78515625 374.453125 C-113.06453554 366.66144566 -125.60130284 356.61700666 -137.25 345.3125 C-138.14549561 344.45567627 -138.14549561 344.45567627 -139.05908203 343.58154297 C-147.61247091 335.37736108 -155.48179483 327.08190531 -162.25 317.3125 C-162.69827148 316.66555176 -163.14654297 316.01860352 -163.60839844 315.35205078 C-170.40708698 305.4214612 -176.23016063 295.24436674 -181.25 284.3125 C-181.5809668 283.60996094 -181.91193359 282.90742188 -182.25292969 282.18359375 C-200.28873925 243.59213903 -204.37748759 198.80994359 -195.25 157.3125 C-195.06808105 156.46349121 -194.88616211 155.61448242 -194.69873047 154.73974609 C-187.35777179 121.4463008 -170.2359715 90.41879778 -147.203125 65.453125 C-145.62097392 63.71908742 -144.14053119 61.96550618 -142.6875 60.125 C-139.50575756 56.45375873 -135.95293694 53.44529268 -132.25 50.3125 C-131.29996094 49.47460938 -130.34992188 48.63671875 -129.37109375 47.7734375 C-93.42820281 16.27065004 -47.5201387 -0.21177825 0 0 Z " fill="#EB5B69" transform="translate(249.25,49.6875)"/>
<path d="M0 0 C0.98097656 -0.00386719 1.96195313 -0.00773437 2.97265625 -0.01171875 C6.871712 0.90782141 9.32652038 2.74764409 11.9375 5.6875 C13.40840504 8.13994054 14.63868259 10.41913945 15.8125 13 C16.4131768 14.26734725 17.01479651 15.53424788 17.6171875 16.80078125 C17.96160889 17.53353271 18.30603027 18.26628418 18.66088867 19.02124023 C21.66129833 25.28772979 24.81908082 31.4790922 27.9375 37.6875 C28.70936896 39.22514939 29.48117797 40.76282887 30.25292969 42.30053711 C30.64256897 43.07686996 31.03220825 43.85320282 31.43365479 44.65306091 C33.01532925 47.80521089 34.59606542 50.95783076 36.17651367 54.1105957 C36.9873514 55.72715077 37.79889472 57.34335207 38.61108398 58.95922852 C39.80378586 61.33256566 40.99394062 63.70716476 42.18359375 66.08203125 C42.54706406 66.80381058 42.91053436 67.5255899 43.28501892 68.26924133 C44.6760221 71.05093357 45.95250682 73.73252046 46.9375 76.6875 C47.71851578 76.79359085 48.49953156 76.8996817 49.30421448 77.00898743 C56.73184226 78.01878882 64.15882619 79.03315782 71.58516026 80.05242634 C75.40141574 80.57605181 79.21788112 81.0980222 83.03491211 81.6159668 C86.73134897 82.11761381 90.42712162 82.62392575 94.12251091 83.13323021 C95.5193896 83.32496297 96.91648489 83.5151257 98.31381416 83.70354652 C105.63433923 84.69177009 112.92339103 85.79257493 120.17944336 87.17651367 C121.38587997 87.40626389 122.59231659 87.6360141 123.83531189 87.87272644 C128.89661601 89.20205162 131.17427669 91.3632511 134.3125 95.5 C135.65194794 100.18806779 135.63257618 104.086769 133.71582031 108.50097656 C131.84124475 111.85997714 129.84047847 114.15732462 127.12109375 116.8671875 C126.19232422 117.7953125 125.26355469 118.7234375 124.30664062 119.6796875 C123.82557861 120.15245117 123.3445166 120.62521484 122.84887695 121.11230469 C121.36674 122.57062728 119.89860476 124.04205622 118.43164062 125.515625 C111.20452009 132.6875 111.20452009 132.6875 108.9375 132.6875 C108.9375 133.3475 108.9375 134.0075 108.9375 134.6875 C107.63134766 136.01196289 107.63134766 136.01196289 105.7265625 137.59765625 C104.99598633 138.22172363 104.26541016 138.84579102 103.51269531 139.48876953 C102.66288086 140.21435059 101.81306641 140.93993164 100.9375 141.6875 C97.21843132 144.92579296 93.56247346 148.21230848 89.97021484 151.59057617 C88.86332198 152.6151449 87.73993746 153.62217378 86.60107422 154.61108398 C79.46738086 160.76962404 79.46738086 160.76962404 76.57568359 169.45507812 C76.85508169 172.91853543 77.59031888 176.24345022 78.43548584 179.60855103 C79.0941553 182.33624339 79.53164876 185.08001453 79.97283936 187.84977722 C80.41982931 190.63031042 80.92336589 193.39954524 81.42498779 196.1706543 C81.82364148 198.37408085 82.21631721 200.57851152 82.60791016 202.78320312 C83.77560367 209.33907892 84.9668828 215.88927942 86.21875 222.4296875 C86.4058252 223.41759277 86.59290039 224.40549805 86.78564453 225.42333984 C87.12204874 227.18829281 87.46601655 228.95183217 87.81982422 230.71337891 C89.11034754 237.48550074 90.02303909 244.43088274 87.8125 251.0625 C84.94085653 255.08280086 81.58472941 257.13842353 76.9375 258.6875 C69.93239358 259.5913847 65.31206605 256.71312265 59.375 253.4375 C58.36630859 252.89609375 57.35761719 252.3546875 56.31835938 251.796875 C53.18285976 250.10897988 50.05920271 248.40075605 46.9375 246.6875 C45.07444398 245.6714619 43.21117127 244.65582101 41.34765625 243.640625 C39.5442262 242.65633178 37.7408404 241.67195747 35.9375 240.6875 C33.22173649 239.20583855 30.50583574 237.72443826 27.7890625 236.24462891 C25.80246402 235.15982368 23.81826534 234.07061704 21.8359375 232.97802734 C18.71159878 231.26088848 15.57602112 229.56604796 12.4375 227.875 C11.47585938 227.34068359 10.51421875 226.80636719 9.5234375 226.25585938 C4.48390954 223.53819773 4.48390954 223.53819773 -1.0625 222.53125 C-5.75539125 224.3399685 -10.13726469 226.61826507 -14.5625 229 C-15.57280273 229.53544434 -16.58310547 230.07088867 -17.62402344 230.62255859 C-25.45827973 234.78808405 -33.24799825 239.03647019 -41.02856445 243.30126953 C-47.24423926 246.70679467 -53.48262424 250.0655463 -59.75 253.375 C-60.54631836 253.7973291 -61.34263672 254.2196582 -62.16308594 254.65478516 C-62.89688477 255.04069824 -63.63068359 255.42661133 -64.38671875 255.82421875 C-65.02697998 256.16155029 -65.66724121 256.49888184 -66.3269043 256.84643555 C-70.38473477 258.81284798 -73.59572941 259.12685448 -78.0625 258.6875 C-82.35678712 256.85947319 -85.35358898 254.68440612 -88.0625 250.875 C-90.59702815 242.79619151 -88.33916089 234.26618247 -86.9453125 226.1328125 C-86.61948685 224.18772293 -86.61948685 224.18772293 -86.28707886 222.20333862 C-85.82860805 219.46772547 -85.3659813 216.73286221 -84.89990234 213.99853516 C-84.30716478 210.5210738 -83.72136124 207.04249388 -83.13827705 203.56340218 C-82.57621795 200.21115601 -82.01086637 196.85947099 -81.4453125 193.5078125 C-81.23689728 192.27209503 -81.02848206 191.03637756 -80.81375122 189.76321411 C-79.79154444 183.76113903 -78.71592569 177.80484825 -77.318573 171.87741089 C-76.92673552 168.52645563 -77.26223538 165.82212785 -79.22987366 163.03237915 C-79.71870529 162.54941376 -80.20753693 162.06644836 -80.71118164 161.56884766 C-81.26588638 161.01121735 -81.82059113 160.45358704 -82.3921051 159.87905884 C-82.99618698 159.29248505 -83.60026886 158.70591125 -84.22265625 158.1015625 C-85.1576017 157.17154922 -85.1576017 157.17154922 -86.11143494 156.2227478 C-88.10677895 154.24313329 -90.11583053 152.27807042 -92.125 150.3125 C-93.45073206 148.99826507 -94.7756113 147.68316928 -96.09960938 146.3671875 C-101.66993911 140.84982507 -107.24730759 135.39476544 -113.2175293 130.30761719 C-117.12197864 126.87901776 -120.76318633 123.17128705 -124.4375 119.5 C-125.24316406 118.70658203 -126.04882812 117.91316406 -126.87890625 117.09570312 C-127.64847656 116.32806641 -128.41804688 115.56042969 -129.2109375 114.76953125 C-130.25000244 113.73662964 -130.25000244 113.73662964 -131.31005859 112.68286133 C-134.88688592 108.61022136 -135.5046217 105.22749971 -135.3828125 99.9375 C-134.76475036 95.59599034 -132.30850565 92.89053994 -129.25 89.9375 C-123.75998676 86.80034958 -117.40997656 86.20097696 -111.234375 85.46875 C-109.98989594 85.31363953 -109.98989594 85.31363953 -108.72027588 85.15539551 C-106.08496463 84.82753643 -103.44884222 84.50695412 -100.8125 84.1875 C-86.59549261 82.49530475 -86.59549261 82.49530475 -72.47753906 80.14306641 C-67.31388967 79.16900962 -62.09934403 78.48767198 -56.8984375 77.74414062 C-55.63386719 77.55948242 -55.63386719 77.55948242 -54.34375 77.37109375 C-53.59158203 77.26337646 -52.83941406 77.15565918 -52.06445312 77.04467773 C-49.86518212 76.7021074 -49.86518212 76.7021074 -47.0625 75.6875 C-45.72330334 73.74571989 -45.72330334 73.74571989 -44.56982422 71.28564453 C-44.09858124 70.34600861 -43.62733826 69.40637268 -43.14181519 68.43826294 C-42.63868805 67.40933929 -42.13556091 66.38041565 -41.6171875 65.3203125 C-41.08787628 64.256987 -40.55856506 63.1936615 -40.01321411 62.09811401 C-38.31192742 58.67413746 -36.62479186 55.24339095 -34.9375 51.8125 C-33.82379324 49.56857514 -32.70921937 47.32508043 -31.59375 45.08203125 C-30.49676603 42.8701039 -29.40040711 40.65786645 -28.3046875 38.4453125 C-27.76575867 37.35720276 -27.22682983 36.26909302 -26.67156982 35.14801025 C-24.20418734 30.13909284 -21.78256625 25.12114201 -19.49707031 20.02636719 C-18.90782272 18.72649368 -18.90782272 18.72649368 -18.30667114 17.40036011 C-17.59617783 15.82085526 -16.89993164 14.23481378 -16.22238159 12.64089966 C-13.05518487 5.61605069 -8.23288796 -0.20609337 0 0 Z " fill="#FEFDFE" transform="translate(250.0625,120.3125)"/>
<path d="M0 0 C0.99 0.495 0.99 0.495 2 1 C1.525625 1.928125 1.05125 2.85625 0.5625 3.8125 C-1.04488875 6.91196237 -1.04488875 6.91196237 -2 10 C-2.598125 9.79375 -3.19625 9.5875 -3.8125 9.375 C-6.28450846 8.69328085 -6.28450846 8.69328085 -9 11 C-9.25030977 13.58380177 -9.25030977 13.58380177 -9 16 C-10.093125 16.226875 -11.18625 16.45375 -12.3125 16.6875 C-16.60440392 18.21512682 -16.93415767 19.15002111 -19 23 C-20.64142963 24.0409066 -22.30712215 25.04504326 -24 26 C-26.30671915 28.71549154 -26.30671915 28.71549154 -25.625 31.1875 C-25.41875 31.785625 -25.2125 32.38375 -25 33 C-25.99 32.67 -26.98 32.34 -28 32 C-29.32 32 -30.64 32 -32 32 C-34.13496094 34.2931062 -35.00215582 36.00646747 -36 39 C-36.99 39.33 -37.98 39.66 -39 40 C-39.66 40.66 -40.32 41.32 -41 42 C-43.125 42.625 -43.125 42.625 -45 43 C-45.33 44.65 -45.66 46.3 -46 48 C-47.485 48.495 -47.485 48.495 -49 49 C-49.495 48.505 -49.495 48.505 -50 48 C-49.896875 48.9075 -49.79375 49.815 -49.6875 50.75 C-50 54 -50 54 -52.375 56.125 C-53.674375 57.053125 -53.674375 57.053125 -55 58 C-56.4082722 60.32364913 -57.13584942 62.40754825 -58 65 C-59.485 64.505 -59.485 64.505 -61 64 C-63.69400155 68.28591155 -65.80352967 72.03529666 -66.3125 77.125 C-67 80 -67 80 -69.4375 81.875 C-72 83 -72 83 -74 83 C-74.33 84.32 -74.66 85.64 -75 87 C-76 84 -76 84 -75.37011719 82.26098633 C-75.01594727 81.62443115 -74.66177734 80.98787598 -74.296875 80.33203125 C-73.89927979 79.61168701 -73.50168457 78.89134277 -73.09204102 78.14916992 C-72.42773071 76.99251831 -72.42773071 76.99251831 -71.75 75.8125 C-71.29616943 75.01239502 -70.84233887 74.21229004 -70.37475586 73.38793945 C-62.79777337 60.23884482 -54.03134063 48.3617166 -44 37 C-43.278125 36.15566406 -42.55625 35.31132813 -41.8125 34.44140625 C-37.5374998 29.49008766 -33.00485762 25.19899072 -28 21 C-27.05382812 20.16597656 -26.10765625 19.33195312 -25.1328125 18.47265625 C-17.21987986 11.54114398 -8.86468477 5.65230938 0 0 Z " fill="#EA525C" transform="translate(145,79)"/>
<path d="M0 0 C1.32 0.33 2.64 0.66 4 1 C2.23734333 4.67385182 0.45887654 8.33956315 -1.33447266 11.99853516 C-1.94203987 13.24380491 -2.54527776 14.49119679 -3.14404297 15.74072266 C-4.00642686 17.53842838 -4.88582875 19.32793894 -5.765625 21.1171875 C-6.55114746 22.73536377 -6.55114746 22.73536377 -7.35253906 24.38623047 C-9.12812988 27.20328371 -9.8808974 28.00527051 -13 29 C-15.01903219 29.40074519 -17.05362355 29.72619034 -19.09375 30 C-20.888125 30.2475 -20.888125 30.2475 -22.71875 30.5 C-24.59046875 30.7475 -24.59046875 30.7475 -26.5 31 C-28.94810512 31.33194646 -31.39602416 31.66526826 -33.84375 32 C-35.05313232 32.16491943 -36.26251465 32.32983887 -37.50854492 32.49975586 C-40.66886811 32.95255652 -43.81109512 33.46132138 -46.95703125 34.00390625 C-55.30700884 35.43012305 -63.72224695 36.40007727 -72.13085938 37.41210938 C-84.34357453 38.54859338 -84.34357453 38.54859338 -94.5 44.5625 C-96.44312986 47.72008603 -97.19348527 49.5668074 -97.3125 53.25 C-97.34988281 53.99765625 -97.38726562 54.7453125 -97.42578125 55.515625 C-96.46786399 61.10494041 -92.02202838 65.2219382 -88.12109375 69.07421875 C-87.20005859 69.98880859 -86.27902344 70.90339844 -85.33007812 71.84570312 C-84.36600732 72.79309281 -83.40181343 73.74035727 -82.4375 74.6875 C-81.46893547 75.64601415 -80.50083249 76.60499493 -79.53320312 77.56445312 C-77.75935222 79.32090115 -75.98345225 81.07528398 -74.20483398 82.8269043 C-72.46250257 84.54415509 -70.72666374 86.26703073 -69 88 C-70.0725 87.67 -71.145 87.34 -72.25 87 C-75.99731601 85.8282249 -75.99731601 85.8282249 -80 86 C-81.32 86 -82.64 86 -84 86 C-84 84.35 -84 82.7 -84 81 C-83.01 80.505 -83.01 80.505 -82 80 C-82 79.34 -82 78.68 -82 78 C-85.57644848 76.7619986 -88.33694766 77.25073929 -92 78 C-91.67 75.03 -91.34 72.06 -91 69 C-92.32 68.67 -93.64 68.34 -95 68 C-100.85695779 60.92541151 -100.56539081 52.71958277 -100 44 C-98.02 43.505 -98.02 43.505 -96 43 C-95.67 41.68 -95.34 40.36 -95 39 C-94.3709375 38.87882812 -93.741875 38.75765625 -93.09375 38.6328125 C-88.91318407 37.81432821 -84.78962103 36.96548622 -80.6875 35.8125 C-77.21805371 35.04804573 -75.33937501 34.95644531 -72 36 C-71.67 35.01 -71.34 34.02 -71 33 C-68.69 33.33 -66.38 33.66 -64 34 C-63.505 33.01 -63.505 33.01 -63 32 C-60.03 32.33 -57.06 32.66 -54 33 C-53.505 32.01 -53.505 32.01 -53 31 C-52.28714844 31.02320313 -51.57429688 31.04640625 -50.83984375 31.0703125 C-45.09534607 31.17855337 -40.52565077 30.70020024 -35 29 C-32.66666667 29 -30.33333333 29 -28 29 C-27.34 28.34 -26.68 27.68 -26 27 C-23.1796875 27.0234375 -23.1796875 27.0234375 -19.875 27.375 C-18.77929688 27.48585937 -17.68359375 27.59671875 -16.5546875 27.7109375 C-15.71164063 27.80632812 -14.86859375 27.90171875 -14 28 C-14.495 26.515 -14.495 26.515 -15 25 C-14.34 24.34 -13.68 23.68 -13 23 C-12.505 23.99 -12.505 23.99 -12 25 C-10.86788566 23.129287 -9.74461905 21.25321809 -8.625 19.375 C-7.99851562 18.33085937 -7.37203125 17.28671875 -6.7265625 16.2109375 C-4.91322855 13.06128163 -4.91322855 13.06128163 -3.8984375 9.6640625 C-3 7 -3 7 -1 6 C-0.34227572 2.97065509 -0.34227572 2.97065509 0 0 Z " fill="#DA6E7F" transform="translate(213,169)"/>
<path d="M0 0 C0.33 0.99 0.66 1.98 1 3 C1.99 3 2.98 3 4 3 C4 2.34 4 1.68 4 1 C6.91000797 -0.45500399 9.5089333 -0.20897384 12.75 -0.25 C13.96171875 -0.27578125 15.1734375 -0.3015625 16.421875 -0.328125 C20.33629416 0.0308392 22.68678526 0.91588105 26 3 C29 7.9 29 7.9 29 11 C29.99 10.34 30.98 9.68 32 9 C32.99 9 33.98 9 35 9 C35 9.66 35 10.32 35 11 C34.34 11 33.68 11 33 11 C33.59619955 15.86896303 34.56976822 20.32790951 36 25 C36.99 25 37.98 25 39 25 C39.495 30.445 39.495 30.445 40 36 C40.66 36 41.32 36 42 36 C42.268125 36.721875 42.53625 37.44375 42.8125 38.1875 C44.37537139 41.88903751 46.43921661 45.13725632 48.625 48.5 C50.37603701 51.68370365 50.8042755 54.62992852 51.3125 58.1875 C51.85302971 60.18690064 51.85302971 60.18690064 53.9375 61.125 C54.9584375 61.558125 54.9584375 61.558125 56 62 C58.3129482 64.3129482 58.49580975 65.47904875 59.125 68.625 C59.29257812 69.44226563 59.46015625 70.25953125 59.6328125 71.1015625 C59.81457031 72.04128906 59.81457031 72.04128906 60 73 C61.1446875 73.185625 61.1446875 73.185625 62.3125 73.375 C65 74 65 74 68 76 C69.9896995 76.39013716 71.99019869 76.73202649 74 77 C74.33 76.34 74.66 75.68 75 75 C75.66 76.65 76.32 78.3 77 80 C78.2375 79.814375 79.475 79.62875 80.75 79.4375 C83.76279577 79.05288777 86.10010827 78.9125406 89 80 C89 80.66 89 81.32 89 82 C86.33150646 82.02493919 83.66825603 82.02565631 81 82 C79.7625 81.98839844 79.7625 81.98839844 78.5 81.9765625 C75.82173144 81.90395883 73.17070367 81.71074419 70.5 81.5 C69.60152344 81.49097656 68.70304687 81.48195313 67.77734375 81.47265625 C64.58712378 81.17081593 62.73420303 80.70556525 60 79 C57.03241282 74.63915579 54.99887511 70.04864973 52.95324707 65.20135498 C51.47323747 61.78353539 49.76976841 58.48835096 48.0703125 55.17578125 C47.41705642 53.8774533 46.76512721 52.57845691 46.11450195 51.27880859 C45.1037917 49.26377172 44.09300169 47.2487766 43.08139038 45.23419189 C38.28955593 35.68537974 33.57495105 26.10946759 29.18212891 16.3684082 C25.5301626 8.45436216 25.5301626 8.45436216 19 3 C10.83185919 2.04296967 10.83185919 2.04296967 3.5 5 C0.62554519 8.44934577 -1.26258833 11.88131233 -3 16 C-4.24025174 12.27924477 -3.60677844 9.84293009 -3 6 C-3 4.68 -3 3.36 -3 2 C-2.01 1.34 -1.02 0.68 0 0 Z " fill="#D77A8D" transform="translate(237,119)"/>
<path d="M0 0 C3.09438268 0.91995161 4.71026629 1.63783286 6.75 4.1875 C8.61819416 8.39093686 9 12.43310252 9 17 C6.86024909 21.17251427 4.27133233 24.86433383 0 27 C-0.34342449 28.33076989 -0.67619874 29.66431979 -1 31 C-1.66 31.66 -2.32 32.32 -3 33 C-3.70710678 34.64991582 -4.37943989 36.31562256 -5 38 C-5.763125 37.9175 -6.52625 37.835 -7.3125 37.75 C-10.11768433 37.70457002 -10.11768433 37.70457002 -11.6875 39.875 C-12.120625 40.57625 -12.55375 41.2775 -13 42 C-15 44 -17 46 -19 48 C-19.33 48.99 -19.66 49.98 -20 51 C-21.98320018 52.03291676 -23.98347806 53.0337499 -26 54 C-26.33 54.66 -26.66 55.32 -27 56 C-28.485 56.495 -28.485 56.495 -30 57 C-30.33 57.99 -30.66 58.98 -31 60 C-32.64488294 61.68816933 -34.31337542 63.35353315 -36 65 C-36.7734375 66.0828125 -36.7734375 66.0828125 -37.5625 67.1875 C-39 69 -39 69 -41.0625 70 C-43.18093602 70.84822804 -43.18093602 70.84822804 -44 73.0625 C-44.33 73.701875 -44.66 74.34125 -45 75 C-47.0625 75.625 -47.0625 75.625 -49 76 C-49.495 76.99 -49.495 76.99 -50 78 C-51.485 78.99 -51.485 78.99 -53 80 C-52.7604576 74.40293589 -49.18020893 71.6352432 -45.41015625 67.94921875 C-44.42057167 66.96100883 -44.42057167 66.96100883 -43.41099548 65.95283508 C-42.01773279 64.5656045 -40.61962234 63.18322805 -39.21704102 61.80541992 C-37.06336317 59.68834849 -34.92621504 57.55561254 -32.79101562 55.41992188 C-31.43583778 54.07457134 -30.07974889 52.73013775 -28.72265625 51.38671875 C-27.75852562 50.42592659 -27.75852562 50.42592659 -26.7749176 49.44572449 C-22.23213978 45 -22.23213978 45 -20 45 C-20 44.34 -20 43.68 -20 43 C-18.77734375 41.80078125 -18.77734375 41.80078125 -16.9375 40.3125 C-12.48187149 36.51518057 -8.29181566 32.48312111 -4.125 28.375 C-3.45847412 27.72958252 -2.79194824 27.08416504 -2.10522461 26.41918945 C2.52492334 21.82336958 4.74197536 18.70925877 5.375 12.0625 C5.28640823 7.80204122 3.62761984 5.34424343 1 2 C0.505 1.01 0.505 1.01 0 0 Z " fill="#DA7387" transform="translate(379,210)"/>
<path d="M0 0 C0.99 0 1.98 0 3 0 C1.08418089 6.59241278 -1.56329148 12.29390299 -5.0625 18.1875 C-5.54783203 19.01266113 -6.03316406 19.83782227 -6.53320312 20.68798828 C-12.57484839 30.82090373 -19.37891785 40.21119115 -26.875 49.3125 C-27.32746094 49.87050293 -27.77992188 50.42850586 -28.24609375 51.00341797 C-30.60148316 53.78857806 -32.24999181 55.67732488 -36 56 C-35.875 52.6875 -35.875 52.6875 -35 49 C-32 47.3125 -32 47.3125 -29 46 C-28.03955898 43.92309422 -28.03955898 43.92309422 -28 42 C-27.34 42 -26.68 42 -26 42 C-25.71125 41.4225 -25.4225 40.845 -25.125 40.25 C-23.5625 37.125 -23.5625 37.125 -22 34 C-21.34 34 -20.68 34 -20 34 C-20 33.34 -20 32.68 -20 32 C-20.66 31.67 -21.32 31.34 -22 31 C-21.401875 30.855625 -20.80375 30.71125 -20.1875 30.5625 C-18.43849596 30.1127561 -16.71322977 29.57107659 -15 29 C-14.30212135 27.05909251 -14.30212135 27.05909251 -14 24.75 C-13.26331116 20.95786403 -12.48899303 18.06337604 -10 15 C-7.8125 14.1875 -7.8125 14.1875 -6 14 C-5.87625 13.29875 -5.7525 12.5975 -5.625 11.875 C-4.96161655 8.82343613 -4.02788045 5.94659062 -3 3 C-2.01 3 -1.02 3 0 3 C0 2.01 0 1.02 0 0 Z " fill="#E5515B" transform="translate(430,330)"/>
<path d="M0 0 C0.33 0.99 0.66 1.98 1 3 C1.99 3 2.98 3 4 3 C4 2.34 4 1.68 4 1 C6.91000797 -0.45500399 9.5089333 -0.20897384 12.75 -0.25 C13.96171875 -0.27578125 15.1734375 -0.3015625 16.421875 -0.328125 C20.33629416 0.0308392 22.68678526 0.91588105 26 3 C29 7.9 29 7.9 29 11 C29.99 10.34 30.98 9.68 32 9 C32.99 9 33.98 9 35 9 C35 9.66 35 10.32 35 11 C34.34 11 33.68 11 33 11 C33.59619955 15.86896303 34.56976822 20.32790951 36 25 C36.99 25 37.98 25 39 25 C39.495 27.97 39.495 27.97 40 31 C39.01 31.495 39.01 31.495 38 32 C38 31.34 38 30.68 38 30 C37.34 30 36.68 30 36 30 C35.49210937 28.94941406 34.98421875 27.89882812 34.4609375 26.81640625 C28.62757031 13.40883944 28.62757031 13.40883944 19 3 C14.38517834 2.36737654 9.38031169 1.99059761 5.01953125 3.83984375 C0.9634207 6.93666852 -1.06680405 11.41718843 -3 16 C-4.24025174 12.27924477 -3.60677844 9.84293009 -3 6 C-3 4.68 -3 3.36 -3 2 C-2.01 1.34 -1.02 0.68 0 0 Z " fill="#DD6D7E" transform="translate(237,119)"/>
<path d="M0 0 C-3.94057327 2.93611341 -7.3396543 5.36887901 -12 7 C-14.3396553 7.98511802 -16.67328135 8.98470459 -19 10 C-19.763125 10.309375 -20.52625 10.61875 -21.3125 10.9375 C-23.19594804 11.88254275 -23.19594804 11.88254275 -23.75 14.0625 C-24.36875 15.0215625 -24.36875 15.0215625 -25 16 C-26.9672994 16.13115329 -28.93464316 16.26172869 -30.90234375 16.38671875 C-34.45785739 17.42622646 -35.81212199 20.24669745 -37.67578125 23.28515625 C-38.11277344 23.85105469 -38.54976562 24.41695313 -39 25 C-39.99 25 -40.98 25 -42 25 C-42.66 24.34 -43.32 23.68 -44 23 C-44.72445312 23.5053125 -45.44890625 24.010625 -46.1953125 24.53125 C-47.16210938 25.1809375 -48.12890625 25.830625 -49.125 26.5 C-50.07632813 27.1496875 -51.02765625 27.799375 -52.0078125 28.46875 C-55.31017823 30.15873351 -57.34474108 30.30370104 -61 30 C-57.90784111 27.5298695 -54.7190627 25.71990781 -51.1953125 23.92578125 C-49.49387085 23.05373047 -49.49387085 23.05373047 -47.75805664 22.1640625 C-47.16413116 21.86145508 -46.57020569 21.55884766 -45.95828247 21.24707031 C-33.88662942 15.10282678 -33.88662942 15.10282678 -22.0625 8.5 C-17.87205331 6.06565016 -13.66725439 3.68875409 -9.375 1.4375 C-8.43398437 0.94121094 -7.49296875 0.44492187 -6.5234375 -0.06640625 C-3.7879975 -1.07843436 -2.6728346 -1.04780136 0 0 Z " fill="#DA7789" transform="translate(252,343)"/>
<path d="M0 0 C6.12247874 1.71221863 11.53362323 4.73342908 17.125 7.6875 C18.15890869 8.22987305 19.19281738 8.77224609 20.25805664 9.33105469 C26.31224693 12.52445276 32.24636713 15.83811136 38.1171875 19.35546875 C42.36048421 21.77610278 46.73360195 23.91564168 51.11499023 26.07324219 C56.83146771 28.89232697 62.43687729 31.88842289 68 35 C66.1875 36.0625 66.1875 36.0625 64 37 C63.01 36.67 62.02 36.34 61 36 C61.66 36 62.32 36 63 36 C63 35.34 63 34.68 63 34 C62.195625 33.7525 61.39125 33.505 60.5625 33.25 C54.84490614 31.24382672 49.36714205 28.860257 44.125 25.8125 C41.11528861 23.92597138 41.11528861 23.92597138 38 23 C37.505 22.01 37.505 22.01 37 21 C36.0925 20.71125 35.185 20.4225 34.25 20.125 C30.79420838 18.92876444 28.81113304 17.27929706 26 15 C25.01 15 24.02 15 23 15 C23 14.34 23 13.68 23 13 C22.01 13.33 21.02 13.66 20 14 C19.5875 13.54625 19.175 13.0925 18.75 12.625 C16.90607064 10.91277988 15.28097727 10.03680785 13 9 C12.29875 8.608125 11.5975 8.21625 10.875 7.8125 C10.25625 7.544375 9.6375 7.27625 9 7 C8.01 7.495 8.01 7.495 7 8 C6.34 7.34 5.68 6.68 5 6 C2.22739701 4.06201737 2.22739701 4.06201737 0 3 C0 2.01 0 1.02 0 0 Z " fill="#DB7386" transform="translate(252,343)"/>
<path d="M0 0 C1.32 0.33 2.64 0.66 4 1 C2.23734333 4.67385182 0.45887654 8.33956315 -1.33447266 11.99853516 C-1.94203987 13.24380491 -2.54527776 14.49119679 -3.14404297 15.74072266 C-4.00642686 17.53842838 -4.88582875 19.32793894 -5.765625 21.1171875 C-6.55114746 22.73536377 -6.55114746 22.73536377 -7.35253906 24.38623047 C-9.12812988 27.20328371 -9.8808974 28.00527051 -13 29 C-15.01903219 29.40074519 -17.05362355 29.72619034 -19.09375 30 C-20.888125 30.2475 -20.888125 30.2475 -22.71875 30.5 C-24.59046875 30.7475 -24.59046875 30.7475 -26.5 31 C-28.94810512 31.33194646 -31.39602416 31.66526826 -33.84375 32 C-35.63425781 32.24169922 -35.63425781 32.24169922 -37.4609375 32.48828125 C-41.85938787 33.12426028 -46.22521209 33.90524063 -50.59179688 34.73046875 C-53 35 -53 35 -56 34 C-54.828125 32.50390625 -54.828125 32.50390625 -53 31 C-50.546875 30.77734375 -50.546875 30.77734375 -47.75 30.9375 C-43.06822673 31.07918524 -39.49499284 30.38307472 -35 29 C-32.66666667 29 -30.33333333 29 -28 29 C-27.34 28.34 -26.68 27.68 -26 27 C-23.1796875 27.0234375 -23.1796875 27.0234375 -19.875 27.375 C-18.77929688 27.48585937 -17.68359375 27.59671875 -16.5546875 27.7109375 C-15.71164063 27.80632812 -14.86859375 27.90171875 -14 28 C-14.495 26.515 -14.495 26.515 -15 25 C-14.34 24.34 -13.68 23.68 -13 23 C-12.505 23.99 -12.505 23.99 -12 25 C-10.86788566 23.129287 -9.74461905 21.25321809 -8.625 19.375 C-7.99851563 18.33085937 -7.37203125 17.28671875 -6.7265625 16.2109375 C-4.91322855 13.06128163 -4.91322855 13.06128163 -3.8984375 9.6640625 C-3 7 -3 7 -1 6 C-0.34227572 2.97065509 -0.34227572 2.97065509 0 0 Z " fill="#D7798C" transform="translate(213,169)"/>
<path d="M0 0 C1.32 0 2.64 0 4 0 C5.75 2 5.75 2 7 4 C0.3548885 10.2270893 -6.53160651 15.78916272 -14 21 C-15.32 20.34 -16.64 19.68 -18 19 C-18 17.35 -18 15.7 -18 14 C-15.83125748 14.50603992 -14.00032373 14.99983813 -12 16 C-12 15.34 -12 14.68 -12 14 C-11.34 14 -10.68 14 -10 14 C-9.67 12.35 -9.34 10.7 -9 9 C-8.195625 8.87625 -7.39125 8.7525 -6.5625 8.625 C-5.716875 8.41875 -4.87125 8.2125 -4 8 C-3.67 7.34 -3.34 6.68 -3 6 C-2.01 6.33 -1.02 6.66 0 7 C0 4.69 0 2.38 0 0 Z " fill="#E3525B" transform="translate(378,394)"/>
<path d="M0 0 C2.9375 1.3125 2.9375 1.3125 6 3 C7.39195915 7.17587745 5.82323219 9.13474776 4 13 C4.66 13 5.32 13 6 13 C6.2475 13.639375 6.495 14.27875 6.75 14.9375 C7.36875 15.9584375 7.36875 15.9584375 8 17 C8.66 17.12375 9.32 17.2475 10 17.375 C10.99 17.684375 10.99 17.684375 12 18 C13.1875 20.8125 13.1875 20.8125 14 24 C14.20625 24.78375 14.4125 25.5675 14.625 26.375 C14.74875 26.91125 14.8725 27.4475 15 28 C13.02 28.99 13.02 28.99 11 30 C5.04296875 18.0859375 5.04296875 18.0859375 3.99682617 15.97802734 C3.11090575 14.22007307 2.18329753 12.48326684 1.25 10.75 C-0.50929122 6.87955932 -0.21709115 4.19709551 0 0 Z " fill="#E7515B" transform="translate(65,320)"/>
<path d="M0 0 C2.33294775 -0.04241723 4.66702567 -0.04092937 7 0 C7.33 0.33 7.66 0.66 8 1 C9.51469448 1.23192865 11.03754562 1.41215238 12.5625 1.5625 C13.38878906 1.64628906 14.21507812 1.73007812 15.06640625 1.81640625 C15.70449219 1.87699219 16.34257812 1.93757813 17 2 C14.23806319 3.84129121 12.9197377 4.39533188 9.796875 5.03515625 C8.98089844 5.20466797 8.16492188 5.37417969 7.32421875 5.54882812 C6.04998047 5.8030957 6.04998047 5.8030957 4.75 6.0625 C3.91597656 6.23587891 3.08195312 6.40925781 2.22265625 6.58789062 C-4.13000111 7.8893377 -10.42558253 9.16268335 -16.9375 9.0625 C-17.70964844 9.05347656 -18.48179687 9.04445313 -19.27734375 9.03515625 C-19.84582031 9.02355469 -20.41429687 9.01195312 -21 9 C-20.67 8.34 -20.34 7.68 -20 7 C-17.05859375 6.5859375 -17.05859375 6.5859375 -13.4375 6.375 C-12.23996094 6.30023438 -11.04242188 6.22546875 -9.80859375 6.1484375 C-8.41833984 6.07496094 -8.41833984 6.07496094 -7 6 C-6.67 5.01 -6.34 4.02 -6 3 C-4.02 2.67 -2.04 2.34 0 2 C0 1.34 0 0.68 0 0 Z " fill="#E14F5B" transform="translate(287,440)"/>
<path d="M0 0 C4.88335853 2.51566955 8.29048448 6.0389919 12 10 C12.6496875 10.6909375 13.299375 11.381875 13.96875 12.09375 C19.29932129 17.94863978 19.29932129 17.94863978 20 22 C19.34 22.33 18.68 22.66 18 23 C17.34 22.67 16.68 22.34 16 22 C16 21.34 16 20.68 16 20 C15.360625 19.87625 14.72125 19.7525 14.0625 19.625 C13.0415625 19.315625 13.0415625 19.315625 12 19 C11.67 18.34 11.34 17.68 11 17 C10.01 17 9.02 17 8 17 C8.66 16.01 9.32 15.02 10 14 C9.34 14 8.68 14 8 14 C7.79375 13.360625 7.5875 12.72125 7.375 12.0625 C6.10461791 9.65074923 6.10461791 9.65074923 2.875 9.25 C1.451875 9.12625 1.451875 9.12625 0 9 C-0.042721 7.33388095 -0.04063832 5.66617115 0 4 C0.33 3.67 0.66 3.34 1 3 C0.67 2.01 0.34 1.02 0 0 Z " fill="#E4515C" transform="translate(384,102)"/>
<path d="M0 0 C3.09438268 0.91995161 4.71026629 1.63783286 6.75 4.1875 C8.61819416 8.39093686 9 12.43310252 9 17 C6.86024909 21.17251427 4.27133233 24.86433383 0 27 C-0.34342449 28.33076989 -0.67619874 29.66431979 -1 31 C-1.66 31.66 -2.32 32.32 -3 33 C-3.70710678 34.64991582 -4.37943989 36.31562256 -5 38 C-6.65 37.67 -8.3 37.34 -10 37 C-7.10906906 32.33003463 -4.24794428 28.04678986 -0.25 24.25 C3.79094841 20.35177824 4.83702003 17.71128971 5.375 12.0625 C5.28640823 7.80204122 3.62761984 5.34424343 1 2 C0.67 1.34 0.34 0.68 0 0 Z " fill="#DE6A7B" transform="translate(379,210)"/>
<path d="M0 0 C0.33 0.66 0.66 1.32 1 2 C0.16723633 4.21142578 0.16723633 4.21142578 -1.16796875 6.9453125 C-1.64943359 7.94046875 -2.13089844 8.935625 -2.62695312 9.9609375 C-3.14193359 11.00507813 -3.65691406 12.04921875 -4.1875 13.125 C-4.68314453 14.1459375 -5.17878906 15.166875 -5.68945312 16.21875 C-8.42039543 21.8321532 -11.19760978 27.42197269 -14 33 C-14.66 32.67 -15.32 32.34 -16 32 C-15.34 28.7 -14.68 25.4 -14 22 C-13.01 22 -12.02 22 -11 22 C-11 21.01 -11 20.02 -11 19 C-10.34 19 -9.68 19 -9 19 C-7.74052832 15.14286798 -7 12.34353837 -7 8.25 C-7 5 -7 5 -5 2 C-2.375 0.8125 -2.375 0.8125 0 0 Z " fill="#DB768A" transform="translate(232,135)"/>
<path d="M0 0 C2.8125 1.5 2.8125 1.5 5 3 C5.66 2.01 6.32 1.02 7 0 C7.99 0 8.98 0 10 0 C10 0.66 10 1.32 10 2 C10.99 1.67 11.98 1.34 13 1 C13 2.98 13 4.96 13 7 C12.34 7 11.68 7 11 7 C11 7.66 11 8.32 11 9 C4.14381674 7.07443364 -2.43252132 4.7527517 -9 2 C-5.75041495 0.27559017 -3.72066485 -0.45373962 0 0 Z " fill="#EC505B" transform="translate(179,432)"/>
<path d="M0 0 C2.61242231 -0.07464064 4.88246784 -0.02712281 7.4375 0.5625 C10.51329712 1.08763609 12.96497585 0.63523761 16 0 C15.690625 0.7425 15.38125 1.485 15.0625 2.25 C14.1905075 4.50692176 13.52332993 6.6450153 13 9 C13.99 8.67 14.98 8.34 16 8 C16.598125 8.639375 17.19625 9.27875 17.8125 9.9375 C19.90810337 12.20310389 19.90810337 12.20310389 23 13 C23 13.66 23 14.32 23 15 C23.99 15 24.98 15 26 15 C26 15.66 26 16.32 26 17 C20.78838171 15.55814579 16.85045808 13.19291478 12.4375 10.1875 C11.46780273 9.54844727 11.46780273 9.54844727 10.47851562 8.89648438 C6.54387524 6.2507089 3.23938793 3.46322279 0 0 Z " fill="#D8535F" transform="translate(128,408)"/>
<path d="M0 0 C2 2 2 2 2.125 5.625 C2.08375 6.73875 2.0425 7.8525 2 9 C2.99 9.33 3.98 9.66 5 10 C4.34 11.32 3.68 12.64 3 14 C3.99 14 4.98 14 6 14 C5.49396008 16.16874252 5.00016187 17.99967627 4 20 C4.99 20 5.98 20 7 20 C7 20.66 7 21.32 7 22 C6.34 22 5.68 22 5 22 C5.30550781 22.680625 5.61101562 23.36125 5.92578125 24.0625 C7.13950382 27.38147954 7.68632161 30.50305606 8.1875 34 C8.45626953 35.794375 8.45626953 35.794375 8.73046875 37.625 C8.9783146 40.72846111 8.79731731 43.01430115 8 46 C7.67 46 7.34 46 7 46 C5.99649942 40.41440596 4.9997959 34.82765693 4.00927734 29.23974609 C3.67161013 27.34032756 3.33211198 25.44123355 2.99072266 23.54248047 C2.49936954 20.8078067 2.0146872 18.07202032 1.53125 15.3359375 C1.30157532 14.06996231 1.30157532 14.06996231 1.06726074 12.77841187 C0.3110556 8.45968498 -0.17448129 4.40565265 0 0 Z " fill="#D97286" transform="translate(327,290)"/>
<path d="M0 0 C5.646315 4.76597557 11.13941049 9.66431252 16.5 14.75 C17.3353125 15.49765625 18.170625 16.2453125 19.03125 17.015625 C24.7965093 22.55330827 24.7965093 22.55330827 25.375 26.66601562 C25.02565136 30.91746385 24.03544413 34.25264023 22 38 C21.34175338 34.34307434 20.88307457 31.53147921 21.6875 27.875 C22.30154678 24.90801142 22.30154678 24.90801142 20.4375 22.375 C18.03827745 19.88471001 18.03827745 19.88471001 14.9375 18 C12 16 12 16 10.625 13.6875 C8.550572 10.25671523 5.86211595 8.22032272 2.7421875 5.74609375 C0.78722875 3.78675168 0.54743156 2.64660267 0 0 Z " fill="#D6768A" transform="translate(149,262)"/>
<path d="M0 0 C1.32 0.99 2.64 1.98 4 3 C3.67 4.98 3.34 6.96 3 9 C2.01 9 1.02 9 0 9 C-5.22724647 15.81126055 -6.38368536 21.64731468 -7 30 C-7.99 29.67 -8.98 29.34 -10 29 C-8.85210975 21.81179245 -6.8212142 15.51699526 -3.875 8.875 C-3.50246094 8.01390625 -3.12992187 7.1528125 -2.74609375 6.265625 C-1.83934833 4.17313557 -0.92399011 2.08491722 0 0 Z " fill="#E5535C" transform="translate(68,166)"/>
<path d="M0 0 C-1.32 2.31 -2.64 4.62 -4 7 C-4.99 7 -5.98 7 -7 7 C-7.66 6.34 -8.32 5.68 -9 5 C-9.72445312 5.5053125 -10.44890625 6.010625 -11.1953125 6.53125 C-12.16210938 7.1809375 -13.12890625 7.830625 -14.125 8.5 C-15.07632813 9.1496875 -16.02765625 9.799375 -17.0078125 10.46875 C-20.31017823 12.15873351 -22.34474108 12.30370104 -26 12 C-22.17602497 8.86576052 -17.90254606 6.63633337 -13.5625 4.3125 C-12.43618164 3.68891602 -12.43618164 3.68891602 -11.28710938 3.05273438 C-4.44839645 -0.61021741 -4.44839645 -0.61021741 0 0 Z " fill="#DC7080" transform="translate(217,361)"/>
<path d="M0 0 C2 1 2 1 4 4 C5.0209375 4.7425 5.0209375 4.7425 6.0625 5.5 C8 7 8 7 9 10 C8.67 10.99 8.34 11.98 8 13 C8.38932856 15.14255793 8.38932856 15.14255793 9 17 C8.01 17.33 7.02 17.66 6 18 C3.0309348 15.52993736 2.26101057 13.26118936 1.3125 9.5625 C1.06113281 8.61503906 0.80976562 7.66757812 0.55078125 6.69140625 C0 4 0 4 0 0 Z " fill="#E4525D" transform="translate(55,293)"/>
<path d="M0 0 C0.33 0 0.66 0 1 0 C0.46538854 9.57938516 -0.85854309 18.87630165 -2.5625 28.3125 C-2.79940185 29.65028915 -3.03573277 30.98817954 -3.27148438 32.32617188 C-3.84208563 35.55181572 -4.41833678 38.77633592 -5 42 C-5.33 42 -5.66 42 -6 42 C-6.05392397 39.22890693 -6.09363455 36.45886182 -6.125 33.6875 C-6.14175781 32.90181641 -6.15851563 32.11613281 -6.17578125 31.30664062 C-6.18544922 30.1706543 -6.18544922 30.1706543 -6.1953125 29.01171875 C-6.20578613 28.31522217 -6.21625977 27.61872559 -6.22705078 26.90112305 C-6 25 -6 25 -4 22 C-3.471016 19.81623006 -3.471016 19.81623006 -3.18359375 17.40234375 C-3.05919922 16.51869141 -2.93480469 15.63503906 -2.80664062 14.72460938 C-2.68482422 13.80486328 -2.56300781 12.88511719 -2.4375 11.9375 C-2.1892076 10.11286917 -1.93804402 8.28862604 -1.68359375 6.46484375 C-1.57587646 5.656521 -1.46815918 4.84819824 -1.35717773 4.01538086 C-1 2 -1 2 0 0 Z " fill="#D87384" transform="translate(168,312)"/>
<path d="M0 0 C0 0.66 0 1.32 0 2 C3.465 1.505 3.465 1.505 7 1 C7 1.66 7 2.32 7 3 C8.32 2.34 9.64 1.68 11 1 C11.33 1.99 11.66 2.98 12 4 C10.35 4.33 8.7 4.66 7 5 C7 5.66 7 6.32 7 7 C2.71 6.34 -1.58 5.68 -6 5 C-6 4.01 -6 3.02 -6 2 C-3 0 -3 0 0 0 Z " fill="#F34F5B" transform="translate(208,440)"/>
<path d="M0 0 C0.99 0.33 1.98 0.66 3 1 C0.81482901 3.40575607 -1.25919671 4.79535581 -4.1875 6.1875 C-4.90292969 6.53167969 -5.61835938 6.87585938 -6.35546875 7.23046875 C-6.89816406 7.48441406 -7.44085938 7.73835938 -8 8 C-8.33 7.01 -8.66 6.02 -9 5 C-9.99 5 -10.98 5 -12 5 C-12 5.66 -12 6.32 -12 7 C-13.32 7 -14.64 7 -16 7 C-16 6.34 -16 5.68 -16 5 C-16.66 4.67 -17.32 4.34 -18 4 C-17.2575 3.855625 -16.515 3.71125 -15.75 3.5625 C-13.08713438 3.05802414 -13.08713438 3.05802414 -10.875 2.375 C-9 2 -9 2 -6 3 C-6 2.34 -6 1.68 -6 1 C-4.7934375 1.0309375 -4.7934375 1.0309375 -3.5625 1.0625 C-1.06645115 1.29633621 -1.06645115 1.29633621 0 0 Z " fill="#E3505B" transform="translate(358,415)"/>
<path d="M0 0 C3.63224623 0.63395428 7.05233838 0.54467603 10.73046875 0.4765625 C11.06046875 0.8065625 11.39046875 1.1365625 11.73046875 1.4765625 C14.79527896 1.6378683 16.78596153 1.45806491 19.73046875 0.4765625 C20.22546875 2.4565625 20.22546875 2.4565625 20.73046875 4.4765625 C8.56691407 3.98390456 -3.26189514 2.43272453 -15.26953125 0.4765625 C-15.26953125 0.1465625 -15.26953125 -0.1834375 -15.26953125 -0.5234375 C-9.75431185 -1.74904181 -5.50685289 -1.13934887 0 0 Z " fill="#D98090" transform="translate(341.26953125,201.5234375)"/>
<path d="M0 0 C5.49176573 0.50469498 9.24023719 2.55371261 13.875 5.3125 C15.2254291 6.10220179 16.57699249 6.8899671 17.9296875 7.67578125 C18.59194336 8.06072754 19.25419922 8.44567383 19.93652344 8.84228516 C23.22974503 10.68994924 26.60790414 12.34189498 30 14 C28.1875 15.0625 28.1875 15.0625 26 16 C25.01 15.67 24.02 15.34 23 15 C23.66 15 24.32 15 25 15 C25 14.34 25 13.68 25 13 C24.195625 12.7525 23.39125 12.505 22.5625 12.25 C16.84490614 10.24382672 11.36714205 7.860257 6.125 4.8125 C3.11528861 2.92597138 3.11528861 2.92597138 0 2 C0 1.34 0 0.68 0 0 Z " fill="#DC6C7C" transform="translate(290,364)"/>
<path d="M0 0 C0.66 0.33 1.32 0.66 2 1 C1.525625 1.928125 1.05125 2.85625 0.5625 3.8125 C-1.04488875 6.91196237 -1.04488875 6.91196237 -2 10 C-2.56589844 9.79503906 -3.13179687 9.59007813 -3.71484375 9.37890625 C-6.64392636 8.8932293 -7.93466246 9.61691159 -10.5625 10.9375 C-13.42128787 12.3596626 -14.75245364 13 -18 13 C-4.94249201 2.21685304 -4.94249201 2.21685304 0 0 Z " fill="#E0515B" transform="translate(145,79)"/>
<path d="M0 0 C0.66 0.33 1.32 0.66 2 1 C2.99 1 3.98 1 5 1 C5.103125 1.721875 5.20625 2.44375 5.3125 3.1875 C6.05986932 6.24491993 7.28045189 8.38329635 9 11 C10.32 10.34 11.64 9.68 13 9 C12.67 10.32 12.34 11.64 12 13 C12.66 13 13.32 13 14 13 C14 14.65 14 16.3 14 18 C10.0717547 14.72646225 6.22598017 11.37794615 2.5 7.875 C1.8090625 7.23304688 1.118125 6.59109375 0.40625 5.9296875 C-1 4 -1 4 -0.71875 1.7578125 C-0.4815625 1.17773438 -0.244375 0.59765625 0 0 Z " fill="#DF5360" transform="translate(106,384)"/>
<path d="M0 0 C4.10958767 1.45044271 7.43258745 3.51110752 11 6 C10.01 7.485 10.01 7.485 9 9 C7.0546875 9.29296875 7.0546875 9.29296875 4.875 9.1875 C3.59625 9.125625 2.3175 9.06375 1 9 C-1.125 2.25 -1.125 2.25 0 0 Z " fill="#F4515B" transform="translate(353,79)"/>
<path d="M0 0 C1.32 0.66 2.64 1.32 4 2 C1.41909233 3.31746333 -1.16450458 4.62909617 -3.75 5.9375 C-4.47960937 6.31068359 -5.20921875 6.68386719 -5.9609375 7.06835938 C-6.66992188 7.42607422 -7.37890625 7.78378906 -8.109375 8.15234375 C-8.75874023 8.48226318 -9.40810547 8.81218262 -10.07714844 9.15209961 C-12.03293079 10.01452116 -13.91540694 10.54374179 -16 11 C-15.34 9.35 -14.68 7.7 -14 6 C-13.67 6.66 -13.34 7.32 -13 8 C-12.34 6.68 -11.68 5.36 -11 4 C-10.34 4 -9.68 4 -9 4 C-8.67 3.34 -8.34 2.68 -8 2 C-7.34 2.33 -6.68 2.66 -6 3 C-3.99199544 2.71887936 -1.98985949 2.38932033 0 2 C0 1.34 0 0.68 0 0 Z " fill="#DF505B" transform="translate(346,422)"/>
<path d="M0 0 C3.08089673 2.77280706 4.68775452 5.06326356 6 9 C4.02 9 2.04 9 0 9 C-0.33 9.66 -0.66 10.32 -1 11 C-1.99 8.69 -2.98 6.38 -4 4 C-2.68 2.68 -1.36 1.36 0 0 Z " fill="#F4505C" transform="translate(412,133)"/>
<path d="M0 0 C2.625 0.3125 2.625 0.3125 4.4375 2.3125 C4.829375 2.9725 5.22125 3.6325 5.625 4.3125 C3.315 6.6225 1.005 8.9325 -1.375 11.3125 C-2.695 10.6525 -4.015 9.9925 -5.375 9.3125 C-4.859375 8.920625 -4.34375 8.52875 -3.8125 8.125 C-3.338125 7.526875 -2.86375 6.92875 -2.375 6.3125 C-2.69541397 3.70969432 -2.69541397 3.70969432 -3.375 1.3125 C-2.375 0.3125 -2.375 0.3125 0 0 Z " fill="#E55259" transform="translate(388.375,384.6875)"/>
<path d="M0 0 C0.33 0 0.66 0 1 0 C1.33 2.64 1.66 5.28 2 8 C1.38125 8.04125 0.7625 8.0825 0.125 8.125 C-0.57625 8.41375 -1.2775 8.7025 -2 9 C-3.3045656 11.99615946 -3.3045656 11.99615946 -4 15 C-4.66 14.67 -5.32 14.34 -6 14 C-6.0270043 12.54176788 -6.04639787 11.08339325 -6.0625 9.625 C-6.07410156 8.81289063 -6.08570313 8.00078125 -6.09765625 7.1640625 C-6 5 -6 5 -5 3 C-3.35 3 -1.7 3 0 3 C0 2.01 0 1.02 0 0 Z " fill="#F24F5A" transform="translate(446,277)"/>
<path d="M0 0 C11.83741806 0.21558212 22.64241741 2.88138995 34 6 C33.67 6.99 33.34 7.98 33 9 C32.33355469 8.73445313 31.66710937 8.46890625 30.98046875 8.1953125 C20.78434342 4.28798615 10.84943043 2.79744363 0 2 C0 1.34 0 0.68 0 0 Z " fill="#CC5D64" transform="translate(272,51)"/>
<path d="M0 0 C5.11723176 3.19826985 9.52692892 6.95834187 14 11 C12.1875 12.5625 12.1875 12.5625 10 14 C9.01 13.67 8.02 13.34 7 13 C6.28293018 11.01751285 5.61709587 9.01584651 5 7 C3.04783565 5.04783565 1.46800047 4.15173355 -1 3 C-0.67 2.01 -0.34 1.02 0 0 Z " fill="#E0535A" transform="translate(370,90)"/>
<path d="M0 0 C1.86785156 0.01353516 1.86785156 0.01353516 3.7734375 0.02734375 C5.18496094 0.04474609 5.18496094 0.04474609 6.625 0.0625 C6.625 0.3925 6.625 0.7225 6.625 1.0625 C4.315 1.3925 2.005 1.7225 -0.375 2.0625 C-0.705 3.0525 -1.035 4.0425 -1.375 5.0625 C-2.81291516 4.92081863 -4.2503237 4.77398957 -5.6875 4.625 C-6.48800781 4.54378906 -7.28851563 4.46257813 -8.11328125 4.37890625 C-10.375 4.0625 -10.375 4.0625 -13.375 3.0625 C-13.375 2.4025 -13.375 1.7425 -13.375 1.0625 C-8.85684719 0.17972245 -4.59987306 -0.04339503 0 0 Z " fill="#EF515A" transform="translate(241.375,50.9375)"/>
<path d="M0 0 C0.66 0.66 1.32 1.32 2 2 C1.01 3.485 1.01 3.485 0 5 C0.7425 4.484375 1.485 3.96875 2.25 3.4375 C5 2 5 2 7.3125 2.3125 C8.1478125 2.6528125 8.1478125 2.6528125 9 3 C6.51737568 5.48262432 4.38224713 6.07286975 1.0625 7.1875 C0.00160156 7.55230469 -1.05929687 7.91710937 -2.15234375 8.29296875 C-5 9 -5 9 -8 8 C-7.360625 7.7525 -6.72125 7.505 -6.0625 7.25 C-3.81258459 6.18437567 -3.81258459 6.18437567 -3.25 3.875 C-3.1675 3.25625 -3.085 2.6375 -3 2 C-2.01 2 -1.02 2 0 2 C0 1.34 0 0.68 0 0 Z " fill="#E1505C" transform="translate(316,432)"/>
<path d="M0 0 C0 3.94405202 -1.49401172 5.0517785 -4 8 C-4.99 9.485 -4.99 9.485 -6 11 C-7.32407669 11.68486725 -8.65909241 12.34870203 -10 13 C-13.95867641 15.76684229 -13.95867641 15.76684229 -16 20 C-17.65 20.33 -19.3 20.66 -21 21 C-20.04882866 19.8274869 -19.08882991 18.66212985 -18.125 17.5 C-17.59132813 16.8503125 -17.05765625 16.200625 -16.5078125 15.53125 C-15.76144531 14.77328125 -15.76144531 14.77328125 -15 14 C-14.34 14 -13.68 14 -13 14 C-13 13.34 -13 12.68 -13 12 C-11.42578125 10.44921875 -11.42578125 10.44921875 -9.3125 8.6875 C-6.04699036 5.91500692 -2.98084015 3.07399141 0 0 Z " fill="#D67888" transform="translate(372,241)"/>
<path d="M0 0 C5.75 1.75 5.75 1.75 8 4 C7.1875 5.9375 7.1875 5.9375 6 8 C5.01 8.33 4.02 8.66 3 9 C0.7363436 7.59554165 -1.0208685 5.8032087 -3 4 C-2.34 3.67 -1.68 3.34 -1 3 C-0.67 2.01 -0.34 1.02 0 0 Z " fill="#E9515A" transform="translate(339,71)"/>
<path d="M0 0 C0.33 0.66 0.66 1.32 1 2 C2.65 2 4.3 2 6 2 C5.01 3.485 5.01 3.485 4 5 C0.7421875 5.29296875 0.7421875 5.29296875 -3.125 5.1875 C-5.04699219 5.14689453 -5.04699219 5.14689453 -7.0078125 5.10546875 C-7.99523437 5.07066406 -8.98265625 5.03585938 -10 5 C-9.2578125 3.046875 -9.2578125 3.046875 -8 1 C-5.32209537 0.16113831 -2.8262059 0.18233586 0 0 Z " fill="#E1545F" transform="translate(221,51)"/>
<path d="M0 0 C0.33 0.66 0.66 1.32 1 2 C-0.21484375 4.8203125 -0.21484375 4.8203125 -1.9375 8.125 C-2.50339844 9.22070312 -3.06929687 10.31640625 -3.65234375 11.4453125 C-4.09707031 12.28835937 -4.54179687 13.13140625 -5 14 C-5.33 14 -5.66 14 -6 14 C-6.2226746 12.56465159 -6.42761906 11.12654475 -6.625 9.6875 C-6.74101562 8.88699219 -6.85703125 8.08648437 -6.9765625 7.26171875 C-7 5 -7 5 -5 2 C-2.375 0.8125 -2.375 0.8125 0 0 Z " fill="#DD6F81" transform="translate(232,135)"/>
<path d="M0 0 C0.33 0 0.66 0 1 0 C0.5286045 9.74217375 -2.25475278 18.70060168 -5 28 C-5.33 28 -5.66 28 -6 28 C-5.51358785 21.15182898 -4.64006048 14.66957927 -3 8 C-2.34 8 -1.68 8 -1 8 C-1.020625 6.865625 -1.04125 5.73125 -1.0625 4.5625 C-1 1 -1 1 0 0 Z " fill="#D05760" transform="translate(446,285)"/>
<path d="M0 0 C1.46067199 0.45082469 2.91848032 0.91093537 4.375 1.375 C5.18710937 1.63023438 5.99921875 1.88546875 6.8359375 2.1484375 C9 3 9 3 11 5 C7.94736336 5.98120464 6.05263664 5.98120464 3 5 C3 5.66 3 6.32 3 7 C1.68 7 0.36 7 -1 7 C-1.625 4.625 -1.625 4.625 -2 2 C-1.34 1.34 -0.68 0.68 0 0 Z " fill="#E3525C" transform="translate(326,65)"/>
<path d="M0 0 C0.598125 0.185625 1.19625 0.37125 1.8125 0.5625 C4.16408762 1.22093687 4.16408762 1.22093687 7 0 C6.1875 2.9375 6.1875 2.9375 5 6 C2 7 2 7 0.17578125 6.22265625 C-1.54947917 5.1484375 -3.27473958 4.07421875 -5 3 C-5 2.67 -5 2.34 -5 2 C-3.35 2 -1.7 2 0 2 C0 1.34 0 0.68 0 0 Z " fill="#F05259" transform="translate(161,424)"/>
<path d="M0 0 C0.66 0 1.32 0 2 0 C2.86656998 2.74663704 3.71851786 5.4964243 4.5625 8.25 C4.80935547 9.02730469 5.05621094 9.80460938 5.31054688 10.60546875 C5.65375977 11.73662109 5.65375977 11.73662109 6.00390625 12.890625 C6.21861572 13.58188477 6.4333252 14.27314453 6.65454102 14.98535156 C7.0491764 17.28678704 6.71084423 18.79616682 6 21 C0.44419134 7.55125285 0.44419134 7.55125285 0 0 Z " fill="#D15C66" transform="translate(438,184)"/>
<path d="M0 0 C1.24652344 -0.02578125 2.49304688 -0.0515625 3.77734375 -0.078125 C7.0625 0.25 7.0625 0.25 9.00390625 1.765625 C9.35324219 2.25546875 9.70257813 2.7453125 10.0625 3.25 C9.7325 3.91 9.4025 4.57 9.0625 5.25 C8.0725 4.59 7.0825 3.93 6.0625 3.25 C3.22584671 2.93193122 3.22584671 2.93193122 0.125 3 C-0.91527344 2.99484375 -1.95554688 2.9896875 -3.02734375 2.984375 C-5.86848495 3.24370064 -7.52457634 3.78480298 -9.9375 5.25 C-9.5625 3.3125 -9.5625 3.3125 -8.9375 1.25 C-5.98361864 -0.22694068 -3.28588118 0.04069203 0 0 Z " fill="#DA7685" transform="translate(249.9375,118.75)"/>
<path d="M0 0 C3.96 0 7.92 0 12 0 C12 0.99 12 1.98 12 3 C8.49128216 4.91384609 7.18632214 5.04276246 3.1875 4.125 C2.135625 3.75375 1.08375 3.3825 0 3 C0 2.01 0 1.02 0 0 Z " fill="#ED525B" transform="translate(256,51)"/>
<path d="M0 0 C0.33 0.66 0.66 1.32 1 2 C1.99 1.67 2.98 1.34 4 1 C4.99 1 5.98 1 7 1 C6.67 1.556875 6.34 2.11375 6 2.6875 C4.8690399 5.30284522 4.84337026 7.1806646 5 10 C4.01 10.495 4.01 10.495 3 11 C1.35 8.03 -0.3 5.06 -2 2 C-1.34 1.34 -0.68 0.68 0 0 Z " fill="#ED525E" transform="translate(81,352)"/>
<path d="M0 0 C2.97246802 2.54782974 4.41535288 5.45340883 6 9 C6 9.66 6 10.32 6 11 C5.34 11 4.68 11 4 11 C3.67 10.34 3.34 9.68 3 9 C2.01 9.495 2.01 9.495 1 10 C1 9.34 1 8.68 1 8 C0.34 8 -0.32 8 -1 8 C-1.625 5.6875 -1.625 5.6875 -2 3 C-1.34 2.01 -0.68 1.02 0 0 Z " fill="#E3515B" transform="translate(425,154)"/>
<path d="M0 0 C0.33 2.31 0.66 4.62 1 7 C-1.8125 7.25 -1.8125 7.25 -5 7 C-6.875 5 -6.875 5 -8 3 C-2.25 0 -2.25 0 0 0 Z " fill="#E7515A" transform="translate(174,65)"/>
<path d="M0 0 C2.475 0.99 2.475 0.99 5 2 C5 4.97 5 7.94 5 11 C3.68 11.33 2.36 11.66 1 12 C1.04125 11.21625 1.0825 10.4325 1.125 9.625 C1.28728734 6.83883881 1.28728734 6.83883881 -1 5 C-0.01 5 0.98 5 2 5 C1.01 4.01 0.02 3.02 -1 2 C-0.67 1.34 -0.34 0.68 0 0 Z " fill="#EE505B" transform="translate(434,180)"/>
<path d="M0 0 C0.33 0 0.66 0 1 0 C1.28194828 3.19541383 1.09653156 4.81952795 -0.4375 7.6875 C-2.50676365 12.07433895 -2.72515351 16.20440268 -3 21 C-3.99 20.67 -4.98 20.34 -6 20 C-4.85210257 12.90116066 -2.88549626 6.58341381 0 0 Z " fill="#D75661" transform="translate(64,175)"/>
<path d="M0 0 C1.65 0 3.3 0 5 0 C5 0.66 5 1.32 5 2 C5.66 2.33 6.32 2.66 7 3 C7.59355614 5.64860427 7.74209269 8.29197322 8 11 C2.19794344 5.35475578 2.19794344 5.35475578 0 2 C0 1.34 0 0.68 0 0 Z " fill="#E3505B" transform="translate(87,365)"/>
<path d="M0 0 C-1.32 2.31 -2.64 4.62 -4 7 C-4.99 7 -5.98 7 -7 7 C-7.33 5.35 -7.66 3.7 -8 2 C-4.77208445 -0.1519437 -3.71599191 -0.20086443 0 0 Z " fill="#E1677B" transform="translate(217,361)"/>
<path d="M0 0 C0.99 0.33 1.98 0.66 3 1 C3 4.96 3 8.92 3 13 C2.01 13.33 1.02 13.66 0 14 C0 9.38 0 4.76 0 0 Z " fill="#F4505B" transform="translate(53,269)"/>
<path d="M0 0 C0.99 0 1.98 0 3 0 C3.28875 1.11375 3.5775 2.2275 3.875 3.375 C4.69241329 7.00291092 4.69241329 7.00291092 7 9 C4.69 9 2.38 9 0 9 C-1.10844919 5.67465243 -0.84454356 3.37817425 0 0 Z " fill="#EF4F5A" transform="translate(441,207)"/>
<path d="M0 0 C0.99 0 1.98 0 3 0 C3 0.66 3 1.32 3 2 C-1.22949995 4.41685712 -4.12335991 5.34833144 -9 5 C-9.33 4.34 -9.66 3.68 -10 3 C-9.67 2.34 -9.34 1.68 -9 1 C-7.700625 1.020625 -6.40125 1.04125 -5.0625 1.0625 C-3.70834367 1.08399454 -2.35243917 1.07148199 -1 1 C-0.67 0.67 -0.34 0.34 0 0 Z " fill="#F0515B" transform="translate(196,59)"/>
<path d="M0 0 C0.2475 0.639375 0.495 1.27875 0.75 1.9375 C1.81562433 4.18741541 1.81562433 4.18741541 4.125 4.75 C4.74375 4.8325 5.3625 4.915 6 5 C6 5.66 6 6.32 6 7 C-4.55808656 3.92482916 -4.55808656 3.92482916 -9 2 C-5.86501708 0.14223235 -3.62528568 -0.20140476 0 0 Z " fill="#D7525C" transform="translate(179,432)"/>
<path d="M0 0 C0.66 0.66 1.32 1.32 2 2 C1.01 2 0.02 2 -1 2 C-0.67 1.34 -0.34 0.68 0 0 Z M-4 3 C-3.34 3 -2.68 3 -2 3 C-2.125 5.3125 -2.125 5.3125 -3 8 C-5.9375 9.6875 -5.9375 9.6875 -9 11 C-9.66 11.66 -10.32 12.32 -11 13 C-11 11.68 -11 10.36 -11 9 C-9.35 8.67 -7.7 8.34 -6 8 C-5.855625 7.360625 -5.71125 6.72125 -5.5625 6.0625 C-5 4 -5 4 -4 3 Z " fill="#E2687D" transform="translate(362,253)"/>
<path d="M0 0 C0.33 0.99 0.66 1.98 1 3 C0.401875 3.556875 -0.19625 4.11375 -0.8125 4.6875 C-3.08795517 6.89703611 -3.08795517 6.89703611 -4.4375 9.625 C-6.31152827 12.47352298 -7.78737115 13.04489413 -11 14 C-7.80173015 8.88276824 -4.04165813 4.47307108 0 0 Z " fill="#DB515B" transform="translate(106,110)"/>
<path d="M0 0 C0.99 0.33 1.98 0.66 3 1 C3 2.65 3 4.3 3 6 C1.02 6.33 -0.96 6.66 -3 7 C-3.1875 4.625 -3.1875 4.625 -3 2 C-2.01 1.34 -1.02 0.68 0 0 Z " fill="#E56374" transform="translate(124,240)"/>
<path d="M0 0 C2.01471498 0.22385722 4.03145256 0.45418316 6.02734375 0.80859375 C8.2112135 1.15535648 8.2112135 1.15535648 11 0 C11.33 1.32 11.66 2.64 12 4 C6.78020872 4.1799928 2.92737019 3.97094808 -2 2 C-1.34 1.34 -0.68 0.68 0 0 Z " fill="#DC6D81" transform="translate(350,202)"/>
<path d="M0 0 C1.32 0.66 2.64 1.32 4 2 C4 3.32 4 4.64 4 6 C4.66 6.33 5.32 6.66 6 7 C4.1875 7.6875 4.1875 7.6875 2 8 C0.1875 6.875 0.1875 6.875 -1 5 C-0.6875 2.3125 -0.6875 2.3125 0 0 Z " fill="#EA505D" transform="translate(124,400)"/>
<path d="M0 0 C2.67901932 2.31881505 3.66204403 4.31814468 4.6875 7.6875 C4.93886719 8.49574219 5.19023437 9.30398437 5.44921875 10.13671875 C5.63097656 10.75160156 5.81273437 11.36648437 6 12 C0.51136364 9.30681818 0.51136364 9.30681818 -1 7 C-0.6875 3.3125 -0.6875 3.3125 0 0 Z " fill="#DE666F" transform="translate(433,170)"/>
<path d="M0 0 C0.66 0 1.32 0 2 0 C1.814375 0.7425 1.62875 1.485 1.4375 2.25 C1.00796892 4.94990963 1.14877026 6.44631077 2 9 C1.01 9.33 0.02 9.66 -1 10 C-3 7 -3 7 -3 3 C-2.01 3 -1.02 3 0 3 C0 2.01 0 1.02 0 0 Z " fill="#F2505B" transform="translate(62,301)"/>
<path d="M0 0 C0.33 1.32 0.66 2.64 1 4 C-1.97 4.66 -4.94 5.32 -8 6 C-8 5.01 -8 4.02 -8 3 C-2.25 0 -2.25 0 0 0 Z " fill="#E0515E" transform="translate(156,74)"/>
<path d="M0 0 C-1.75 4.875 -1.75 4.875 -4 6 C-4.33 5.34 -4.66 4.68 -5 4 C-6.65 4 -8.3 4 -10 4 C-7.18342017 0.590456 -4.32639749 0 0 0 Z M-6 6 C-5.01 6.33 -4.02 6.66 -3 7 C-3.99 7 -4.98 7 -6 7 C-6 6.67 -6 6.34 -6 6 Z " fill="#F4515C" transform="translate(144,408)"/>
<path d="M0 0 C0 0.66 0 1.32 0 2 C-1.33333333 3.33333333 -2.66666667 4.66666667 -4 6 C-6.64 5.01 -9.28 4.02 -12 3 C-12 2.67 -12 2.34 -12 2 C-10.37548581 1.66430703 -8.75037083 1.3315204 -7.125 1 C-6.22007812 0.814375 -5.31515625 0.62875 -4.3828125 0.4375 C-2 0 -2 0 0 0 Z " fill="#E06776" transform="translate(332,377)"/>
<path d="M0 0 C5.75 1.625 5.75 1.625 8 5 C5.36 5 2.72 5 0 5 C-0.5625 3.0625 -0.5625 3.0625 -1 1 C-0.67 0.67 -0.34 0.34 0 0 Z " fill="#DE6E87" transform="translate(298,192)"/>
<path d="M0 0 C1.65 1.32 3.3 2.64 5 4 C2 6 2 6 -2 6 C-2 4.35 -2 2.7 -2 1 C-1.34 0.67 -0.68 0.34 0 0 Z " fill="#E36576" transform="translate(131,249)"/>
<path d="M0 0 C2.64 0.66 5.28 1.32 8 2 C8 2.33 8 2.66 8 3 C0.08 3.495 0.08 3.495 -8 4 C-7.67 3.01 -7.34 2.02 -7 1 C-4.69 1.33 -2.38 1.66 0 2 C0 1.34 0 0.68 0 0 Z " fill="#E0687D" transform="translate(149,201)"/>
<path d="M0 0 C0.33 0.99 0.66 1.98 1 3 C0.01 3 -0.98 3 -2 3 C-2 3.66 -2 4.32 -2 5 C-3.32 5 -4.64 5 -6 5 C-6 4.34 -6 3.68 -6 3 C-6.66 2.67 -7.32 2.34 -8 2 C-7.236875 1.855625 -6.47375 1.71125 -5.6875 1.5625 C-2.91827092 1.0367406 -2.91827092 1.0367406 0 0 Z " fill="#F5505E" transform="translate(348,417)"/>
<path d="M0 0 C0.99 0 1.98 0 3 0 C3 0.66 3 1.32 3 2 C6.63 2 10.26 2 14 2 C13.67 2.66 13.34 3.32 13 4 C11.88625 3.979375 10.7725 3.95875 9.625 3.9375 C6.16784079 3.73619282 6.16784079 3.73619282 4 5 C2 3.625 2 3.625 0 2 C0 1.34 0 0.68 0 0 Z " fill="#EA545F" transform="translate(269,51)"/>
<path d="M0 0 C1.32 1.32 2.64 2.64 4 4 C3 5 3 5 -0.0625 5.0625 C-1.031875 5.041875 -2.00125 5.02125 -3 5 C-3 3.68 -3 2.36 -3 1 C-2.01 0.67 -1.02 0.34 0 0 Z " fill="#E4505B" transform="translate(284,442)"/>
<path d="M0 0 C0.99 0 1.98 0 3 0 C3.79953138 3.28696233 4.09658936 4.71023192 3 8 C2.34 8 1.68 8 1 8 C0.26919734 6.02253397 -0.39421747 4.01927511 -1 2 C-0.67 1.34 -0.34 0.68 0 0 Z " fill="#F15159" transform="translate(101,376)"/>
<path d="M0 0 C0.99 0 1.98 0 3 0 C2.54917531 1.46067199 2.08906463 2.91848032 1.625 4.375 C1.36976563 5.18710937 1.11453125 5.99921875 0.8515625 6.8359375 C0 9 0 9 -2 11 C-2 8.36 -2 5.72 -2 3 C-1.34 3 -0.68 3 0 3 C0 2.01 0 1.02 0 0 Z " fill="#D0565F" transform="translate(430,330)"/>
<path d="M0 0 C0.66 0.33 1.32 0.66 2 1 C0.9375 3.375 0.9375 3.375 -1 6 C-4.6875 7.3125 -4.6875 7.3125 -8 8 C-5.33333333 5.33333333 -2.66666667 2.66666667 0 0 Z " fill="#D7545F" transform="translate(125,93)"/>
<path d="M0 0 C0.66 0.33 1.32 0.66 2 1 C2.99 1 3.98 1 5 1 C4.67 2.65 4.34 4.3 4 6 C1.525 5.01 1.525 5.01 -1 4 C-0.67 2.68 -0.34 1.36 0 0 Z " fill="#ED525B" transform="translate(106,384)"/>
<path d="M0 0 C2.97 0.495 2.97 0.495 6 1 C6.33 3.31 6.66 5.62 7 8 C3.75700849 5.61042731 1.49097658 3.7952131 0 0 Z " fill="#DD5560" transform="translate(95,376)"/>
<path d="M0 0 C4.10958767 1.45044271 7.43258745 3.51110752 11 6 C10.34 6.66 9.68 7.32 9 8 C9 7.34 9 6.68 9 6 C7.02 5.34 5.04 4.68 3 4 C3 3.34 3 2.68 3 2 C1.68 2.33 0.36 2.66 -1 3 C-0.67 2.01 -0.34 1.02 0 0 Z " fill="#D5515C" transform="translate(353,79)"/>
<path d="M0 0 C2.64 0.33 5.28 0.66 8 1 C8.33 2.32 8.66 3.64 9 5 C5.22454612 3.90931332 2.52956528 3.0916909 0 0 Z " fill="#D7525E" transform="translate(156,426)"/>
<path d="M0 0 C0.66 0 1.32 0 2 0 C1.71682074 1.60568666 1.42312209 3.20952047 1.125 4.8125 C0.96257812 5.70582031 0.80015625 6.59914063 0.6328125 7.51953125 C0 10 0 10 -2 13 C-1.85915204 11.20793453 -1.71216299 9.41635083 -1.5625 7.625 C-1.48128906 6.62726563 -1.40007812 5.62953125 -1.31640625 4.6015625 C-1 2 -1 2 0 0 Z " fill="#C95A67" transform="translate(442,300)"/>
<path d="M0 0 C0.66 0 1.32 0 2 0 C2 3.30300113 1.83076794 5.84308184 1 9 C0.34 9.66 -0.32 10.32 -1 11 C-1.02688151 9.35425434 -1.04634123 7.70838587 -1.0625 6.0625 C-1.07410156 5.14597656 -1.08570313 4.22945312 -1.09765625 3.28515625 C-1 1 -1 1 0 0 Z " fill="#EE515B" transform="translate(54,214)"/>
<path d="M0 0 C0.33 0.66 0.66 1.32 1 2 C2.65 2 4.3 2 6 2 C5.01 3.485 5.01 3.485 4 5 C1.375 5.1875 1.375 5.1875 -1 5 C-1 2 -1 2 0 0 Z " fill="#F04F57" transform="translate(221,51)"/>
<path d="M0 0 C3.63 1.65 7.26 3.3 11 5 C7.17211056 6.27596315 5.63343017 5.62344752 2 4 C1.34 2.68 0.68 1.36 0 0 Z " fill="#D77283" transform="translate(281,358)"/>
<path d="M0 0 C0.66 0.33 1.32 0.66 2 1 C1.67 1.70125 1.34 2.4025 1 3.125 C-0.09044562 6.26003116 -0.15322643 8.70563182 0 12 C-0.66 12 -1.32 12 -2 12 C-2.33 9.36 -2.66 6.72 -3 4 C-2.01 3.67 -1.02 3.34 0 3 C0 2.01 0 1.02 0 0 Z " fill="#EF4E59" transform="translate(53,228)"/>
<path d="M0 0 C0.66 0 1.32 0 2 0 C2 1.98 2 3.96 2 6 C0.33333333 6 -1.33333333 6 -3 6 C-1.125 1.125 -1.125 1.125 0 0 Z " fill="#F2515A" transform="translate(86,137)"/>
<path d="M0 0 C3.08089673 2.77280706 4.68775452 5.06326356 6 9 C3.525 8.01 3.525 8.01 1 7 C0.67 4.69 0.34 2.38 0 0 Z " fill="#D8535E" transform="translate(412,133)"/>
<path d="M0 0 C0.99 0.33 1.98 0.66 3 1 C3 1.66 3 2.32 3 3 C3.66 3 4.32 3 5 3 C5 3.99 5 4.98 5 6 C3.0625 5.625 3.0625 5.625 1 5 C0.67 4.34 0.34 3.68 0 3 C-0.99 3 -1.98 3 -3 3 C-2.01 2.01 -1.02 1.02 0 0 Z " fill="#F44F59" transform="translate(395,116)"/>
<path d="M0 0 C0 0.66 0 1.32 0 2 C2.31 2 4.62 2 7 2 C7 2.66 7 3.32 7 4 C2.71 3.34 -1.58 2.68 -6 2 C-2 0 -2 0 0 0 Z " fill="#C9545E" transform="translate(208,443)"/>
<path d="M0 0 C2.16874252 0.50603992 3.99967627 0.99983813 6 2 C6.33 1.34 6.66 0.68 7 0 C7 0.99 7 1.98 7 3 C4.69 3.33 2.38 3.66 0 4 C0 2.68 0 1.36 0 0 Z " fill="#F35058" transform="translate(360,408)"/>
<path d="M0 0 C1.14926266 0.95421808 2.29430541 1.91352045 3.4375 2.875 C4.07558594 3.40867187 4.71367187 3.94234375 5.37109375 4.4921875 C7 6 7 6 8 8 C4.67689517 6.83242263 2.16638868 5.85051143 0 3 C0 2.01 0 1.02 0 0 Z " fill="#DB7D8F" transform="translate(149,262)"/>
<path d="M0 0 C0.33 0 0.66 0 1 0 C1.33 2.97 1.66 5.94 2 9 C1.01 9.495 1.01 9.495 0 10 C-0.19412181 8.52168779 -0.38012131 7.04230684 -0.5625 5.5625 C-0.66691406 4.73878906 -0.77132813 3.91507813 -0.87890625 3.06640625 C-0.91886719 2.38449219 -0.95882813 1.70257813 -1 1 C-0.67 0.67 -0.34 0.34 0 0 Z " fill="#D45964" transform="translate(445,205)"/>
<path d="M0 0 C1.32 0 2.64 0 4 0 C3.34 1.98 2.68 3.96 2 6 C1.34 6 0.68 6 0 6 C0 4.02 0 2.04 0 0 Z " fill="#F0515B" transform="translate(378,394)"/>
<path d="M0 0 C1.65 0 3.3 0 5 0 C4.01 0.495 4.01 0.495 3 1 C1.86649466 3.01669827 1.86649466 3.01669827 1 5 C-0.32 4.34 -1.64 3.68 -3 3 C-2.01 2.67 -1.02 2.34 0 2 C0 1.34 0 0.68 0 0 Z " fill="#E0667E" transform="translate(226,354)"/>
<path d="M0 0 C1.1875 1.5625 1.1875 1.5625 2 4 C0.625 7.75 0.625 7.75 -1 11 C-1.33 11 -1.66 11 -2 11 C-2 8.69 -2 6.38 -2 4 C-1.34 4 -0.68 4 0 4 C0 2.68 0 1.36 0 0 Z " fill="#DD6F77" transform="translate(437,315)"/>
<path d="M0 0 C0.66 0 1.32 0 2 0 C2.33 1.98 2.66 3.96 3 6 C1.68 5.67 0.36 5.34 -1 5 C-0.67 3.35 -0.34 1.7 0 0 Z " fill="#E4677A" transform="translate(349,266)"/>
<path d="M0 0 C1.65 1.65 3.3 3.3 5 5 C3.02 5.99 3.02 5.99 1 7 C0 6 0 6 -0.0625 2.9375 C-0.041875 1.968125 -0.02125 0.99875 0 0 Z " fill="#E2788C" transform="translate(144,257)"/>
<path d="M0 0 C0.33 1.98 0.66 3.96 1 6 C0.01 6.495 0.01 6.495 -1 7 C-1 6.34 -1 5.68 -1 5 C-1.66 5 -2.32 5 -3 5 C-3.33 3.68 -3.66 2.36 -4 1 C-2 0 -2 0 0 0 Z " fill="#DF697E" transform="translate(276,144)"/>
<path d="M0 0 C5.75 1.75 5.75 1.75 8 4 C2.25 4.125 2.25 4.125 0 3 C0 2.01 0 1.02 0 0 Z " fill="#D77A8D" transform="translate(252,343)"/>
<path d="M0 0 C1.10844919 3.32534757 0.84454356 5.62182575 0 9 C-0.66 9 -1.32 9 -2 9 C-2.25 3.375 -2.25 3.375 0 0 Z " fill="#F2515A" transform="translate(63,183)"/>
<path d="M0 0 C1.65 0 3.3 0 5 0 C4.01 1.98 3.02 3.96 2 6 C1.01 4.68 0.02 3.36 -1 2 C-0.67 1.34 -0.34 0.68 0 0 Z " fill="#F4505B" transform="translate(386,385)"/>
<path d="M0 0 C2.12508244 3.18762365 2.5020163 5.26512223 3 9 C0.65941363 6.87219421 -0.70700306 4.88437779 -2 2 C-1.34 1.34 -0.68 0.68 0 0 Z " fill="#D8545E" transform="translate(81,352)"/>
<path d="M0 0 C0 4.24645065 -1.81750806 6.38524772 -4 10 C-4.66 9.34 -5.32 8.68 -6 8 C-5.566875 7.608125 -5.13375 7.21625 -4.6875 6.8125 C-2.73633776 4.71680722 -1.40989838 2.48410667 0 0 Z " fill="#DA6B7D" transform="translate(375,238)"/>
<path d="M0 0 C1.32 1.65 2.64 3.3 4 5 C3.01 5.495 3.01 5.495 2 6 C1.34 5.67 0.68 5.34 0 5 C0 6.65 0 8.3 0 10 C-0.33 10 -0.66 10 -1 10 C-1.125 3.375 -1.125 3.375 0 0 Z " fill="#EA545E" transform="translate(56,203)"/>
<path d="M0 0 C0 0.66 0 1.32 0 2 C-0.66 2 -1.32 2 -2 2 C-2.33 2.99 -2.66 3.98 -3 5 C-3.99 5 -4.98 5 -6 5 C-6 4.01 -6 3.02 -6 2 C-3 0 -3 0 0 0 Z " fill="#E76577" transform="translate(272,128)"/>
</svg>
