<?xml version="1.0" encoding="UTF-8"?>
<svg version="1.1" xmlns="http://www.w3.org/2000/svg" width="500" height="500">
<path d="M0 0 C0.85722656 0.00215515 1.71445313 0.0043103 2.59765625 0.00653076 C15.540976 0.05867295 28.13437321 0.48185705 40.8125 3.3125 C41.72273926 3.51117676 42.63297852 3.70985352 43.57080078 3.91455078 C73.42899498 10.62171707 102.31312601 23.50700754 125.8125 43.3125 C126.64523437 43.9621875 127.47796875 44.611875 128.3359375 45.28125 C141.50593544 55.63186421 153.03949144 67.72306308 162.8125 81.3125 C163.29283691 81.97556152 163.77317383 82.63862305 164.26806641 83.32177734 C188.66584264 117.38345324 201.29779594 157.29271104 201.1875 199.125 C201.1862915 199.97766449 201.18508301 200.83032898 201.18383789 201.70883179 C201.06575313 232.57107674 194.5781713 261.58362922 180.8125 289.3125 C180.49845215 289.95687012 180.1844043 290.60124023 179.86083984 291.26513672 C156.6964755 338.39760046 113.93554621 373.71156312 64.71557617 390.81835938 C58.40518545 392.9164463 52.04035201 394.62701444 45.5625 396.125 C44.30651001 396.41721436 44.30651001 396.41721436 43.02514648 396.71533203 C29.10254117 399.75216436 15.32383852 400.69391723 1.125 400.625 C-0.05280029 400.62226578 -0.05280029 400.62226578 -1.25439453 400.61947632 C-13.7731469 400.57072382 -25.90827942 399.92520955 -38.1875 397.3125 C-38.99429199 397.14621094 -39.80108398 396.97992188 -40.63232422 396.80859375 C-79.35739524 388.60316375 -112.7000578 369.42353577 -141.1875 342.3125 C-141.89261719 341.66023438 -142.59773438 341.00796875 -143.32421875 340.3359375 C-169.55425344 315.3296164 -186.49472117 279.99643844 -195.1875 245.3125 C-195.40212891 244.48975586 -195.61675781 243.66701172 -195.83789062 242.81933594 C-202.65842667 215.63462797 -201.94416154 182.41627699 -195.1875 155.3125 C-194.86604004 153.97469482 -194.86604004 153.97469482 -194.53808594 152.60986328 C-185.68220823 116.56115583 -166.69857477 84.98647276 -141.1875 58.3125 C-140.23230469 57.29542969 -140.23230469 57.29542969 -139.2578125 56.2578125 C-103.67813629 19.31623481 -50.49912474 -0.22934079 0 0 Z " fill="#FDB4D1" transform="translate(249.1875,49.6875)"/>
<path d="M0 0 C46.86 0 93.72 0 142 0 C142 50.16 142 100.32 142 152 C134.22464899 145.33541342 134.22464899 145.33541342 130.5625 141.5625 C127.83360251 138.79678771 125.08110616 136.14585127 122.125 133.625 C118.23879919 130.29618257 114.66159583 126.69114601 111.07128906 123.05175781 C107.82667336 119.78012241 104.4640015 116.73051557 100.9609375 113.7421875 C98.71368115 111.7456211 96.61105073 109.63987054 94.5 107.5 C91.13388997 104.09354276 87.68923863 100.86814742 84.03515625 97.7734375 C82.56396492 96.49143968 81.13914955 95.15556091 79.74609375 93.7890625 C75.20040045 89.39922112 75.20040045 89.39922112 69.4375 87.0625 C65.30908723 88.18843075 63.28076274 89.87196194 60.25244141 92.82348633 C58.05605923 94.94583047 55.79837171 96.9683721 53.5078125 98.98828125 C47.3410283 104.52030777 41.51926821 110.37043781 35.6875 116.25 C34.61937975 117.32315472 33.55102138 118.3960725 32.48242188 119.46875 C30.52416164 121.43507454 28.56755133 123.40298659 26.61206055 125.37207031 C18.63633994 133.39624609 18.63633994 133.39624609 15.5 136 C13.39881349 137.77514032 11.4499844 139.5500156 9.5 141.5 C6.49537394 144.50462606 3.22622019 147.23466841 0 150 C0 100.5 0 51 0 0 Z " fill="#FBC7DB" transform="translate(179,168)"/>
<path d="M0 0 C0.67538486 -0.00638882 1.35076972 -0.01277764 2.04662079 -0.01936007 C4.29715091 -0.03455324 6.54590423 -0.01418978 8.79637146 0.00622559 C10.41474489 0.00272267 12.03311487 -0.00293784 13.651474 -0.0105896 C18.03790754 -0.02482174 22.42371303 -0.00779241 26.81008649 0.01569557 C31.40283793 0.03581997 35.9955637 0.02992425 40.58834839 0.02758789 C48.29955896 0.02764144 56.01052432 0.04738609 63.72166443 0.07946777 C72.63541525 0.11637267 81.54884503 0.12514129 90.46266228 0.11817026 C99.040917 0.11186447 107.61906171 0.12262012 116.19729424 0.14213562 C119.84671026 0.15030791 123.49607005 0.15301949 127.14549446 0.15144348 C131.44247949 0.15056434 135.73915957 0.16478858 140.03606415 0.19067001 C141.61264759 0.19782988 143.18926349 0.19991629 144.7658596 0.19655228 C146.91861834 0.19283514 149.07048828 0.20759164 151.22314453 0.22705078 C153.02969182 0.23264385 153.02969182 0.23264385 154.87273502 0.23834991 C159.33818357 0.77711278 161.91099456 2.48437408 165.04808044 5.62145996 C165.24986382 8.1330551 165.32615803 10.53503961 165.31550598 13.04818726 C165.32003709 13.82294879 165.32456821 14.59771033 165.32923663 15.39594948 C165.34195188 18.00617283 165.3402557 20.61618943 165.33860779 23.22644043 C165.34458862 25.09214549 165.35139313 26.95784807 165.35896301 28.82354736 C165.37667603 33.9020611 165.38132063 38.9805075 165.38259459 44.05904913 C165.38449028 48.29377907 165.39184404 52.52849321 165.39893878 56.76321709 C165.41524064 66.75194287 165.42010611 76.74063257 165.41868591 86.72937012 C165.41748415 97.04383967 165.43858883 107.35810009 165.47017324 117.6725167 C165.49629863 126.51841624 165.50705477 135.36424733 165.50577509 144.21018517 C165.50526434 149.49767977 165.5110099 154.78498863 165.5321312 160.07244492 C165.55145061 165.04486102 165.55168134 170.01691303 165.53709793 174.98934174 C165.53500085 176.81630864 165.53976393 178.64329795 165.55181885 180.47022629 C165.56719091 182.96083816 165.55801748 185.45018201 165.54255676 187.94076538 C165.55284389 188.66702995 165.56313102 189.39329452 165.57372987 190.14156711 C165.52663081 193.56521329 165.29100012 195.31332869 163.14217567 198.03900337 C159.63657589 200.68809946 157.44666853 201.02480013 153.04808044 200.62145996 C150.80198669 199.14489746 150.80198669 199.14489746 148.61058044 196.99645996 C147.75851013 196.1804834 146.90643982 195.36450684 146.02854919 194.52380371 C145.32544617 193.83520264 145.32544617 193.83520264 144.60813904 193.13269043 C142.87886076 191.45753667 141.11781184 189.82105656 139.34886169 188.18786621 C133.38721807 182.68199889 127.49556501 177.13621698 121.80589294 171.34802246 C119.30165789 168.88830714 116.64257631 166.62374588 113.98167419 164.33630371 C112.09313447 162.66141697 110.31652397 160.92198409 108.54808044 159.12145996 C106.17765687 156.70813279 103.74071737 154.44874143 101.17308044 152.24645996 C98.16340515 149.65511791 95.33719428 146.94891214 92.54808044 144.12145996 C86.71285162 138.21592718 80.42462638 132.92472588 74.04808044 127.62145996 C73.54470154 128.13007568 73.04132263 128.63869141 72.52268982 129.16271973 C70.20056066 131.50586724 67.87435274 133.84492598 65.54808044 136.18395996 C64.75659607 136.98382324 63.96511169 137.78368652 63.14964294 138.60778809 C59.54658066 142.22561702 55.93832659 145.77841908 52.06370544 149.10583496 C47.22943704 153.26043514 42.78013901 157.78116611 38.29808044 162.30895996 C37.46147888 163.15007324 36.62487732 163.99118652 35.76292419 164.85778809 C34.21389921 166.41545994 32.66591241 167.97416552 31.11936951 169.53430176 C30.43584412 170.22306396 29.75231873 170.91182617 29.04808044 171.62145996 C28.34135193 172.37016357 27.63462341 173.11886719 26.90647888 173.89025879 C25.04808044 175.62145996 25.04808044 175.62145996 23.04808044 175.62145996 C23.04808044 176.28145996 23.04808044 176.94145996 23.04808044 177.62145996 C21.75511169 178.89099121 21.75511169 178.89099121 19.86058044 180.43395996 C15.15616658 184.40620208 10.88666467 188.74834614 6.61766052 193.17736816 C1.39364828 198.51341933 1.39364828 198.51341933 -1.95191956 199.62145996 C-5.67145079 199.48861956 -8.09251067 199.24190163 -11.1380825 197.04318142 C-13.59101606 193.76817839 -13.51460156 190.9337107 -13.47331238 186.99891663 C-13.48096347 186.22723536 -13.48861457 185.45555409 -13.49649751 184.66048855 C-13.51715011 182.07241414 -13.50917576 179.4852278 -13.50123596 176.89709473 C-13.50992943 175.04256366 -13.52029547 173.18803978 -13.5322113 171.33352661 C-13.55902234 166.29425151 -13.56014536 161.25527611 -13.55508471 156.21594357 C-13.55294742 152.01101411 -13.56270647 147.80614557 -13.57229555 143.60122913 C-13.5944965 133.68238942 -13.59535466 123.76370118 -13.58326721 113.84484863 C-13.57118359 103.60748325 -13.59581693 93.37066735 -13.63840735 83.13339573 C-13.67361656 74.34771133 -13.68564577 65.562202 -13.67913187 56.77644962 C-13.67550223 51.5274407 -13.68081705 46.27882376 -13.70856094 41.02987862 C-13.73367228 36.09419453 -13.72987445 31.15936823 -13.70373917 26.22369766 C-13.69899844 24.41166459 -13.70451024 22.59957157 -13.72098541 20.78760719 C-13.74185251 18.31439979 -13.7257863 15.84408915 -13.70036316 13.37098694 C-13.71511173 12.6528904 -13.7298603 11.93479385 -13.74505579 11.19493681 C-13.65859219 7.2005245 -13.01999305 5.69821688 -10.3396368 2.67595577 C-6.49819229 0.34629509 -4.4566185 -0.00263574 0 0 Z M5.04808044 18.62145996 C5.04808044 68.12145996 5.04808044 117.62145996 5.04808044 168.62145996 C9.84484343 164.55195058 9.84484343 164.55195058 14.42308044 160.24645996 C17.42110332 157.24843709 20.57416422 154.47192201 23.76683044 151.68395996 C26.28314034 149.40894005 28.65599775 147.02726236 31.04808044 144.62145996 C32.0823401 143.58190778 33.11660125 142.54235707 34.15086365 141.50280762 C34.70526627 140.94517731 35.25966888 140.387547 35.83087158 139.8130188 C38.34402261 137.28635492 40.85994469 134.76245746 43.3759613 132.23864746 C44.69457536 130.91500486 46.01229047 129.59046609 47.3290863 128.26501465 C68.20013735 107.26079412 68.20013735 107.26079412 74.11058044 105.93395996 C79.79336203 106.92619167 82.48004781 110.11202799 86.49632263 114.09802246 C88.82102917 116.380302 91.21221634 118.58946732 93.59715271 120.80847168 C95.65078771 122.72141263 97.696189 124.64279666 99.73948669 126.56677246 C102.68109397 129.33637564 105.62665562 132.10167012 108.57542419 134.86364746 C110.0663594 136.26203188 111.55724612 137.66046799 113.04808044 139.05895996 C113.72943054 139.69648193 114.41078064 140.33400391 115.11277771 140.99084473 C119.22166054 144.85067393 123.23938856 148.78448364 127.19480896 152.80163574 C129.0633151 154.63641967 130.99662468 156.35623189 132.98558044 158.05895996 C136.96112711 161.46657139 140.61234521 165.14803731 144.26292419 168.89880371 C145.75454706 170.73719292 145.75454706 170.73719292 147.04808044 170.62145996 C147.04808044 120.46145996 147.04808044 70.30145996 147.04808044 18.62145996 C100.18808044 18.62145996 53.32808044 18.62145996 5.04808044 18.62145996 Z " fill="#D7638E" transform="translate(173.95191955566406,149.3785400390625)"/>
<path d="M0 0 C1.10816566 0.9264712 2.21297428 1.85695849 3.31640625 2.7890625 C4.23981812 3.56564209 4.23981812 3.56564209 5.18188477 4.35791016 C7.76746936 6.69316489 9.84955686 9.26307237 12 12 C10.37419034 11.88601335 8.74932843 11.75844341 7.125 11.625 C6.22007812 11.55539062 5.31515625 11.48578125 4.3828125 11.4140625 C2 11 2 11 0 9 C0 8.01 0 7.02 0 6 C-0.33 6.99 -0.66 7.98 -1 9 C-2.78108398 9.93911701 -4.56220069 10.87817229 -6.34375 11.81640625 C-8.94222684 13.67333664 -9.38171315 15.97726427 -10 19 C-10.78375 19.12375 -11.5675 19.2475 -12.375 19.375 C-15.14057822 19.79117993 -15.14057822 19.79117993 -17 22 C-17.73999023 20.27050781 -17.73999023 20.27050781 -18 18 C-16.46118164 15.89355469 -16.46118164 15.89355469 -14.16015625 13.671875 C-13.34482422 12.87265625 -12.52949219 12.0734375 -11.68945312 11.25 C-10.38911133 10.0125 -10.38911133 10.0125 -9.0625 8.75 C-8.19947266 7.90953125 -7.33644531 7.0690625 -6.44726562 6.203125 C-4.30889685 4.12382718 -2.15975911 2.05703385 0 0 Z " fill="#FBC6DC" transform="translate(248,276)"/>
<path d="M0 0 C-4.14369289 2.76246193 -8.36702801 3.42298188 -13.1875 4.5 C-14.08919922 4.71269531 -14.99089844 4.92539062 -15.91992188 5.14453125 C-30.49257696 8.44591107 -44.63226211 9.28947299 -59.5 9.125 C-61.11327558 9.11493124 -62.72655737 9.1058124 -64.33984375 9.09765625 C-68.22672105 9.07599453 -72.11328807 9.04168915 -76 9 C-76 8.67 -76 8.34 -76 8 C-75.05382812 7.98018066 -74.10765625 7.96036133 -73.1328125 7.93994141 C-69.53916803 7.86244654 -65.94585528 7.77398538 -62.35253906 7.68261719 C-60.8128933 7.64490897 -59.27317665 7.60996875 -57.73339844 7.578125 C-39.65497833 8.36257556 -39.65497833 8.36257556 -24 3 C-16.39294471 0.79984979 -7.91734123 -0.2553981 0 0 Z " fill="#EBA9C2" transform="translate(309,441)"/>
<path d="M0 0 C0.99 0.33 1.98 0.66 3 1 C2.690625 1.5775 2.38125 2.155 2.0625 2.75 C0.93161029 4.8990629 0.93161029 4.8990629 0.625 7 C-0.22941922 9.7341415 -1.96676432 11.03030293 -4 13 C-4.33 13.99 -4.66 14.98 -5 16 C-5.66 16 -6.32 16 -7 16 C-7.33 17.98 -7.66 19.96 -8 22 C-7.34 22.33 -6.68 22.66 -6 23 C-7.175625 24.0209375 -7.175625 24.0209375 -8.375 25.0625 C-11.45850521 28.51308916 -12.04357515 30.56566662 -13 35 C-13.66 35 -14.32 35 -15 35 C-15.33 35.66 -15.66 36.32 -16 37 C-13.82068842 23.82507088 -6.35831644 11.54387674 0 0 Z " fill="#EEA8C3" transform="translate(76,150)"/>
<path d="M0 0 C2.5840021 0.01846595 5.16764712 0.02050729 7.75170898 0.02026367 C9.42684224 0.02517415 11.10197312 0.03100041 12.77709961 0.0378418 C13.91174904 0.03951103 13.91174904 0.03951103 15.06932068 0.04121399 C20.31572799 0.08716035 25.41745653 0.56001138 30.62475586 1.20581055 C30.62475586 1.86581055 30.62475586 2.52581055 30.62475586 3.20581055 C28.31475586 3.53581055 26.00475586 3.86581055 23.62475586 4.20581055 C23.62475586 3.54581055 23.62475586 2.88581055 23.62475586 2.20581055 C3.82475586 1.71081055 3.82475586 1.71081055 -16.37524414 1.20581055 C-16.70524414 2.19581055 -17.03524414 3.18581055 -17.37524414 4.20581055 C-17.70524414 3.54581055 -18.03524414 2.88581055 -18.37524414 2.20581055 C-18.95532227 2.36178711 -19.53540039 2.51776367 -20.13305664 2.6784668 C-24.90041341 3.86637253 -28.50344702 4.4549893 -33.37524414 3.20581055 C-33.37524414 2.87581055 -33.37524414 2.54581055 -33.37524414 2.20581055 C-22.19056695 0.48396535 -11.30485241 -0.08349867 0 0 Z " fill="#ECABC3" transform="translate(247.375244140625,49.794189453125)"/>
<path d="M0 0 C2.97 0.495 2.97 0.495 6 1 C6 1.66 6 2.32 6 3 C3.00731286 4.32963138 0.00477045 5.6354328 -3 6.9375 C-3.83917969 7.31068359 -4.67835938 7.68386719 -5.54296875 8.06835938 C-10.78002925 10.32151331 -15.30786076 11.58494818 -21 12 C-19.68 11.67 -18.36 11.34 -17 11 C-16.8453125 10.1028125 -16.8453125 10.1028125 -16.6875 9.1875 C-15.91123545 6.71756736 -14.92911079 5.67748765 -13 4 C-12.67 4.66 -12.34 5.32 -12 6 C-10.68 5.67 -9.36 5.34 -8 5 C-8 5.66 -8 6.32 -8 7 C-3.66029083 5.21190271 -3.66029083 5.21190271 -0.625 1.8125 C-0.315625 0.9153125 -0.315625 0.9153125 0 0 Z " fill="#F2A7C5" transform="translate(331,428)"/>
<path d="M0 0 C0.66 0.33 1.32 0.66 2 1 C-8.70050315 21.82629085 -8.70050315 21.82629085 -14 29 C-15.23590089 25.29229733 -14.49559869 24.48973028 -13 21 C-12.63128912 19.34080104 -12.28718326 17.6752357 -12 16 C-11.34 16 -10.68 16 -10 16 C-9.67 15.01 -9.34 14.02 -9 13 C-8.360625 12.566875 -7.72125 12.13375 -7.0625 11.6875 C-4.35105287 9.46904326 -3.88674882 7.32530806 -3 4 C-2.34 4 -1.68 4 -1 4 C-0.67 2.68 -0.34 1.36 0 0 Z " fill="#EFA9C4" transform="translate(430,334)"/>
<path d="M0 0 C1.67542976 0.28604898 3.34385343 0.61781233 5 1 C5 1.99 5 2.98 5 4 C8.465 5.485 8.465 5.485 12 7 C8.58293968 8.13902011 7.33739308 7.8198446 3.89453125 7.00390625 C2.91162109 6.77509766 1.92871094 6.54628906 0.91601562 6.31054688 C-0.10814453 6.06369141 -1.13230469 5.81683594 -2.1875 5.5625 C-3.22326172 5.31951172 -4.25902344 5.07652344 -5.32617188 4.82617188 C-7.88589053 4.22457901 -10.44361918 3.61559499 -13 3 C-13 2.34 -13 1.68 -13 1 C-11.71802734 1.01740234 -11.71802734 1.01740234 -10.41015625 1.03515625 C-8.75306641 1.04869141 -8.75306641 1.04869141 -7.0625 1.0625 C-5.40927734 1.07990234 -5.40927734 1.07990234 -3.72265625 1.09765625 C-1.08552366 1.31262571 -1.08552366 1.31262571 0 0 Z " fill="#F1A7C5" transform="translate(207,440)"/>
<path d="M0 0 C-0.99 1.485 -0.99 1.485 -2 3 C-4.625 3.1875 -4.625 3.1875 -7 3 C-7.33 3.66 -7.66 4.32 -8 5 C-8.70125 4.896875 -9.4025 4.79375 -10.125 4.6875 C-14.30732311 5.14210034 -15.95201113 7.16466151 -19 10 C-19 9.34 -19 8.68 -19 8 C-19.99 8.33 -20.98 8.66 -22 9 C-21.67 10.32 -21.34 11.64 -21 13 C-21.78375 12.649375 -22.5675 12.29875 -23.375 11.9375 C-24.24125 11.628125 -25.1075 11.31875 -26 11 C-26.99 11.495 -26.99 11.495 -28 12 C-28 11.01 -28 10.02 -28 9 C-3.63009404 -1.81504702 -3.63009404 -1.81504702 0 0 Z " fill="#F1A7C4" transform="translate(193,59)"/>
<path d="M0 0 C4.09799855 3.65787937 6.8591338 8.04709037 9.8125 12.625 C10.32748047 13.40101563 10.84246094 14.17703125 11.37304688 14.9765625 C11.85451172 15.7190625 12.33597656 16.4615625 12.83203125 17.2265625 C13.27264893 17.90283691 13.7132666 18.57911133 14.16723633 19.27587891 C14.44204834 19.84483887 14.71686035 20.41379883 15 21 C14.67 21.66 14.34 22.32 14 23 C11.625 22.4375 11.625 22.4375 9 21 C8.27359045 18.68456957 7.61568542 16.34730065 7 14 C4.79637525 10.17628876 2.68943352 7.45962234 -1 5 C-0.67 3.35 -0.34 1.7 0 0 Z " fill="#F0AAC3" transform="translate(409,128)"/>
<path d="M0 0 C3.17018025 3.17018025 4.1605193 7.27884916 5.6875 11.4375 C6.02072266 12.30955078 6.35394531 13.18160156 6.69726562 14.08007812 C7.00728516 14.91861328 7.31730469 15.75714844 7.63671875 16.62109375 C7.92248779 17.3886499 8.20825684 18.15620605 8.50268555 18.94702148 C9 21 9 21 8 24 C6 21 6 21 5.125 17.9375 C4.28928174 14.89086389 4.28928174 14.89086389 1.875 13.625 C1.25625 13.41875 0.6375 13.2125 0 13 C0.33 12.01 0.66 11.02 1 10 C0.65128822 7.73024463 0.65128822 7.73024463 0 5.375 C-0.37493726 3.92680482 -0.71901493 2.46931774 -1 1 C-0.67 0.67 -0.34 0.34 0 0 Z " fill="#F0ABC6" transform="translate(433,169)"/>
<path d="M0 0 C2.37715196 1.24603894 4.75169058 2.4966793 7.125 3.75 C7.79015625 4.09804687 8.4553125 4.44609375 9.140625 4.8046875 C13.26946336 6.9905431 17.15716643 9.3423394 21 12 C20.67 12.99 20.34 13.98 20 15 C18.35 15.33 16.7 15.66 15 16 C15.33 14.68 15.66 13.36 16 12 C14.68 12.33 13.36 12.66 12 13 C11.9175 12.38125 11.835 11.7625 11.75 11.125 C11.1875 8.85416667 11.1875 8.85416667 9.125 7.75 C6.90408309 6.83358994 6.90408309 6.83358994 4 7 C4.33 6.01 4.66 5.02 5 4 C2.525 3.01 2.525 3.01 0 2 C0 1.34 0 0.68 0 0 Z " fill="#F0A8C5" transform="translate(341,71)"/>
<path d="M0 0 C6.85921925 1.61191652 13.46207289 3.35968328 20 6 C19.67 6.99 19.34 7.98 19 9 C15.2592503 8.54194902 11.80887322 7.94360193 8.1875 6.875 C5.13335933 5.65497457 5.13335933 5.65497457 3 7 C2.87625 6.401875 2.7525 5.80375 2.625 5.1875 C2.04524015 2.73768652 2.04524015 2.73768652 0 0 Z " fill="#F1A7C6" transform="translate(301,56)"/>
<path d="M0 0 C0.66 0.99 1.32 1.98 2 3 C1.4225 3.226875 0.845 3.45375 0.25 3.6875 C-2.55338976 5.32281069 -4.00442154 7.47226728 -6 10 C-6.66 10 -7.32 10 -8 10 C-8 10.66 -8 11.32 -8 12 C-9.45264038 12.8638129 -10.9123163 13.71580454 -12.375 14.5625 C-13.59316406 15.27599609 -13.59316406 15.27599609 -14.8359375 16.00390625 C-15.55007812 16.33261719 -16.26421875 16.66132812 -17 17 C-17.66 16.67 -18.32 16.34 -19 16 C-12.87789864 10.36357683 -6.65478497 4.99912591 0 0 Z " fill="#EEA8C3" transform="translate(131,88)"/>
<path d="M0 0 C4 0 4 0 5.5 1.375 C5.995 1.91125 6.49 2.4475 7 3 C9.09989652 4.17574711 9.09989652 4.17574711 11 5 C11 5.66 11 6.32 11 7 C13.20759471 7.57233937 15.37309778 8.06218296 17.625 8.4375 C20 9 20 9 22 11 C21.67 11.66 21.34 12.32 21 13 C21.66 13.33 22.32 13.66 23 14 C22.01 14.495 22.01 14.495 21 15 C18.68390818 13.6962596 16.51451772 12.35174772 14.3125 10.875 C13.6819873 10.45992188 13.05147461 10.04484375 12.40185547 9.6171875 C8.19974599 6.83821559 4.00822321 4.05388435 0 1 C0 0.67 0 0.34 0 0 Z " fill="#EBA8C2" transform="translate(127,408)"/>
<path d="M0 0 C0 1.66666667 0 3.33333333 0 5 C0.33 5.99 0.66 6.98 1 8 C0.21625 8.103125 -0.5675 8.20625 -1.375 8.3125 C-4.33045181 8.77595022 -4.33045181 8.77595022 -6 12 C-5.01 13.485 -5.01 13.485 -4 15 C-4.66 15.66 -5.32 16.32 -6 17 C-6.99 16.34 -7.98 15.68 -9 15 C-9.99 15 -10.98 15 -12 15 C-10.37676928 12.87362766 -8.7515047 10.74886564 -7.125 8.625 C-6.66480469 8.02171875 -6.20460938 7.4184375 -5.73046875 6.796875 C-3.90627059 4.41748609 -2.12258788 2.12258788 0 0 Z " fill="#F0AAC4" transform="translate(98,119)"/>
<path d="M0 0 C0.33 0.66 0.66 1.32 1 2 C3.31543043 2.72640955 5.65269935 3.38431458 8 4 C10.00361307 4.65572791 12.00491933 5.31875294 14 6 C14 6.66 14 7.32 14 8 C17.3 8.99 20.6 9.98 24 11 C23.67 11.99 23.34 12.98 23 14 C15.41 10.37 7.82 6.74 0 3 C0 2.01 0 1.02 0 0 Z " fill="#EAA8C2" transform="translate(151,422)"/>
<path d="M0 0 C2.16730018 3.25095026 2.81305307 5.71215185 3.6875 9.5 C3.95949219 10.6446875 4.23148437 11.789375 4.51171875 12.96875 C5 16 5 16 4 19 C2 16 2 16 1.5625 14 C1.18194716 11.88219194 1.18194716 11.88219194 -0.625 10.75 C-2.38684438 8.50765261 -2.07588768 7.64998294 -1.75 4.875 C-1 1 -1 1 0 0 Z " fill="#EEA7C5" transform="translate(442,194)"/>
<path d="M0 0 C0.99 0.33 1.98 0.66 3 1 C2.42978625 7.95660771 0.98697306 14.31427305 -1 21 C-1.33 21 -1.66 21 -2 21 C-2.02712066 19.56260487 -2.04645067 18.12506137 -2.0625 16.6875 C-2.07410156 15.88699219 -2.08570313 15.08648437 -2.09765625 14.26171875 C-2 12 -2 12 -1 9 C-1.87914688 6.3430809 -1.87914688 6.3430809 -3 4 C-1.68 4.33 -0.36 4.66 1 5 C0.67 3.35 0.34 1.7 0 0 Z " fill="#EEA7C1" transform="translate(444,285)"/>
<path d="M0 0 C1.32 0.33 2.64 0.66 4 1 C-1.61 4.3 -7.22 7.6 -13 11 C-13.33 10.34 -13.66 9.68 -14 9 C-13.34 9 -12.68 9 -12 9 C-11.67 7.35 -11.34 5.7 -11 4 C-10.34 4.33 -9.68 4.66 -9 5 C-8.67 4.34 -8.34 3.68 -8 3 C-5.35139573 2.40644386 -2.70802678 2.25790731 0 2 C0 1.34 0 0.68 0 0 Z " fill="#EDA7C0" transform="translate(358,416)"/>
<path d="M0 0 C4.2295083 1.4098361 5.08210924 4.16421847 7 8 C7.99 8.33 8.98 8.66 10 9 C10 10.32 10 11.64 10 13 C10.66 12.67 11.32 12.34 12 12 C11.67 13.65 11.34 15.3 11 17 C7.6488721 13.93801809 5.49333007 10.7479145 3.25 6.8125 C2.63640625 5.74644531 2.0228125 4.68039062 1.390625 3.58203125 C0 1 0 1 0 0 Z " fill="#E6A9C1" transform="translate(73,344)"/>
<path d="M0 0 C0.33 0.66 0.66 1.32 1 2 C-0.375 4 -0.375 4 -2 6 C-2.66 6 -3.32 6 -4 6 C-4.2475 6.515625 -4.495 7.03125 -4.75 7.5625 C-6.39581616 10.77184151 -8.1976096 13.87585664 -10 17 C-10.33 17 -10.66 17 -11 17 C-11.34375 14.3671875 -11.34375 14.3671875 -11 11 C-9.20515074 8.76809329 -7.59338551 7.01779083 -5.5 5.125 C-4.97535156 4.62742187 -4.45070313 4.12984375 -3.91015625 3.6171875 C-2.61995498 2.39736085 -1.31168268 1.19669751 0 0 Z " fill="#EDAAC4" transform="translate(111,105)"/>
<path d="M0 0 C5.37122156 0.88052813 8.08467491 3.82939627 11.8125 7.625 C8.60854584 7.625 6.71850261 6.88164978 3.8125 5.625 C3.8125 4.965 3.8125 4.305 3.8125 3.625 C3.1525 3.625 2.4925 3.625 1.8125 3.625 C1.8125 2.965 1.8125 2.305 1.8125 1.625 C-0.8275 2.285 -3.4675 2.945 -6.1875 3.625 C-4.33245187 1.00610852 -3.2004762 0.62754435 0 0 Z " fill="#CD6E92" transform="translate(248.1875,254.375)"/>
<path d="M0 0 C1.98 0.66 3.96 1.32 6 2 C5.67 2.66 5.34 3.32 5 4 C5.99 4 6.98 4 8 4 C8.33 5.98 8.66 7.96 9 10 C9.66 10 10.32 10 11 10 C10.67 10.99 10.34 11.98 10 13 C8.32722165 11.21371169 6.66175557 9.4214925 5 7.625 C4.28457031 6.86316406 4.28457031 6.86316406 3.5546875 6.0859375 C0 2.2265625 0 2.2265625 0 0 Z " fill="#ECAAC4" transform="translate(95,376)"/>
<path d="M0 0 C3 3.625 3 3.625 3 7 C2.34 7 1.68 7 1 7 C-0.52299523 9.93720508 -1.80100302 12.9168649 -3 16 C-4.57159226 12.85681547 -3.04018399 10.07066611 -2.0625 6.875 C-1.86720703 6.21628906 -1.67191406 5.55757812 -1.47070312 4.87890625 C-0.98695014 3.25066448 -0.49430925 1.62506818 0 0 Z " fill="#ECAAC3" transform="translate(59,187)"/>
<path d="M0 0 C2.72574271 0.37330824 3.80822085 0.79194601 5.703125 2.84765625 C6.21359375 3.57855469 6.7240625 4.30945313 7.25 5.0625 C8.03117187 6.16271484 8.03117187 6.16271484 8.828125 7.28515625 C9.21484375 7.85105469 9.6015625 8.41695312 10 9 C9.21625 8.814375 8.4325 8.62875 7.625 8.4375 C5.02910225 7.74037734 5.02910225 7.74037734 3 9 C2.34 7.02 1.68 5.04 1 3 C1.33 2.67 1.66 2.34 2 2 C1.34 1.34 0.68 0.68 0 0 Z " fill="#F3A9C6" transform="translate(399,119)"/>
<path d="M0 0 C0.33 0.66 0.66 1.32 1 2 C0.0625 4.625 0.0625 4.625 -1 7 C-1.66 7 -2.32 7 -3 7 C-3.33 7.66 -3.66 8.32 -4 9 C-5.97888961 9.72693904 -7.97954558 10.39816251 -10 11 C-6.79239749 7.19364503 -3.59253891 3.45436433 0 0 Z " fill="#D57096" transform="translate(234,264)"/>
<path d="M0 0 C1.4589426 0.47730838 2.91713496 0.95691042 4.375 1.4375 C5.18710937 1.70433594 5.99921875 1.97117187 6.8359375 2.24609375 C9 3 9 3 11 4 C11 4.99 11 5.98 11 7 C4.25 6.125 4.25 6.125 2 5 C2 4.01 2 3.02 2 2 C1.34 2 0.68 2 0 2 C0 1.34 0 0.68 0 0 Z " fill="#F0A8C5" transform="translate(322,63)"/>
<path d="M0 0 C2.48627517 3.0622744 4.09989404 6.1457054 5.6875 9.75 C6.12449219 10.73484375 6.56148438 11.7196875 7.01171875 12.734375 C7.33785156 13.48203125 7.66398437 14.2296875 8 15 C6.03515625 14.12109375 6.03515625 14.12109375 4 13 C3.4375 11.0625 3.4375 11.0625 3 9 C2.484375 8.54625 1.96875 8.0925 1.4375 7.625 C0 6 0 6 -0.1875 2.8125 C-0.125625 1.884375 -0.06375 0.95625 0 0 Z " fill="#EBADC6" transform="translate(424,151)"/>
<path d="M0 0 C0.33 0.66 0.66 1.32 1 2 C-2.5087188 5.09592835 -5.49197399 6.74194623 -10 8 C-10.66 7.34 -11.32 6.68 -12 6 C-8.04 4.02 -4.08 2.04 0 0 Z " fill="#EEA5C2" transform="translate(163,69)"/>
<path d="M0 0 C0.33 0.66 0.66 1.32 1 2 C0.26821134 4.07196631 -0.55899003 6.1108552 -1.4375 8.125 C-1.91058594 9.22070312 -2.38367188 10.31640625 -2.87109375 11.4453125 C-3.24363281 12.28835938 -3.61617188 13.13140625 -4 14 C-4.66 13.34 -5.32 12.68 -6 12 C-4.125 6.25 -4.125 6.25 -3 4 C-2.34 4 -1.68 4 -1 4 C-0.67 2.68 -0.34 1.36 0 0 Z " fill="#EAA7C1" transform="translate(437,319)"/>
<path d="M0 0 C2.75 -0.3125 2.75 -0.3125 6 0 C8.375 2.5 8.375 2.5 10 5 C6.7 4.01 3.4 3.02 0 2 C0 1.34 0 0.68 0 0 Z " fill="#EFA7C4" transform="translate(177,435)"/>
<path d="M0 0 C5.75 0.75 5.75 0.75 8 3 C7.67 3.33 7.34 3.66 7 4 C8.32 4.99 9.64 5.98 11 7 C10.67 7.66 10.34 8.32 10 9 C8.33043913 7.69118353 6.66441696 6.37785174 5 5.0625 C4.071875 4.33160156 3.14375 3.60070312 2.1875 2.84765625 C1.465625 2.23792969 0.74375 1.62820313 0 1 C0 0.67 0 0.34 0 0 Z " fill="#EAA9C3" transform="translate(116,399)"/>
<path d="M0 0 C0.268125 0.5775 0.53625 1.155 0.8125 1.75 C2.01719859 4.0325868 3.40798115 5.9737942 5 8 C3.68 8.33 2.36 8.66 1 9 C0.63877119 7.68942607 0.28619689 6.37646376 -0.0625 5.0625 C-0.35833984 3.96615234 -0.35833984 3.96615234 -0.66015625 2.84765625 C-0.77230469 2.23792969 -0.88445313 1.62820313 -1 1 C-0.67 0.67 -0.34 0.34 0 0 Z " fill="#F2A7C1" transform="translate(58,303)"/>
<path d="M0 0 C-4.625 4.875 -4.625 4.875 -8 6 C-8 3 -8 3 -6.8125 1.3125 C-4.44258278 -0.40364695 -2.85974334 -0.23187108 0 0 Z " fill="#EBA7C0" transform="translate(370,410)"/>
<path d="M0 0 C3 0 3 0 6 1 C3.69 2.65 1.38 4.3 -1 6 C-1.99 5.34 -2.98 4.68 -4 4 C-2.66666667 2.66666667 -1.33333333 1.33333333 0 0 Z " fill="#EEA6C1" transform="translate(372,404)"/>
<path d="M0 0 C0.99 0.66 1.98 1.32 3 2 C1.02 4.97 1.02 4.97 -1 8 C-1.99 7.01 -2.98 6.02 -4 5 C-3.67 4.34 -3.34 3.68 -3 3 C-2.34 3.33 -1.68 3.66 -1 4 C-0.67 2.68 -0.34 1.36 0 0 Z " fill="#EBA9C3" transform="translate(412,362)"/>
<path d="M0 0 C2.32590854 3.63423209 2.16265833 6.77088331 2 11 C1.34 11 0.68 11 0 11 C-0.19406478 9.35492782 -0.38007935 7.70890406 -0.5625 6.0625 C-0.66691406 5.14597656 -0.77132812 4.22945313 -0.87890625 3.28515625 C-0.91886719 2.53105469 -0.95882812 1.77695312 -1 1 C-0.67 0.67 -0.34 0.34 0 0 Z " fill="#EFA6C7" transform="translate(53,279)"/>
<path d="M0 0 C0.33 0.99 0.66 1.98 1 3 C0.01 4.485 0.01 4.485 -1 6 C-1.99 6 -2.98 6 -4 6 C-4.33 4.68 -4.66 3.36 -5 2 C-3.35 1.34 -1.7 0.68 0 0 Z " fill="#F3A7C6" transform="translate(68,320)"/>
<path d="M0 0 C0.66 1.32 1.32 2.64 2 4 C0.68 4 -0.64 4 -2 4 C-2 4.66 -2 5.32 -2 6 C-3.65 6.66 -5.3 7.32 -7 8 C-6.02133662 6.85373678 -5.04205413 5.70800212 -4.0625 4.5625 C-3.51722656 3.92441406 -2.97195312 3.28632813 -2.41015625 2.62890625 C-1.63204305 1.73008851 -0.84063472 0.84063472 0 0 Z " fill="#D16A91" transform="translate(218,280)"/>
<path d="M0 0 C0.66 0 1.32 0 2 0 C2 0.66 2 1.32 2 2 C2.66 2.33 3.32 2.66 4 3 C2.68 4.32 1.36 5.64 0 7 C-1.04449911 3.86650268 -0.93423645 3.01031744 0 0 Z " fill="#F8ABC9" transform="translate(66,170)"/>
<path d="M0 0 C-1.65 1.32 -3.3 2.64 -5 4 C-6.32 3.34 -7.64 2.68 -9 2 C-6.32750728 -0.67249272 -3.5165484 -1.7582742 0 0 Z " fill="#F0A6C2" transform="translate(383,400)"/>
<path d="M0 0 C0.66 0 1.32 0 2 0 C2 1.32 2 2.64 2 4 C2.66 3.67 3.32 3.34 4 3 C3.67 4.65 3.34 6.3 3 8 C0.9375 6.25 0.9375 6.25 -1 4 C-0.75 1.75 -0.75 1.75 0 0 Z " fill="#F1A6C4" transform="translate(81,353)"/>
<path d="M0 0 C3.43595166 1.52708963 6.11912454 3.59927045 9 6 C8.34 6.66 7.68 7.32 7 8 C5.83035398 6.8572081 4.66435444 5.71068285 3.5 4.5625 C2.8503125 3.92441406 2.200625 3.28632813 1.53125 2.62890625 C0 1 0 1 0 0 Z " fill="#E6A9C1" transform="translate(108,391)"/>
<path d="M0 0 C0.99 0.66 1.98 1.32 3 2 C1.35 3.65 -0.3 5.3 -2 7 C-2.66 5.35 -3.32 3.7 -4 2 C-2.68 2 -1.36 2 0 2 C0 1.34 0 0.68 0 0 Z " fill="#EDA8C1" transform="translate(406,371)"/>
<path d="M0 0 C2.97 1.98 2.97 1.98 6 4 C5.01 4.495 5.01 4.495 4 5 C3.67 5.66 3.34 6.32 3 7 C3 6.34 3 5.68 3 5 C1.35 4.67 -0.3 4.34 -2 4 C-1.34 2.68 -0.68 1.36 0 0 Z " fill="#EBAAC4" transform="translate(378,96)"/>
<path d="M0 0 C2.0625 0.4375 2.0625 0.4375 4 1 C4.33 2.65 4.66 4.3 5 6 C3.68 5.34 2.36 4.68 1 4 C1 3.34 1 2.68 1 2 C0.34 1.67 -0.32 1.34 -1 1 C-0.67 0.67 -0.34 0.34 0 0 Z " fill="#FAC5DB" transform="translate(269,298)"/>
<path d="M0 0 C3.26460973 1.80412643 4.88929795 2.83394693 7 6 C3.75791433 5.64950425 2.38472296 5.43778819 0.1875 2.9375 C-0.4003125 1.9784375 -0.4003125 1.9784375 -1 1 C-0.67 0.67 -0.34 0.34 0 0 Z " fill="#ECA7C4" transform="translate(369,89)"/>
<path d="M0 0 C0.33 0.66 0.66 1.32 1 2 C0.34 2 -0.32 2 -1 2 C-1.33 2.99 -1.66 3.98 -2 5 C-2.66 5 -3.32 5 -4 5 C-4.33 5.66 -4.66 6.32 -5 7 C-5.66 6.01 -6.32 5.02 -7 4 C-4.69 2.68 -2.38 1.36 0 0 Z " fill="#F0A7C2" transform="translate(145,79)"/>
<path d="M0 0 C-1.28913487 0.67154933 -2.58140204 1.33708859 -3.875 2 C-4.59429687 2.37125 -5.31359375 2.7425 -6.0546875 3.125 C-8 4 -8 4 -10 4 C-10 3.01 -10 2.02 -10 1 C-3.375 -1.125 -3.375 -1.125 0 0 Z " fill="#E8AAC2" transform="translate(204,56)"/>
<path d="M0 0 C2.475 0.495 2.475 0.495 5 1 C3.35 2.65 1.7 4.3 0 6 C0 4.02 0 2.04 0 0 Z " fill="#FEBAD8" transform="translate(179,312)"/>
<path d="M0 0 C1.65 1.65 3.3 3.3 5 5 C2.69 4.67 0.38 4.34 -2 4 C-1.34 2.68 -0.68 1.36 0 0 Z " fill="#EBADC6" transform="translate(396,113)"/>
</svg>
