<?xml version="1.0" encoding="UTF-8"?>
<svg version="1.1" xmlns="http://www.w3.org/2000/svg" width="500" height="500">
<path d="M0 0 C0.82441589 -0.00067474 1.64883179 -0.00134949 2.49822998 -0.00204468 C57.26809199 0.06906775 106.48980708 21.81917356 145.4375 60.0625 C159.05167808 73.74803823 170.33423817 90.23296301 179.3125 107.25 C179.6734375 107.93239746 180.034375 108.61479492 180.40625 109.31787109 C193.11498362 133.74798447 201.25568871 161.79594757 201.55078125 189.46484375 C201.5605751 190.22938873 201.57036896 190.99393372 201.58045959 191.78164673 C202.1203621 244.93130257 186.74439294 293.0494955 151.3125 333.25 C150.66410156 334.00925781 150.01570313 334.76851563 149.34765625 335.55078125 C141.22737869 345.03364507 132.24583582 352.75359307 122.3125 360.25 C121.74756836 360.68103027 121.18263672 361.11206055 120.60058594 361.55615234 C78.7551136 393.3132218 24.73527163 405.92419595 -27.13623047 399.17358398 C-78.76786946 391.27207797 -127.35670527 363.87021937 -158.69848633 321.68408203 C-178.9290147 293.82033697 -192.87263512 262.55591229 -197.6875 228.25 C-197.86112061 227.01789795 -198.03474121 225.7857959 -198.21362305 224.51635742 C-198.74515301 220.19425219 -198.88227875 215.91384932 -198.92578125 211.5625 C-198.93552979 210.75060211 -198.94527832 209.93870422 -198.95532227 209.10220337 C-199.12662463 191.13494102 -198.91272336 173.82095761 -194.6875 156.25 C-194.50558105 155.46157715 -194.32366211 154.6731543 -194.13623047 153.86083984 C-185.4530832 117.02536166 -166.42710837 85.58134886 -140.6875 58.25 C-140.07003906 57.59 -139.45257813 56.93 -138.81640625 56.25 C-109.85265919 26.24439154 -67.52792894 7.014007 -26.6875 1.25 C-25.71768188 1.09966309 -25.71768188 1.09966309 -24.72827148 0.94628906 C-16.54769511 -0.16434843 -8.24041344 0.00605023 0 0 Z " fill="#FDB1D0" transform="translate(248.6875,49.75)"/>
<path d="M0 0 C1.05960938 -0.01611328 2.11921875 -0.03222656 3.2109375 -0.04882812 C10.3118356 -0.05323315 16.4228635 0.34252177 22.23828125 4.85546875 C27.84856273 11.82280946 29.52716688 17.99466106 29.94140625 26.89453125 C30.10072165 29.57055849 30.10072165 29.57055849 32.25 32.3125 C34.86348845 33.85525746 37.69324849 34.91621325 40.5 36.0625 C41.25152344 36.39121094 42.00304687 36.71992188 42.77734375 37.05859375 C47.27242872 38.91781738 50.45673953 39.97407246 55.25 38.3125 C57.68716348 36.57682686 57.68716348 36.57682686 59.8125 34.375 C64.64673506 29.62693669 68.38885435 28.0262496 75.1875 28 C82.440505 28.1333273 86.90134088 30.43578139 92.25 35.3125 C92.25 35.9725 92.25 36.6325 92.25 37.3125 C93.12785156 37.68955078 93.12785156 37.68955078 94.0234375 38.07421875 C96.5289023 39.46760882 97.99987438 40.96488832 99.875 43.125 C100.46539062 43.79144531 101.05578125 44.45789063 101.6640625 45.14453125 C106.0091799 51.08428534 105.8506643 57.21109784 105.25 64.3125 C103.8665521 68.544223 101.57813693 71.08648594 98.625 74.3125 C96.58341973 76.61905133 95.25966763 78.29074784 94 81.125 C94.41182236 86.37573504 96.88851374 90.6682437 99.25 95.3125 C99.6315625 96.12203125 100.013125 96.9315625 100.40625 97.765625 C102.05729614 101.72216515 102.05729614 101.72216515 105.25 104.3125 C107.45744296 104.41678864 109.66608727 104.49627992 111.875 104.5625 C119.25195848 105.0608411 123.8609378 106.50619144 128.8046875 112.05859375 C133.65385764 118.4282664 133.45919143 124.33566457 133.5 132.125 C133.5309375 133.58389648 133.5309375 133.58389648 133.5625 135.07226562 C133.61098764 144.02429527 131.68066108 149.73228866 125.25 156.3125 C119.65338989 159.68491929 114.8856558 159.74125727 108.4921875 159.90625 C104.87394561 160.35962007 103.68552672 160.6349987 101.25 163.3125 C99.74716777 165.99698861 98.58363237 168.7729962 97.4375 171.625 C97.11330078 172.37201172 96.78910156 173.11902344 96.45507812 173.88867188 C94.61505602 178.37643456 93.62368984 181.53437387 95.25 186.3125 C96.98813358 189.00083353 96.98813358 189.00083353 99.1875 191.4375 C104.21934979 197.30038124 105.75197844 200.76271501 105.546875 208.515625 C104.50438529 218.33697546 96.34287255 225.93205196 89.18359375 232.08984375 C82.97374072 236.71705605 76.80865231 237.07589163 69.25 236.3125 C64.36084775 234.66394192 60.74023423 231.14702 57.12109375 227.58203125 C54.39498542 225.73237529 52.55731402 225.43671837 49.25 225.3125 C46.22332179 226.08930974 43.42486533 227.25774826 40.5625 228.5 C39.42458008 228.95729492 39.42458008 228.95729492 38.26367188 229.42382812 C32.73413139 231.67822697 32.73413139 231.67822697 29.25 236.3125 C28.85705256 239.54587681 28.85705256 239.54587681 28.875 243.0625 C28.46128309 251.02241342 26.45410071 255.26860432 20.75 260.6875 C14.44462443 264.78599412 8.75335117 264.67865909 1.4375 264.6875 C0.38240234 264.71199219 -0.67269531 264.73648437 -1.75976562 264.76171875 C-8.95625133 264.7886215 -14.89475836 263.98858666 -20.26831055 258.86474609 C-24.77960413 253.70318327 -25.92486801 250.16243033 -26.0625 243.375 C-26.39207844 238.05432295 -26.39207844 238.05432295 -28.5 233.25 C-35.42461499 229.12186414 -43.60918174 225.52527139 -51.75 225.3125 C-54.7692292 227.04904846 -54.7692292 227.04904846 -57.375 229.625 C-63.52001729 235.23298856 -67.78615992 236.80899971 -76.04296875 236.62109375 C-83.14672513 235.81128602 -88.97396155 230.34904964 -93.75 225.3125 C-93.75 224.6525 -93.75 223.9925 -93.75 223.3125 C-94.3275 223.10625 -94.905 222.9 -95.5 222.6875 C-99.41850794 220.29285626 -101.32583774 216.58498678 -102.75 212.3125 C-103.38905824 203.79582001 -102.71534715 198.4460142 -97.6875 191.4375 C-97.048125 190.73625 -96.40875 190.035 -95.75 189.3125 C-95.09 189.3125 -94.43 189.3125 -93.75 189.3125 C-91.66503201 185.14256401 -91.71076617 182.81760502 -92.75 178.3125 C-93.74893524 175.50367541 -94.91738328 172.78712285 -96.125 170.0625 C-96.42921875 169.34320313 -96.7334375 168.62390625 -97.046875 167.8828125 C-98.60601332 164.3247789 -99.45142176 162.51155216 -102.75 160.3125 C-104.97492577 160.14004705 -107.20637148 160.04582859 -109.4375 160 C-117.40658632 159.53123022 -121.69683392 157.52635903 -127.125 151.8125 C-131.3019852 145.38636893 -131.14867426 139.45885537 -131.1875 132 C-131.22037109 130.89720703 -131.25324219 129.79441406 -131.28710938 128.65820312 C-131.34417039 119.96936646 -129.2313115 115.44655741 -123.75 108.9375 C-118.42664342 104.61227277 -112.59833986 105.00584416 -106.02734375 104.8515625 C-102.06747115 104.20023661 -101.10800098 103.51774808 -98.75 100.3125 C-97.30833248 97.75394614 -96.10597207 95.13017349 -94.9375 92.4375 C-94.61330078 91.74269531 -94.28910156 91.04789062 -93.95507812 90.33203125 C-92.03925872 85.97528563 -91.18814681 83.01816927 -92.75 78.3125 C-94.22313331 76.14063506 -94.22313331 76.14063506 -96.125 74.3125 C-101.76884807 68.14714646 -103.31681647 63.59291959 -103.109375 55.22265625 C-102.585681 50.9818733 -101.26040766 48.75534479 -98.75 45.3125 C-98.21375 44.508125 -97.6775 43.70375 -97.125 42.875 C-96.67125 42.359375 -96.2175 41.84375 -95.75 41.3125 C-95.09 41.3125 -94.43 41.3125 -93.75 41.3125 C-93.09 39.9925 -92.43 38.6725 -91.75 37.3125 C-91.09 37.3125 -90.43 37.3125 -89.75 37.3125 C-89.54375 36.735 -89.3375 36.1575 -89.125 35.5625 C-86.73035626 31.64399206 -83.02248678 29.73666226 -78.75 28.3125 C-69.99941975 27.6558908 -64.35014094 28.41759806 -57.375 33.875 C-56.50875 34.679375 -55.6425 35.48375 -54.75 36.3125 C-54.75 36.9725 -54.75 37.6325 -54.75 38.3125 C-47.77613267 39.81259961 -43.72050033 38.61503064 -37.375 35.5625 C-36.16650391 35.02109375 -36.16650391 35.02109375 -34.93359375 34.46875 C-30.12854864 32.30771943 -30.12854864 32.30771943 -26.75 28.3125 C-26.40772581 24.82476929 -26.30776441 21.35747404 -26.19140625 17.85546875 C-25.51385104 12.41703885 -23.57591483 8.51880957 -19.3125 5.0625 C-18.73628906 4.58296875 -18.16007812 4.1034375 -17.56640625 3.609375 C-11.90683919 -0.43143417 -6.76639895 -0.02028297 0 0 Z " fill="#FCC1D8" transform="translate(248.75,117.6875)"/>
<path d="M0 0 C1.05960938 -0.01611328 2.11921875 -0.03222656 3.2109375 -0.04882812 C10.3118356 -0.05323315 16.4228635 0.34252177 22.23828125 4.85546875 C27.84856273 11.82280946 29.52716688 17.99466106 29.94140625 26.89453125 C30.10072165 29.57055849 30.10072165 29.57055849 32.25 32.3125 C34.86348845 33.85525746 37.69324849 34.91621325 40.5 36.0625 C41.25152344 36.39121094 42.00304687 36.71992188 42.77734375 37.05859375 C47.27242872 38.91781738 50.45673953 39.97407246 55.25 38.3125 C57.68716348 36.57682686 57.68716348 36.57682686 59.8125 34.375 C64.64673506 29.62693669 68.38885435 28.0262496 75.1875 28 C82.440505 28.1333273 86.90134088 30.43578139 92.25 35.3125 C92.25 35.9725 92.25 36.6325 92.25 37.3125 C93.12785156 37.68955078 93.12785156 37.68955078 94.0234375 38.07421875 C96.5289023 39.46760882 97.99987438 40.96488832 99.875 43.125 C100.46539062 43.79144531 101.05578125 44.45789063 101.6640625 45.14453125 C106.0091799 51.08428534 105.8506643 57.21109784 105.25 64.3125 C103.8665521 68.544223 101.57813693 71.08648594 98.625 74.3125 C96.58341973 76.61905133 95.25966763 78.29074784 94 81.125 C94.41182236 86.37573504 96.88851374 90.6682437 99.25 95.3125 C99.6315625 96.12203125 100.013125 96.9315625 100.40625 97.765625 C102.05729614 101.72216515 102.05729614 101.72216515 105.25 104.3125 C107.45744296 104.41678864 109.66608727 104.49627992 111.875 104.5625 C119.25195848 105.0608411 123.8609378 106.50619144 128.8046875 112.05859375 C133.65385764 118.4282664 133.45919143 124.33566457 133.5 132.125 C133.5309375 133.58389648 133.5309375 133.58389648 133.5625 135.07226562 C133.61098764 144.02429527 131.68066108 149.73228866 125.25 156.3125 C119.65338989 159.68491929 114.8856558 159.74125727 108.4921875 159.90625 C104.87394561 160.35962007 103.68552672 160.6349987 101.25 163.3125 C99.74716777 165.99698861 98.58363237 168.7729962 97.4375 171.625 C97.11330078 172.37201172 96.78910156 173.11902344 96.45507812 173.88867188 C94.61505602 178.37643456 93.62368984 181.53437387 95.25 186.3125 C96.98813358 189.00083353 96.98813358 189.00083353 99.1875 191.4375 C104.21934979 197.30038124 105.75197844 200.76271501 105.546875 208.515625 C104.50438529 218.33697546 96.34287255 225.93205196 89.18359375 232.08984375 C82.97374072 236.71705605 76.80865231 237.07589163 69.25 236.3125 C64.36084775 234.66394192 60.74023423 231.14702 57.12109375 227.58203125 C54.39498542 225.73237529 52.55731402 225.43671837 49.25 225.3125 C46.22332179 226.08930974 43.42486533 227.25774826 40.5625 228.5 C39.42458008 228.95729492 39.42458008 228.95729492 38.26367188 229.42382812 C32.73413139 231.67822697 32.73413139 231.67822697 29.25 236.3125 C28.85705256 239.54587681 28.85705256 239.54587681 28.875 243.0625 C28.46128309 251.02241342 26.45410071 255.26860432 20.75 260.6875 C14.44462443 264.78599412 8.75335117 264.67865909 1.4375 264.6875 C0.38240234 264.71199219 -0.67269531 264.73648437 -1.75976562 264.76171875 C-8.95625133 264.7886215 -14.89475836 263.98858666 -20.26831055 258.86474609 C-24.77960413 253.70318327 -25.92486801 250.16243033 -26.0625 243.375 C-26.39207844 238.05432295 -26.39207844 238.05432295 -28.5 233.25 C-35.42461499 229.12186414 -43.60918174 225.52527139 -51.75 225.3125 C-54.7692292 227.04904846 -54.7692292 227.04904846 -57.375 229.625 C-63.52001729 235.23298856 -67.78615992 236.80899971 -76.04296875 236.62109375 C-83.14672513 235.81128602 -88.97396155 230.34904964 -93.75 225.3125 C-93.75 224.6525 -93.75 223.9925 -93.75 223.3125 C-94.3275 223.10625 -94.905 222.9 -95.5 222.6875 C-99.41850794 220.29285626 -101.32583774 216.58498678 -102.75 212.3125 C-103.38905824 203.79582001 -102.71534715 198.4460142 -97.6875 191.4375 C-97.048125 190.73625 -96.40875 190.035 -95.75 189.3125 C-95.09 189.3125 -94.43 189.3125 -93.75 189.3125 C-91.66503201 185.14256401 -91.71076617 182.81760502 -92.75 178.3125 C-93.74893524 175.50367541 -94.91738328 172.78712285 -96.125 170.0625 C-96.42921875 169.34320313 -96.7334375 168.62390625 -97.046875 167.8828125 C-98.60601332 164.3247789 -99.45142176 162.51155216 -102.75 160.3125 C-104.97492577 160.14004705 -107.20637148 160.04582859 -109.4375 160 C-117.40658632 159.53123022 -121.69683392 157.52635903 -127.125 151.8125 C-131.3019852 145.38636893 -131.14867426 139.45885537 -131.1875 132 C-131.22037109 130.89720703 -131.25324219 129.79441406 -131.28710938 128.65820312 C-131.34417039 119.96936646 -129.2313115 115.44655741 -123.75 108.9375 C-118.42664342 104.61227277 -112.59833986 105.00584416 -106.02734375 104.8515625 C-102.06747115 104.20023661 -101.10800098 103.51774808 -98.75 100.3125 C-97.30833248 97.75394614 -96.10597207 95.13017349 -94.9375 92.4375 C-94.61330078 91.74269531 -94.28910156 91.04789062 -93.95507812 90.33203125 C-92.03925872 85.97528563 -91.18814681 83.01816927 -92.75 78.3125 C-94.22313331 76.14063506 -94.22313331 76.14063506 -96.125 74.3125 C-101.76884807 68.14714646 -103.31681647 63.59291959 -103.109375 55.22265625 C-102.585681 50.9818733 -101.26040766 48.75534479 -98.75 45.3125 C-98.21375 44.508125 -97.6775 43.70375 -97.125 42.875 C-96.67125 42.359375 -96.2175 41.84375 -95.75 41.3125 C-95.09 41.3125 -94.43 41.3125 -93.75 41.3125 C-93.09 39.9925 -92.43 38.6725 -91.75 37.3125 C-91.09 37.3125 -90.43 37.3125 -89.75 37.3125 C-89.54375 36.735 -89.3375 36.1575 -89.125 35.5625 C-86.73035626 31.64399206 -83.02248678 29.73666226 -78.75 28.3125 C-69.99941975 27.6558908 -64.35014094 28.41759806 -57.375 33.875 C-56.50875 34.679375 -55.6425 35.48375 -54.75 36.3125 C-54.75 36.9725 -54.75 37.6325 -54.75 38.3125 C-47.77613267 39.81259961 -43.72050033 38.61503064 -37.375 35.5625 C-36.16650391 35.02109375 -36.16650391 35.02109375 -34.93359375 34.46875 C-30.12854864 32.30771943 -30.12854864 32.30771943 -26.75 28.3125 C-26.40772581 24.82476929 -26.30776441 21.35747404 -26.19140625 17.85546875 C-25.51385104 12.41703885 -23.57591483 8.51880957 -19.3125 5.0625 C-18.73628906 4.58296875 -18.16007812 4.1034375 -17.56640625 3.609375 C-11.90683919 -0.43143417 -6.76639895 -0.02028297 0 0 Z M-11.34375 14.98828125 C-13.07073963 17.84261134 -13.21524723 19.67676664 -13.25 23 C-13.63027957 30.08702832 -15.259216 35.32449735 -19.82421875 40.80078125 C-23.53138008 43.98329758 -27.33770636 45.68445908 -31.8125 47.5625 C-32.61494141 47.913125 -33.41738281 48.26375 -34.24414062 48.625 C-41.2471839 51.64706017 -48.21558578 54.03616372 -55.83203125 51.6640625 C-59.77529363 49.84409525 -62.71082931 47.52253064 -65.875 44.5625 C-68.32443526 42.36086753 -69.53948792 41.37389936 -72.75 40.4375 C-77.4728837 41.81500775 -80.35065693 44.85919911 -83.75 48.3125 C-84.3584375 48.910625 -84.966875 49.50875 -85.59375 50.125 C-88.10952657 52.78317902 -89.5780569 54.69085957 -90.5625 58.25 C-89.49737936 62.26468549 -87.37226169 64.31581304 -84.57421875 67.3125 C-80.96404871 71.2705451 -78.55199742 75.07783713 -78.25 80.5625 C-78.67235855 89.15531179 -83.01177231 97.14494411 -86.6015625 104.8046875 C-87.80178162 107.30690199 -87.80178162 107.30690199 -88.6484375 110.0078125 C-89.98503995 112.80425025 -90.89101678 113.258086 -93.75 114.3125 C-94.40097656 114.58191406 -95.05195313 114.85132813 -95.72265625 115.12890625 C-100.96989775 117.0022205 -105.696803 117.68797193 -111.26953125 117.80859375 C-114.73372727 118.51234381 -115.78513859 119.35391558 -117.75 122.3125 C-118.28210052 125.49332933 -118.21717173 128.59619186 -118.125 131.8125 C-118.12371094 132.66714844 -118.12242187 133.52179688 -118.12109375 134.40234375 C-118.06229075 138.59042412 -118.00345983 141.66470568 -115.75 145.3125 C-112.0969184 147.1390408 -107.46352109 146.89839752 -103.3984375 147.12304688 C-97.22905489 147.68241871 -92.95174603 149.69803207 -88.75 154.3125 C-86.49102719 157.92749163 -84.85591068 161.68344878 -83.25 165.625 C-82.80914062 166.61951172 -82.36828125 167.61402344 -81.9140625 168.63867188 C-78.71649914 176.2006113 -77.5055213 182.47570821 -79.8125 190.4375 C-81.45703051 194.40979591 -84.0749682 197.00814625 -87.2265625 199.8671875 C-89.2937119 201.82832923 -89.71515703 203.1295744 -90.25 205.9375 C-89.48526049 211.0994917 -86.37838615 213.74080738 -82.75 217.3125 C-82.151875 217.9209375 -81.55375 218.529375 -80.9375 219.15625 C-77.46082586 222.46818632 -77.46082586 222.46818632 -72.87890625 223.7421875 C-68.83000387 223.18615846 -67.24914506 221.66947984 -64.25 218.9375 C-58.91312432 214.10670736 -54.28563976 211.78733978 -46.9375 211.99609375 C-42.5852367 212.62561755 -38.74287568 214.54807287 -34.75 216.3125 C-33.71746094 216.70953125 -32.68492187 217.1065625 -31.62109375 217.515625 C-23.55343758 220.64369782 -18.33798846 223.9112859 -14.515625 231.859375 C-13.23887708 235.95017957 -13.25914121 240.09810228 -13.21875 244.359375 C-12.93756795 247.34234068 -12.93756795 247.34234068 -11.30859375 249.671875 C-7.42016086 252.16522128 -3.83618392 251.89481116 0.6875 251.8125 C1.53376953 251.82796875 2.38003906 251.8434375 3.25195312 251.859375 C7.26096946 251.83425978 9.73743814 251.58804281 13.31640625 249.6640625 C15.78570352 246.66099794 15.78711875 245.03857032 15.75 241.1875 C16.01859133 234.73404896 17.23747124 229.48780432 21.25 224.3125 C25.92834461 220.68942109 31.09788293 218.38137378 36.5 216.0625 C37.29535156 215.69898438 38.09070313 215.33546875 38.91015625 214.9609375 C45.25497558 212.23440771 51.73950561 210.82840821 58.48193359 213.046875 C62.40010905 214.76088727 65.2648806 217.15854382 68.375 220.0625 C70.82443526 222.26413247 72.03948792 223.25110064 75.25 224.1875 C79.9728837 222.80999225 82.85065693 219.76580089 86.25 216.3125 C86.8584375 215.714375 87.466875 215.11625 88.09375 214.5 C91.40462148 211.02476822 91.40462148 211.02476822 92.6796875 206.4453125 C92.12322359 202.38818475 90.59787637 200.76921465 87.875 197.75 C82.68524803 191.94242042 80.73211703 187.88685136 80.90673828 180.09960938 C81.54817525 174.89146965 83.57850784 170.32875997 85.6875 165.5625 C86.08904297 164.56089844 86.49058594 163.55929687 86.90429688 162.52734375 C89.94101811 155.52665816 93.37154559 151.69036323 100.25 148.3125 C104.48635744 146.90038085 108.67565534 147.08552263 113.12109375 146.984375 C116.33859274 146.54293165 116.33859274 146.54293165 118.62890625 144.36328125 C120.89377082 140.10096985 120.83690602 136.50448364 120.75 131.75 C120.76546875 130.89986328 120.7809375 130.04972656 120.796875 129.17382812 C120.77331106 125.41832522 120.68923617 123.01833723 118.6796875 119.7890625 C115.40467979 117.7987845 112.68110972 117.5804706 108.875 117.25 C103.57580052 116.7774261 99.92156192 115.85498724 95.25 113.3125 C94.59 113.3125 93.93 113.3125 93.25 113.3125 C91.09132187 109.04248317 89.14336001 104.70606617 87.25 100.3125 C86.7240625 99.11109375 86.198125 97.9096875 85.65625 96.671875 C85.10285455 95.36513823 84.5507738 94.05784392 84 92.75 C83.72961914 92.13729248 83.45923828 91.52458496 83.18066406 90.89331055 C80.97717539 85.56537703 80.30699191 80.68624323 81.87890625 75.0625 C83.88904762 71.29453625 86.07150942 68.3120153 89 65.1875 C91.20163247 62.73806474 92.18860064 61.52301208 93.125 58.3125 C91.74749225 53.5896163 88.70330089 50.71184307 85.25 47.3125 C84.651875 46.7040625 84.05375 46.095625 83.4375 45.46875 C80.77932098 42.95297343 78.87164043 41.4844431 75.3125 40.5 C71.27061651 41.57233644 69.14138896 43.72561898 66.13671875 46.55859375 C60.96531193 51.36596779 55.73737322 52.71824161 48.84960938 52.62939453 C43.72180863 52.00431138 39.18187294 49.83720916 34.5 47.75 C33.48550781 47.33169922 32.47101563 46.91339844 31.42578125 46.48242188 C23.92923828 43.2069941 20.48009061 40.10719482 17 32.625 C16.05687176 28.45951693 15.90839858 24.38074034 15.7890625 20.1171875 C15.41060391 17.27278524 15.41060391 17.27278524 13.8359375 14.9765625 C9.80746848 12.38422443 5.93782035 12.73213737 1.25 12.8125 C0.34765625 12.79703125 -0.5546875 12.7815625 -1.484375 12.765625 C-5.44475345 12.78905919 -7.97023062 12.80870322 -11.34375 14.98828125 Z " fill="#D7638F" transform="translate(248.75,117.6875)"/>
<path d="M0 0 C10.76745317 9.10836948 18.69649528 21.94855086 20.28515625 36.12548828 C21.44438881 53.22054591 17.41673541 68.42274456 6.22265625 81.76953125 C-5.52584457 94.10545711 -20.10201007 99.76394553 -36.90234375 100.20703125 C-52.78685814 99.92926925 -65.70581078 93.71184888 -77.09375 82.8671875 C-88.27395531 71.13539711 -92.48606357 56.88330794 -92.38671875 41.02539062 C-91.89784338 24.80244752 -84.47409062 11.99273359 -72.96484375 0.89453125 C-51.57742174 -17.42736027 -22.09014911 -15.68720734 0 0 Z " fill="#FACADC" transform="translate(285.96484375,206.10546875)"/>
<path d="M0 0 C14.43445961 12.19334435 24.55133648 28.44814757 26.22314453 47.54956055 C27.07271717 66.59506675 23.55681542 84.7346806 10.5 99.4375 C9.00965063 100.96779173 7.51045259 102.48954741 6 104 C5.18982422 104.93392578 5.18982422 104.93392578 4.36328125 105.88671875 C-5.66583799 117.12842671 -22.07122289 123.58677866 -36.859375 124.44140625 C-57.04965654 125.07368961 -73.93070127 120.54338598 -89.6640625 107.203125 C-102.69663374 94.91153607 -111.47964551 78.36501796 -112.30859375 60.37890625 C-112.62678537 49.28914602 -112.57354567 39.26538778 -108 29 C-107.59910156 28.01515625 -107.19820312 27.0303125 -106.78515625 26.015625 C-98.10320165 6.58817876 -82.17111273 -3.989402 -63.296875 -12.171875 C-42.79694763 -19.18152759 -16.70696146 -12.89701699 0 0 Z M-87 19 C-97.59490763 32.53475587 -100.29452207 47.27449938 -99 64 C-98.13180295 68.57690835 -96.78236306 72.7034427 -95 77 C-94.67257813 77.8559375 -94.34515625 78.711875 -94.0078125 79.59375 C-88.23400704 92.91143267 -76.5001696 102.51113826 -63.38671875 108.1171875 C-49.49488973 113.02018598 -33.41541749 112.56291167 -20.0402832 106.45581055 C-4.298427 98.83253385 4.43541856 87.8901927 11.0546875 71.82421875 C15.57544432 58.31799074 14.0114436 42.69549627 8 30 C-0.25308354 14.9485577 -12.71521502 5.20800781 -28.984375 0.0546875 C-51.38623067 -4.65102775 -71.72927599 2.44750755 -87 19 Z " fill="#D7648F" transform="translate(293,195)"/>
<path d="M0 0 C0 4.33509404 -2.24141619 6.86524567 -5 10 C-7.49598067 12.26774897 -9.99791941 14.44243517 -13 16 C-13.99 15.67 -14.98 15.34 -16 15 C-5.62642369 4.44191344 -5.62642369 4.44191344 0 0 Z " fill="#F4BCD3" transform="translate(121,96)"/>
<path d="M0 0 C8.19880578 -0.42045158 15.47955276 1.9918211 23 5 C23 5.33 23 5.66 23 6 C15.47804173 5.57807197 8.07854077 4.72954801 1 2 C0.67 1.34 0.34 0.68 0 0 Z " fill="#F3B8CF" transform="translate(194,441)"/>
<path d="M0 0 C0.99 0 1.98 0 3 0 C3.49627734 7.56822947 1.88831288 13.04275 -1 20 C-1.66746024 21.66634902 -2.33436737 23.33292009 -3 25 C-3.97099482 22.37831399 -4.06599958 21.20307562 -3.1875 18.5 C-2 16 -2 16 -0.93359375 14.234375 C0.29067431 11.30432758 0.19375892 8.91291023 0.125 5.75 C0.10695312 4.67234375 0.08890625 3.5946875 0.0703125 2.484375 C0.04710937 1.66453125 0.02390625 0.8446875 0 0 Z " fill="#D26F94" transform="translate(168,194)"/>
<path d="M0 0 C1.0625 1.875 1.0625 1.875 2 4 C1.67 4.66 1.34 5.32 1 6 C0.34 6 -0.32 6 -1 6 C-1.268125 6.53625 -1.53625 7.0725 -1.8125 7.625 C-3.20833333 10.41666667 -4.60416667 13.20833333 -6 16 C-6.33 15.34 -6.66 14.68 -7 14 C-6.07421875 11.25 -6.07421875 11.25 -4.6875 8 C-4.23761719 6.9275 -3.78773438 5.855 -3.32421875 4.75 C-2 2 -2 2 0 0 Z " fill="#D56D94" transform="translate(341,270)"/>
<path d="M0 0 C-2.297221 1.74271938 -4.59866729 3.39911152 -7 5 C-7 5.33 -7 5.66 -7 6 C-9.97 6 -12.94 6 -16 6 C-13.10600531 3.65788337 -10.32844572 2.13137829 -6.875 0.75 C-6.00617188 0.39421875 -5.13734375 0.0384375 -4.2421875 -0.328125 C-2 -1 -2 -1 0 0 Z " fill="#D56D94" transform="translate(220,151)"/>
<path d="M0 0 C0.66 0.33 1.32 0.66 2 1 C0.90073597 2.77388086 -0.20460502 4.54399684 -1.3125 6.3125 C-2.23482422 7.79169922 -2.23482422 7.79169922 -3.17578125 9.30078125 C-4.66324661 11.50172035 -6.0403386 13.23328988 -8 15 C-8 13.35 -8 11.7 -8 10 C-7.34 10 -6.68 10 -6 10 C-5.34 8.35 -4.68 6.7 -4 5 C-3.34 5 -2.68 5 -2 5 C-2 3.68 -2 2.36 -2 1 C-1.34 0.67 -0.68 0.34 0 0 Z " fill="#F2BCD2" transform="translate(419,354)"/>
<path d="M0 0 C0.33 0 0.66 0 1 0 C1 2.64 1 5.28 1 8 C1.66 8 2.32 8 3 8 C2.38390949 12.00458831 0.44939347 14.83019669 -2 18 C-2.99 18 -3.98 18 -5 18 C-5 17.34 -5 16.68 -5 16 C-4.35546875 15.60167969 -3.7109375 15.20335937 -3.046875 14.79296875 C-0.68588558 13.09428488 -0.68588558 13.09428488 -0.390625 9.86328125 C-0.32101562 8.10564453 -0.32101562 8.10564453 -0.25 6.3125 C-0.19328125 5.13300781 -0.1365625 3.95351563 -0.078125 2.73828125 C-0.05234375 1.83464844 -0.0265625 0.93101562 0 0 Z " fill="#D9739A" transform="translate(264,352)"/>
<path d="M0 0 C2.475 0.495 2.475 0.495 5 1 C5 1.66 5 2.32 5 3 C5.8971875 3.433125 5.8971875 3.433125 6.8125 3.875 C9 5 9 5 12 7 C11.67 7.99 11.34 8.98 11 10 C9.16375669 8.52444734 7.3310715 7.04446569 5.5 5.5625 C4.4790625 4.73878906 3.458125 3.91507812 2.40625 3.06640625 C1.6121875 2.38449219 0.818125 1.70257813 0 1 C0 0.67 0 0.34 0 0 Z " fill="#F4BFD4" transform="translate(113,396)"/>
<path d="M0 0 C0.66 0.66 1.32 1.32 2 2 C1.34 2 0.68 2 0 2 C0 2.66 0 3.32 0 4 C-0.99 4.66 -1.98 5.32 -3 6 C-4.07136051 8.30144109 -5.07989717 10.6340213 -6 13 C-6.66 12.01 -7.32 11.02 -8 10 C-7.23721377 8.7035649 -6.46443041 7.41300852 -5.6875 6.125 C-5.25824219 5.40570313 -4.82898438 4.68640625 -4.38671875 3.9453125 C-3 2 -3 2 0 0 Z " fill="#D36D94" transform="translate(273,339)"/>
<path d="M0 0 C0.33 0.66 0.66 1.32 1 2 C-1.74559948 4.94897721 -4.34117274 7.26205705 -8 9 C-9.32 8.67 -10.64 8.34 -12 8 C-8.04 5.36 -4.08 2.72 0 0 Z " fill="#F3BCD2" transform="translate(145,79)"/>
<path d="M0 0 C0.33 0 0.66 0 1 0 C2.18609365 5.6932495 1.66251802 9.42567486 0 15 C-0.33 15 -0.66 15 -1 15 C-1.02685412 12.68756208 -1.04632841 10.3750373 -1.0625 8.0625 C-1.07410156 6.77472656 -1.08570313 5.48695313 -1.09765625 4.16015625 C-1 1 -1 1 0 0 Z " fill="#F2B3CC" transform="translate(52,222)"/>
<path d="M0 0 C-1.11375 0.474375 -2.2275 0.94875 -3.375 1.4375 C-5.26710994 2.25306463 -7.15712709 3.07856355 -9 4 C-10.99960012 4.039992 -13.00047242 4.04346799 -15 4 C-12.83900627 1.83900627 -11.4789582 1.28436284 -8.625 0.3125 C-7.46871094 -0.09548828 -7.46871094 -0.09548828 -6.2890625 -0.51171875 C-3.79944692 -1.04278009 -2.38446982 -0.81115526 0 0 Z " fill="#D47095" transform="translate(237,183)"/>
<path d="M0 0 C0.99 0.66 1.98 1.32 3 2 C2.6875 3.9375 2.6875 3.9375 2 6 C1.01 6.33 0.02 6.66 -1 7 C-2 6 -2 6 -2.0625 3.4375 C-2.041875 2.633125 -2.02125 1.82875 -2 1 C-1.34 0.67 -0.68 0.34 0 0 Z " fill="#FBBCD7" transform="translate(147,215)"/>
<path d="M0 0 C0 2.96200864 -0.06343771 5.19031313 -1 8 C-3.5625 9.3125 -3.5625 9.3125 -6 10 C-5.49477778 5.62140745 -2.82172778 3.18348776 0 0 Z " fill="#F4BED4" transform="translate(104,112)"/>
<path d="M0 0 C1.98 0.99 1.98 0.99 4 2 C4 3.32 4 4.64 4 6 C4.99 6.33 5.98 6.66 7 7 C6.67 8.32 6.34 9.64 6 11 C4.9944239 9.54550599 3.99569565 8.08627557 3 6.625 C2.443125 5.81289063 1.88625 5.00078125 1.3125 4.1640625 C0 2 0 2 0 0 Z " fill="#F3C0D5" transform="translate(75,347)"/>
<path d="M0 0 C0.66 0 1.32 0 2 0 C6 6.75 6 6.75 6 9 C5.34 9 4.68 9 4 9 C2.61767557 7.37373596 1.28062485 5.7074998 0 4 C0.33 3.34 0.66 2.68 1 2 C0.34 1.67 -0.32 1.34 -1 1 C-0.67 0.67 -0.34 0.34 0 0 Z " fill="#F4BFD3" transform="translate(420,146)"/>
<path d="M0 0 C0.66 0.66 1.32 1.32 2 2 C-0.97 4.31 -3.94 6.62 -7 9 C-7.66 8.67 -8.32 8.34 -9 8 C-8.38125 7.7525 -7.7625 7.505 -7.125 7.25 C-4.60421533 5.76718549 -4.2147002 4.59136042 -3 2 C-2.01 1.34 -1.02 0.68 0 0 Z " fill="#D77097" transform="translate(164,149)"/>
<path d="M0 0 C0.9075 0.226875 1.815 0.45375 2.75 0.6875 C2.42 1.3475 2.09 2.0075 1.75 2.6875 C-1.22 2.6875 -4.19 2.6875 -7.25 2.6875 C-4.61280971 0.1517401 -3.74095095 -0.35970682 0 0 Z " fill="#F2B0CA" transform="translate(287.25,444.3125)"/>
<path d="M0 0 C0.66 0.33 1.32 0.66 2 1 C2 2.65 2 4.3 2 6 C0.02 6.99 0.02 6.99 -2 8 C-2.33 7.34 -2.66 6.68 -3 6 C-2.06553465 3.96855359 -1.06775224 1.96466413 0 0 Z " fill="#FCBDD8" transform="translate(148,306)"/>
<path d="M0 0 C1.70884005 1.62339805 3.37446717 3.29319053 5 5 C5 5.66 5 6.32 5 7 C3.02 6.34 1.04 5.68 -1 5 C-0.67 3.35 -0.34 1.7 0 0 Z " fill="#F9BFD6" transform="translate(291,212)"/>
<path d="M0 0 C1.32 0 2.64 0 4 0 C3.67 1.98 3.34 3.96 3 6 C2.01 5.67 1.02 5.34 0 5 C0 3.35 0 1.7 0 0 Z " fill="#FABCD7" transform="translate(152,301)"/>
<path d="M0 0 C-0.66 0.66 -1.32 1.32 -2 2 C-2.33 1.67 -2.66 1.34 -3 1 C-4.84891946 0.76636119 -6.70488031 0.58696365 -8.5625 0.4375 C-9.57441406 0.35371094 -10.58632813 0.26992187 -11.62890625 0.18359375 C-12.80259766 0.09271484 -12.80259766 0.09271484 -14 0 C-14 -0.33 -14 -0.66 -14 -1 C-8.51053913 -2.12029814 -5.16569441 -1.79217969 0 0 Z " fill="#D7739A" transform="translate(368,236)"/>
<path d="M0 0 C-4.75 3.875 -4.75 3.875 -7 5 C-7.33 3.68 -7.66 2.36 -8 1 C-5.07175348 0.02391783 -3.04386724 -0.08226668 0 0 Z " fill="#FBB4D2" transform="translate(349,265)"/>
<path d="M0 0 C0.66 0.33 1.32 0.66 2 1 C0.55746343 4.36591866 -1.33264727 6.51047079 -4 9 C-2.94124926 5.59687262 -1.99097846 2.98646769 0 0 Z " fill="#FBB9D4" transform="translate(203,218)"/>
<path d="M0 0 C0 4.38968456 -2.12805101 5.76905739 -5 9 C-5.66 8.67 -6.32 8.34 -7 8 C-4.69 5.36 -2.38 2.72 0 0 Z " fill="#FDB9D5" transform="translate(212,208)"/>
<path d="M0 0 C3.68754757 0.49831724 5.60490662 1.10067643 8 4 C6.02 4 4.04 4 2 4 C1.34 2.68 0.68 1.36 0 0 Z " fill="#F3C0D4" transform="translate(352,79)"/>
<path d="M0 0 C2.18975773 3.28463659 2.99806563 6.20696275 4 10 C2 8.375 2 8.375 0 6 C-0.25 2.75 -0.25 2.75 0 0 Z " fill="#CF6F94" transform="translate(196,267)"/>
<path d="M0 0 C0.33 1.32 0.66 2.64 1 4 C-1.97 6.475 -1.97 6.475 -5 9 C-5 4.61031544 -2.87194899 3.23094261 0 0 Z " fill="#D16D93" transform="translate(340,179)"/>
<path d="M0 0 C0.66 0.33 1.32 0.66 2 1 C-0.12055614 4.1808342 -1.63050557 5.31525278 -5 7 C-5.66 6.67 -6.32 6.34 -7 6 C-4.69 4.02 -2.38 2.04 0 0 Z " fill="#F5C4D9" transform="translate(131,88)"/>
</svg>
