<?xml version="1.0" encoding="UTF-8"?>
<svg version="1.1" xmlns="http://www.w3.org/2000/svg" width="500" height="500">
<path d="M0 0 C0.77415756 -0.00701431 1.54831512 -0.01402863 2.34593201 -0.02125549 C4.82963966 -0.03865017 7.31310867 -0.04510749 9.796875 -0.046875 C11.07143051 -0.04788712 11.07143051 -0.04788712 12.37173462 -0.04891968 C25.30512059 -0.03260408 37.87112051 0.40238166 50.546875 3.203125 C51.33433105 3.37473145 52.12178711 3.54633789 52.93310547 3.72314453 C105.5869645 15.59971544 151.52995913 47.71772457 180.546875 93.203125 C183.7549146 98.42557324 186.70783421 103.77257792 189.546875 109.203125 C190.15144531 110.35683594 190.75601562 111.51054687 191.37890625 112.69921875 C200.79037201 131.75584355 206.19835546 152.28554811 209.546875 173.203125 C209.71485596 174.24895752 209.71485596 174.24895752 209.88623047 175.31591797 C210.96227532 183.29706349 210.7908072 191.41400535 210.796875 199.453125 C210.79754974 200.25580811 210.79822449 201.05849121 210.79891968 201.88549805 C210.7820373 214.54444366 210.1975226 226.78516426 207.546875 239.203125 C207.37526855 240.02586914 207.20366211 240.84861328 207.02685547 241.69628906 C197.3138702 286.95411317 172.12925773 328.64197448 135.546875 357.203125 C135.01239746 357.62464844 134.47791992 358.04617188 133.92724609 358.48046875 C91.47699659 391.72062927 37.79238405 405.38811834 -15.52270508 399.43383789 C-66.66795651 392.48441783 -115.57307341 365.6314842 -147.3046875 324.56640625 C-153.19119226 316.76618183 -158.62368236 308.7036652 -163.453125 300.203125 C-163.8435498 299.51798828 -164.23397461 298.83285156 -164.63623047 298.12695312 C-175.10791603 279.53061345 -182.51527077 260.20556138 -186.453125 239.203125 C-186.57807343 238.54236969 -186.70302185 237.88161438 -186.83175659 237.20083618 C-189.06684054 225.12583567 -189.9844741 213.41082033 -189.890625 201.140625 C-189.88791595 200.30094177 -189.88520691 199.46125854 -189.88241577 198.59613037 C-189.78179567 177.89091175 -187.35111636 157.81567205 -180.453125 138.203125 C-180.18016602 137.40664551 -179.90720703 136.61016602 -179.62597656 135.78955078 C-163.60277535 89.53472961 -131.93964974 50.60614036 -89.453125 26.203125 C-88.83276367 25.84508789 -88.21240234 25.48705078 -87.57324219 25.11816406 C-76.00216128 18.51021147 -64.00980778 13.61600823 -51.453125 9.203125 C-49.72835937 8.58630859 -49.72835937 8.58630859 -47.96875 7.95703125 C-32.74053475 2.88753472 -16.05293493 0.09826605 0 0 Z " fill="#FDAFCE" transform="translate(239.453125,49.796875)"/>
<path d="M0 0 C0.78012451 -0.0071553 1.56024902 -0.01431061 2.36401367 -0.02168274 C4.00796368 -0.02944246 5.65201715 -0.02448403 7.29589844 -0.00756836 C9.8060192 0.01166908 12.31060683 -0.02774811 14.8203125 -0.07226562 C16.42187828 -0.072556 18.02344912 -0.06941571 19.625 -0.0625 C20.37096436 -0.07778244 21.11692871 -0.09306488 21.88549805 -0.10881042 C24.76268213 -0.04472716 27.10419292 0.14258812 29.41398621 1.95776367 C32.93696734 5.94373 33.37102817 8.85842159 33.125 14.07421875 C33.07988281 15.31945312 33.03476562 16.5646875 32.98828125 17.84765625 C32.93027344 18.78867188 32.87226563 19.7296875 32.8125 20.69921875 C33.75609375 20.85777344 34.6996875 21.01632813 35.671875 21.1796875 C43.42725994 22.58904962 50.16112515 24.36079766 57.32421875 27.80859375 C59.70134316 28.82607987 59.70134316 28.82607987 61.91015625 28.65625 C64.68727446 27.25913714 65.82643732 25.18700918 67.5625 22.63671875 C71.30902125 17.85026238 71.30902125 17.85026238 75.5625 16.57421875 C81.16095066 17.36778554 85.63812055 21.14782034 90.05761719 24.43261719 C91.96165283 25.80687107 93.91318625 27.08501137 95.8828125 28.36328125 C97.25596127 29.28664169 98.62836708 30.21110804 100 31.13671875 C100.66008057 31.5541333 101.32016113 31.97154785 102.00024414 32.40161133 C104.71357743 34.29369622 106.45313147 35.68474057 107.57641602 38.85571289 C108.21179995 42.8084351 108.09296273 45.0993189 106.37890625 48.765625 C105.38697266 50.00119141 105.38697266 50.00119141 104.375 51.26171875 C103.71628906 52.10863281 103.05757812 52.95554688 102.37890625 53.828125 C101.60353516 54.75431641 101.60353516 54.75431641 100.8125 55.69921875 C102.76866662 60.21598549 105.95728888 63.84767131 109.00390625 67.65820312 C116.8125 77.58895223 116.8125 77.58895223 116.8125 81.69921875 C117.51375 81.48265625 118.215 81.26609375 118.9375 81.04296875 C124.72654177 79.34401084 129.77961852 77.95833857 135.8125 78.69921875 C139.42535277 81.5703741 140.72717129 84.42667511 142.171875 88.75 C142.56503906 89.92369141 142.95820313 91.09738281 143.36328125 92.30664062 C143.75902344 93.52931641 144.15476562 94.75199219 144.5625 96.01171875 C144.97371094 97.22279297 145.38492187 98.43386719 145.80859375 99.68164062 C147.7459956 105.56142997 149.2366293 110.44053345 148.8125 116.69921875 C146.58421369 120.83746475 145.25995757 122.19853772 140.80859375 123.73828125 C137.82034736 124.49328093 134.84442473 125.14795971 131.8125 125.69921875 C131.97476074 126.27720215 132.13702148 126.85518555 132.30419922 127.45068359 C133.11551454 131.0396433 132.95854333 134.6634317 132.9375 138.32421875 C132.93556641 139.12585449 132.93363281 139.92749023 132.93164062 140.75341797 C132.89010476 146.45883052 132.54321997 152.03613898 131.8125 157.69921875 C132.40417969 157.80878906 132.99585938 157.91835938 133.60546875 158.03125 C139.6692367 159.24796037 144.72149621 160.77800768 148.8125 165.69921875 C148.71430241 173.70232265 146.06674204 181.0371796 143.5625 188.57421875 C143.17964844 189.79625 142.79679687 191.01828125 142.40234375 192.27734375 C142.01691406 193.44523438 141.63148438 194.613125 141.234375 195.81640625 C140.88987305 196.87456543 140.54537109 197.93272461 140.19042969 199.02294922 C138.53791713 202.23252446 137.05606169 203.20635809 133.8125 204.69921875 C127.84688472 205.19189075 122.22243355 202.9615546 116.8125 200.69921875 C116.53664063 201.43785156 116.26078125 202.17648437 115.9765625 202.9375 C112.85941829 210.33287235 107.48917585 216.45020272 102.25390625 222.4375 C100.61243592 224.53672851 100.61243592 224.53672851 100.8984375 226.71875 C101.98345017 229.06961078 103.33217919 230.99524035 104.875 233.07421875 C106.80939681 235.91754901 107.77991834 237.52979414 108.4375 240.94921875 C107.09991439 246.83459544 102.55435903 249.81854209 97.75 253.01171875 C96.59002148 253.78607879 95.43118679 254.56215472 94.2734375 255.33984375 C93.69432617 255.72849609 93.11521484 256.11714844 92.51855469 256.51757812 C89.01525304 258.94402059 85.68602473 261.61866514 82.34765625 264.265625 C79.21208459 266.03874487 77.36462076 266.17061279 73.8125 265.69921875 C71.80078125 264.52734375 71.80078125 264.52734375 70.125 262.94921875 C69.54234375 262.40265625 68.9596875 261.85609375 68.359375 261.29296875 C63.8125 256.60830966 63.8125 256.60830966 63.8125 253.69921875 C63.12212646 253.9415625 62.43175293 254.18390625 61.72045898 254.43359375 C58.56741916 255.53333766 55.40888399 256.61638185 52.25 257.69921875 C51.16396484 258.08078125 50.07792969 258.46234375 48.95898438 258.85546875 C43.38673379 260.75240512 38.71280129 262.24099677 32.8125 261.69921875 C32.85890625 262.64023437 32.9053125 263.58125 32.953125 264.55078125 C33.28472222 275.99088542 33.28472222 275.99088542 30.9375 279.51171875 C26.86416223 283.70486057 22.32364862 282.95422783 16.82710266 283.04664612 C15.21233459 283.06925619 13.59751423 283.08836114 11.98266602 283.10424805 C10.33271351 283.12582772 8.68287549 283.15993114 7.03344727 283.20678711 C4.65068641 283.27384327 2.27029039 283.30125121 -0.11328125 283.3203125 C-0.84678299 283.34814316 -1.58028473 283.37597382 -2.33601379 283.40464783 C-5.19008995 283.39323591 -7.48759343 283.24766295 -9.78224182 281.44958496 C-13.30835022 277.45879743 -13.74628845 274.54553382 -13.5 269.32421875 C-13.45488281 268.07898438 -13.40976563 266.83375 -13.36328125 265.55078125 C-13.30527344 264.60976563 -13.24726563 263.66875 -13.1875 262.69921875 C-15.0128125 262.32796875 -15.0128125 262.32796875 -16.875 261.94921875 C-24.19183837 260.31682285 -31.74291147 258.51591404 -38.39453125 255.0078125 C-41.17708343 253.3130495 -41.17708343 253.3130495 -44.1875 254.69921875 C-45.7506279 256.45732544 -45.7506279 256.45732544 -47.1875 258.57421875 C-48.17037776 259.96150975 -49.16993541 261.33716614 -50.1875 262.69921875 C-50.579375 263.27929688 -50.97125 263.859375 -51.375 264.45703125 C-53.8050649 266.12246366 -55.99591778 266.34275106 -58.90478516 266.22900391 C-63.62392614 265.13375942 -67.16354753 261.85998178 -70.875 258.88671875 C-72.52345756 257.60772094 -74.17315985 256.33032548 -75.82421875 255.0546875 C-76.54311279 254.48387451 -77.26200684 253.91306152 -78.00268555 253.32495117 C-80.20945829 251.62264195 -80.20945829 251.62264195 -82.84692383 250.13012695 C-85.80209954 248.32348412 -86.81652332 246.87411212 -88.1875 243.69921875 C-89.27709698 238.25123383 -87.5784074 235.36352879 -84.6875 230.88671875 C-84.0378125 229.95214844 -83.388125 229.01757812 -82.71875 228.0546875 C-81.00582093 225.88798833 -81.00582093 225.88798833 -81.1875 223.69921875 C-82.1775 223.36921875 -83.1675 223.03921875 -84.1875 222.69921875 C-85.95289245 220.48086376 -87.58396942 218.27905436 -89.1875 215.94921875 C-89.62578125 215.32789063 -90.0640625 214.7065625 -90.515625 214.06640625 C-97.1875 204.54089797 -97.1875 204.54089797 -97.1875 201.69921875 C-97.98414063 201.91578125 -98.78078125 202.13234375 -99.6015625 202.35546875 C-101.19097656 202.773125 -101.19097656 202.773125 -102.8125 203.19921875 C-104.37871094 203.616875 -104.37871094 203.616875 -105.9765625 204.04296875 C-113.75746753 205.63322671 -113.75746753 205.63322671 -117.73193359 203.03735352 C-120.52285188 200.37990428 -121.29074464 198.60660222 -122.390625 194.9453125 C-122.90109375 193.29305664 -122.90109375 193.29305664 -123.421875 191.60742188 C-123.92460938 189.88942383 -123.92460938 189.88942383 -124.4375 188.13671875 C-124.788125 186.98751953 -125.13875 185.83832031 -125.5 184.65429688 C-126.14743478 182.5289677 -126.7878403 180.40147552 -127.41894531 178.27124023 C-127.97685366 176.4041613 -128.57128206 174.54787256 -129.1875 172.69921875 C-129.65044104 168.53274935 -129.70356722 166.45611733 -127.3125 162.94921875 C-124.34712588 160.81414938 -122.43729718 160.03330771 -118.9921875 159.05859375 C-118.09226074 158.80045898 -117.19233398 158.54232422 -116.26513672 158.27636719 C-115.5795166 158.0859082 -114.89389648 157.89544922 -114.1875 157.69921875 C-114.16244385 156.83643311 -114.1373877 155.97364746 -114.11157227 155.0847168 C-114.01638615 151.88098106 -113.91715556 148.67740338 -113.81518555 145.47387695 C-113.77189782 144.08785892 -113.73021836 142.70178969 -113.69018555 141.31567383 C-113.63233416 139.32230077 -113.56820224 137.3291131 -113.50390625 135.3359375 C-113.46724854 134.13670654 -113.43059082 132.93747559 -113.39282227 131.7019043 C-113.1875 128.69921875 -113.1875 128.69921875 -112.1875 125.69921875 C-112.77917969 125.58964844 -113.37085937 125.48007813 -113.98046875 125.3671875 C-119.58824312 124.24197339 -123.79042982 123.01363134 -128 118.94921875 C-129.93962819 115.27413376 -129.65126765 111.58658942 -128.66870117 107.58789062 C-127.95473364 105.31251484 -127.18092962 103.06862795 -126.375 100.82421875 C-125.98344727 99.69693359 -125.98344727 99.69693359 -125.58398438 98.546875 C-125.05765236 97.03155863 -124.52592802 95.51810424 -123.98876953 94.0065918 C-122.90720253 90.8920611 -121.92509101 87.74720684 -120.95141602 84.59741211 C-119.70384311 81.4974187 -118.10792538 80.22580474 -115.1875 78.69921875 C-108.93001355 77.82317065 -103.12669197 79.89490727 -97.1875 81.69921875 C-96.84525391 80.41917969 -96.84525391 80.41917969 -96.49609375 79.11328125 C-94.96967227 75.13091596 -92.90949764 72.3592548 -90.25 69.07421875 C-89.36581716 67.95708527 -88.48170096 66.83989904 -87.59765625 65.72265625 C-86.80230469 64.72492188 -86.00695312 63.7271875 -85.1875 62.69921875 C-84.62933594 61.90773437 -84.07117188 61.11625 -83.49609375 60.30078125 C-83.06425781 59.77226562 -82.63242188 59.24375 -82.1875 58.69921875 C-81.5275 58.69921875 -80.8675 58.69921875 -80.1875 58.69921875 C-82.15059327 55.19369505 -84.02358762 51.9177686 -86.4375 48.69921875 C-88.6115714 44.97223921 -88.88277591 42.94812706 -88.1875 38.69921875 C-84.16471348 33.99798609 -79.15221927 30.62857233 -74.125 27.07421875 C-72.52978474 25.93642666 -70.93472724 24.79841335 -69.33984375 23.66015625 C-68.63851318 23.16306152 -67.93718262 22.6659668 -67.21459961 22.15380859 C-65.82598459 21.15737739 -64.46920058 20.1154879 -63.14282227 19.03759766 C-60.12126958 16.96940539 -57.75392972 17.32380509 -54.1875 17.69921875 C-49.42311727 19.62765938 -46.66873649 23.31746069 -44.1875 27.69921875 C-44.1875 28.35921875 -44.1875 29.01921875 -44.1875 29.69921875 C-43.03894531 29.21710938 -41.89039063 28.735 -40.70703125 28.23828125 C-31.5266024 24.47436487 -23.14208666 21.56101159 -13.1875 20.69921875 C-13.24550781 19.67441406 -13.30351562 18.64960937 -13.36328125 17.59375 C-13.41019957 16.23311864 -13.45569752 14.87243779 -13.5 13.51171875 C-13.54189453 12.83818359 -13.58378906 12.16464844 -13.62695312 11.47070312 C-13.71636504 7.80481451 -13.38417927 5.96147363 -11.16870117 3.00732422 C-7.4395977 0.12017786 -4.53624828 -0.04247068 0 0 Z " fill="#FCC0D8" transform="translate(240.1875,108.30078125)"/>
<path d="M0 0 C0.78012451 -0.0071553 1.56024902 -0.01431061 2.36401367 -0.02168274 C4.00796368 -0.02944246 5.65201715 -0.02448403 7.29589844 -0.00756836 C9.8060192 0.01166908 12.31060683 -0.02774811 14.8203125 -0.07226562 C16.42187828 -0.072556 18.02344912 -0.06941571 19.625 -0.0625 C20.37096436 -0.07778244 21.11692871 -0.09306488 21.88549805 -0.10881042 C24.76268213 -0.04472716 27.10419292 0.14258812 29.41398621 1.95776367 C32.93696734 5.94373 33.37102817 8.85842159 33.125 14.07421875 C33.07988281 15.31945312 33.03476562 16.5646875 32.98828125 17.84765625 C32.93027344 18.78867188 32.87226563 19.7296875 32.8125 20.69921875 C33.75609375 20.85777344 34.6996875 21.01632813 35.671875 21.1796875 C43.42725994 22.58904962 50.16112515 24.36079766 57.32421875 27.80859375 C59.70134316 28.82607987 59.70134316 28.82607987 61.91015625 28.65625 C64.68727446 27.25913714 65.82643732 25.18700918 67.5625 22.63671875 C71.30902125 17.85026238 71.30902125 17.85026238 75.5625 16.57421875 C81.16095066 17.36778554 85.63812055 21.14782034 90.05761719 24.43261719 C91.96165283 25.80687107 93.91318625 27.08501137 95.8828125 28.36328125 C97.25596127 29.28664169 98.62836708 30.21110804 100 31.13671875 C100.66008057 31.5541333 101.32016113 31.97154785 102.00024414 32.40161133 C104.71357743 34.29369622 106.45313147 35.68474057 107.57641602 38.85571289 C108.21179995 42.8084351 108.09296273 45.0993189 106.37890625 48.765625 C105.38697266 50.00119141 105.38697266 50.00119141 104.375 51.26171875 C103.71628906 52.10863281 103.05757812 52.95554688 102.37890625 53.828125 C101.60353516 54.75431641 101.60353516 54.75431641 100.8125 55.69921875 C102.76866662 60.21598549 105.95728888 63.84767131 109.00390625 67.65820312 C116.8125 77.58895223 116.8125 77.58895223 116.8125 81.69921875 C117.51375 81.48265625 118.215 81.26609375 118.9375 81.04296875 C124.72654177 79.34401084 129.77961852 77.95833857 135.8125 78.69921875 C139.42535277 81.5703741 140.72717129 84.42667511 142.171875 88.75 C142.56503906 89.92369141 142.95820313 91.09738281 143.36328125 92.30664062 C143.75902344 93.52931641 144.15476562 94.75199219 144.5625 96.01171875 C144.97371094 97.22279297 145.38492187 98.43386719 145.80859375 99.68164062 C147.7459956 105.56142997 149.2366293 110.44053345 148.8125 116.69921875 C146.58421369 120.83746475 145.25995757 122.19853772 140.80859375 123.73828125 C137.82034736 124.49328093 134.84442473 125.14795971 131.8125 125.69921875 C131.97476074 126.27720215 132.13702148 126.85518555 132.30419922 127.45068359 C133.11551454 131.0396433 132.95854333 134.6634317 132.9375 138.32421875 C132.93556641 139.12585449 132.93363281 139.92749023 132.93164062 140.75341797 C132.89010476 146.45883052 132.54321997 152.03613898 131.8125 157.69921875 C132.40417969 157.80878906 132.99585938 157.91835938 133.60546875 158.03125 C139.6692367 159.24796037 144.72149621 160.77800768 148.8125 165.69921875 C148.71430241 173.70232265 146.06674204 181.0371796 143.5625 188.57421875 C143.17964844 189.79625 142.79679687 191.01828125 142.40234375 192.27734375 C142.01691406 193.44523438 141.63148438 194.613125 141.234375 195.81640625 C140.88987305 196.87456543 140.54537109 197.93272461 140.19042969 199.02294922 C138.53791713 202.23252446 137.05606169 203.20635809 133.8125 204.69921875 C127.84688472 205.19189075 122.22243355 202.9615546 116.8125 200.69921875 C116.53664063 201.43785156 116.26078125 202.17648437 115.9765625 202.9375 C112.85941829 210.33287235 107.48917585 216.45020272 102.25390625 222.4375 C100.61243592 224.53672851 100.61243592 224.53672851 100.8984375 226.71875 C101.98345017 229.06961078 103.33217919 230.99524035 104.875 233.07421875 C106.80939681 235.91754901 107.77991834 237.52979414 108.4375 240.94921875 C107.09991439 246.83459544 102.55435903 249.81854209 97.75 253.01171875 C96.59002148 253.78607879 95.43118679 254.56215472 94.2734375 255.33984375 C93.69432617 255.72849609 93.11521484 256.11714844 92.51855469 256.51757812 C89.01525304 258.94402059 85.68602473 261.61866514 82.34765625 264.265625 C79.21208459 266.03874487 77.36462076 266.17061279 73.8125 265.69921875 C71.80078125 264.52734375 71.80078125 264.52734375 70.125 262.94921875 C69.54234375 262.40265625 68.9596875 261.85609375 68.359375 261.29296875 C63.8125 256.60830966 63.8125 256.60830966 63.8125 253.69921875 C63.12212646 253.9415625 62.43175293 254.18390625 61.72045898 254.43359375 C58.56741916 255.53333766 55.40888399 256.61638185 52.25 257.69921875 C51.16396484 258.08078125 50.07792969 258.46234375 48.95898438 258.85546875 C43.38673379 260.75240512 38.71280129 262.24099677 32.8125 261.69921875 C32.85890625 262.64023437 32.9053125 263.58125 32.953125 264.55078125 C33.28472222 275.99088542 33.28472222 275.99088542 30.9375 279.51171875 C26.86416223 283.70486057 22.32364862 282.95422783 16.82710266 283.04664612 C15.21233459 283.06925619 13.59751423 283.08836114 11.98266602 283.10424805 C10.33271351 283.12582772 8.68287549 283.15993114 7.03344727 283.20678711 C4.65068641 283.27384327 2.27029039 283.30125121 -0.11328125 283.3203125 C-0.84678299 283.34814316 -1.58028473 283.37597382 -2.33601379 283.40464783 C-5.19008995 283.39323591 -7.48759343 283.24766295 -9.78224182 281.44958496 C-13.30835022 277.45879743 -13.74628845 274.54553382 -13.5 269.32421875 C-13.45488281 268.07898438 -13.40976563 266.83375 -13.36328125 265.55078125 C-13.30527344 264.60976563 -13.24726563 263.66875 -13.1875 262.69921875 C-15.0128125 262.32796875 -15.0128125 262.32796875 -16.875 261.94921875 C-24.19183837 260.31682285 -31.74291147 258.51591404 -38.39453125 255.0078125 C-41.17708343 253.3130495 -41.17708343 253.3130495 -44.1875 254.69921875 C-45.7506279 256.45732544 -45.7506279 256.45732544 -47.1875 258.57421875 C-48.17037776 259.96150975 -49.16993541 261.33716614 -50.1875 262.69921875 C-50.579375 263.27929688 -50.97125 263.859375 -51.375 264.45703125 C-53.8050649 266.12246366 -55.99591778 266.34275106 -58.90478516 266.22900391 C-63.62392614 265.13375942 -67.16354753 261.85998178 -70.875 258.88671875 C-72.52345756 257.60772094 -74.17315985 256.33032548 -75.82421875 255.0546875 C-76.54311279 254.48387451 -77.26200684 253.91306152 -78.00268555 253.32495117 C-80.20945829 251.62264195 -80.20945829 251.62264195 -82.84692383 250.13012695 C-85.80209954 248.32348412 -86.81652332 246.87411212 -88.1875 243.69921875 C-89.27709698 238.25123383 -87.5784074 235.36352879 -84.6875 230.88671875 C-84.0378125 229.95214844 -83.388125 229.01757812 -82.71875 228.0546875 C-81.00582093 225.88798833 -81.00582093 225.88798833 -81.1875 223.69921875 C-82.1775 223.36921875 -83.1675 223.03921875 -84.1875 222.69921875 C-85.95289245 220.48086376 -87.58396942 218.27905436 -89.1875 215.94921875 C-89.62578125 215.32789063 -90.0640625 214.7065625 -90.515625 214.06640625 C-97.1875 204.54089797 -97.1875 204.54089797 -97.1875 201.69921875 C-97.98414063 201.91578125 -98.78078125 202.13234375 -99.6015625 202.35546875 C-101.19097656 202.773125 -101.19097656 202.773125 -102.8125 203.19921875 C-104.37871094 203.616875 -104.37871094 203.616875 -105.9765625 204.04296875 C-113.75746753 205.63322671 -113.75746753 205.63322671 -117.73193359 203.03735352 C-120.52285188 200.37990428 -121.29074464 198.60660222 -122.390625 194.9453125 C-122.90109375 193.29305664 -122.90109375 193.29305664 -123.421875 191.60742188 C-123.92460938 189.88942383 -123.92460938 189.88942383 -124.4375 188.13671875 C-124.788125 186.98751953 -125.13875 185.83832031 -125.5 184.65429688 C-126.14743478 182.5289677 -126.7878403 180.40147552 -127.41894531 178.27124023 C-127.97685366 176.4041613 -128.57128206 174.54787256 -129.1875 172.69921875 C-129.65044104 168.53274935 -129.70356722 166.45611733 -127.3125 162.94921875 C-124.34712588 160.81414938 -122.43729718 160.03330771 -118.9921875 159.05859375 C-118.09226074 158.80045898 -117.19233398 158.54232422 -116.26513672 158.27636719 C-115.5795166 158.0859082 -114.89389648 157.89544922 -114.1875 157.69921875 C-114.16244385 156.83643311 -114.1373877 155.97364746 -114.11157227 155.0847168 C-114.01638615 151.88098106 -113.91715556 148.67740338 -113.81518555 145.47387695 C-113.77189782 144.08785892 -113.73021836 142.70178969 -113.69018555 141.31567383 C-113.63233416 139.32230077 -113.56820224 137.3291131 -113.50390625 135.3359375 C-113.46724854 134.13670654 -113.43059082 132.93747559 -113.39282227 131.7019043 C-113.1875 128.69921875 -113.1875 128.69921875 -112.1875 125.69921875 C-112.77917969 125.58964844 -113.37085937 125.48007813 -113.98046875 125.3671875 C-119.58824312 124.24197339 -123.79042982 123.01363134 -128 118.94921875 C-129.93962819 115.27413376 -129.65126765 111.58658942 -128.66870117 107.58789062 C-127.95473364 105.31251484 -127.18092962 103.06862795 -126.375 100.82421875 C-125.98344727 99.69693359 -125.98344727 99.69693359 -125.58398438 98.546875 C-125.05765236 97.03155863 -124.52592802 95.51810424 -123.98876953 94.0065918 C-122.90720253 90.8920611 -121.92509101 87.74720684 -120.95141602 84.59741211 C-119.70384311 81.4974187 -118.10792538 80.22580474 -115.1875 78.69921875 C-108.93001355 77.82317065 -103.12669197 79.89490727 -97.1875 81.69921875 C-96.84525391 80.41917969 -96.84525391 80.41917969 -96.49609375 79.11328125 C-94.96967227 75.13091596 -92.90949764 72.3592548 -90.25 69.07421875 C-89.36581716 67.95708527 -88.48170096 66.83989904 -87.59765625 65.72265625 C-86.80230469 64.72492188 -86.00695312 63.7271875 -85.1875 62.69921875 C-84.62933594 61.90773437 -84.07117188 61.11625 -83.49609375 60.30078125 C-83.06425781 59.77226562 -82.63242188 59.24375 -82.1875 58.69921875 C-81.5275 58.69921875 -80.8675 58.69921875 -80.1875 58.69921875 C-82.15059327 55.19369505 -84.02358762 51.9177686 -86.4375 48.69921875 C-88.6115714 44.97223921 -88.88277591 42.94812706 -88.1875 38.69921875 C-84.16471348 33.99798609 -79.15221927 30.62857233 -74.125 27.07421875 C-72.52978474 25.93642666 -70.93472724 24.79841335 -69.33984375 23.66015625 C-68.63851318 23.16306152 -67.93718262 22.6659668 -67.21459961 22.15380859 C-65.82598459 21.15737739 -64.46920058 20.1154879 -63.14282227 19.03759766 C-60.12126958 16.96940539 -57.75392972 17.32380509 -54.1875 17.69921875 C-49.42311727 19.62765938 -46.66873649 23.31746069 -44.1875 27.69921875 C-44.1875 28.35921875 -44.1875 29.01921875 -44.1875 29.69921875 C-43.03894531 29.21710938 -41.89039063 28.735 -40.70703125 28.23828125 C-31.5266024 24.47436487 -23.14208666 21.56101159 -13.1875 20.69921875 C-13.24550781 19.67441406 -13.30351562 18.64960937 -13.36328125 17.59375 C-13.41019957 16.23311864 -13.45569752 14.87243779 -13.5 13.51171875 C-13.54189453 12.83818359 -13.58378906 12.16464844 -13.62695312 11.47070312 C-13.71636504 7.80481451 -13.38417927 5.96147363 -11.16870117 3.00732422 C-7.4395977 0.12017786 -4.53624828 -0.04247068 0 0 Z M-4.1875 9.69921875 C-4.39712704 14.50001794 -4.39712704 14.50001794 -4.57543945 19.30200195 C-4.84886798 24.2696195 -4.84886798 24.2696195 -6.48803711 26.34912109 C-9.36203458 28.63229966 -12.93414548 29.1537395 -16.4375 30.01171875 C-23.95672558 31.9454509 -30.88103573 34.4698582 -37.953125 37.66015625 C-41.68660236 38.8595584 -43.48987513 38.99689469 -47.1875 37.69921875 C-49.7421875 35.1953125 -49.7421875 35.1953125 -52.0625 32.13671875 C-53.23425781 30.61884766 -53.23425781 30.61884766 -54.4296875 29.0703125 C-55.00976562 28.28785156 -55.58984375 27.50539062 -56.1875 26.69921875 C-60.68395367 28.18405513 -64.04298302 30.70673004 -67.6875 33.63671875 C-71.38774645 36.58575508 -75.05777177 39.36468954 -79.1875 41.69921875 C-77.96656797 44.47406427 -76.45168347 46.61048454 -74.5625 48.94921875 C-72.42019915 51.99489947 -71.19584771 54.61813134 -71.44140625 58.47265625 C-72.83708174 62.63776112 -75.86725771 65.64032379 -78.734375 68.890625 C-82.25161861 72.91753289 -85.19724326 77.27580787 -88.1875 81.69921875 C-88.84105469 82.63314453 -88.84105469 82.63314453 -89.5078125 83.5859375 C-91.58211246 86.37997207 -91.58211246 86.37997207 -92.1875 89.69921875 C-98.93820773 91.94945466 -103.89569876 90.25859552 -110.1875 87.69921875 C-110.8475 87.69921875 -111.5075 87.69921875 -112.1875 87.69921875 C-116.93375933 100.48238995 -116.93375933 100.48238995 -120.1875 113.69921875 C-119.18847656 114.12074219 -118.18945312 114.54226562 -117.16015625 114.9765625 C-115.85671692 115.52982092 -114.55333443 116.08321326 -113.25 116.63671875 C-112.59064453 116.91451172 -111.93128906 117.19230469 -111.25195312 117.47851562 C-106.30078125 119.5859375 -106.30078125 119.5859375 -105.1875 120.69921875 C-105.09481001 122.05016857 -105.07002674 123.40588966 -105.07397461 124.76000977 C-105.07405014 125.62082657 -105.07412567 126.48164337 -105.07420349 127.36854553 C-105.07936478 128.30395676 -105.08452606 129.23936798 -105.08984375 130.203125 C-105.0912587 131.15613998 -105.09267365 132.10915497 -105.09413147 133.09104919 C-105.09974848 136.1479704 -105.11230384 139.20481952 -105.125 142.26171875 C-105.13001281 144.32877499 -105.13457609 146.39583237 -105.13867188 148.46289062 C-105.14972344 153.54169463 -105.16699945 158.62044445 -105.1875 163.69921875 C-108.59411354 165.08182967 -111.97117932 166.28909802 -115.5 167.32421875 C-116.38300781 167.58460938 -117.26601562 167.845 -118.17578125 168.11328125 C-118.83964844 168.30664062 -119.50351563 168.5 -120.1875 168.69921875 C-119.35556697 173.74281275 -117.73939916 178.52971359 -116.1875 183.38671875 C-115.91421875 184.25361328 -115.6409375 185.12050781 -115.359375 186.01367188 C-113.99964038 190.44621567 -113.99964038 190.44621567 -112.1875 194.69921875 C-108.21149531 194.0939785 -108.21149531 194.0939785 -104.3125 193.13671875 C-100.85963551 192.42583488 -97.6505002 192.01637364 -94.1875 192.69921875 C-89.37869177 196.90692595 -86.63624314 202.93835001 -83.390625 208.3828125 C-81.23122701 211.63339564 -78.91728319 214.23472232 -76.1875 217.01171875 C-71.53975376 222.02257017 -71.53975376 222.02257017 -71.1875 225.69921875 C-71.72580868 230.40941968 -74.82036614 233.96277337 -77.65625 237.59765625 C-79.38379535 239.53524938 -79.38379535 239.53524938 -79.1875 241.69921875 C-77.01223441 243.28009255 -77.01223441 243.28009255 -74.25 244.88671875 C-69.54101784 247.76914984 -65.32796515 250.89702093 -61.16015625 254.51171875 C-59.28224277 255.87909428 -59.28224277 255.87909428 -57.1640625 255.66796875 C-54.46868428 254.34691381 -53.26095762 252.61337323 -51.5 250.19921875 C-50.89800781 249.38453125 -50.29601562 248.56984375 -49.67578125 247.73046875 C-48.93908203 246.725 -48.93908203 246.725 -48.1875 245.69921875 C-47.1875 244.69921875 -47.1875 244.69921875 -44.25 244.38671875 C-40.12646806 244.45322733 -36.95050373 245.86932374 -33.203125 247.484375 C-29.52304291 248.96689512 -25.78957874 250.15621286 -22 251.32421875 C-21.00238647 251.6329895 -21.00238647 251.6329895 -19.98461914 251.94799805 C-16.77452448 252.93268232 -13.57152762 253.86239849 -10.32421875 254.72265625 C-7.1875 255.69921875 -7.1875 255.69921875 -5.1875 257.69921875 C-4.88029488 260.44087955 -4.67686076 263.07576644 -4.5625 265.82421875 C-4.43875 268.42296875 -4.315 271.02171875 -4.1875 273.69921875 C5.0525 273.69921875 14.2925 273.69921875 23.8125 273.69921875 C24.1425 268.08921875 24.4725 262.47921875 24.8125 256.69921875 C25.4725 256.69921875 26.1325 256.69921875 26.8125 256.69921875 C26.8125 256.03921875 26.8125 255.37921875 26.8125 254.69921875 C27.73289062 254.54066406 28.65328125 254.38210938 29.6015625 254.21875 C39.57068521 252.38126404 50.26088011 250.40029868 58.8125 244.69921875 C62.1875 244.26171875 62.1875 244.26171875 65.8125 244.69921875 C68.4375 246.82421875 68.4375 246.82421875 70.8125 249.69921875 C71.28042969 250.24964844 71.74835938 250.80007813 72.23046875 251.3671875 C73.44230469 252.79627134 74.6296741 254.24603265 75.8125 255.69921875 C80.47431674 254.13937132 84.02503423 251.58208826 87.9375 248.69921875 C89.16904936 247.80308096 90.40081256 246.90723698 91.6328125 246.01171875 C92.68210937 245.24859375 93.73140625 244.48546875 94.8125 243.69921875 C95.8025 243.03921875 96.7925 242.37921875 97.8125 241.69921875 C97.18315798 238.34996177 96.58899465 237.4321026 94.25 234.63671875 C90.76097799 230.04484496 91.36339469 225.21822402 91.8125 219.69921875 C92.4725 219.69921875 93.1325 219.69921875 93.8125 219.69921875 C95.46619021 217.79762616 96.99119633 215.89901922 98.5 213.88671875 C98.94335693 213.30229004 99.38671387 212.71786133 99.84350586 212.11572266 C106.88337052 202.98755136 106.88337052 202.98755136 111.8125 192.69921875 C117.62680761 192.49238567 122.30618994 192.60157682 127.8125 194.69921875 C129.1325 194.69921875 130.4525 194.69921875 131.8125 194.69921875 C133.01979806 191.31009988 134.19976181 187.91207459 135.375 184.51171875 C135.88836914 183.0721582 135.88836914 183.0721582 136.41210938 181.60351562 C136.89067383 180.20649414 136.89067383 180.20649414 137.37890625 178.78125 C137.67740479 177.92764893 137.97590332 177.07404785 138.28344727 176.19458008 C138.89529549 173.30870066 138.73999691 171.49220154 137.8125 168.69921875 C135.13097479 167.10749192 135.13097479 167.10749192 131.875 166.07421875 C126.00614914 163.98969246 126.00614914 163.98969246 123.8125 160.69921875 C123.60441892 157.92813365 123.50847236 155.26005016 123.51171875 152.48828125 C123.50743362 151.6831308 123.5031485 150.87798035 123.49873352 150.0484314 C123.49299239 148.3454482 123.49248837 146.64244048 123.49682617 144.93945312 C123.49997998 142.34071695 123.47654685 139.74312616 123.45117188 137.14453125 C123.44889816 135.48828268 123.44819572 133.83203106 123.44921875 132.17578125 C123.440009 131.40166901 123.43079926 130.62755676 123.42131042 129.82998657 C123.46004213 125.28632179 123.926509 122.27338147 126.8125 118.69921875 C129.73046875 117.3359375 129.73046875 117.3359375 133 116.38671875 C134.08667969 116.06058594 135.17335938 115.73445313 136.29296875 115.3984375 C137.12441406 115.16769531 137.95585937 114.93695313 138.8125 114.69921875 C138.9178214 111.00770354 138.82646875 107.98763281 137.5625 104.51171875 C137.15837891 103.37863281 137.15837891 103.37863281 136.74609375 102.22265625 C136.43800781 101.38992187 136.12992187 100.5571875 135.8125 99.69921875 C135.45285156 98.70148438 135.09320313 97.70375 134.72265625 96.67578125 C133.76115722 94.01369497 132.79052257 91.35526989 131.8125 88.69921875 C130.72582031 88.91578125 130.72582031 88.91578125 129.6171875 89.13671875 C118.38127323 91.29401429 118.38127323 91.29401429 114.8125 90.69921875 C111.2308323 87.49184108 108.61854703 84.12675485 106.0625 80.07421875 C102.60562221 74.75088983 98.81538528 69.89771859 94.6953125 65.07421875 C92.33575551 62.09784811 91.02639386 59.72115608 90.25 56.01171875 C91.01588463 51.50150929 93.34845565 49.07393716 96.28125 45.65234375 C98.01816235 43.85053076 98.01816235 43.85053076 97.8125 41.69921875 C96.16638448 40.38103996 96.16638448 40.38103996 94 39.07421875 C89.2150703 36.02306896 84.75847417 32.63957081 80.29296875 29.140625 C77.98836425 27.52445421 77.98836425 27.52445421 75.71484375 27.6953125 C73.11321928 29.06824369 71.89708069 30.81936193 70.1875 33.19921875 C66.99116005 37.60988873 66.99116005 37.60988873 64.8125 38.69921875 C60.57744922 38.99048772 57.96587362 38.57362283 54.25 36.57421875 C48.58644745 33.82896897 42.78820637 32.0900512 36.75 30.38671875 C35.80890381 30.12036621 34.86780762 29.85401367 33.89819336 29.57958984 C29.41922966 28.21902069 29.41922966 28.21902069 24.8125 27.69921875 C23.8225 18.78921875 23.8225 18.78921875 22.8125 9.69921875 C13.9025 9.69921875 4.9925 9.69921875 -4.1875 9.69921875 Z " fill="#D66590" transform="translate(240.1875,108.30078125)"/>
<path d="M0 0 C5.59209656 3.05982642 9.11543837 6.79948922 11.3125 12.8125 C12.27337669 20.13095808 10.59799283 24.80870942 6.125 30.6875 C5.526875 31.38875 4.92875 32.09 4.3125 32.8125 C4.9725 32.85375 5.6325 32.895 6.3125 32.9375 C10.70163955 34.2176657 13.79776529 36.96059367 17.3125 39.8125 C17.93125 39.3175 18.55 38.8225 19.1875 38.3125 C21.3125 36.8125 21.3125 36.8125 23.3125 36.8125 C22.9515625 36.35101563 22.590625 35.88953125 22.21875 35.4140625 C18.89990279 30.74923837 17.45585054 27.0412646 17.7578125 21.27734375 C18.97831467 15.85384466 22.54845213 12.29801399 26.6875 8.8125 C31.12162251 7.12331047 35.02164529 7.03918062 39.46484375 8.5390625 C44.38822176 10.79446472 47.98449519 13.49248798 50.0625 18.6875 C50.76386416 24.64909539 50.46169787 28.60421121 47.3125 33.8125 C46.3225 34.8025 46.3225 34.8025 45.3125 35.8125 C46.23482422 36.43125 46.23482422 36.43125 47.17578125 37.0625 C48.38814453 37.92875 48.38814453 37.92875 49.625 38.8125 C50.42550781 39.369375 51.22601563 39.92625 52.05078125 40.5 C57.76522429 46.34274659 57.67806555 53.21654992 57.67382812 60.96679688 C57.65771484 62.17400391 57.64160156 63.38121094 57.625 64.625 C57.62822266 65.85154297 57.63144531 67.07808594 57.63476562 68.34179688 C57.57991938 77.41137093 57.57991938 77.41137093 55.3125 80.8125 C52.61709685 81.07936213 50.15402536 81.16068073 47.4609375 81.10546875 C46.68690582 81.10122391 45.91287415 81.09697906 45.11538696 81.09260559 C42.63907323 81.07578998 40.16356842 81.03813395 37.6875 81 C36.01042841 80.98495682 34.33334408 80.97126778 32.65625 80.95898438 C28.54135419 80.92587721 24.42706431 80.87407637 20.3125 80.8125 C20.126875 81.7715625 20.126875 81.7715625 19.9375 82.75 C19.73125 83.430625 19.525 84.11125 19.3125 84.8125 C16.88745059 86.0250247 15.32867206 85.94575424 12.61914062 85.95776367 C11.64473022 85.96414352 10.67031982 85.97052338 9.66638184 85.97709656 C8.61116333 85.97820938 7.55594482 85.9793222 6.46875 85.98046875 C5.38871704 85.98379715 4.30868408 85.98712555 3.19592285 85.99055481 C0.90942817 85.99562375 -1.37707392 85.99796315 -3.66357422 85.99780273 C-7.17297455 85.99999094 -10.68206152 86.01815192 -14.19140625 86.03710938 C-16.40885309 86.04004288 -18.62630142 86.04202796 -20.84375 86.04296875 C-21.89896851 86.05015427 -22.95418701 86.05733978 -24.04138184 86.06474304 C-25.01579224 86.06166641 -25.99020264 86.05858978 -26.99414062 86.05541992 C-27.85414673 86.05684494 -28.71415283 86.05826996 -29.60021973 86.05973816 C-31.6875 85.8125 -31.6875 85.8125 -33.6875 83.8125 C-33.6875 82.8225 -33.6875 81.8325 -33.6875 80.8125 C-35.26217041 80.83606567 -35.26217041 80.83606567 -36.86865234 80.86010742 C-40.75610712 80.91432619 -44.64352837 80.9488204 -48.53125 80.97729492 C-50.2152264 80.99240003 -51.89916335 81.01288546 -53.58300781 81.03881836 C-56.00074993 81.07512721 -58.41797292 81.09220847 -60.8359375 81.10546875 C-61.5911972 81.12095261 -62.34645691 81.13643646 -63.12460327 81.15238953 C-65.24755859 81.15307617 -65.24755859 81.15307617 -68.6875 80.8125 C-71.81590879 76.11988682 -71.09748798 71.16084877 -71.11303711 65.63549805 C-71.12485563 63.64926378 -71.17450175 61.66337167 -71.22460938 59.67773438 C-71.26633893 52.20814449 -71.0163526 46.41327071 -65.6875 40.8125 C-63.74121106 39.21603799 -61.89906799 38.04686353 -59.6875 36.8125 C-60.3475 35.69875 -61.0075 34.585 -61.6875 33.4375 C-64.10626411 28.565418 -64.57755637 24.17081916 -63.6875 18.8125 C-62 15.4375 -62 15.4375 -59.6875 12.8125 C-59.006875 12.02875 -58.32625 11.245 -57.625 10.4375 C-52.56774241 7.63986814 -47.12394417 8.10629496 -41.55859375 9.25 C-38.03304846 10.46833098 -36.53308243 12.01974463 -34.3125 15 C-32.46646538 18.82048904 -31.30675744 22.54332284 -31.6875 26.8125 C-32.54362846 29.07028994 -33.55478072 31.06800822 -34.77734375 33.1484375 C-35.84745396 34.78883058 -35.84745396 34.78883058 -35.6875 36.8125 C-33.91774131 38.57736718 -33.91774131 38.57736718 -31.6875 39.8125 C-28.64091525 39.04542375 -28.64091525 39.04542375 -26.8125 36.9375 C-24.60589587 34.73089587 -22.40482028 33.32212238 -19.6875 31.8125 C-20.0484375 31.21824219 -20.409375 30.62398437 -20.78125 30.01171875 C-24.34041155 23.65466077 -26.24321448 18.10151188 -24.6875 10.8125 C-19.51712428 0.7377486 -10.92992969 -3.51980787 0 0 Z " fill="#D6648F" transform="translate(256.6875,205.1875)"/>
<path d="M0 0 C3.52554529 1.21833098 5.02551132 2.76974463 7.24609375 5.75 C9.09212837 9.57048904 10.25183631 13.29332284 9.87109375 17.5625 C9.01496529 19.82028994 8.00381303 21.81800822 6.78125 23.8984375 C5.71113979 25.53883058 5.71113979 25.53883058 5.87109375 27.5625 C7.40958909 29.40683554 7.40958909 29.40683554 9.87109375 30.5625 C13.55924668 30.33381906 13.55924668 30.33381906 16.87109375 29.5625 C19.00632505 32.70254603 18.74733989 34.59610437 18.16235352 38.21508789 C17.49329417 43.60738091 17.48238252 49.0735676 17.30859375 54.5 C17.16421875 58.810625 17.01984375 63.12125 16.87109375 67.5625 C28.75109375 67.5625 40.63109375 67.5625 52.87109375 67.5625 C53.20109375 68.5525 53.53109375 69.5425 53.87109375 70.5625 C54.53109375 70.8925 55.19109375 71.2225 55.87109375 71.5625 C55.37609375 73.0475 55.37609375 73.0475 54.87109375 74.5625 C55.46921875 74.3975 56.06734375 74.2325 56.68359375 74.0625 C58.87109375 73.5625 58.87109375 73.5625 61.87109375 73.5625 C60.19970951 75.62005765 59.31950673 76.48648493 56.66355896 76.9367218 C55.80577347 76.93609238 54.94798798 76.93546295 54.06420898 76.93481445 C52.60270668 76.94415764 52.60270668 76.94415764 51.11167908 76.95368958 C50.06162186 76.94447983 49.01156464 76.93527008 47.9296875 76.92578125 C46.85106949 76.92627975 45.77245148 76.92677826 44.66114807 76.92729187 C42.38060667 76.9249507 40.10006272 76.91521968 37.81958008 76.89868164 C34.31893959 76.87506978 30.81905934 76.87812293 27.31835938 76.88476562 C25.10546419 76.87918972 22.89257222 76.87208039 20.6796875 76.86328125 C19.62760605 76.86419266 18.5755246 76.86510406 17.49156189 76.86604309 C16.03478783 76.85174507 16.03478783 76.85174507 14.54858398 76.8371582 C13.26309914 76.83024712 13.26309914 76.83024712 11.9516449 76.82319641 C9.87109375 76.5625 9.87109375 76.5625 7.87109375 74.5625 C7.87109375 73.5725 7.87109375 72.5825 7.87109375 71.5625 C6.29642334 71.58606567 6.29642334 71.58606567 4.68994141 71.61010742 C0.80248663 71.66432619 -3.08493462 71.6988204 -6.97265625 71.72729492 C-8.65663265 71.74240003 -10.3405696 71.76288546 -12.02441406 71.78881836 C-14.44215618 71.82512721 -16.85937917 71.84220847 -19.27734375 71.85546875 C-20.03260345 71.87095261 -20.78786316 71.88643646 -21.56600952 71.90238953 C-23.68896484 71.90307617 -23.68896484 71.90307617 -27.12890625 71.5625 C-30.25731504 66.86988682 -29.53889423 61.91084877 -29.55444336 56.38549805 C-29.56626188 54.39926378 -29.615908 52.41337167 -29.66601562 50.42773438 C-29.70774518 42.95814449 -29.45775885 37.16327071 -24.12890625 31.5625 C-22.18261731 29.96603799 -20.34047424 28.79686353 -18.12890625 27.5625 C-18.78890625 26.44875 -19.44890625 25.335 -20.12890625 24.1875 C-22.54767036 19.315418 -23.01896262 14.92081916 -22.12890625 9.5625 C-20.44140625 6.1875 -20.44140625 6.1875 -18.12890625 3.5625 C-17.44828125 2.77875 -16.76765625 1.995 -16.06640625 1.1875 C-11.00914866 -1.61013186 -5.56535042 -1.14370504 0 0 Z " fill="#D6658F" transform="translate(215.12890625,214.4375)"/>
<path d="M0 0 C11.68450786 21.24762092 17.74596245 47.03577149 11 71 C6.47697699 85.24639361 0.29645567 98.22448949 -9 110 C-9.83144531 111.06347656 -9.83144531 111.06347656 -10.6796875 112.1484375 C-18.98901652 122.20709894 -29.57230745 129.01466711 -41 135 C-42.07378906 135.56976563 -43.14757812 136.13953125 -44.25390625 136.7265625 C-59.47430759 144.30875016 -74.38806955 144.524139 -91 144 C-92.26714844 143.9690625 -93.53429687 143.938125 -94.83984375 143.90625 C-110.90836034 143.12717041 -125.91532376 136.06017767 -139 127 C-138.71125 127.60328125 -138.4225 128.2065625 -138.125 128.828125 C-137.75375 129.62734375 -137.3825 130.4265625 -137 131.25 C-136.62875 132.03890625 -136.2575 132.8278125 -135.875 133.640625 C-135 136 -135 136 -135 140 C-139.455 140.99 -139.455 140.99 -144 142 C-144.48210937 140.61425781 -144.96421875 139.22851562 -145.4609375 137.80078125 C-146.0988988 135.97133341 -146.73692293 134.14190747 -147.375 132.3125 C-147.69210938 131.40048828 -148.00921875 130.48847656 -148.3359375 129.54882812 C-148.6453125 128.66259766 -148.9546875 127.77636719 -149.2734375 126.86328125 C-149.69761963 125.64572144 -149.69761963 125.64572144 -150.13037109 124.40356445 C-150.74367882 122.70844526 -151.40220929 121.0293577 -152.09228516 119.36401367 C-153.1131549 116.70530422 -153.30533144 114.8243158 -153 112 C-151 110 -151 110 -148.01904297 109.77294922 C-146.77268066 109.78342285 -145.52631836 109.79389648 -144.2421875 109.8046875 C-143.24761032 109.80893234 -143.24761032 109.80893234 -142.23294067 109.81326294 C-140.11344417 109.82446565 -137.99436896 109.84956949 -135.875 109.875 C-134.43880818 109.88502972 -133.00260975 109.89415559 -131.56640625 109.90234375 C-128.04413372 109.924405 -124.52210797 109.95893506 -121 110 C-121 112.97 -121 115.94 -121 119 C-126.445 119.495 -126.445 119.495 -132 120 C-110.54527287 132.13885877 -87.85891717 138.59769707 -63.25 132.3125 C-43.077271 126.35237552 -24.71237529 115.91508292 -13 98 C-12.44054687 97.24074219 -11.88109375 96.48148437 -11.3046875 95.69921875 C-5.58188242 87.53616995 -2.64806362 78.52438488 0 69 C0.19722656 68.29593018 0.39445313 67.59186035 0.59765625 66.86645508 C2.18638997 60.57038846 2.38440567 54.41058152 2.375 47.9375 C2.37411377 46.84147461 2.37322754 45.74544922 2.37231445 44.61621094 C2.2144174 33.7060856 0.91127253 23.40143876 -5 14 C-5.60405442 12.64274192 -6.17126013 11.26802823 -6.6875 9.875 C-7.06455078 8.88113281 -7.06455078 8.88113281 -7.44921875 7.8671875 C-8 6 -8 6 -8 3 C-5.0936485 0.19744677 -4.21174952 0 0 0 Z " fill="#D66690" transform="translate(333,201)"/>
<path d="M0 0 C0.54011719 0.42539063 1.08023438 0.85078125 1.63671875 1.2890625 C1.34796875 0.60199219 1.05921875 -0.08507812 0.76171875 -0.79296875 C0.39046875 -1.69402344 0.01921875 -2.59507812 -0.36328125 -3.5234375 C-0.73453125 -4.41675781 -1.10578125 -5.31007812 -1.48828125 -6.23046875 C-2.36328125 -8.7109375 -2.36328125 -8.7109375 -2.36328125 -11.7109375 C1.00769258 -13.20914809 2.84113994 -13.7109375 6.63671875 -13.7109375 C8.15589675 -9.86405916 9.64854703 -6.00740532 11.13671875 -2.1484375 C11.78060547 -0.51938477 11.78060547 -0.51938477 12.4375 1.14257812 C16.36412373 11.39542897 16.36412373 11.39542897 15.63671875 17.2890625 C14.63671875 18.2890625 14.63671875 18.2890625 11.67749023 18.40258789 C10.38399658 18.39735107 9.09050293 18.39211426 7.7578125 18.38671875 C6.72781883 18.38459633 6.72781883 18.38459633 5.67701721 18.38243103 C3.47604074 18.37681729 1.27516466 18.36426257 -0.92578125 18.3515625 C-2.41471208 18.34654926 -3.90364449 18.34198605 -5.39257812 18.33789062 C-9.049512 18.32684343 -12.70638683 18.30956963 -16.36328125 18.2890625 C-16.36328125 14.9890625 -16.36328125 11.6890625 -16.36328125 8.2890625 C-13.39328125 7.9590625 -10.42328125 7.6290625 -7.36328125 7.2890625 C-26.26031485 -5.43009473 -48.38437874 -9.49682949 -70.67578125 -5.5234375 C-77.90237194 -4.07882968 -84.63311946 -1.68431586 -91.36328125 1.2890625 C-92.2346875 1.65773437 -93.10609375 2.02640625 -94.00390625 2.40625 C-103.12739829 6.56633285 -110.39113109 13.19439852 -117.36328125 20.2890625 C-118.08128906 20.98644531 -118.79929688 21.68382812 -119.5390625 22.40234375 C-126.41609484 29.48053243 -130.37969319 37.38605934 -134.36328125 46.2890625 C-134.89824219 47.46855469 -135.43320313 48.64804688 -135.984375 49.86328125 C-142.67479916 66.48509991 -142.15953734 86.27008928 -137.36328125 103.2890625 C-137.13511719 104.19914062 -136.90695313 105.10921875 -136.671875 106.046875 C-135.26155743 111.31743324 -133.21038442 115.73226649 -130.3515625 120.37890625 C-129.36328125 122.2890625 -129.36328125 122.2890625 -129.36328125 125.2890625 C-132.25162128 127.39677009 -133.7479052 128.2890625 -137.36328125 128.2890625 C-150.16526705 107.52432953 -154.34519595 80.23134183 -148.92578125 56.4140625 C-145.1927868 41.95949927 -137.96327543 28.63608264 -128.36328125 17.2890625 C-127.74066406 16.5053125 -127.11804688 15.7215625 -126.4765625 14.9140625 C-96.41502414 -21.38666307 -37.87155613 -27.41775468 0 0 Z " fill="#D76690" transform="translate(304.36328125,170.7109375)"/>
<path d="M0 0 C1.30453125 -0.02578125 2.6090625 -0.0515625 3.953125 -0.078125 C8.98980525 0.35714366 12.22087296 1.96883951 16.0625 5.1875 C19.10836752 8.91022697 18.87061356 12.64483447 18.84765625 17.328125 C18.84515869 18.37387695 18.84266113 19.41962891 18.84008789 20.49707031 C18.83098389 21.81803711 18.82187988 23.13900391 18.8125 24.5 C18.791875 28.7075 18.77125 32.915 18.75 37.25 C6.87 37.25 -5.01 37.25 -17.25 37.25 C-17.311875 32.898125 -17.37375 28.54625 -17.4375 24.0625 C-17.46481201 22.69843018 -17.49212402 21.33436035 -17.52026367 19.92895508 C-17.53150269 18.30316528 -17.53150269 18.30316528 -17.54296875 16.64453125 C-17.5586792 15.53956299 -17.57438965 14.43459473 -17.59057617 13.29614258 C-17.06363291 8.58311675 -15.19745455 6.08191131 -11.6875 3 C-7.59802853 0.0639692 -5.04981391 0.05940958 0 0 Z " fill="#FACBDC" transform="translate(249.25,244.75)"/>
<path d="M0 0 C0.33 0 0.66 0 1 0 C1 1.98 1 3.96 1 6 C6.33390748 8.94451001 11.67673992 9.61138423 17.5625 8.0625 C18.7690625 7.5365625 18.7690625 7.5365625 20 7 C19.690625 7.598125 19.38125 8.19625 19.0625 8.8125 C17.89790296 11.08956772 17.89790296 11.08956772 17 14 C17.886875 14.4125 18.77375 14.825 19.6875 15.25 C25.19942628 18.16196105 28.24653608 20.40846462 30.39135742 26.43432617 C31.66665032 31.81019985 31.38582085 37.31930161 31.3125 42.8125 C31.31572266 44.03904297 31.31894531 45.26558594 31.32226562 46.52929688 C31.26741938 55.59887093 31.26741938 55.59887093 29 59 C26.30459685 59.26686213 23.84152536 59.34818073 21.1484375 59.29296875 C20.37440582 59.28872391 19.60037415 59.28447906 18.80288696 59.28010559 C16.32657323 59.26328998 13.85106842 59.22563395 11.375 59.1875 C9.69792841 59.17245682 8.02084408 59.15876778 6.34375 59.14648438 C2.22885419 59.11337721 -1.88543569 59.06157637 -6 59 C-6 58.67 -6 58.34 -6 58 C2.91 57.67 11.82 57.34 21 57 C21.88596716 50.79822991 22.03429996 45.49387031 21.75 39.3125 C21.72292969 38.37599609 21.69585937 37.43949219 21.66796875 36.47460938 C21.62800781 35.57162109 21.58804687 34.66863281 21.546875 33.73828125 C21.51432617 32.92399658 21.48177734 32.10971191 21.44824219 31.27075195 C20.89731921 28.47982897 19.93457301 27.06683929 18 25 C14.35079022 23.78359674 10.92920257 23.70039861 7.125 23.625 C6.41730469 23.58761719 5.70960938 23.55023438 4.98046875 23.51171875 C0.82785686 23.4421219 -0.7810525 23.81631158 -4.0078125 26.5234375 C-4.66523438 27.34070313 -5.32265625 28.15796875 -6 29 C-6.99 26.36 -7.98 23.72 -9 21 C-7.68 20.67 -6.36 20.34 -5 20 C-4.87625 19.360625 -4.7525 18.72125 -4.625 18.0625 C-4.41875 17.381875 -4.2125 16.70125 -4 16 C-3.34 15.67 -2.68 15.34 -2 15 C-2.309375 14.2575 -2.61875 13.515 -2.9375 12.75 C-3.8094925 10.49307824 -4.47667007 8.3549847 -5 6 C-4.01 6 -3.02 6 -2 6 C-1.34 4.02 -0.68 2.04 0 0 Z " fill="#D6658F" transform="translate(283,227)"/>
<path d="M0 0 C1.04800781 0.00290039 1.04800781 0.00290039 2.1171875 0.00585938 C6.5442116 0.1186232 9.49834437 0.83970528 13 3.5625 C15.16926659 6.81639988 15.24080049 7.69645957 15.1953125 11.44921875 C15.19031738 12.29444092 15.18532227 13.13966309 15.18017578 14.01049805 C15.15286377 15.61405151 15.15286377 15.61405151 15.125 17.25 C15.08375 20.653125 15.0425 24.05625 15 27.5625 C5.76 27.5625 -3.48 27.5625 -13 27.5625 C-13.103125 24.22125 -13.20625 20.88 -13.3125 17.4375 C-13.35802002 16.39577637 -13.40354004 15.35405273 -13.45043945 14.28076172 C-13.51427001 9.99876099 -13.51809194 6.50115223 -10.98046875 2.91796875 C-7.27951785 -0.00689808 -4.52797237 -0.23809449 0 0 Z " fill="#FBC7DB" transform="translate(290,249.4375)"/>
<path d="M0 0 C0.83595703 0.02707031 1.67191406 0.05414063 2.53320312 0.08203125 C4.58575247 0.15240437 6.63696591 0.26001678 8.6875 0.375 C8.6875 1.035 8.6875 1.695 8.6875 2.375 C10.0075 3.035 11.3275 3.695 12.6875 4.375 C12.6875 11.965 12.6875 19.555 12.6875 27.375 C3.7775 27.375 -5.1325 27.375 -14.3125 27.375 C-14.415625 24.03375 -14.51875 20.6925 -14.625 17.25 C-14.67052002 16.20827637 -14.71604004 15.16655273 -14.76293945 14.09326172 C-14.82610186 9.85608282 -14.82664468 6.30163768 -12.375 2.71875 C-8.16344506 -0.50437878 -5.14436568 -0.31670128 0 0 Z " fill="#FBC7DC" transform="translate(209.3125,249.625)"/>
<path d="M0 0 C3.52554529 1.21833098 5.02551132 2.76974463 7.24609375 5.75 C9.47239188 10.35746916 10.75037667 14.7772854 9.171875 19.77734375 C7.33191564 23.7990731 6.05136533 25.8199868 1.87109375 27.5625 C2.20109375 26.5725 2.53109375 25.5825 2.87109375 24.5625 C2.54109375 23.9025 2.21109375 23.2425 1.87109375 22.5625 C-2.74890625 22.5625 -7.36890625 22.5625 -12.12890625 22.5625 C-12.12890625 21.9025 -12.12890625 21.2425 -12.12890625 20.5625 C-14.62928359 22.73674117 -15.56519211 24.29295798 -16.12890625 27.5625 C-19.52114429 24.39641117 -21.79996504 21.88038808 -22.46484375 17.1953125 C-22.55452333 11.43788322 -22.08761843 8.05617328 -18.12890625 3.5625 C-17.10796875 2.386875 -17.10796875 2.386875 -16.06640625 1.1875 C-11.00914866 -1.61013186 -5.56535042 -1.14370504 0 0 Z " fill="#D56790" transform="translate(215.12890625,214.4375)"/>
<path d="M0 0 C4.92337801 2.25540222 8.51965144 4.95342548 10.59765625 10.1484375 C11.29399701 16.06733394 11.1056866 20.15367552 7.84765625 25.2734375 C5.66015625 27.1484375 5.66015625 27.1484375 3.84765625 28.2734375 C3.51765625 27.6134375 3.18765625 26.9534375 2.84765625 26.2734375 C4.28515625 23.6484375 4.28515625 23.6484375 5.84765625 21.2734375 C5.02265625 21.6240625 4.19765625 21.9746875 3.34765625 22.3359375 C-1.67695246 23.68181483 -5.88612431 23.4937095 -10.58984375 20.9609375 C-12.34107328 19.0696096 -12.80345599 17.80287378 -13.15234375 15.2734375 C-13.81234375 16.5934375 -14.47234375 17.9134375 -15.15234375 19.2734375 C-16.14234375 19.2734375 -17.13234375 19.2734375 -18.15234375 19.2734375 C-17.47171875 20.3665625 -16.79109375 21.4596875 -16.08984375 22.5859375 C-14.9296875 24.44921875 -14.9296875 24.44921875 -14.15234375 26.2734375 C-14.48234375 27.2634375 -14.81234375 28.2534375 -15.15234375 29.2734375 C-15.81234375 29.2734375 -16.47234375 29.2734375 -17.15234375 29.2734375 C-17.30703125 30.2325 -17.30703125 30.2325 -17.46484375 31.2109375 C-17.69171875 31.8915625 -17.91859375 32.5721875 -18.15234375 33.2734375 C-19.63734375 33.7684375 -19.63734375 33.7684375 -21.15234375 34.2734375 C-21.15234375 32.9534375 -21.15234375 31.6334375 -21.15234375 30.2734375 C-19.50234375 29.6134375 -17.85234375 28.9534375 -16.15234375 28.2734375 C-16.51328125 27.81195313 -16.87421875 27.35046875 -17.24609375 26.875 C-20.56494096 22.21017587 -22.00899321 18.5022021 -21.70703125 12.73828125 C-20.48652908 7.31478216 -16.91639162 3.75895149 -12.77734375 0.2734375 C-8.34322124 -1.41575203 -4.44319846 -1.49988188 0 0 Z " fill="#D66791" transform="translate(296.15234375,213.7265625)"/>
<path d="M0 0 C4.31394487 3.62763546 7.53109322 7.42860039 8.28515625 13.171875 C8.47912114 18.19809569 7.77727512 21.67979426 5 26 C4.01904252 27.01868662 3.02297922 28.02351983 2 29 C1.67 29.99 1.34 30.98 1 32 C0.34 32 -0.32 32 -1 32 C-1 31.34 -1 30.68 -1 30 C-1.66 29.67 -2.32 29.34 -3 29 C-3 27.02 -3 25.04 -3 23 C-3.53625 23.33 -4.0725 23.66 -4.625 24 C-7.68741139 25.28943638 -9.69939439 25.40415579 -13 25 C-15.69990662 23.20006226 -17.5418865 21.916227 -19 19 C-19.76349787 13.99484729 -19.76349787 13.99484729 -19 11 C-16.69898226 8.14780824 -14.12591745 5.91260724 -11 4 C-10.01 4 -9.02 4 -8 4 C-8 2.68 -8 1.36 -8 0 C-9.41702513 0.14230808 -10.8336096 0.28900746 -12.25 0.4375 C-13.03890625 0.51871094 -13.8278125 0.59992188 -14.640625 0.68359375 C-16.82364639 0.97634993 -18.8773182 1.42064419 -21 2 C-20 -1 -20 -1 -17.9375 -2.1875 C-11.19532456 -4.05235704 -6.10865567 -3.34247197 0 0 Z " fill="#D6658F" transform="translate(260,207)"/>
<path d="M0 0 C2.475 0.495 2.475 0.495 5 1 C7.11148826 5.96820766 7.43188764 9.85543228 6 15 C2.88888889 20.7037037 2.88888889 20.7037037 -1 22 C-0.67 21.01 -0.34 20.02 0 19 C-0.33 18.34 -0.66 17.68 -1 17 C-3.45557672 16.68368041 -3.45557672 16.68368041 -6.3125 16.625 C-11.65679272 16.21550225 -11.65679272 16.21550225 -14.6875 14.3125 C-16.43000514 11.24237189 -16.57964612 9.47787674 -16 6 C-14.5625 3.625 -14.5625 3.625 -12 2 C-8.21729794 1.52296297 -4.45946571 1.27026714 -1 3 C-0.67 2.01 -0.34 1.02 0 0 Z " fill="#D56690" transform="translate(218,220)"/>
<path d="M0 0 C3.69186542 2.59216083 4.82883761 4.04149064 5.625 8.5 C4.85210991 12.82818451 3.33130443 14.23745486 0 17 C-0.33 17.33 -0.66 17.66 -1 18 C-4.85303968 18.43784542 -6.54122122 18.30585252 -9.8125 16.125 C-12.8728011 13.15213608 -12.97111756 12.45489837 -13.25 8.0625 C-13.20226923 4.29858791 -13.20226923 4.29858791 -11.6875 2.0625 C-7.88342079 -0.33266098 -4.37830816 -0.45292843 0 0 Z " fill="#FAC6DB" transform="translate(254,214)"/>
<path d="M0 0 C3 2 3 2 3.9375 5.375 C4 9 4 9 2.4375 11.4375 C-0.67639606 13.43358722 -2.35995978 13.5308392 -6 13 C-8.375 11.9375 -8.375 11.9375 -10 10 C-10.43060657 6.55514741 -10.63335287 4.15493758 -8.9375 1.0625 C-5.91362524 -0.5957539 -3.37613017 -0.30144019 0 0 Z " fill="#FBC3D9" transform="translate(294,223)"/>
<path d="M0 0 C0.99 0.66 1.98 1.32 3 2 C3.65158371 8.84162896 3.65158371 8.84162896 1.875 12 C-0.94519875 13.504106 -2.85610056 13.44912849 -6 13 C-8.375 11.375 -8.375 11.375 -10 9 C-10.45319325 5.82764724 -10.52990283 3.93512264 -8.9375 1.125 C-5.92517484 -0.62409203 -3.40497373 -0.30401551 0 0 Z " fill="#FBC5DB" transform="translate(212,223)"/>
<path d="M0 0 C2.9375 2.6875 2.9375 2.6875 5 5 C4.67 5.66 4.34 6.32 4 7 C3.34 5.68 2.68 4.36 2 3 C1.01 3.33 0.02 3.66 -1 4 C-1 3.34 -1 2.68 -1 2 C-1.66 2 -2.32 2 -3 2 C-2.67 2.99 -2.34 3.98 -2 5 C-4.1754149 7.1754149 -5.10151337 7.95945457 -8.1640625 8.09765625 C-9.38222656 8.08025391 -9.38222656 8.08025391 -10.625 8.0625 C-11.85089844 8.04896484 -11.85089844 8.04896484 -13.1015625 8.03515625 C-14.04128906 8.01775391 -14.04128906 8.01775391 -15 8 C-13.1875 6 -13.1875 6 -11 4 C-10.01 4 -9.02 4 -8 4 C-8 2.68 -8 1.36 -8 0 C-9.41702513 0.14230808 -10.8336096 0.28900746 -12.25 0.4375 C-13.03890625 0.51871094 -13.8278125 0.59992188 -14.640625 0.68359375 C-16.82364639 0.97634993 -18.8773182 1.42064419 -21 2 C-20 -1 -20 -1 -17.9375 -2.1875 C-11.19532456 -4.05235704 -6.10865567 -3.34247197 0 0 Z " fill="#D76C94" transform="translate(260,207)"/>
<path d="M0 0 C0.66 0.33 1.32 0.66 2 1 C0.86349426 4.40951722 -0.25813125 5.37636276 -2.9375 7.6875 C-4.00291016 8.62142578 -4.00291016 8.62142578 -5.08984375 9.57421875 C-7 11 -7 11 -9 11 C-9 11.66 -9 12.32 -9 13 C-11.5 14.5 -11.5 14.5 -14 16 C-15.70993434 17.6222454 -17.37347684 19.29413425 -19 21 C-20.10155327 22.1067739 -21.20573836 23.21093442 -22.3125 24.3125 C-23.199375 25.199375 -24.08625 26.08625 -25 27 C-25.66 26.67 -26.32 26.34 -27 26 C-19.99667962 17.80462509 -12.77958256 10.66887926 -4.35546875 3.91796875 C-1.99243296 2.06032914 -1.99243296 2.06032914 0 0 Z " fill="#EEA9C3" transform="translate(127,91)"/>
<path d="M0 0 C1.46184058 0.22860058 2.91955419 0.48370392 4.375 0.75 C5.59316406 0.95882813 5.59316406 0.95882813 6.8359375 1.171875 C9 2 9 2 10.13671875 3.921875 C10.42160156 4.60765625 10.70648438 5.2934375 11 6 C12.6454378 7.68762851 14.31288577 9.3540349 16 11 C17.02813611 12.31175986 18.04084432 13.6369893 19 15 C18.67 15.66 18.34 16.32 18 17 C17.3709375 16.43152344 16.741875 15.86304688 16.09375 15.27734375 C11.24116978 10.89979021 6.36889385 6.55605167 1.3984375 2.3125 C0.93695313 1.879375 0.47546875 1.44625 0 1 C0 0.67 0 0.34 0 0 Z " fill="#F2A8C4" transform="translate(108,391)"/>
<path d="M0 0 C1.2463623 0.01047363 2.49272461 0.02094727 3.77685547 0.03173828 C4.77143265 0.03598312 4.77143265 0.03598312 5.78610229 0.04031372 C7.9055988 0.05151643 10.02467401 0.07662027 12.14404297 0.10205078 C13.58023479 0.11208051 15.01643322 0.12120637 16.45263672 0.12939453 C19.97490925 0.15145578 23.496935 0.18598585 27.01904297 0.22705078 C27.01904297 0.55705078 27.01904297 0.88705078 27.01904297 1.22705078 C26.46031494 1.2416333 25.90158691 1.25621582 25.32592773 1.27124023 C22.74384245 1.34665876 20.16292113 1.44299959 17.58154297 1.53955078 C16.26379883 1.57338867 16.26379883 1.57338867 14.91943359 1.60791016 C8.99103725 1.84854617 3.41093979 2.59517143 -1.98095703 5.22705078 C-2.31095703 5.88705078 -2.64095703 6.54705078 -2.98095703 7.22705078 C-3.64095703 7.22705078 -4.30095703 7.22705078 -4.98095703 7.22705078 C-5.10595703 4.85205078 -5.10595703 4.85205078 -4.98095703 2.22705078 C-2.98095703 0.22705078 -2.98095703 0.22705078 0 0 Z " fill="#D57498" transform="translate(184.98095703125,310.77294921875)"/>
<path d="M0 0 C1.23895775 -0.0049926 1.23895775 -0.0049926 2.50294495 -0.01008606 C4.22974089 -0.01510608 5.95654637 -0.01749593 7.68334961 -0.01733398 C10.33397905 -0.01954591 12.98420819 -0.03782154 15.63476562 -0.05664062 C17.319009 -0.05957047 19.00325434 -0.061558 20.6875 -0.0625 C21.48014755 -0.06968552 22.2727951 -0.07687103 23.08946228 -0.08427429 C28.65004776 -0.06088974 28.65004776 -0.06088974 30.87890625 2.16796875 C28.60657446 2.92541268 27.17255109 3.23424432 24.81176758 2.70141602 C20.74202691 1.96118598 16.76818661 2.04522429 12.640625 2.0703125 C11.75985794 2.07172745 10.87909088 2.0731424 9.97163391 2.07460022 C7.16985622 2.08017938 4.36815963 2.09272804 1.56640625 2.10546875 C-0.33788947 2.11048644 -2.24218644 2.11504888 -4.14648438 2.11914062 C-8.80471856 2.13014198 -13.46289242 2.14739226 -18.12109375 2.16796875 C-18.12109375 1.83796875 -18.12109375 1.50796875 -18.12109375 1.16796875 C-12.04558981 0.41121995 -6.11924398 0.00874737 0 0 Z " fill="#EAAAC2" transform="translate(240.12109375,49.83203125)"/>
<path d="M0 0 C0 3.58518478 -0.71425965 4.18618696 -2.9375 6.875 C-5.40284914 10.00122361 -6.30666386 12.07109518 -7 16 C-8.9375 17.0625 -8.9375 17.0625 -11 18 C-11.495 19.0209375 -11.495 19.0209375 -12 20.0625 C-13 22 -13 22 -15.125 22.75 C-16.053125 22.87375 -16.053125 22.87375 -17 23 C-14.19695412 17.82565701 -11.05693779 13.27023273 -7.375 8.6875 C-6.64023438 7.7584082 -6.64023438 7.7584082 -5.890625 6.81054688 C-4.00740042 4.44107988 -2.14190112 2.14190112 0 0 Z " fill="#F2A8C4" transform="translate(99,118)"/>
<path d="M0 0 C2.31 0.33 4.62 0.66 7 1 C6.43174347 6.54050113 4.37113483 11.03715966 2 16 C0.68 15.67 -0.64 15.34 -2 15 C-1.01 15 -0.02 15 1 15 C1.86188669 11.55245322 2.02523094 9.38326212 1 6 C0.65421232 4.00211562 0.31856451 2.00240549 0 0 Z " fill="#F8A7C7" transform="translate(432,314)"/>
<path d="M0 0 C0.74056641 0.02707031 1.48113281 0.05414063 2.24414062 0.08203125 C4.05985998 0.15231716 5.87406801 0.25992911 7.6875 0.375 C7.6875 0.705 7.6875 1.035 7.6875 1.375 C6.89085937 1.40078125 6.09421875 1.4265625 5.2734375 1.453125 C-1.73684574 1.8283713 -6.23622095 2.29872095 -11.3125 7.375 C-11.46905027 8.86138992 -11.56316943 10.35449127 -11.62890625 11.84765625 C-11.67080078 12.74677734 -11.71269531 13.64589844 -11.75585938 14.57226562 C-11.79517578 15.51779297 -11.83449219 16.46332031 -11.875 17.4375 C-11.91818359 18.38689453 -11.96136719 19.33628906 -12.00585938 20.31445312 C-12.11229276 22.66781353 -12.21431008 25.02128354 -12.3125 27.375 C-12.6425 27.375 -12.9725 27.375 -13.3125 27.375 C-13.45861313 24.00046102 -13.54683467 20.62674234 -13.625 17.25 C-13.6878418 15.82300781 -13.6878418 15.82300781 -13.75195312 14.3671875 C-13.82773747 10.0020092 -13.88391502 6.38785917 -11.3125 2.71875 C-7.3618124 -0.36772469 -4.85107468 -0.33814462 0 0 Z " fill="#FCB6D2" transform="translate(290.3125,249.625)"/>
<path d="M0 0 C0.66 0 1.32 0 2 0 C4.125 7.625 4.125 7.625 3 11 C3.31436775 13.75853417 3.31436775 13.75853417 3.9375 16.6875 C4.13214844 17.68136719 4.32679687 18.67523438 4.52734375 19.69921875 C4.68332031 20.45847656 4.83929688 21.21773438 5 22 C5.33 22 5.66 22 6 22 C6 23.98 6 25.96 6 28 C5.34 27.67 4.68 27.34 4 27 C3.40576172 25.05395508 3.40576172 25.05395508 2.9296875 22.51953125 C2.75566406 21.60236328 2.58164062 20.68519531 2.40234375 19.74023438 C2.14130859 18.29100586 2.14130859 18.29100586 1.875 16.8125 C1.69324219 15.86568359 1.51148438 14.91886719 1.32421875 13.94335938 C0.45120781 9.2402591 -0.2423367 4.80634463 0 0 Z " fill="#F0A9C4" transform="translate(51,271)"/>
<path d="M0 0 C0 0.99 0 1.98 0 3 C-0.99 3.495 -0.99 3.495 -2 4 C-1.6695166 4.69762451 -1.3390332 5.39524902 -0.99853516 6.11401367 C0.13289561 9.38409755 0.14634394 11.72921799 -0.0234375 15.17578125 C-0.075 16.33271484 -0.1265625 17.48964844 -0.1796875 18.68164062 C-0.24414062 19.87982422 -0.30859375 21.07800781 -0.375 22.3125 C-0.43171875 23.53001953 -0.4884375 24.74753906 -0.546875 26.00195312 C-0.68805001 29.00192202 -0.8394365 32.0010166 -1 35 C-1.33 35 -1.66 35 -2 35 C-2.01981934 34.23856689 -2.03963867 33.47713379 -2.06005859 32.69262695 C-2.15549922 29.23224528 -2.26510212 25.77245145 -2.375 22.3125 C-2.4059375 21.11431641 -2.436875 19.91613281 -2.46875 18.68164062 C-2.50742187 17.52470703 -2.54609375 16.36777344 -2.5859375 15.17578125 C-2.6173584 14.11270752 -2.6487793 13.04963379 -2.68115234 11.9543457 C-3.15471708 7.56643849 -4.56589441 4.65115839 -7 1 C-2.25 0 -2.25 0 0 0 Z " fill="#CF6B91" transform="translate(270,247)"/>
<path d="M0 0 C0.66 1.32 1.32 2.64 2 4 C-5.81426716 6.02093116 -12.91385028 7.16172299 -21 7 C-17.57905758 4.71937172 -16.31812778 4.78074993 -12.3125 4.875 C-10.82169922 4.90207031 -10.82169922 4.90207031 -9.30078125 4.9296875 C-8.54152344 4.95289063 -7.78226562 4.97609375 -7 5 C-7 4.34 -7 3.68 -7 3 C-3.535 2.505 -3.535 2.505 0 2 C0 1.34 0 0.68 0 0 Z " fill="#ECA8C3" transform="translate(289,442)"/>
<path d="M0 0 C0.33 0 0.66 0 1 0 C0.55883637 9.79847636 -0.08566713 19.35399262 -2 29 C-2.33 28.01 -2.66 27.02 -3 26 C-3.66 26 -4.32 26 -5 26 C-5 25.01 -5 24.02 -5 23 C-4.01 23 -3.02 23 -2 23 C-2.02320313 22.09378906 -2.04640625 21.18757813 -2.0703125 20.25390625 C-2.17573291 13.13802862 -1.89402262 6.86583201 0 0 Z " fill="#E8A7C1" transform="translate(449,260)"/>
<path d="M0 0 C0.66 0 1.32 0 2 0 C3.61092122 5.23549397 2.34754535 8.06924133 0.05859375 12.7421875 C-1.35853339 15.76469484 -2.17560501 18.7711196 -3 22 C-3.66 22 -4.32 22 -5 22 C-4.10228303 17.4374855 -3.11544005 13.07223028 -1.375 8.75 C-0.16511517 5.4503141 0.32244315 3.43939362 0 0 Z " fill="#D8759B" transform="translate(378,277)"/>
<path d="M0 0 C0.66 0.33 1.32 0.66 2 1 C1.34 3.31 0.68 5.62 0 8 C0.66 8.33 1.32 8.66 2 9 C0.7934375 9.3403125 0.7934375 9.3403125 -0.4375 9.6875 C-1.283125 10.120625 -2.12875 10.55375 -3 11 C-3.67147918 13.44063441 -3.67147918 13.44063441 -4 16 C-5.5234375 17.66015625 -5.5234375 17.66015625 -7 19 C-5.17778624 12.38757278 -2.94776396 6.19479329 0 0 Z " fill="#EEA9C4" transform="translate(68,165)"/>
<path d="M0 0 C0.99 0.66 1.98 1.32 3 2 C3.40843923 4.71203652 3.13336867 7.2437142 3 10 C2.67 10 2.34 10 2 10 C2 7.69 2 5.38 2 3 C-0.80045046 2.14349347 -0.80045046 2.14349347 -4 2 C-6.67612341 4.08142932 -8.11445225 6.17167838 -10 9 C-10.35789474 3.63157895 -10.35789474 3.63157895 -8.9375 1.125 C-5.92517484 -0.62409203 -3.40497373 -0.30401551 0 0 Z " fill="#FAB7D3" transform="translate(212,223)"/>
<path d="M0 0 C0.33 0.66 0.66 1.32 1 2 C0.175 2.433125 -0.65 2.86625 -1.5 3.3125 C-2.325 3.869375 -3.15 4.42625 -4 5 C-4 5.99 -4 6.98 -4 8 C-4 8.66 -4 9.32 -4 10 C-5.65 10.33 -7.3 10.66 -9 11 C-9.66 9.35 -10.32 7.7 -11 6 C-7.37 4.02 -3.74 2.04 0 0 Z " fill="#F1A6C4" transform="translate(163,69)"/>
<path d="M0 0 C0.66 0.66 1.32 1.32 2 2 C1.67 2.33 1.34 2.66 1 3 C3.62198774 5.15377564 5.64404172 6.40072174 9 7 C9 7.66 9 8.32 9 9 C4.16371695 8.00956295 -0.47618873 7.04301154 -5 5 C-5 4.01 -5 3.02 -5 2 C-3.35 2 -1.7 2 0 2 C0 1.34 0 0.68 0 0 Z " fill="#F2A5C4" transform="translate(182,432)"/>
<path d="M0 0 C0.33 0.66 0.66 1.32 1 2 C1.66 2 2.32 2 3 2 C3.33 1.34 3.66 0.68 4 0 C4 1.98 4 3.96 4 6 C4.99 6.33 5.98 6.66 7 7 C4 8 4 8 1.95703125 7.22265625 C1.24933594 6.83980469 0.54164063 6.45695312 -0.1875 6.0625 C-0.90292969 5.68222656 -1.61835938 5.30195313 -2.35546875 4.91015625 C-2.89816406 4.60980469 -3.44085938 4.30945313 -4 4 C-3.67 3.01 -3.34 2.02 -3 1 C-2.01 0.67 -1.02 0.34 0 0 Z " fill="#F0A8C4" transform="translate(163,425)"/>
<path d="M0 0 C2.69082872 0.17635452 5.32851446 0.61835921 8 1 C8.33 1.99 8.66 2.98 9 4 C7.02 5.32 5.04 6.64 3 8 C2.01 7.01 1.02 6.02 0 5 C0.33 4.34 0.66 3.68 1 3 C0.34 2.34 -0.32 1.68 -1 1 C-0.67 0.67 -0.34 0.34 0 0 Z " fill="#F6A6C6" transform="translate(370,400)"/>
<path d="M0 0 C1.48280196 0.78483659 2.9611498 1.57809334 4.4375 2.375 C5.67306641 3.03628906 5.67306641 3.03628906 6.93359375 3.7109375 C9 5 9 5 10 7 C9.01 7.33 8.02 7.66 7 8 C6.34 8.66 5.68 9.32 5 10 C3.5 8.6875 3.5 8.6875 2 7 C2 6.01 2 5.02 2 4 C1.34 3.67 0.68 3.34 0 3 C0 2.01 0 1.02 0 0 Z " fill="#F0A6C4" transform="translate(351,77)"/>
<path d="M0 0 C0.33 0 0.66 0 1 0 C1 4.29 1 8.58 1 13 C1.66 13 2.32 13 3 13 C3.33 13.99 3.66 14.98 4 16 C7.00007271 17.70855022 7.00007271 17.70855022 10 19 C10 19.33 10 19.66 10 20 C7.8125 20.375 7.8125 20.375 5 20 C2.22035538 17.89982406 1.29063114 17.11902524 0 14 C-0.41749795 9.30314803 -0.28985303 4.70206028 0 0 Z " fill="#D47096" transform="translate(227,371)"/>
<path d="M0 0 C0.66 0 1.32 0 2 0 C2 0.66 2 1.32 2 2 C3.65 2.33 5.3 2.66 7 3 C7.1875 5.875 7.1875 5.875 7 9 C6.01 9.66 5.02 10.32 4 11 C3.32880451 9.5437455 2.66318193 8.08492133 2 6.625 C1.62875 5.81289063 1.2575 5.00078125 0.875 4.1640625 C0 2 0 2 0 0 Z " fill="#F0A8C3" transform="translate(64,324)"/>
<path d="M0 0 C0.74362793 0.01047363 1.48725586 0.02094727 2.25341797 0.03173828 C3.46191406 0.04140625 3.46191406 0.04140625 4.69482422 0.05126953 C5.95746094 0.07640625 5.95746094 0.07640625 7.24560547 0.10205078 C8.51984375 0.11558594 8.51984375 0.11558594 9.81982422 0.12939453 C11.9202043 0.15299431 14.02043991 0.18886595 16.12060547 0.22705078 C16.12060547 0.88705078 16.12060547 1.54705078 16.12060547 2.22705078 C17.11060547 2.55705078 18.10060547 2.88705078 19.12060547 3.22705078 C17.80060547 3.55705078 16.48060547 3.88705078 15.12060547 4.22705078 C14.79060547 3.23705078 14.46060547 2.24705078 14.12060547 1.22705078 C11.7222063 1.28738787 9.32976696 1.37449596 6.93310547 1.47705078 C5.92280273 1.49832031 5.92280273 1.49832031 4.89208984 1.52001953 C0.06366978 1.75555222 -2.42651879 2.87474424 -5.87939453 6.22705078 C-3.15109057 0.38068514 -3.15109057 0.38068514 0 0 Z " fill="#FAB2CF" transform="translate(201.87939453125,249.77294921875)"/>
<path d="M0 0 C2.64 0.66 5.28 1.32 8 2 C7.01 2.495 7.01 2.495 6 3 C5.67 3.99 5.34 4.98 5 6 C1 6 1 6 -1 5 C-0.67 3.35 -0.34 1.7 0 0 Z " fill="#F3A7C4" transform="translate(304,57)"/>
<path d="M0 0 C-1.39195915 2.7839183 -3.15575779 2.97898997 -6 4 C-5.67 6.64 -5.34 9.28 -5 12 C-5.66 11.67 -6.32 11.34 -7 11 C-7.6328125 8.93359375 -7.6328125 8.93359375 -8.125 6.4375 C-8.29257812 5.61121094 -8.46015625 4.78492188 -8.6328125 3.93359375 C-8.75398438 3.29550781 -8.87515625 2.65742188 -9 2 C-5.62902617 0.50178941 -3.79557881 0 0 0 Z " fill="#D57197" transform="translate(311,157)"/>
<path d="M0 0 C2.48627517 3.0622744 4.09989404 6.1457054 5.6875 9.75 C6.12449219 10.73484375 6.56148438 11.7196875 7.01171875 12.734375 C7.33785156 13.48203125 7.66398437 14.2296875 8 15 C6.68 15.33 5.36 15.66 4 16 C3.29925156 12.846632 3 10.27275026 3 7 C2.34 7 1.68 7 1 7 C0.67 4.69 0.34 2.38 0 0 Z " fill="#ECAAC5" transform="translate(424,151)"/>
<path d="M0 0 C0.66 0 1.32 0 2 0 C1.58682778 4.82034262 -0.38019915 6.90992611 -4 10 C-4.66 10 -5.32 10 -6 10 C-6 11.65 -6 13.3 -6 15 C-6.33 15 -6.66 15 -7 15 C-7.612002 11.59027458 -7.34004216 9.54888695 -5.51171875 6.59765625 C-3.75190844 4.29132099 -2.03347666 2.07028166 0 0 Z " fill="#D9779D" transform="translate(337,152)"/>
<path d="M0 0 C0.33 0.66 0.66 1.32 1 2 C0.25234375 2.13277344 -0.4953125 2.26554688 -1.265625 2.40234375 C-2.74289063 2.66724609 -2.74289063 2.66724609 -4.25 2.9375 C-5.22453125 3.11152344 -6.1990625 3.28554687 -7.203125 3.46484375 C-9.49721795 3.90379729 -11.74291971 4.40348592 -14 5 C-13 2 -13 2 -10.9375 0.8125 C-7.14524878 -0.23642055 -3.92937998 -0.13319932 0 0 Z " fill="#D47599" transform="translate(253,204)"/>
<path d="M0 0 C0.66 0.99 1.32 1.98 2 3 C-1.63 5.31 -5.26 7.62 -9 10 C-9.33 9.34 -9.66 8.68 -10 8 C-3.75 1.75 -3.75 1.75 0 0 Z " fill="#ECA8C3" transform="translate(368,408)"/>
<path d="M0 0 C0.99 0.33 1.98 0.66 3 1 C2.34 1 1.68 1 1 1 C0.731875 1.556875 0.46375 2.11375 0.1875 2.6875 C-0.204375 3.450625 -0.59625 4.21375 -1 5 C-1.6496875 6.2684375 -1.6496875 6.2684375 -2.3125 7.5625 C-4.22464808 10.32449168 -6.03878024 11.47937364 -9 13 C-9.33 12.34 -9.66 11.68 -10 11 C-9.278125 10.29875 -8.55625 9.5975 -7.8125 8.875 C-5.00176187 6.07229255 -2.50483774 3.07737208 0 0 Z " fill="#F9AACA" transform="translate(315,136)"/>
<path d="M0 0 C1.4589426 0.47730838 2.91713496 0.95691042 4.375 1.4375 C5.18710937 1.70433594 5.99921875 1.97117187 6.8359375 2.24609375 C9 3 9 3 11 4 C10.67 5.32 10.34 6.64 10 8 C8.68 7.01 7.36 6.02 6 5 C5.01 5.495 5.01 5.495 4 6 C1.2160817 4.60804085 1.02101003 2.84424221 0 0 Z " fill="#F1A8C5" transform="translate(324,64)"/>
<path d="M0 0 C1.49341969 2.98683937 0.40648676 4.95160978 -0.4375 8.125 C-0.72496094 9.22070312 -1.01242187 10.31640625 -1.30859375 11.4453125 C-1.53675781 12.28835938 -1.76492188 13.13140625 -2 14 C-2.66 14 -3.32 14 -4 14 C-4.19622241 9.78121808 -3.80230168 6.82989106 -2 3 C-2.99 2.67 -3.98 2.34 -5 2 C-3.35 1.34 -1.7 0.68 0 0 Z " fill="#ECA7C3" transform="translate(445,292)"/>
<path d="M0 0 C-5.61 1.32 -11.22 2.64 -17 4 C-12.44105678 -0.55894322 -5.83881835 -3.89254557 0 0 Z " fill="#ECA8C3" transform="translate(309,442)"/>
<path d="M0 0 C0.33 0 0.66 0 1 0 C1 1.98 1 3.96 1 6 C1.66 6 2.32 6 3 6 C3.33 7.32 3.66 8.64 4 10 C0.7 8.02 -2.6 6.04 -6 4 C-3 2 -3 2 0 2 C0 1.34 0 0.68 0 0 Z " fill="#EFA7C3" transform="translate(140,410)"/>
<path d="M0 0 C0.99 0.33 1.98 0.66 3 1 C0.92141021 3.18092036 -1.21856618 4.96390469 -3.6875 6.6875 C-4.62142578 7.34298828 -4.62142578 7.34298828 -5.57421875 8.01171875 C-6.04472656 8.33785156 -6.51523438 8.66398437 -7 9 C-7.33 8.01 -7.66 7.02 -8 6 C-6.7391988 4.96680187 -5.46596742 3.94875621 -4.1875 2.9375 C-3.47980469 2.36902344 -2.77210938 1.80054687 -2.04296875 1.21484375 C-1.36878906 0.81394531 -0.69460937 0.41304688 0 0 Z " fill="#EEA7C2" transform="translate(137,84)"/>
<path d="M0 0 C0 0.66 0 1.32 0 2 C-0.60328125 2.10957031 -1.2065625 2.21914063 -1.828125 2.33203125 C-7.93684987 3.50797128 -7.93684987 3.50797128 -13 7 C-9.87303606 0.02446506 -7.37889653 -0.36289655 0 0 Z " fill="#D77298" transform="translate(362,300)"/>
<path d="M0 0 C2.475 0.99 2.475 0.99 5 2 C5 3.65 5 5.3 5 7 C3.35 6.67 1.7 6.34 0 6 C-0.38218767 4.34385343 -0.71395102 2.67542976 -1 1 C-0.67 0.67 -0.34 0.34 0 0 Z " fill="#F7CEDE" transform="translate(246,224)"/>
<path d="M0 0 C0.33 0.66 0.66 1.32 1 2 C1.66 2.33 2.32 2.66 3 3 C-1.95 5.475 -1.95 5.475 -7 8 C-4.9957983 3.9915966 -3.50944037 2.58590343 0 0 Z " fill="#EFA6C3" transform="translate(354,417)"/>
<path d="M0 0 C0.66 0.33 1.32 0.66 2 1 C0.68 3.64 -0.64 6.28 -2 9 C-2.33 8.34 -2.66 7.68 -3 7 C-3.99 6.67 -4.98 6.34 -6 6 C-2.25 1.125 -2.25 1.125 0 0 Z " fill="#F1A6C4" transform="translate(430,334)"/>
<path d="M0 0 C0.99 0.33 1.98 0.66 3 1 C4.203125 3.43359375 4.203125 3.43359375 5.25 6.4375 C5.60578125 7.42621094 5.9615625 8.41492188 6.328125 9.43359375 C7 12 7 12 6 14 C3.02449969 10.9315153 2.03525487 9.53763669 1.75 5.1875 C1.8325 4.135625 1.915 3.08375 2 2 C1.34 2 0.68 2 0 2 C0 1.34 0 0.68 0 0 Z " fill="#EEA7C4" transform="translate(433,173)"/>
<path d="M0 0 C0.66 0.33 1.32 0.66 2 1 C1.16855469 1.63615234 1.16855469 1.63615234 0.3203125 2.28515625 C-4.55282788 6.23049232 -6.98093613 8.75823379 -8 15 C-8.33 15 -8.66 15 -9 15 C-9.42653727 10.64931982 -9.57772872 8.70611288 -6.75 5.25 C-4.53533025 3.43799748 -2.33998236 1.64665425 0 0 Z " fill="#D87299" transform="translate(161,139)"/>
<path d="M0 0 C0.80566406 0.00322266 1.61132812 0.00644531 2.44140625 0.00976562 C3.70404297 0.02233398 3.70404297 0.02233398 4.9921875 0.03515625 C5.84167969 0.03966797 6.69117188 0.04417969 7.56640625 0.04882812 C9.66669659 0.06062751 11.7669508 0.07856319 13.8671875 0.09765625 C13.8671875 0.42765625 13.8671875 0.75765625 13.8671875 1.09765625 C12.32998047 1.17113281 12.32998047 1.17113281 10.76171875 1.24609375 C9.4010169 1.32116696 8.04034106 1.3967128 6.6796875 1.47265625 C6.00615234 1.50359375 5.33261719 1.53453125 4.63867188 1.56640625 C0.67039775 1.79869547 -2.54011129 2.38153101 -6.1328125 4.09765625 C-6.1328125 3.10765625 -6.1328125 2.11765625 -6.1328125 1.09765625 C-3.8362755 -0.05061225 -2.54968083 -0.0179555 0 0 Z " fill="#CF6D91" transform="translate(243.1328125,243.90234375)"/>
<path d="M0 0 C0.66 0.33 1.32 0.66 2 1 C1.67 1.99 1.34 2.98 1 4 C0.34 4 -0.32 4 -1 4 C-1.66 7.96 -2.32 11.92 -3 16 C-3.33 16 -3.66 16 -4 16 C-4.55528005 5.40854726 -4.55528005 5.40854726 -1 1 C-0.67 0.67 -0.34 0.34 0 0 Z " fill="#D6769B" transform="translate(367,226)"/>
<path d="M0 0 C3.3 1.65 6.6 3.3 10 5 C9.34 5.66 8.68 6.32 8 7 C7.01 6.34 6.02 5.68 5 5 C4.34 5.66 3.68 6.32 3 7 C0 2.25 0 2.25 0 0 Z " fill="#EEA9C4" transform="translate(338,70)"/>
<path d="M0 0 C3.96 0.33 7.92 0.66 12 1 C12 2.65 12 4.3 12 6 C7.96479403 4.41037341 3.98188718 2.71767682 0 1 C0 0.67 0 0.34 0 0 Z " fill="#D67197" transform="translate(284,170)"/>
<path d="M0 0 C1.9375 0.8125 1.9375 0.8125 4 2 C4.33 2.99 4.66 3.98 5 5 C4.34 5 3.68 5 3 5 C2.67 4.34 2.34 3.68 2 3 C-1.65316671 4.24976756 -2.78065836 4.67098753 -5 8 C-5.99 7.67 -6.98 7.34 -8 7 C-5.42215154 4.35247996 -3.08351902 2.05567935 0 0 Z " fill="#F9A5C7" transform="translate(182,135)"/>
<path d="M0 0 C0 0.33 0 0.66 0 1 C-1.546875 1.4021875 -1.546875 1.4021875 -3.125 1.8125 C-5.78867631 2.55811325 -7.79855455 3.40681081 -10.3125 4.6875 C-11.199375 5.120625 -12.08625 5.55375 -13 6 C-13.66 5.67 -14.32 5.34 -15 5 C-9.67113839 0.55928199 -6.92088947 -0.60709557 0 0 Z " fill="#DB7EA1" transform="translate(294,213)"/>
<path d="M0 0 C0.99 0.33 1.98 0.66 3 1 C3 3.64 3 6.28 3 9 C2.01 8.67 1.02 8.34 0 8 C0 7.01 0 6.02 0 5 C-0.66 5 -1.32 5 -2 5 C-2 4.34 -2 3.68 -2 3 C-1.34 3 -0.68 3 0 3 C0 2.01 0 1.02 0 0 Z " fill="#FBA4C6" transform="translate(442,206)"/>
<path d="M0 0 C0 0.99 0 1.98 0 3 C-1.4117783 3.53394179 -2.82970244 4.05165104 -4.25 4.5625 C-5.03890625 4.85253906 -5.8278125 5.14257812 -6.640625 5.44140625 C-9 6 -9 6 -13 5 C-8.71 3.35 -4.42 1.7 0 0 Z " fill="#D5749A" transform="translate(234,133)"/>
<path d="M0 0 C0.99 0.33 1.98 0.66 3 1 C1.02 3.97 1.02 3.97 -1 7 C-1.99 6.34 -2.98 5.68 -4 5 C-3 2 -3 2 0 0 Z " fill="#EAA9C3" transform="translate(412,363)"/>
<path d="M0 0 C1 2 1 2 1 6 C-0.44286917 8.24675342 -2.19379986 10.01317985 -4 12 C-4.66 11.67 -5.32 11.34 -6 11 C-4.02 7.37 -2.04 3.74 0 0 Z " fill="#EDA8C3" transform="translate(75,152)"/>
<path d="M0 0 C2.4375 0.9375 2.4375 0.9375 5 3 C5.7524935 5.98877701 5.92909865 8.92545953 6 12 C5.71382813 11.39285156 5.42765625 10.78570312 5.1328125 10.16015625 C4.00182488 7.82156571 4.00182488 7.82156571 1.875 5.4375 C0 3 0 3 0 0 Z " fill="#D26F95" transform="translate(342,142)"/>
<path d="M0 0 C-0.33 0.99 -0.66 1.98 -1 3 C-1.66 3 -2.32 3 -3 3 C-4.63676257 4.9600281 -4.63676257 4.9600281 -6 7 C-6 6.34 -6 5.68 -6 5 C-7.65 5 -9.3 5 -11 5 C-8.12934225 2.12934225 -4.13678472 0 0 0 Z " fill="#EDA6C3" transform="translate(176,64)"/>
<path d="M0 0 C0.33 0.99 0.66 1.98 1 3 C-3.455 4.485 -3.455 4.485 -8 6 C-4 0 -4 0 0 0 Z " fill="#F0A6C3" transform="translate(336,428)"/>
<path d="M0 0 C0.99 0.33 1.98 0.66 3 1 C3 1.66 3 2.32 3 3 C3.66 3 4.32 3 5 3 C5.66 4.65 6.32 6.3 7 8 C6.01 8.33 5.02 8.66 4 9 C2.68 6.03 1.36 3.06 0 0 Z " fill="#EFA9C6" transform="translate(69,336)"/>
<path d="M0 0 C0 3 0 3 -1 5 C-1.66 5 -2.32 5 -3 5 C-3 5.66 -3 6.32 -3 7 C-5 8.625 -5 8.625 -7 10 C-7.66 9.67 -8.32 9.34 -9 9 C-8.06725891 7.87105124 -7.12859878 6.74699124 -6.1875 5.625 C-5.66542969 4.99851563 -5.14335937 4.37203125 -4.60546875 3.7265625 C-3 2 -3 2 0 0 Z " fill="#FBB4CF" transform="translate(191,186)"/>
<path d="M0 0 C3.14737182 0.69941596 6.02588876 1.76078698 9 3 C9 3.33 9 3.66 9 4 C2.25 3.125 2.25 3.125 0 2 C0 1.34 0 0.68 0 0 Z M8 0 C8.99 0.495 8.99 0.495 10 1 C9.01 1.495 9.01 1.495 8 2 C8 1.34 8 0.68 8 0 Z " fill="#D67197" transform="translate(265,134)"/>
<path d="M0 0 C0.33 0.66 0.66 1.32 1 2 C0.22265625 4.1640625 0.22265625 4.1640625 -0.9375 6.625 C-1.31777344 7.44226563 -1.69804687 8.25953125 -2.08984375 9.1015625 C-2.54037109 10.04128906 -2.54037109 10.04128906 -3 11 C-4.32 10.67 -5.64 10.34 -7 10 C-6.01 10 -5.02 10 -4 10 C-2.99782936 6.41672247 -2.99782936 6.41672247 -4 3 C-2.68 2.01 -1.36 1.02 0 0 Z " fill="#ECA5C1" transform="translate(437,319)"/>
<path d="M0 0 C0 0.99 0 1.98 0 3 C-0.99 3.495 -0.99 3.495 -2 4 C-2 5.65 -2 7.3 -2 9 C-2.268125 8.4225 -2.53625 7.845 -2.8125 7.25 C-4.01719859 4.9674132 -5.40798115 3.0262058 -7 1 C-2.25 0 -2.25 0 0 0 Z " fill="#D57197" transform="translate(270,247)"/>
<path d="M0 0 C2 4 2 4 2 8 C1.38655243 9.68698082 0.72904086 11.35965807 0 13 C-0.33 13 -0.66 13 -1 13 C-0.67 8.71 -0.34 4.42 0 0 Z " fill="#EDA6C1" transform="translate(52,216)"/>
<path d="M0 0 C0.66 0 1.32 0 2 0 C2.33 2.31 2.66 4.62 3 7 C2.01 7.33 1.02 7.66 0 8 C0 7.34 0 6.68 0 6 C-0.66 5.67 -1.32 5.34 -2 5 C-1.34 3.35 -0.68 1.7 0 0 Z " fill="#FCA4C8" transform="translate(76,152)"/>
<path d="M0 0 C0 3 0 3 -2.375 5.625 C-5 8 -5 8 -7 9 C-7.66 8.34 -8.32 7.68 -9 7 C-6.03 4.69 -3.06 2.38 0 0 Z " fill="#D87198" transform="translate(333,352)"/>
<path d="M0 0 C0.66 0.33 1.32 0.66 2 1 C1 4 1 4 -2 6 C-4.6875 6.125 -4.6875 6.125 -7 6 C-6.21625 5.38125 -5.4325 4.7625 -4.625 4.125 C-2.03162353 2.10141339 -2.03162353 2.10141339 0 0 Z " fill="#D06B92" transform="translate(378,306)"/>
<path d="M0 0 C1.47906892 -0.02689216 2.95827483 -0.04634621 4.4375 -0.0625 C5.26121094 -0.07410156 6.08492187 -0.08570313 6.93359375 -0.09765625 C9 0 9 0 10 1 C10.14115161 3.67058851 10.04247107 6.32432238 10 9 C9.67 9 9.34 9 9 9 C8.67 7.02 8.34 5.04 8 3 C5.36 2.34 2.72 1.68 0 1 C0 0.67 0 0.34 0 0 Z " fill="#DA7BA0" transform="translate(206,222)"/>
<path d="M0 0 C1.88391785 3.26545761 2.49287967 6.28111761 3 10 C1.68 10.33 0.36 10.66 -1 11 C-0.67 10.01 -0.34 9.02 0 8 C-0.165 7.360625 -0.33 6.72125 -0.5 6.0625 C-1.07702481 3.68227266 -0.74022853 2.30293321 0 0 Z " fill="#EEA8C4" transform="translate(442,194)"/>
<path d="M0 0 C0.66 0 1.32 0 2 0 C1.75 2.375 1.75 2.375 1 5 C-1.0625 6.3125 -1.0625 6.3125 -3 7 C-3 3.47967572 -2.29648649 2.5614657 0 0 Z " fill="#FCA6C7" transform="translate(100,118)"/>
<path d="M0 0 C0.99 0.33 1.98 0.66 3 1 C5.14255793 0.61067144 5.14255793 0.61067144 7 0 C2.25 4.875 2.25 4.875 0 6 C-0.38218767 4.34385343 -0.71395102 2.67542976 -1 1 C-0.67 0.67 -0.34 0.34 0 0 Z " fill="#EEAAC4" transform="translate(380,396)"/>
<path d="M0 0 C0.99 0.33 1.98 0.66 3 1 C4.31035007 4.17242648 5 6.55881664 5 10 C4.34 10 3.68 10 3 10 C2.01 6.7 1.02 3.4 0 0 Z " fill="#ECACC5" transform="translate(58,308)"/>
<path d="M0 0 C0 4.07746885 -1.52068051 5.83198065 -4 9 C-6.140625 9.6796875 -6.140625 9.6796875 -8 10 C-7.04367001 8.70684939 -6.08486149 7.41553147 -5.125 6.125 C-4.59132813 5.40570313 -4.05765625 4.68640625 -3.5078125 3.9453125 C-2 2 -2 2 0 0 Z " fill="#E6A8BF" transform="translate(99,118)"/>
<path d="M0 0 C0.99 0 1.98 0 3 0 C3 2.33333333 3 4.66666667 3 7 C1.35 6.01 -0.3 5.02 -2 4 C-1.34 2.68 -0.68 1.36 0 0 Z " fill="#F2ADC7" transform="translate(147,417)"/>
<path d="M0 0 C0.66 0.33 1.32 0.66 2 1 C-0.31 3.64 -2.62 6.28 -5 9 C-5.33 8.01 -5.66 7.02 -6 6 C-5.01 5.67 -4.02 5.34 -3 5 C-2.6278958 3.67696283 -2.29369827 2.34262065 -2 1 C-1.34 0.67 -0.68 0.34 0 0 Z " fill="#EBA7C1" transform="translate(400,380)"/>
<path d="M0 0 C2.6855594 2.6855594 3.06049974 5.37621328 4 9 C2.68 8.67 1.36 8.34 0 8 C0 5.36 0 2.72 0 0 Z " fill="#D36F96" transform="translate(315,171)"/>
<path d="M0 0 C1.98 0.66 3.96 1.32 6 2 C6.33 3.65 6.66 5.3 7 7 C5.83040013 6.02433888 4.66438823 5.044375 3.5 4.0625 C2.8503125 3.51722656 2.200625 2.97195313 1.53125 2.41015625 C1.0259375 1.94480469 0.520625 1.47945313 0 1 C0 0.67 0 0.34 0 0 Z " fill="#E8A9C0" transform="translate(108,391)"/>
<path d="M0 0 C0.99 0.33 1.98 0.66 3 1 C1.02 3.97 1.02 3.97 -1 7 C-1.66 6.01 -2.32 5.02 -3 4 C-2.01 2.68 -1.02 1.36 0 0 Z " fill="#F1A6C2" transform="translate(404,373)"/>
<path d="M0 0 C1.35439668 2.70879335 1.06501451 5.00933268 1 8 C0.01 8.33 -0.98 8.66 -2 9 C-2.125 5.625 -2.125 5.625 -2 2 C-1.34 1.34 -0.68 0.68 0 0 Z " fill="#F6AEC9" transform="translate(286,224)"/>
<path d="M0 0 C1.485 0.99 1.485 0.99 3 2 C3 2.66 3 3.32 3 4 C5.31 4.33 7.62 4.66 10 5 C10 5.33 10 5.66 10 6 C6.67179946 6.22692276 4.58198664 6.32162419 1.625 4.6875 C0 3 0 3 0 0 Z " fill="#F4AEC8" transform="translate(243,226)"/>
<path d="M0 0 C0.33 0.66 0.66 1.32 1 2 C-2.625 7.75 -2.625 7.75 -6 10 C-4.6302836 6.00499382 -2.74277578 3.19990508 0 0 Z " fill="#D57096" transform="translate(175,189)"/>
<path d="M0 0 C-5.29230769 3.07692308 -5.29230769 3.07692308 -8.875 2.6875 C-9.57625 2.460625 -10.2775 2.23375 -11 2 C-7.72338241 -1.27661759 -4.29690696 -1.43230232 0 0 Z " fill="#DD759D" transform="translate(223,131)"/>
<path d="M0 0 C1.65 0.99 3.3 1.98 5 3 C4.67 3.66 4.34 4.32 4 5 C2.35 4.67 0.7 4.34 -1 4 C-0.67 2.68 -0.34 1.36 0 0 Z " fill="#F0A9C5" transform="translate(369,89)"/>
<path d="M0 0 C0.99 0.33 1.98 0.66 3 1 C2.01 1.495 2.01 1.495 1 2 C1 2.66 1 3.32 1 4 C-1.5 5.625 -1.5 5.625 -4 7 C-2.92598892 4.08482708 -2.22189824 2.22189824 0 0 Z " fill="#F8A6C8" transform="translate(197,361)"/>
<path d="M0 0 C0.99 0.33 1.98 0.66 3 1 C2.67 1.99 2.34 2.98 2 4 C-0.64 3.67 -3.28 3.34 -6 3 C-2.25 1.875 -2.25 1.875 0 3 C0 2.01 0 1.02 0 0 Z " fill="#DF739C" transform="translate(224,338)"/>
<path d="M0 0 C2.72426311 2.35277269 3.8141763 4.62496331 5 8 C3.0625 7.375 3.0625 7.375 1 6 C0.25 2.875 0.25 2.875 0 0 Z " fill="#DB749B" transform="translate(149,304)"/>
<path d="M0 0 C0.33 0.99 0.66 1.98 1 3 C-0.9375 6.1875 -0.9375 6.1875 -3 9 C-3.66 8.67 -4.32 8.34 -5 8 C-3.35 5.36 -1.7 2.72 0 0 Z " fill="#ECA8C1" transform="translate(81,142)"/>
<path d="M0 0 C2.99324263 1.0975223 3.84610901 1.67682892 5.25 4.625 C5.4975 5.40875 5.745 6.1925 6 7 C5.34 7 4.68 7 4 7 C0 2.52941176 0 2.52941176 0 0 Z " fill="#ECABC3" transform="translate(408,129)"/>
<path d="M0 0 C1.32 0.99 2.64 1.98 4 3 C3.67 3.99 3.34 4.98 3 6 C2.34 6 1.68 6 1 6 C0.34 4.35 -0.32 2.7 -1 1 C-0.67 0.67 -0.34 0.34 0 0 Z " fill="#EEA9C5" transform="translate(379,97)"/>
</svg>
